M48
; DRILL file {KiCad 9.0.7} date 2026-02-15T20:11:10-0500
; FORMAT={-:-/ absolute / metric / decimal}
; #@! TF.CreationDate,2026-02-15T20:11:10-05:00
; #@! TF.GenerationSoftware,Kicad,Pcbnew,9.0.7
; #@! TF.FileFunction,MixedPlating,1,4
FMAT,2
METRIC
; #@! TA.AperFunction,Plated,PTH,ViaDrill
T1C0.200
; #@! TA.AperFunction,Plated,PTH,ComponentDrill
T2C0.600
; #@! TA.AperFunction,Plated,PTH,ComponentDrill
T3C1.000
; #@! TA.AperFunction,Plated,PTH,ComponentDrill
T4C1.200
; #@! TA.AperFunction,Plated,PTH,ComponentDrill
T5C1.700
%
G90
G05
T1
X189.2Y-100.15
X189.2Y-102.45
X190.2Y-99.25
X190.3Y-98.25
X190.9Y-106.15
X191.401Y-101.31
X191.95Y-98.272
X192.5Y-97.35
X192.65Y-103.25
X193.05Y-93.925
X193.15Y-100.101
X193.45Y-98.15
X193.9Y-101.55
X194.775Y-93.575
X195.9Y-109.85
X196.0Y-106.325
X197.6Y-101.95
X200.2Y-104.85
X202.4Y-104.85
X204.1Y-99.75
T2
X197.46Y-100.0
X200.0Y-97.46
X202.54Y-100.0
T3
X206.9Y-97.5
X206.9Y-100.04
X206.9Y-102.58
X209.44Y-97.5
X209.44Y-100.04
X209.44Y-102.58
T4
X200.025Y-91.95
T5
X197.485Y-89.41
X197.485Y-94.49
X202.565Y-89.41
X202.565Y-94.49
M30
