%TF.GenerationSoftware,KiCad,Pcbnew,9.0.7*%
%TF.CreationDate,2026-02-15T20:10:59-05:00*%
%TF.ProjectId,bias_generator_LT8362,62696173-5f67-4656-9e65-7261746f725f,rev?*%
%TF.SameCoordinates,Original*%
%TF.FileFunction,Legend,Top*%
%TF.FilePolarity,Positive*%
%FSLAX46Y46*%
G04 Gerber Fmt 4.6, Leading zero omitted, Abs format (unit mm)*
G04 Created by KiCad (PCBNEW 9.0.7) date 2026-02-15 20:10:59*
%MOMM*%
%LPD*%
G01*
G04 APERTURE LIST*
%ADD10C,0.300000*%
%ADD11C,0.120000*%
%ADD12C,0.100000*%
%ADD13C,0.500000*%
%ADD14C,0.150000*%
%ADD15C,0.200000*%
%ADD16C,0.175000*%
%ADD17C,0.127000*%
G04 APERTURE END LIST*
D10*
X187400000Y-119100000D02*
G75*
G02*
X187000000Y-119100000I-200000J0D01*
G01*
X187000000Y-119100000D02*
G75*
G02*
X187400000Y-119100000I200000J0D01*
G01*
D11*
X200250000Y-95025000D02*
X200550000Y-95025000D01*
D10*
X200050000Y-109350000D02*
G75*
G02*
X199650000Y-109350000I-200000J0D01*
G01*
X199650000Y-109350000D02*
G75*
G02*
X200050000Y-109350000I200000J0D01*
G01*
D11*
X197250000Y-95025000D02*
X198050000Y-95025000D01*
D12*
X184800000Y-114600000D02*
X186200000Y-114600000D01*
D11*
X201275000Y-95025000D02*
X202050000Y-95025000D01*
D13*
X190082843Y-105700000D02*
G75*
G02*
X189517157Y-105700000I-282843J0D01*
G01*
X189517157Y-105700000D02*
G75*
G02*
X190082843Y-105700000I282843J0D01*
G01*
D12*
X208066666Y-90587584D02*
X208257142Y-91120918D01*
X208257142Y-91120918D02*
X208447619Y-90587584D01*
X209171428Y-91120918D02*
X208714285Y-91120918D01*
X208942857Y-91120918D02*
X208942857Y-90320918D01*
X208942857Y-90320918D02*
X208866666Y-90435203D01*
X208866666Y-90435203D02*
X208790476Y-90511394D01*
X208790476Y-90511394D02*
X208714285Y-90549489D01*
X209857143Y-90587584D02*
X209857143Y-91120918D01*
X209666667Y-90282823D02*
X209476190Y-90854251D01*
X209476190Y-90854251D02*
X209971429Y-90854251D01*
X210619048Y-90587584D02*
X210619048Y-91120918D01*
X210428572Y-90282823D02*
X210238095Y-90854251D01*
X210238095Y-90854251D02*
X210733334Y-90854251D01*
X207819047Y-92408873D02*
X207438095Y-92408873D01*
X207438095Y-92408873D02*
X207438095Y-91608873D01*
X207971428Y-91608873D02*
X208428571Y-91608873D01*
X208199999Y-92408873D02*
X208199999Y-91608873D01*
X208809523Y-91951730D02*
X208733333Y-91913635D01*
X208733333Y-91913635D02*
X208695238Y-91875539D01*
X208695238Y-91875539D02*
X208657142Y-91799349D01*
X208657142Y-91799349D02*
X208657142Y-91761254D01*
X208657142Y-91761254D02*
X208695238Y-91685063D01*
X208695238Y-91685063D02*
X208733333Y-91646968D01*
X208733333Y-91646968D02*
X208809523Y-91608873D01*
X208809523Y-91608873D02*
X208961904Y-91608873D01*
X208961904Y-91608873D02*
X209038095Y-91646968D01*
X209038095Y-91646968D02*
X209076190Y-91685063D01*
X209076190Y-91685063D02*
X209114285Y-91761254D01*
X209114285Y-91761254D02*
X209114285Y-91799349D01*
X209114285Y-91799349D02*
X209076190Y-91875539D01*
X209076190Y-91875539D02*
X209038095Y-91913635D01*
X209038095Y-91913635D02*
X208961904Y-91951730D01*
X208961904Y-91951730D02*
X208809523Y-91951730D01*
X208809523Y-91951730D02*
X208733333Y-91989825D01*
X208733333Y-91989825D02*
X208695238Y-92027920D01*
X208695238Y-92027920D02*
X208657142Y-92104111D01*
X208657142Y-92104111D02*
X208657142Y-92256492D01*
X208657142Y-92256492D02*
X208695238Y-92332682D01*
X208695238Y-92332682D02*
X208733333Y-92370778D01*
X208733333Y-92370778D02*
X208809523Y-92408873D01*
X208809523Y-92408873D02*
X208961904Y-92408873D01*
X208961904Y-92408873D02*
X209038095Y-92370778D01*
X209038095Y-92370778D02*
X209076190Y-92332682D01*
X209076190Y-92332682D02*
X209114285Y-92256492D01*
X209114285Y-92256492D02*
X209114285Y-92104111D01*
X209114285Y-92104111D02*
X209076190Y-92027920D01*
X209076190Y-92027920D02*
X209038095Y-91989825D01*
X209038095Y-91989825D02*
X208961904Y-91951730D01*
X209380952Y-91608873D02*
X209876190Y-91608873D01*
X209876190Y-91608873D02*
X209609524Y-91913635D01*
X209609524Y-91913635D02*
X209723809Y-91913635D01*
X209723809Y-91913635D02*
X209800000Y-91951730D01*
X209800000Y-91951730D02*
X209838095Y-91989825D01*
X209838095Y-91989825D02*
X209876190Y-92066016D01*
X209876190Y-92066016D02*
X209876190Y-92256492D01*
X209876190Y-92256492D02*
X209838095Y-92332682D01*
X209838095Y-92332682D02*
X209800000Y-92370778D01*
X209800000Y-92370778D02*
X209723809Y-92408873D01*
X209723809Y-92408873D02*
X209495238Y-92408873D01*
X209495238Y-92408873D02*
X209419047Y-92370778D01*
X209419047Y-92370778D02*
X209380952Y-92332682D01*
X210561905Y-91608873D02*
X210409524Y-91608873D01*
X210409524Y-91608873D02*
X210333333Y-91646968D01*
X210333333Y-91646968D02*
X210295238Y-91685063D01*
X210295238Y-91685063D02*
X210219048Y-91799349D01*
X210219048Y-91799349D02*
X210180952Y-91951730D01*
X210180952Y-91951730D02*
X210180952Y-92256492D01*
X210180952Y-92256492D02*
X210219048Y-92332682D01*
X210219048Y-92332682D02*
X210257143Y-92370778D01*
X210257143Y-92370778D02*
X210333333Y-92408873D01*
X210333333Y-92408873D02*
X210485714Y-92408873D01*
X210485714Y-92408873D02*
X210561905Y-92370778D01*
X210561905Y-92370778D02*
X210600000Y-92332682D01*
X210600000Y-92332682D02*
X210638095Y-92256492D01*
X210638095Y-92256492D02*
X210638095Y-92066016D01*
X210638095Y-92066016D02*
X210600000Y-91989825D01*
X210600000Y-91989825D02*
X210561905Y-91951730D01*
X210561905Y-91951730D02*
X210485714Y-91913635D01*
X210485714Y-91913635D02*
X210333333Y-91913635D01*
X210333333Y-91913635D02*
X210257143Y-91951730D01*
X210257143Y-91951730D02*
X210219048Y-91989825D01*
X210219048Y-91989825D02*
X210180952Y-92066016D01*
X210904762Y-91608873D02*
X211438096Y-92408873D01*
X211438096Y-91608873D02*
X210904762Y-92408873D01*
D14*
X196155826Y-117447342D02*
X196098684Y-117418771D01*
X196098684Y-117418771D02*
X196012969Y-117418771D01*
X196012969Y-117418771D02*
X195927255Y-117447342D01*
X195927255Y-117447342D02*
X195870112Y-117504485D01*
X195870112Y-117504485D02*
X195841541Y-117561628D01*
X195841541Y-117561628D02*
X195812969Y-117675914D01*
X195812969Y-117675914D02*
X195812969Y-117761628D01*
X195812969Y-117761628D02*
X195841541Y-117875914D01*
X195841541Y-117875914D02*
X195870112Y-117933057D01*
X195870112Y-117933057D02*
X195927255Y-117990200D01*
X195927255Y-117990200D02*
X196012969Y-118018771D01*
X196012969Y-118018771D02*
X196070112Y-118018771D01*
X196070112Y-118018771D02*
X196155826Y-117990200D01*
X196155826Y-117990200D02*
X196184398Y-117961628D01*
X196184398Y-117961628D02*
X196184398Y-117761628D01*
X196184398Y-117761628D02*
X196070112Y-117761628D01*
X196441541Y-118018771D02*
X196441541Y-117418771D01*
X196441541Y-117418771D02*
X196784398Y-118018771D01*
X196784398Y-118018771D02*
X196784398Y-117418771D01*
X197070112Y-118018771D02*
X197070112Y-117418771D01*
X197070112Y-117418771D02*
X197212969Y-117418771D01*
X197212969Y-117418771D02*
X197298683Y-117447342D01*
X197298683Y-117447342D02*
X197355826Y-117504485D01*
X197355826Y-117504485D02*
X197384397Y-117561628D01*
X197384397Y-117561628D02*
X197412969Y-117675914D01*
X197412969Y-117675914D02*
X197412969Y-117761628D01*
X197412969Y-117761628D02*
X197384397Y-117875914D01*
X197384397Y-117875914D02*
X197355826Y-117933057D01*
X197355826Y-117933057D02*
X197298683Y-117990200D01*
X197298683Y-117990200D02*
X197212969Y-118018771D01*
X197212969Y-118018771D02*
X197070112Y-118018771D01*
X209172000Y-95981200D02*
X209629143Y-95981200D01*
X210172000Y-95809771D02*
X210172000Y-96209771D01*
X210029142Y-95581200D02*
X209886285Y-96009771D01*
X209886285Y-96009771D02*
X210257714Y-96009771D01*
X210486286Y-96152628D02*
X210514857Y-96181200D01*
X210514857Y-96181200D02*
X210486286Y-96209771D01*
X210486286Y-96209771D02*
X210457714Y-96181200D01*
X210457714Y-96181200D02*
X210486286Y-96152628D01*
X210486286Y-96152628D02*
X210486286Y-96209771D01*
X211057714Y-95609771D02*
X210772000Y-95609771D01*
X210772000Y-95609771D02*
X210743428Y-95895485D01*
X210743428Y-95895485D02*
X210772000Y-95866914D01*
X210772000Y-95866914D02*
X210829143Y-95838342D01*
X210829143Y-95838342D02*
X210972000Y-95838342D01*
X210972000Y-95838342D02*
X211029143Y-95866914D01*
X211029143Y-95866914D02*
X211057714Y-95895485D01*
X211057714Y-95895485D02*
X211086285Y-95952628D01*
X211086285Y-95952628D02*
X211086285Y-96095485D01*
X211086285Y-96095485D02*
X211057714Y-96152628D01*
X211057714Y-96152628D02*
X211029143Y-96181200D01*
X211029143Y-96181200D02*
X210972000Y-96209771D01*
X210972000Y-96209771D02*
X210829143Y-96209771D01*
X210829143Y-96209771D02*
X210772000Y-96181200D01*
X210772000Y-96181200D02*
X210743428Y-96152628D01*
X211257714Y-95609771D02*
X211457714Y-96209771D01*
X211457714Y-96209771D02*
X211657714Y-95609771D01*
X203400000Y-100341200D02*
X203857143Y-100341200D01*
X203628571Y-100569771D02*
X203628571Y-100112628D01*
X204085714Y-99969771D02*
X204457142Y-99969771D01*
X204457142Y-99969771D02*
X204257142Y-100198342D01*
X204257142Y-100198342D02*
X204342857Y-100198342D01*
X204342857Y-100198342D02*
X204400000Y-100226914D01*
X204400000Y-100226914D02*
X204428571Y-100255485D01*
X204428571Y-100255485D02*
X204457142Y-100312628D01*
X204457142Y-100312628D02*
X204457142Y-100455485D01*
X204457142Y-100455485D02*
X204428571Y-100512628D01*
X204428571Y-100512628D02*
X204400000Y-100541200D01*
X204400000Y-100541200D02*
X204342857Y-100569771D01*
X204342857Y-100569771D02*
X204171428Y-100569771D01*
X204171428Y-100569771D02*
X204114285Y-100541200D01*
X204114285Y-100541200D02*
X204085714Y-100512628D01*
X204714286Y-100512628D02*
X204742857Y-100541200D01*
X204742857Y-100541200D02*
X204714286Y-100569771D01*
X204714286Y-100569771D02*
X204685714Y-100541200D01*
X204685714Y-100541200D02*
X204714286Y-100512628D01*
X204714286Y-100512628D02*
X204714286Y-100569771D01*
X204942857Y-99969771D02*
X205314285Y-99969771D01*
X205314285Y-99969771D02*
X205114285Y-100198342D01*
X205114285Y-100198342D02*
X205200000Y-100198342D01*
X205200000Y-100198342D02*
X205257143Y-100226914D01*
X205257143Y-100226914D02*
X205285714Y-100255485D01*
X205285714Y-100255485D02*
X205314285Y-100312628D01*
X205314285Y-100312628D02*
X205314285Y-100455485D01*
X205314285Y-100455485D02*
X205285714Y-100512628D01*
X205285714Y-100512628D02*
X205257143Y-100541200D01*
X205257143Y-100541200D02*
X205200000Y-100569771D01*
X205200000Y-100569771D02*
X205028571Y-100569771D01*
X205028571Y-100569771D02*
X204971428Y-100541200D01*
X204971428Y-100541200D02*
X204942857Y-100512628D01*
X205485714Y-99969771D02*
X205685714Y-100569771D01*
X205685714Y-100569771D02*
X205885714Y-99969771D01*
X210364857Y-104988342D02*
X210307715Y-104959771D01*
X210307715Y-104959771D02*
X210222000Y-104959771D01*
X210222000Y-104959771D02*
X210136286Y-104988342D01*
X210136286Y-104988342D02*
X210079143Y-105045485D01*
X210079143Y-105045485D02*
X210050572Y-105102628D01*
X210050572Y-105102628D02*
X210022000Y-105216914D01*
X210022000Y-105216914D02*
X210022000Y-105302628D01*
X210022000Y-105302628D02*
X210050572Y-105416914D01*
X210050572Y-105416914D02*
X210079143Y-105474057D01*
X210079143Y-105474057D02*
X210136286Y-105531200D01*
X210136286Y-105531200D02*
X210222000Y-105559771D01*
X210222000Y-105559771D02*
X210279143Y-105559771D01*
X210279143Y-105559771D02*
X210364857Y-105531200D01*
X210364857Y-105531200D02*
X210393429Y-105502628D01*
X210393429Y-105502628D02*
X210393429Y-105302628D01*
X210393429Y-105302628D02*
X210279143Y-105302628D01*
X210650572Y-105559771D02*
X210650572Y-104959771D01*
X210650572Y-104959771D02*
X210993429Y-105559771D01*
X210993429Y-105559771D02*
X210993429Y-104959771D01*
X211279143Y-105559771D02*
X211279143Y-104959771D01*
X211279143Y-104959771D02*
X211422000Y-104959771D01*
X211422000Y-104959771D02*
X211507714Y-104988342D01*
X211507714Y-104988342D02*
X211564857Y-105045485D01*
X211564857Y-105045485D02*
X211593428Y-105102628D01*
X211593428Y-105102628D02*
X211622000Y-105216914D01*
X211622000Y-105216914D02*
X211622000Y-105302628D01*
X211622000Y-105302628D02*
X211593428Y-105416914D01*
X211593428Y-105416914D02*
X211564857Y-105474057D01*
X211564857Y-105474057D02*
X211507714Y-105531200D01*
X211507714Y-105531200D02*
X211422000Y-105559771D01*
X211422000Y-105559771D02*
X211279143Y-105559771D01*
X206585715Y-105180485D02*
X206671429Y-105209057D01*
X206671429Y-105209057D02*
X206700000Y-105237628D01*
X206700000Y-105237628D02*
X206728572Y-105294771D01*
X206728572Y-105294771D02*
X206728572Y-105380485D01*
X206728572Y-105380485D02*
X206700000Y-105437628D01*
X206700000Y-105437628D02*
X206671429Y-105466200D01*
X206671429Y-105466200D02*
X206614286Y-105494771D01*
X206614286Y-105494771D02*
X206385715Y-105494771D01*
X206385715Y-105494771D02*
X206385715Y-104894771D01*
X206385715Y-104894771D02*
X206585715Y-104894771D01*
X206585715Y-104894771D02*
X206642858Y-104923342D01*
X206642858Y-104923342D02*
X206671429Y-104951914D01*
X206671429Y-104951914D02*
X206700000Y-105009057D01*
X206700000Y-105009057D02*
X206700000Y-105066200D01*
X206700000Y-105066200D02*
X206671429Y-105123342D01*
X206671429Y-105123342D02*
X206642858Y-105151914D01*
X206642858Y-105151914D02*
X206585715Y-105180485D01*
X206585715Y-105180485D02*
X206385715Y-105180485D01*
X206985715Y-105494771D02*
X206985715Y-105094771D01*
X206985715Y-104894771D02*
X206957143Y-104923342D01*
X206957143Y-104923342D02*
X206985715Y-104951914D01*
X206985715Y-104951914D02*
X207014286Y-104923342D01*
X207014286Y-104923342D02*
X206985715Y-104894771D01*
X206985715Y-104894771D02*
X206985715Y-104951914D01*
X207528572Y-105494771D02*
X207528572Y-105180485D01*
X207528572Y-105180485D02*
X207500000Y-105123342D01*
X207500000Y-105123342D02*
X207442857Y-105094771D01*
X207442857Y-105094771D02*
X207328572Y-105094771D01*
X207328572Y-105094771D02*
X207271429Y-105123342D01*
X207528572Y-105466200D02*
X207471429Y-105494771D01*
X207471429Y-105494771D02*
X207328572Y-105494771D01*
X207328572Y-105494771D02*
X207271429Y-105466200D01*
X207271429Y-105466200D02*
X207242857Y-105409057D01*
X207242857Y-105409057D02*
X207242857Y-105351914D01*
X207242857Y-105351914D02*
X207271429Y-105294771D01*
X207271429Y-105294771D02*
X207328572Y-105266200D01*
X207328572Y-105266200D02*
X207471429Y-105266200D01*
X207471429Y-105266200D02*
X207528572Y-105237628D01*
X207785714Y-105466200D02*
X207842857Y-105494771D01*
X207842857Y-105494771D02*
X207957143Y-105494771D01*
X207957143Y-105494771D02*
X208014286Y-105466200D01*
X208014286Y-105466200D02*
X208042857Y-105409057D01*
X208042857Y-105409057D02*
X208042857Y-105380485D01*
X208042857Y-105380485D02*
X208014286Y-105323342D01*
X208014286Y-105323342D02*
X207957143Y-105294771D01*
X207957143Y-105294771D02*
X207871429Y-105294771D01*
X207871429Y-105294771D02*
X207814286Y-105266200D01*
X207814286Y-105266200D02*
X207785714Y-105209057D01*
X207785714Y-105209057D02*
X207785714Y-105180485D01*
X207785714Y-105180485D02*
X207814286Y-105123342D01*
X207814286Y-105123342D02*
X207871429Y-105094771D01*
X207871429Y-105094771D02*
X207957143Y-105094771D01*
X207957143Y-105094771D02*
X208014286Y-105123342D01*
D15*
X203576762Y-91239628D02*
X203719619Y-91287247D01*
X203719619Y-91287247D02*
X203957714Y-91287247D01*
X203957714Y-91287247D02*
X204052952Y-91239628D01*
X204052952Y-91239628D02*
X204100571Y-91192008D01*
X204100571Y-91192008D02*
X204148190Y-91096770D01*
X204148190Y-91096770D02*
X204148190Y-91001532D01*
X204148190Y-91001532D02*
X204100571Y-90906294D01*
X204100571Y-90906294D02*
X204052952Y-90858675D01*
X204052952Y-90858675D02*
X203957714Y-90811056D01*
X203957714Y-90811056D02*
X203767238Y-90763437D01*
X203767238Y-90763437D02*
X203672000Y-90715818D01*
X203672000Y-90715818D02*
X203624381Y-90668199D01*
X203624381Y-90668199D02*
X203576762Y-90572961D01*
X203576762Y-90572961D02*
X203576762Y-90477723D01*
X203576762Y-90477723D02*
X203624381Y-90382485D01*
X203624381Y-90382485D02*
X203672000Y-90334866D01*
X203672000Y-90334866D02*
X203767238Y-90287247D01*
X203767238Y-90287247D02*
X204005333Y-90287247D01*
X204005333Y-90287247D02*
X204148190Y-90334866D01*
X204576762Y-91287247D02*
X204576762Y-90620580D01*
X204576762Y-90287247D02*
X204529143Y-90334866D01*
X204529143Y-90334866D02*
X204576762Y-90382485D01*
X204576762Y-90382485D02*
X204624381Y-90334866D01*
X204624381Y-90334866D02*
X204576762Y-90287247D01*
X204576762Y-90287247D02*
X204576762Y-90382485D01*
X205052952Y-91287247D02*
X205052952Y-90287247D01*
X205052952Y-90287247D02*
X205433904Y-90287247D01*
X205433904Y-90287247D02*
X205529142Y-90334866D01*
X205529142Y-90334866D02*
X205576761Y-90382485D01*
X205576761Y-90382485D02*
X205624380Y-90477723D01*
X205624380Y-90477723D02*
X205624380Y-90620580D01*
X205624380Y-90620580D02*
X205576761Y-90715818D01*
X205576761Y-90715818D02*
X205529142Y-90763437D01*
X205529142Y-90763437D02*
X205433904Y-90811056D01*
X205433904Y-90811056D02*
X205052952Y-90811056D01*
X206052952Y-91287247D02*
X206052952Y-90287247D01*
X206052952Y-90287247D02*
X206386285Y-91001532D01*
X206386285Y-91001532D02*
X206719618Y-90287247D01*
X206719618Y-90287247D02*
X206719618Y-91287247D01*
X204148190Y-92373381D02*
X204291047Y-92421000D01*
X204291047Y-92421000D02*
X204338666Y-92468619D01*
X204338666Y-92468619D02*
X204386285Y-92563857D01*
X204386285Y-92563857D02*
X204386285Y-92706714D01*
X204386285Y-92706714D02*
X204338666Y-92801952D01*
X204338666Y-92801952D02*
X204291047Y-92849572D01*
X204291047Y-92849572D02*
X204195809Y-92897191D01*
X204195809Y-92897191D02*
X203814857Y-92897191D01*
X203814857Y-92897191D02*
X203814857Y-91897191D01*
X203814857Y-91897191D02*
X204148190Y-91897191D01*
X204148190Y-91897191D02*
X204243428Y-91944810D01*
X204243428Y-91944810D02*
X204291047Y-91992429D01*
X204291047Y-91992429D02*
X204338666Y-92087667D01*
X204338666Y-92087667D02*
X204338666Y-92182905D01*
X204338666Y-92182905D02*
X204291047Y-92278143D01*
X204291047Y-92278143D02*
X204243428Y-92325762D01*
X204243428Y-92325762D02*
X204148190Y-92373381D01*
X204148190Y-92373381D02*
X203814857Y-92373381D01*
X204814857Y-92897191D02*
X204814857Y-92230524D01*
X204814857Y-91897191D02*
X204767238Y-91944810D01*
X204767238Y-91944810D02*
X204814857Y-91992429D01*
X204814857Y-91992429D02*
X204862476Y-91944810D01*
X204862476Y-91944810D02*
X204814857Y-91897191D01*
X204814857Y-91897191D02*
X204814857Y-91992429D01*
X205719618Y-92897191D02*
X205719618Y-92373381D01*
X205719618Y-92373381D02*
X205671999Y-92278143D01*
X205671999Y-92278143D02*
X205576761Y-92230524D01*
X205576761Y-92230524D02*
X205386285Y-92230524D01*
X205386285Y-92230524D02*
X205291047Y-92278143D01*
X205719618Y-92849572D02*
X205624380Y-92897191D01*
X205624380Y-92897191D02*
X205386285Y-92897191D01*
X205386285Y-92897191D02*
X205291047Y-92849572D01*
X205291047Y-92849572D02*
X205243428Y-92754333D01*
X205243428Y-92754333D02*
X205243428Y-92659095D01*
X205243428Y-92659095D02*
X205291047Y-92563857D01*
X205291047Y-92563857D02*
X205386285Y-92516238D01*
X205386285Y-92516238D02*
X205624380Y-92516238D01*
X205624380Y-92516238D02*
X205719618Y-92468619D01*
X206148190Y-92849572D02*
X206243428Y-92897191D01*
X206243428Y-92897191D02*
X206433904Y-92897191D01*
X206433904Y-92897191D02*
X206529142Y-92849572D01*
X206529142Y-92849572D02*
X206576761Y-92754333D01*
X206576761Y-92754333D02*
X206576761Y-92706714D01*
X206576761Y-92706714D02*
X206529142Y-92611476D01*
X206529142Y-92611476D02*
X206433904Y-92563857D01*
X206433904Y-92563857D02*
X206291047Y-92563857D01*
X206291047Y-92563857D02*
X206195809Y-92516238D01*
X206195809Y-92516238D02*
X206148190Y-92421000D01*
X206148190Y-92421000D02*
X206148190Y-92373381D01*
X206148190Y-92373381D02*
X206195809Y-92278143D01*
X206195809Y-92278143D02*
X206291047Y-92230524D01*
X206291047Y-92230524D02*
X206433904Y-92230524D01*
X206433904Y-92230524D02*
X206529142Y-92278143D01*
D14*
X211581971Y-101858628D02*
X211581971Y-101744342D01*
X211581971Y-101744342D02*
X211610542Y-101687199D01*
X211610542Y-101687199D02*
X211667685Y-101630056D01*
X211667685Y-101630056D02*
X211781971Y-101601485D01*
X211781971Y-101601485D02*
X211981971Y-101601485D01*
X211981971Y-101601485D02*
X212096257Y-101630056D01*
X212096257Y-101630056D02*
X212153400Y-101687199D01*
X212153400Y-101687199D02*
X212181971Y-101744342D01*
X212181971Y-101744342D02*
X212181971Y-101858628D01*
X212181971Y-101858628D02*
X212153400Y-101915771D01*
X212153400Y-101915771D02*
X212096257Y-101972913D01*
X212096257Y-101972913D02*
X211981971Y-102001485D01*
X211981971Y-102001485D02*
X211781971Y-102001485D01*
X211781971Y-102001485D02*
X211667685Y-101972913D01*
X211667685Y-101972913D02*
X211610542Y-101915771D01*
X211610542Y-101915771D02*
X211581971Y-101858628D01*
X211781971Y-101430057D02*
X211781971Y-101201485D01*
X212181971Y-101344342D02*
X211667685Y-101344342D01*
X211667685Y-101344342D02*
X211610542Y-101315771D01*
X211610542Y-101315771D02*
X211581971Y-101258628D01*
X211581971Y-101258628D02*
X211581971Y-101201485D01*
X211781971Y-101087200D02*
X211781971Y-100858628D01*
X212181971Y-101001485D02*
X211667685Y-101001485D01*
X211667685Y-101001485D02*
X211610542Y-100972914D01*
X211610542Y-100972914D02*
X211581971Y-100915771D01*
X211581971Y-100915771D02*
X211581971Y-100858628D01*
X212153400Y-100687200D02*
X212181971Y-100630057D01*
X212181971Y-100630057D02*
X212181971Y-100515771D01*
X212181971Y-100515771D02*
X212153400Y-100458628D01*
X212153400Y-100458628D02*
X212096257Y-100430057D01*
X212096257Y-100430057D02*
X212067685Y-100430057D01*
X212067685Y-100430057D02*
X212010542Y-100458628D01*
X212010542Y-100458628D02*
X211981971Y-100515771D01*
X211981971Y-100515771D02*
X211981971Y-100601486D01*
X211981971Y-100601486D02*
X211953400Y-100658628D01*
X211953400Y-100658628D02*
X211896257Y-100687200D01*
X211896257Y-100687200D02*
X211867685Y-100687200D01*
X211867685Y-100687200D02*
X211810542Y-100658628D01*
X211810542Y-100658628D02*
X211781971Y-100601486D01*
X211781971Y-100601486D02*
X211781971Y-100515771D01*
X211781971Y-100515771D02*
X211810542Y-100458628D01*
X212153400Y-99944343D02*
X212181971Y-100001486D01*
X212181971Y-100001486D02*
X212181971Y-100115772D01*
X212181971Y-100115772D02*
X212153400Y-100172914D01*
X212153400Y-100172914D02*
X212096257Y-100201486D01*
X212096257Y-100201486D02*
X211867685Y-100201486D01*
X211867685Y-100201486D02*
X211810542Y-100172914D01*
X211810542Y-100172914D02*
X211781971Y-100115772D01*
X211781971Y-100115772D02*
X211781971Y-100001486D01*
X211781971Y-100001486D02*
X211810542Y-99944343D01*
X211810542Y-99944343D02*
X211867685Y-99915772D01*
X211867685Y-99915772D02*
X211924828Y-99915772D01*
X211924828Y-99915772D02*
X211981971Y-100201486D01*
X211781971Y-99744343D02*
X211781971Y-99515771D01*
X211581971Y-99658628D02*
X212096257Y-99658628D01*
X212096257Y-99658628D02*
X212153400Y-99630057D01*
X212153400Y-99630057D02*
X212181971Y-99572914D01*
X212181971Y-99572914D02*
X212181971Y-99515771D01*
X205800000Y-95659771D02*
X205800000Y-96145485D01*
X205800000Y-96145485D02*
X205828571Y-96202628D01*
X205828571Y-96202628D02*
X205857143Y-96231200D01*
X205857143Y-96231200D02*
X205914285Y-96259771D01*
X205914285Y-96259771D02*
X206028571Y-96259771D01*
X206028571Y-96259771D02*
X206085714Y-96231200D01*
X206085714Y-96231200D02*
X206114285Y-96202628D01*
X206114285Y-96202628D02*
X206142857Y-96145485D01*
X206142857Y-96145485D02*
X206142857Y-95659771D01*
X206399999Y-96231200D02*
X206485714Y-96259771D01*
X206485714Y-96259771D02*
X206628571Y-96259771D01*
X206628571Y-96259771D02*
X206685714Y-96231200D01*
X206685714Y-96231200D02*
X206714285Y-96202628D01*
X206714285Y-96202628D02*
X206742856Y-96145485D01*
X206742856Y-96145485D02*
X206742856Y-96088342D01*
X206742856Y-96088342D02*
X206714285Y-96031200D01*
X206714285Y-96031200D02*
X206685714Y-96002628D01*
X206685714Y-96002628D02*
X206628571Y-95974057D01*
X206628571Y-95974057D02*
X206514285Y-95945485D01*
X206514285Y-95945485D02*
X206457142Y-95916914D01*
X206457142Y-95916914D02*
X206428571Y-95888342D01*
X206428571Y-95888342D02*
X206399999Y-95831200D01*
X206399999Y-95831200D02*
X206399999Y-95774057D01*
X206399999Y-95774057D02*
X206428571Y-95716914D01*
X206428571Y-95716914D02*
X206457142Y-95688342D01*
X206457142Y-95688342D02*
X206514285Y-95659771D01*
X206514285Y-95659771D02*
X206657142Y-95659771D01*
X206657142Y-95659771D02*
X206742856Y-95688342D01*
X207200000Y-95945485D02*
X207285714Y-95974057D01*
X207285714Y-95974057D02*
X207314285Y-96002628D01*
X207314285Y-96002628D02*
X207342857Y-96059771D01*
X207342857Y-96059771D02*
X207342857Y-96145485D01*
X207342857Y-96145485D02*
X207314285Y-96202628D01*
X207314285Y-96202628D02*
X207285714Y-96231200D01*
X207285714Y-96231200D02*
X207228571Y-96259771D01*
X207228571Y-96259771D02*
X207000000Y-96259771D01*
X207000000Y-96259771D02*
X207000000Y-95659771D01*
X207000000Y-95659771D02*
X207200000Y-95659771D01*
X207200000Y-95659771D02*
X207257143Y-95688342D01*
X207257143Y-95688342D02*
X207285714Y-95716914D01*
X207285714Y-95716914D02*
X207314285Y-95774057D01*
X207314285Y-95774057D02*
X207314285Y-95831200D01*
X207314285Y-95831200D02*
X207285714Y-95888342D01*
X207285714Y-95888342D02*
X207257143Y-95916914D01*
X207257143Y-95916914D02*
X207200000Y-95945485D01*
X207200000Y-95945485D02*
X207000000Y-95945485D01*
X207885714Y-95659771D02*
X207600000Y-95659771D01*
X207600000Y-95659771D02*
X207571428Y-95945485D01*
X207571428Y-95945485D02*
X207600000Y-95916914D01*
X207600000Y-95916914D02*
X207657143Y-95888342D01*
X207657143Y-95888342D02*
X207800000Y-95888342D01*
X207800000Y-95888342D02*
X207857143Y-95916914D01*
X207857143Y-95916914D02*
X207885714Y-95945485D01*
X207885714Y-95945485D02*
X207914285Y-96002628D01*
X207914285Y-96002628D02*
X207914285Y-96145485D01*
X207914285Y-96145485D02*
X207885714Y-96202628D01*
X207885714Y-96202628D02*
X207857143Y-96231200D01*
X207857143Y-96231200D02*
X207800000Y-96259771D01*
X207800000Y-96259771D02*
X207657143Y-96259771D01*
X207657143Y-96259771D02*
X207600000Y-96231200D01*
X207600000Y-96231200D02*
X207571428Y-96202628D01*
X208085714Y-95659771D02*
X208285714Y-96259771D01*
X208285714Y-96259771D02*
X208485714Y-95659771D01*
X201239285Y-118569771D02*
X201039285Y-118284057D01*
X200896428Y-118569771D02*
X200896428Y-117969771D01*
X200896428Y-117969771D02*
X201124999Y-117969771D01*
X201124999Y-117969771D02*
X201182142Y-117998342D01*
X201182142Y-117998342D02*
X201210713Y-118026914D01*
X201210713Y-118026914D02*
X201239285Y-118084057D01*
X201239285Y-118084057D02*
X201239285Y-118169771D01*
X201239285Y-118169771D02*
X201210713Y-118226914D01*
X201210713Y-118226914D02*
X201182142Y-118255485D01*
X201182142Y-118255485D02*
X201124999Y-118284057D01*
X201124999Y-118284057D02*
X200896428Y-118284057D01*
X201410713Y-117969771D02*
X201753571Y-117969771D01*
X201582142Y-118569771D02*
X201582142Y-117969771D01*
X201982142Y-118569771D02*
X202096428Y-118569771D01*
X202096428Y-118569771D02*
X202153571Y-118541200D01*
X202153571Y-118541200D02*
X202182142Y-118512628D01*
X202182142Y-118512628D02*
X202239285Y-118426914D01*
X202239285Y-118426914D02*
X202267856Y-118312628D01*
X202267856Y-118312628D02*
X202267856Y-118084057D01*
X202267856Y-118084057D02*
X202239285Y-118026914D01*
X202239285Y-118026914D02*
X202210714Y-117998342D01*
X202210714Y-117998342D02*
X202153571Y-117969771D01*
X202153571Y-117969771D02*
X202039285Y-117969771D01*
X202039285Y-117969771D02*
X201982142Y-117998342D01*
X201982142Y-117998342D02*
X201953571Y-118026914D01*
X201953571Y-118026914D02*
X201924999Y-118084057D01*
X201924999Y-118084057D02*
X201924999Y-118226914D01*
X201924999Y-118226914D02*
X201953571Y-118284057D01*
X201953571Y-118284057D02*
X201982142Y-118312628D01*
X201982142Y-118312628D02*
X202039285Y-118341200D01*
X202039285Y-118341200D02*
X202153571Y-118341200D01*
X202153571Y-118341200D02*
X202210714Y-118312628D01*
X202210714Y-118312628D02*
X202239285Y-118284057D01*
X202239285Y-118284057D02*
X202267856Y-118226914D01*
X202639285Y-117969771D02*
X202696428Y-117969771D01*
X202696428Y-117969771D02*
X202753571Y-117998342D01*
X202753571Y-117998342D02*
X202782143Y-118026914D01*
X202782143Y-118026914D02*
X202810714Y-118084057D01*
X202810714Y-118084057D02*
X202839285Y-118198342D01*
X202839285Y-118198342D02*
X202839285Y-118341200D01*
X202839285Y-118341200D02*
X202810714Y-118455485D01*
X202810714Y-118455485D02*
X202782143Y-118512628D01*
X202782143Y-118512628D02*
X202753571Y-118541200D01*
X202753571Y-118541200D02*
X202696428Y-118569771D01*
X202696428Y-118569771D02*
X202639285Y-118569771D01*
X202639285Y-118569771D02*
X202582143Y-118541200D01*
X202582143Y-118541200D02*
X202553571Y-118512628D01*
X202553571Y-118512628D02*
X202525000Y-118455485D01*
X202525000Y-118455485D02*
X202496428Y-118341200D01*
X202496428Y-118341200D02*
X202496428Y-118198342D01*
X202496428Y-118198342D02*
X202525000Y-118084057D01*
X202525000Y-118084057D02*
X202553571Y-118026914D01*
X202553571Y-118026914D02*
X202582143Y-117998342D01*
X202582143Y-117998342D02*
X202639285Y-117969771D01*
X203039286Y-117969771D02*
X203439286Y-117969771D01*
X203439286Y-117969771D02*
X203182143Y-118569771D01*
X203639286Y-118026914D02*
X203667858Y-117998342D01*
X203667858Y-117998342D02*
X203725001Y-117969771D01*
X203725001Y-117969771D02*
X203867858Y-117969771D01*
X203867858Y-117969771D02*
X203925001Y-117998342D01*
X203925001Y-117998342D02*
X203953572Y-118026914D01*
X203953572Y-118026914D02*
X203982143Y-118084057D01*
X203982143Y-118084057D02*
X203982143Y-118141200D01*
X203982143Y-118141200D02*
X203953572Y-118226914D01*
X203953572Y-118226914D02*
X203610715Y-118569771D01*
X203610715Y-118569771D02*
X203982143Y-118569771D01*
X204439287Y-118255485D02*
X204525001Y-118284057D01*
X204525001Y-118284057D02*
X204553572Y-118312628D01*
X204553572Y-118312628D02*
X204582144Y-118369771D01*
X204582144Y-118369771D02*
X204582144Y-118455485D01*
X204582144Y-118455485D02*
X204553572Y-118512628D01*
X204553572Y-118512628D02*
X204525001Y-118541200D01*
X204525001Y-118541200D02*
X204467858Y-118569771D01*
X204467858Y-118569771D02*
X204239287Y-118569771D01*
X204239287Y-118569771D02*
X204239287Y-117969771D01*
X204239287Y-117969771D02*
X204439287Y-117969771D01*
X204439287Y-117969771D02*
X204496430Y-117998342D01*
X204496430Y-117998342D02*
X204525001Y-118026914D01*
X204525001Y-118026914D02*
X204553572Y-118084057D01*
X204553572Y-118084057D02*
X204553572Y-118141200D01*
X204553572Y-118141200D02*
X204525001Y-118198342D01*
X204525001Y-118198342D02*
X204496430Y-118226914D01*
X204496430Y-118226914D02*
X204439287Y-118255485D01*
X204439287Y-118255485D02*
X204239287Y-118255485D01*
X187358333Y-109966033D02*
X187125000Y-109632700D01*
X186958333Y-109966033D02*
X186958333Y-109266033D01*
X186958333Y-109266033D02*
X187225000Y-109266033D01*
X187225000Y-109266033D02*
X187291667Y-109299366D01*
X187291667Y-109299366D02*
X187325000Y-109332700D01*
X187325000Y-109332700D02*
X187358333Y-109399366D01*
X187358333Y-109399366D02*
X187358333Y-109499366D01*
X187358333Y-109499366D02*
X187325000Y-109566033D01*
X187325000Y-109566033D02*
X187291667Y-109599366D01*
X187291667Y-109599366D02*
X187225000Y-109632700D01*
X187225000Y-109632700D02*
X186958333Y-109632700D01*
X187958333Y-109266033D02*
X187825000Y-109266033D01*
X187825000Y-109266033D02*
X187758333Y-109299366D01*
X187758333Y-109299366D02*
X187725000Y-109332700D01*
X187725000Y-109332700D02*
X187658333Y-109432700D01*
X187658333Y-109432700D02*
X187625000Y-109566033D01*
X187625000Y-109566033D02*
X187625000Y-109832700D01*
X187625000Y-109832700D02*
X187658333Y-109899366D01*
X187658333Y-109899366D02*
X187691667Y-109932700D01*
X187691667Y-109932700D02*
X187758333Y-109966033D01*
X187758333Y-109966033D02*
X187891667Y-109966033D01*
X187891667Y-109966033D02*
X187958333Y-109932700D01*
X187958333Y-109932700D02*
X187991667Y-109899366D01*
X187991667Y-109899366D02*
X188025000Y-109832700D01*
X188025000Y-109832700D02*
X188025000Y-109666033D01*
X188025000Y-109666033D02*
X187991667Y-109599366D01*
X187991667Y-109599366D02*
X187958333Y-109566033D01*
X187958333Y-109566033D02*
X187891667Y-109532700D01*
X187891667Y-109532700D02*
X187758333Y-109532700D01*
X187758333Y-109532700D02*
X187691667Y-109566033D01*
X187691667Y-109566033D02*
X187658333Y-109599366D01*
X187658333Y-109599366D02*
X187625000Y-109666033D01*
X192949999Y-114366033D02*
X192716666Y-114032700D01*
X192549999Y-114366033D02*
X192549999Y-113666033D01*
X192549999Y-113666033D02*
X192816666Y-113666033D01*
X192816666Y-113666033D02*
X192883333Y-113699366D01*
X192883333Y-113699366D02*
X192916666Y-113732700D01*
X192916666Y-113732700D02*
X192949999Y-113799366D01*
X192949999Y-113799366D02*
X192949999Y-113899366D01*
X192949999Y-113899366D02*
X192916666Y-113966033D01*
X192916666Y-113966033D02*
X192883333Y-113999366D01*
X192883333Y-113999366D02*
X192816666Y-114032700D01*
X192816666Y-114032700D02*
X192549999Y-114032700D01*
X193616666Y-114366033D02*
X193216666Y-114366033D01*
X193416666Y-114366033D02*
X193416666Y-113666033D01*
X193416666Y-113666033D02*
X193349999Y-113766033D01*
X193349999Y-113766033D02*
X193283333Y-113832700D01*
X193283333Y-113832700D02*
X193216666Y-113866033D01*
X194050000Y-113666033D02*
X194116666Y-113666033D01*
X194116666Y-113666033D02*
X194183333Y-113699366D01*
X194183333Y-113699366D02*
X194216666Y-113732700D01*
X194216666Y-113732700D02*
X194250000Y-113799366D01*
X194250000Y-113799366D02*
X194283333Y-113932700D01*
X194283333Y-113932700D02*
X194283333Y-114099366D01*
X194283333Y-114099366D02*
X194250000Y-114232700D01*
X194250000Y-114232700D02*
X194216666Y-114299366D01*
X194216666Y-114299366D02*
X194183333Y-114332700D01*
X194183333Y-114332700D02*
X194116666Y-114366033D01*
X194116666Y-114366033D02*
X194050000Y-114366033D01*
X194050000Y-114366033D02*
X193983333Y-114332700D01*
X193983333Y-114332700D02*
X193950000Y-114299366D01*
X193950000Y-114299366D02*
X193916666Y-114232700D01*
X193916666Y-114232700D02*
X193883333Y-114099366D01*
X193883333Y-114099366D02*
X193883333Y-113932700D01*
X193883333Y-113932700D02*
X193916666Y-113799366D01*
X193916666Y-113799366D02*
X193950000Y-113732700D01*
X193950000Y-113732700D02*
X193983333Y-113699366D01*
X193983333Y-113699366D02*
X194050000Y-113666033D01*
X187333333Y-111491033D02*
X187100000Y-111157700D01*
X186933333Y-111491033D02*
X186933333Y-110791033D01*
X186933333Y-110791033D02*
X187200000Y-110791033D01*
X187200000Y-110791033D02*
X187266667Y-110824366D01*
X187266667Y-110824366D02*
X187300000Y-110857700D01*
X187300000Y-110857700D02*
X187333333Y-110924366D01*
X187333333Y-110924366D02*
X187333333Y-111024366D01*
X187333333Y-111024366D02*
X187300000Y-111091033D01*
X187300000Y-111091033D02*
X187266667Y-111124366D01*
X187266667Y-111124366D02*
X187200000Y-111157700D01*
X187200000Y-111157700D02*
X186933333Y-111157700D01*
X187600000Y-110857700D02*
X187633333Y-110824366D01*
X187633333Y-110824366D02*
X187700000Y-110791033D01*
X187700000Y-110791033D02*
X187866667Y-110791033D01*
X187866667Y-110791033D02*
X187933333Y-110824366D01*
X187933333Y-110824366D02*
X187966667Y-110857700D01*
X187966667Y-110857700D02*
X188000000Y-110924366D01*
X188000000Y-110924366D02*
X188000000Y-110991033D01*
X188000000Y-110991033D02*
X187966667Y-111091033D01*
X187966667Y-111091033D02*
X187566667Y-111491033D01*
X187566667Y-111491033D02*
X188000000Y-111491033D01*
X197664833Y-110614533D02*
X197431500Y-110281200D01*
X197264833Y-110614533D02*
X197264833Y-109914533D01*
X197264833Y-109914533D02*
X197531500Y-109914533D01*
X197531500Y-109914533D02*
X197598167Y-109947866D01*
X197598167Y-109947866D02*
X197631500Y-109981200D01*
X197631500Y-109981200D02*
X197664833Y-110047866D01*
X197664833Y-110047866D02*
X197664833Y-110147866D01*
X197664833Y-110147866D02*
X197631500Y-110214533D01*
X197631500Y-110214533D02*
X197598167Y-110247866D01*
X197598167Y-110247866D02*
X197531500Y-110281200D01*
X197531500Y-110281200D02*
X197264833Y-110281200D01*
X197898167Y-109914533D02*
X198364833Y-109914533D01*
X198364833Y-109914533D02*
X198064833Y-110614533D01*
X183723810Y-93154819D02*
X183723810Y-92154819D01*
X184152381Y-93107200D02*
X184295238Y-93154819D01*
X184295238Y-93154819D02*
X184533333Y-93154819D01*
X184533333Y-93154819D02*
X184628571Y-93107200D01*
X184628571Y-93107200D02*
X184676190Y-93059580D01*
X184676190Y-93059580D02*
X184723809Y-92964342D01*
X184723809Y-92964342D02*
X184723809Y-92869104D01*
X184723809Y-92869104D02*
X184676190Y-92773866D01*
X184676190Y-92773866D02*
X184628571Y-92726247D01*
X184628571Y-92726247D02*
X184533333Y-92678628D01*
X184533333Y-92678628D02*
X184342857Y-92631009D01*
X184342857Y-92631009D02*
X184247619Y-92583390D01*
X184247619Y-92583390D02*
X184200000Y-92535771D01*
X184200000Y-92535771D02*
X184152381Y-92440533D01*
X184152381Y-92440533D02*
X184152381Y-92345295D01*
X184152381Y-92345295D02*
X184200000Y-92250057D01*
X184200000Y-92250057D02*
X184247619Y-92202438D01*
X184247619Y-92202438D02*
X184342857Y-92154819D01*
X184342857Y-92154819D02*
X184580952Y-92154819D01*
X184580952Y-92154819D02*
X184723809Y-92202438D01*
X185152381Y-93154819D02*
X185152381Y-92154819D01*
X185152381Y-92154819D02*
X185533333Y-92154819D01*
X185533333Y-92154819D02*
X185628571Y-92202438D01*
X185628571Y-92202438D02*
X185676190Y-92250057D01*
X185676190Y-92250057D02*
X185723809Y-92345295D01*
X185723809Y-92345295D02*
X185723809Y-92488152D01*
X185723809Y-92488152D02*
X185676190Y-92583390D01*
X185676190Y-92583390D02*
X185628571Y-92631009D01*
X185628571Y-92631009D02*
X185533333Y-92678628D01*
X185533333Y-92678628D02*
X185152381Y-92678628D01*
D12*
X176466666Y-110868633D02*
X176466666Y-110168633D01*
X177199999Y-110801966D02*
X177166666Y-110835300D01*
X177166666Y-110835300D02*
X177066666Y-110868633D01*
X177066666Y-110868633D02*
X176999999Y-110868633D01*
X176999999Y-110868633D02*
X176899999Y-110835300D01*
X176899999Y-110835300D02*
X176833333Y-110768633D01*
X176833333Y-110768633D02*
X176799999Y-110701966D01*
X176799999Y-110701966D02*
X176766666Y-110568633D01*
X176766666Y-110568633D02*
X176766666Y-110468633D01*
X176766666Y-110468633D02*
X176799999Y-110335300D01*
X176799999Y-110335300D02*
X176833333Y-110268633D01*
X176833333Y-110268633D02*
X176899999Y-110201966D01*
X176899999Y-110201966D02*
X176999999Y-110168633D01*
X176999999Y-110168633D02*
X177066666Y-110168633D01*
X177066666Y-110168633D02*
X177166666Y-110201966D01*
X177166666Y-110201966D02*
X177199999Y-110235300D01*
X177866666Y-110868633D02*
X177466666Y-110868633D01*
X177666666Y-110868633D02*
X177666666Y-110168633D01*
X177666666Y-110168633D02*
X177599999Y-110268633D01*
X177599999Y-110268633D02*
X177533333Y-110335300D01*
X177533333Y-110335300D02*
X177466666Y-110368633D01*
D14*
X188232670Y-100297661D02*
X188232670Y-100344801D01*
X188232670Y-100344801D02*
X188185529Y-100439082D01*
X188185529Y-100439082D02*
X188138389Y-100486223D01*
X188138389Y-100486223D02*
X188044108Y-100533363D01*
X188044108Y-100533363D02*
X187949827Y-100533363D01*
X187949827Y-100533363D02*
X187879116Y-100509793D01*
X187879116Y-100509793D02*
X187761265Y-100439082D01*
X187761265Y-100439082D02*
X187690555Y-100368372D01*
X187690555Y-100368372D02*
X187619844Y-100250520D01*
X187619844Y-100250520D02*
X187596274Y-100179810D01*
X187596274Y-100179810D02*
X187596274Y-100085529D01*
X187596274Y-100085529D02*
X187643414Y-99991248D01*
X187643414Y-99991248D02*
X187690555Y-99944108D01*
X187690555Y-99944108D02*
X187784836Y-99896967D01*
X187784836Y-99896967D02*
X187831976Y-99896967D01*
X187949827Y-99684835D02*
X188279810Y-99354852D01*
X188279810Y-99354852D02*
X188562653Y-100061959D01*
X205099366Y-101916666D02*
X205132700Y-101949999D01*
X205132700Y-101949999D02*
X205166033Y-102049999D01*
X205166033Y-102049999D02*
X205166033Y-102116666D01*
X205166033Y-102116666D02*
X205132700Y-102216666D01*
X205132700Y-102216666D02*
X205066033Y-102283333D01*
X205066033Y-102283333D02*
X204999366Y-102316666D01*
X204999366Y-102316666D02*
X204866033Y-102349999D01*
X204866033Y-102349999D02*
X204766033Y-102349999D01*
X204766033Y-102349999D02*
X204632700Y-102316666D01*
X204632700Y-102316666D02*
X204566033Y-102283333D01*
X204566033Y-102283333D02*
X204499366Y-102216666D01*
X204499366Y-102216666D02*
X204466033Y-102116666D01*
X204466033Y-102116666D02*
X204466033Y-102049999D01*
X204466033Y-102049999D02*
X204499366Y-101949999D01*
X204499366Y-101949999D02*
X204532700Y-101916666D01*
X204532700Y-101649999D02*
X204499366Y-101616666D01*
X204499366Y-101616666D02*
X204466033Y-101549999D01*
X204466033Y-101549999D02*
X204466033Y-101383333D01*
X204466033Y-101383333D02*
X204499366Y-101316666D01*
X204499366Y-101316666D02*
X204532700Y-101283333D01*
X204532700Y-101283333D02*
X204599366Y-101249999D01*
X204599366Y-101249999D02*
X204666033Y-101249999D01*
X204666033Y-101249999D02*
X204766033Y-101283333D01*
X204766033Y-101283333D02*
X205166033Y-101683333D01*
X205166033Y-101683333D02*
X205166033Y-101249999D01*
X195101033Y-112384666D02*
X194767700Y-112617999D01*
X195101033Y-112784666D02*
X194401033Y-112784666D01*
X194401033Y-112784666D02*
X194401033Y-112517999D01*
X194401033Y-112517999D02*
X194434366Y-112451333D01*
X194434366Y-112451333D02*
X194467700Y-112417999D01*
X194467700Y-112417999D02*
X194534366Y-112384666D01*
X194534366Y-112384666D02*
X194634366Y-112384666D01*
X194634366Y-112384666D02*
X194701033Y-112417999D01*
X194701033Y-112417999D02*
X194734366Y-112451333D01*
X194734366Y-112451333D02*
X194767700Y-112517999D01*
X194767700Y-112517999D02*
X194767700Y-112784666D01*
X195101033Y-111717999D02*
X195101033Y-112117999D01*
X195101033Y-111917999D02*
X194401033Y-111917999D01*
X194401033Y-111917999D02*
X194501033Y-111984666D01*
X194501033Y-111984666D02*
X194567700Y-112051333D01*
X194567700Y-112051333D02*
X194601033Y-112117999D01*
X178169366Y-98316666D02*
X178202700Y-98349999D01*
X178202700Y-98349999D02*
X178236033Y-98449999D01*
X178236033Y-98449999D02*
X178236033Y-98516666D01*
X178236033Y-98516666D02*
X178202700Y-98616666D01*
X178202700Y-98616666D02*
X178136033Y-98683333D01*
X178136033Y-98683333D02*
X178069366Y-98716666D01*
X178069366Y-98716666D02*
X177936033Y-98749999D01*
X177936033Y-98749999D02*
X177836033Y-98749999D01*
X177836033Y-98749999D02*
X177702700Y-98716666D01*
X177702700Y-98716666D02*
X177636033Y-98683333D01*
X177636033Y-98683333D02*
X177569366Y-98616666D01*
X177569366Y-98616666D02*
X177536033Y-98516666D01*
X177536033Y-98516666D02*
X177536033Y-98449999D01*
X177536033Y-98449999D02*
X177569366Y-98349999D01*
X177569366Y-98349999D02*
X177602700Y-98316666D01*
X177769366Y-97716666D02*
X178236033Y-97716666D01*
X177502700Y-97883333D02*
X178002700Y-98049999D01*
X178002700Y-98049999D02*
X178002700Y-97616666D01*
X193008638Y-106361873D02*
X192513663Y-105866899D01*
X193480042Y-105796188D02*
X193480042Y-105843329D01*
X193480042Y-105843329D02*
X193432902Y-105937610D01*
X193432902Y-105937610D02*
X193385762Y-105984750D01*
X193385762Y-105984750D02*
X193291481Y-106031891D01*
X193291481Y-106031891D02*
X193197200Y-106031891D01*
X193197200Y-106031891D02*
X193126489Y-106008320D01*
X193126489Y-106008320D02*
X193008638Y-105937610D01*
X193008638Y-105937610D02*
X192937927Y-105866899D01*
X192937927Y-105866899D02*
X192867217Y-105749048D01*
X192867217Y-105749048D02*
X192843646Y-105678337D01*
X192843646Y-105678337D02*
X192843646Y-105584056D01*
X192843646Y-105584056D02*
X192890787Y-105489775D01*
X192890787Y-105489775D02*
X192937927Y-105442635D01*
X192937927Y-105442635D02*
X193032208Y-105395494D01*
X193032208Y-105395494D02*
X193079349Y-105395494D01*
X193267910Y-105206933D02*
X193267910Y-105159792D01*
X193267910Y-105159792D02*
X193291481Y-105089081D01*
X193291481Y-105089081D02*
X193409332Y-104971230D01*
X193409332Y-104971230D02*
X193480042Y-104947660D01*
X193480042Y-104947660D02*
X193527183Y-104947660D01*
X193527183Y-104947660D02*
X193597894Y-104971230D01*
X193597894Y-104971230D02*
X193645034Y-105018371D01*
X193645034Y-105018371D02*
X193692174Y-105112652D01*
X193692174Y-105112652D02*
X193692174Y-105678337D01*
X193692174Y-105678337D02*
X193998587Y-105371924D01*
X187114499Y-105714498D02*
X187282857Y-105882857D01*
X187047155Y-105983872D02*
X187282857Y-105882857D01*
X187282857Y-105882857D02*
X187383873Y-105647155D01*
X187316529Y-106118559D02*
X187282857Y-105882857D01*
X187282857Y-105882857D02*
X187518560Y-105916529D01*
D16*
X179514733Y-103766667D02*
X179514733Y-104100000D01*
X179514733Y-104100000D02*
X178814733Y-104100000D01*
X179514733Y-103166666D02*
X179514733Y-103566666D01*
X179514733Y-103366666D02*
X178814733Y-103366666D01*
X178814733Y-103366666D02*
X178914733Y-103433333D01*
X178914733Y-103433333D02*
X178981400Y-103500000D01*
X178981400Y-103500000D02*
X179014733Y-103566666D01*
D14*
X195649366Y-92516666D02*
X195682700Y-92549999D01*
X195682700Y-92549999D02*
X195716033Y-92649999D01*
X195716033Y-92649999D02*
X195716033Y-92716666D01*
X195716033Y-92716666D02*
X195682700Y-92816666D01*
X195682700Y-92816666D02*
X195616033Y-92883333D01*
X195616033Y-92883333D02*
X195549366Y-92916666D01*
X195549366Y-92916666D02*
X195416033Y-92949999D01*
X195416033Y-92949999D02*
X195316033Y-92949999D01*
X195316033Y-92949999D02*
X195182700Y-92916666D01*
X195182700Y-92916666D02*
X195116033Y-92883333D01*
X195116033Y-92883333D02*
X195049366Y-92816666D01*
X195049366Y-92816666D02*
X195016033Y-92716666D01*
X195016033Y-92716666D02*
X195016033Y-92649999D01*
X195016033Y-92649999D02*
X195049366Y-92549999D01*
X195049366Y-92549999D02*
X195082700Y-92516666D01*
X195716033Y-92183333D02*
X195716033Y-92049999D01*
X195716033Y-92049999D02*
X195682700Y-91983333D01*
X195682700Y-91983333D02*
X195649366Y-91949999D01*
X195649366Y-91949999D02*
X195549366Y-91883333D01*
X195549366Y-91883333D02*
X195416033Y-91849999D01*
X195416033Y-91849999D02*
X195149366Y-91849999D01*
X195149366Y-91849999D02*
X195082700Y-91883333D01*
X195082700Y-91883333D02*
X195049366Y-91916666D01*
X195049366Y-91916666D02*
X195016033Y-91983333D01*
X195016033Y-91983333D02*
X195016033Y-92116666D01*
X195016033Y-92116666D02*
X195049366Y-92183333D01*
X195049366Y-92183333D02*
X195082700Y-92216666D01*
X195082700Y-92216666D02*
X195149366Y-92249999D01*
X195149366Y-92249999D02*
X195316033Y-92249999D01*
X195316033Y-92249999D02*
X195382700Y-92216666D01*
X195382700Y-92216666D02*
X195416033Y-92183333D01*
X195416033Y-92183333D02*
X195449366Y-92116666D01*
X195449366Y-92116666D02*
X195449366Y-91983333D01*
X195449366Y-91983333D02*
X195416033Y-91916666D01*
X195416033Y-91916666D02*
X195382700Y-91883333D01*
X195382700Y-91883333D02*
X195316033Y-91849999D01*
X192779433Y-116604200D02*
X192446100Y-116837533D01*
X192779433Y-117004200D02*
X192079433Y-117004200D01*
X192079433Y-117004200D02*
X192079433Y-116737533D01*
X192079433Y-116737533D02*
X192112766Y-116670867D01*
X192112766Y-116670867D02*
X192146100Y-116637533D01*
X192146100Y-116637533D02*
X192212766Y-116604200D01*
X192212766Y-116604200D02*
X192312766Y-116604200D01*
X192312766Y-116604200D02*
X192379433Y-116637533D01*
X192379433Y-116637533D02*
X192412766Y-116670867D01*
X192412766Y-116670867D02*
X192446100Y-116737533D01*
X192446100Y-116737533D02*
X192446100Y-117004200D01*
X192779433Y-115937533D02*
X192779433Y-116337533D01*
X192779433Y-116137533D02*
X192079433Y-116137533D01*
X192079433Y-116137533D02*
X192179433Y-116204200D01*
X192179433Y-116204200D02*
X192246100Y-116270867D01*
X192246100Y-116270867D02*
X192279433Y-116337533D01*
X192079433Y-115704200D02*
X192079433Y-115270866D01*
X192079433Y-115270866D02*
X192346100Y-115504200D01*
X192346100Y-115504200D02*
X192346100Y-115404200D01*
X192346100Y-115404200D02*
X192379433Y-115337533D01*
X192379433Y-115337533D02*
X192412766Y-115304200D01*
X192412766Y-115304200D02*
X192479433Y-115270866D01*
X192479433Y-115270866D02*
X192646100Y-115270866D01*
X192646100Y-115270866D02*
X192712766Y-115304200D01*
X192712766Y-115304200D02*
X192746100Y-115337533D01*
X192746100Y-115337533D02*
X192779433Y-115404200D01*
X192779433Y-115404200D02*
X192779433Y-115604200D01*
X192779433Y-115604200D02*
X192746100Y-115670866D01*
X192746100Y-115670866D02*
X192712766Y-115704200D01*
D12*
X176615533Y-114864133D02*
X176615533Y-114164133D01*
X176615533Y-114164133D02*
X176782200Y-114164133D01*
X176782200Y-114164133D02*
X176882200Y-114197466D01*
X176882200Y-114197466D02*
X176948867Y-114264133D01*
X176948867Y-114264133D02*
X176982200Y-114330800D01*
X176982200Y-114330800D02*
X177015533Y-114464133D01*
X177015533Y-114464133D02*
X177015533Y-114564133D01*
X177015533Y-114564133D02*
X176982200Y-114697466D01*
X176982200Y-114697466D02*
X176948867Y-114764133D01*
X176948867Y-114764133D02*
X176882200Y-114830800D01*
X176882200Y-114830800D02*
X176782200Y-114864133D01*
X176782200Y-114864133D02*
X176615533Y-114864133D01*
X177248867Y-114164133D02*
X177682200Y-114164133D01*
X177682200Y-114164133D02*
X177448867Y-114430800D01*
X177448867Y-114430800D02*
X177548867Y-114430800D01*
X177548867Y-114430800D02*
X177615533Y-114464133D01*
X177615533Y-114464133D02*
X177648867Y-114497466D01*
X177648867Y-114497466D02*
X177682200Y-114564133D01*
X177682200Y-114564133D02*
X177682200Y-114730800D01*
X177682200Y-114730800D02*
X177648867Y-114797466D01*
X177648867Y-114797466D02*
X177615533Y-114830800D01*
X177615533Y-114830800D02*
X177548867Y-114864133D01*
X177548867Y-114864133D02*
X177348867Y-114864133D01*
X177348867Y-114864133D02*
X177282200Y-114830800D01*
X177282200Y-114830800D02*
X177248867Y-114797466D01*
D14*
X201421533Y-112379166D02*
X201088200Y-112612499D01*
X201421533Y-112779166D02*
X200721533Y-112779166D01*
X200721533Y-112779166D02*
X200721533Y-112512499D01*
X200721533Y-112512499D02*
X200754866Y-112445833D01*
X200754866Y-112445833D02*
X200788200Y-112412499D01*
X200788200Y-112412499D02*
X200854866Y-112379166D01*
X200854866Y-112379166D02*
X200954866Y-112379166D01*
X200954866Y-112379166D02*
X201021533Y-112412499D01*
X201021533Y-112412499D02*
X201054866Y-112445833D01*
X201054866Y-112445833D02*
X201088200Y-112512499D01*
X201088200Y-112512499D02*
X201088200Y-112779166D01*
X200721533Y-112145833D02*
X200721533Y-111712499D01*
X200721533Y-111712499D02*
X200988200Y-111945833D01*
X200988200Y-111945833D02*
X200988200Y-111845833D01*
X200988200Y-111845833D02*
X201021533Y-111779166D01*
X201021533Y-111779166D02*
X201054866Y-111745833D01*
X201054866Y-111745833D02*
X201121533Y-111712499D01*
X201121533Y-111712499D02*
X201288200Y-111712499D01*
X201288200Y-111712499D02*
X201354866Y-111745833D01*
X201354866Y-111745833D02*
X201388200Y-111779166D01*
X201388200Y-111779166D02*
X201421533Y-111845833D01*
X201421533Y-111845833D02*
X201421533Y-112045833D01*
X201421533Y-112045833D02*
X201388200Y-112112499D01*
X201388200Y-112112499D02*
X201354866Y-112145833D01*
D12*
X209951966Y-117750000D02*
X209985300Y-117783333D01*
X209985300Y-117783333D02*
X210018633Y-117883333D01*
X210018633Y-117883333D02*
X210018633Y-117950000D01*
X210018633Y-117950000D02*
X209985300Y-118050000D01*
X209985300Y-118050000D02*
X209918633Y-118116667D01*
X209918633Y-118116667D02*
X209851966Y-118150000D01*
X209851966Y-118150000D02*
X209718633Y-118183333D01*
X209718633Y-118183333D02*
X209618633Y-118183333D01*
X209618633Y-118183333D02*
X209485300Y-118150000D01*
X209485300Y-118150000D02*
X209418633Y-118116667D01*
X209418633Y-118116667D02*
X209351966Y-118050000D01*
X209351966Y-118050000D02*
X209318633Y-117950000D01*
X209318633Y-117950000D02*
X209318633Y-117883333D01*
X209318633Y-117883333D02*
X209351966Y-117783333D01*
X209351966Y-117783333D02*
X209385300Y-117750000D01*
X210018633Y-117083333D02*
X210018633Y-117483333D01*
X210018633Y-117283333D02*
X209318633Y-117283333D01*
X209318633Y-117283333D02*
X209418633Y-117350000D01*
X209418633Y-117350000D02*
X209485300Y-117416667D01*
X209485300Y-117416667D02*
X209518633Y-117483333D01*
X209385300Y-116816666D02*
X209351966Y-116783333D01*
X209351966Y-116783333D02*
X209318633Y-116716666D01*
X209318633Y-116716666D02*
X209318633Y-116550000D01*
X209318633Y-116550000D02*
X209351966Y-116483333D01*
X209351966Y-116483333D02*
X209385300Y-116450000D01*
X209385300Y-116450000D02*
X209451966Y-116416666D01*
X209451966Y-116416666D02*
X209518633Y-116416666D01*
X209518633Y-116416666D02*
X209618633Y-116450000D01*
X209618633Y-116450000D02*
X210018633Y-116850000D01*
X210018633Y-116850000D02*
X210018633Y-116416666D01*
D14*
X209799999Y-119616033D02*
X209566666Y-119282700D01*
X209399999Y-119616033D02*
X209399999Y-118916033D01*
X209399999Y-118916033D02*
X209666666Y-118916033D01*
X209666666Y-118916033D02*
X209733333Y-118949366D01*
X209733333Y-118949366D02*
X209766666Y-118982700D01*
X209766666Y-118982700D02*
X209799999Y-119049366D01*
X209799999Y-119049366D02*
X209799999Y-119149366D01*
X209799999Y-119149366D02*
X209766666Y-119216033D01*
X209766666Y-119216033D02*
X209733333Y-119249366D01*
X209733333Y-119249366D02*
X209666666Y-119282700D01*
X209666666Y-119282700D02*
X209399999Y-119282700D01*
X210466666Y-119616033D02*
X210066666Y-119616033D01*
X210266666Y-119616033D02*
X210266666Y-118916033D01*
X210266666Y-118916033D02*
X210199999Y-119016033D01*
X210199999Y-119016033D02*
X210133333Y-119082700D01*
X210133333Y-119082700D02*
X210066666Y-119116033D01*
X211100000Y-118916033D02*
X210766666Y-118916033D01*
X210766666Y-118916033D02*
X210733333Y-119249366D01*
X210733333Y-119249366D02*
X210766666Y-119216033D01*
X210766666Y-119216033D02*
X210833333Y-119182700D01*
X210833333Y-119182700D02*
X211000000Y-119182700D01*
X211000000Y-119182700D02*
X211066666Y-119216033D01*
X211066666Y-119216033D02*
X211100000Y-119249366D01*
X211100000Y-119249366D02*
X211133333Y-119316033D01*
X211133333Y-119316033D02*
X211133333Y-119482700D01*
X211133333Y-119482700D02*
X211100000Y-119549366D01*
X211100000Y-119549366D02*
X211066666Y-119582700D01*
X211066666Y-119582700D02*
X211000000Y-119616033D01*
X211000000Y-119616033D02*
X210833333Y-119616033D01*
X210833333Y-119616033D02*
X210766666Y-119582700D01*
X210766666Y-119582700D02*
X210733333Y-119549366D01*
D12*
X184903634Y-100559969D02*
X184856493Y-100559969D01*
X184856493Y-100559969D02*
X184762213Y-100512828D01*
X184762213Y-100512828D02*
X184715072Y-100465688D01*
X184715072Y-100465688D02*
X184667932Y-100371407D01*
X184667932Y-100371407D02*
X184667932Y-100277126D01*
X184667932Y-100277126D02*
X184691502Y-100206415D01*
X184691502Y-100206415D02*
X184762213Y-100088564D01*
X184762213Y-100088564D02*
X184832923Y-100017853D01*
X184832923Y-100017853D02*
X184950774Y-99947143D01*
X184950774Y-99947143D02*
X185021485Y-99923572D01*
X185021485Y-99923572D02*
X185115766Y-99923572D01*
X185115766Y-99923572D02*
X185210047Y-99970713D01*
X185210047Y-99970713D02*
X185257187Y-100017853D01*
X185257187Y-100017853D02*
X185304328Y-100112134D01*
X185304328Y-100112134D02*
X185304328Y-100159275D01*
X185327898Y-101078514D02*
X185045055Y-100795671D01*
X185186477Y-100937092D02*
X185681451Y-100442117D01*
X185681451Y-100442117D02*
X185563600Y-100465688D01*
X185563600Y-100465688D02*
X185469319Y-100465688D01*
X185469319Y-100465688D02*
X185398609Y-100442117D01*
X185893584Y-101078514D02*
X185870013Y-101007803D01*
X185870013Y-101007803D02*
X185870013Y-100960663D01*
X185870013Y-100960663D02*
X185893584Y-100889952D01*
X185893584Y-100889952D02*
X185917154Y-100866382D01*
X185917154Y-100866382D02*
X185987865Y-100842811D01*
X185987865Y-100842811D02*
X186035005Y-100842811D01*
X186035005Y-100842811D02*
X186105716Y-100866382D01*
X186105716Y-100866382D02*
X186199997Y-100960663D01*
X186199997Y-100960663D02*
X186223567Y-101031373D01*
X186223567Y-101031373D02*
X186223567Y-101078514D01*
X186223567Y-101078514D02*
X186199997Y-101149224D01*
X186199997Y-101149224D02*
X186176426Y-101172795D01*
X186176426Y-101172795D02*
X186105716Y-101196365D01*
X186105716Y-101196365D02*
X186058575Y-101196365D01*
X186058575Y-101196365D02*
X185987865Y-101172795D01*
X185987865Y-101172795D02*
X185893584Y-101078514D01*
X185893584Y-101078514D02*
X185822873Y-101054944D01*
X185822873Y-101054944D02*
X185775732Y-101054944D01*
X185775732Y-101054944D02*
X185705022Y-101078514D01*
X185705022Y-101078514D02*
X185610741Y-101172795D01*
X185610741Y-101172795D02*
X185587171Y-101243505D01*
X185587171Y-101243505D02*
X185587171Y-101290646D01*
X185587171Y-101290646D02*
X185610741Y-101361356D01*
X185610741Y-101361356D02*
X185705022Y-101455637D01*
X185705022Y-101455637D02*
X185775732Y-101479208D01*
X185775732Y-101479208D02*
X185822873Y-101479208D01*
X185822873Y-101479208D02*
X185893584Y-101455637D01*
X185893584Y-101455637D02*
X185987865Y-101361356D01*
X185987865Y-101361356D02*
X186011435Y-101290646D01*
X186011435Y-101290646D02*
X186011435Y-101243505D01*
X186011435Y-101243505D02*
X185987865Y-101172795D01*
X193133333Y-99198633D02*
X192900000Y-98865300D01*
X192733333Y-99198633D02*
X192733333Y-98498633D01*
X192733333Y-98498633D02*
X193000000Y-98498633D01*
X193000000Y-98498633D02*
X193066667Y-98531966D01*
X193066667Y-98531966D02*
X193100000Y-98565300D01*
X193100000Y-98565300D02*
X193133333Y-98631966D01*
X193133333Y-98631966D02*
X193133333Y-98731966D01*
X193133333Y-98731966D02*
X193100000Y-98798633D01*
X193100000Y-98798633D02*
X193066667Y-98831966D01*
X193066667Y-98831966D02*
X193000000Y-98865300D01*
X193000000Y-98865300D02*
X192733333Y-98865300D01*
X193466667Y-99198633D02*
X193600000Y-99198633D01*
X193600000Y-99198633D02*
X193666667Y-99165300D01*
X193666667Y-99165300D02*
X193700000Y-99131966D01*
X193700000Y-99131966D02*
X193766667Y-99031966D01*
X193766667Y-99031966D02*
X193800000Y-98898633D01*
X193800000Y-98898633D02*
X193800000Y-98631966D01*
X193800000Y-98631966D02*
X193766667Y-98565300D01*
X193766667Y-98565300D02*
X193733333Y-98531966D01*
X193733333Y-98531966D02*
X193666667Y-98498633D01*
X193666667Y-98498633D02*
X193533333Y-98498633D01*
X193533333Y-98498633D02*
X193466667Y-98531966D01*
X193466667Y-98531966D02*
X193433333Y-98565300D01*
X193433333Y-98565300D02*
X193400000Y-98631966D01*
X193400000Y-98631966D02*
X193400000Y-98798633D01*
X193400000Y-98798633D02*
X193433333Y-98865300D01*
X193433333Y-98865300D02*
X193466667Y-98898633D01*
X193466667Y-98898633D02*
X193533333Y-98931966D01*
X193533333Y-98931966D02*
X193666667Y-98931966D01*
X193666667Y-98931966D02*
X193733333Y-98898633D01*
X193733333Y-98898633D02*
X193766667Y-98865300D01*
X193766667Y-98865300D02*
X193800000Y-98798633D01*
D14*
X189849999Y-97149366D02*
X189816666Y-97182700D01*
X189816666Y-97182700D02*
X189716666Y-97216033D01*
X189716666Y-97216033D02*
X189649999Y-97216033D01*
X189649999Y-97216033D02*
X189549999Y-97182700D01*
X189549999Y-97182700D02*
X189483333Y-97116033D01*
X189483333Y-97116033D02*
X189449999Y-97049366D01*
X189449999Y-97049366D02*
X189416666Y-96916033D01*
X189416666Y-96916033D02*
X189416666Y-96816033D01*
X189416666Y-96816033D02*
X189449999Y-96682700D01*
X189449999Y-96682700D02*
X189483333Y-96616033D01*
X189483333Y-96616033D02*
X189549999Y-96549366D01*
X189549999Y-96549366D02*
X189649999Y-96516033D01*
X189649999Y-96516033D02*
X189716666Y-96516033D01*
X189716666Y-96516033D02*
X189816666Y-96549366D01*
X189816666Y-96549366D02*
X189849999Y-96582700D01*
X190516666Y-97216033D02*
X190116666Y-97216033D01*
X190316666Y-97216033D02*
X190316666Y-96516033D01*
X190316666Y-96516033D02*
X190249999Y-96616033D01*
X190249999Y-96616033D02*
X190183333Y-96682700D01*
X190183333Y-96682700D02*
X190116666Y-96716033D01*
X190950000Y-96516033D02*
X191016666Y-96516033D01*
X191016666Y-96516033D02*
X191083333Y-96549366D01*
X191083333Y-96549366D02*
X191116666Y-96582700D01*
X191116666Y-96582700D02*
X191150000Y-96649366D01*
X191150000Y-96649366D02*
X191183333Y-96782700D01*
X191183333Y-96782700D02*
X191183333Y-96949366D01*
X191183333Y-96949366D02*
X191150000Y-97082700D01*
X191150000Y-97082700D02*
X191116666Y-97149366D01*
X191116666Y-97149366D02*
X191083333Y-97182700D01*
X191083333Y-97182700D02*
X191016666Y-97216033D01*
X191016666Y-97216033D02*
X190950000Y-97216033D01*
X190950000Y-97216033D02*
X190883333Y-97182700D01*
X190883333Y-97182700D02*
X190850000Y-97149366D01*
X190850000Y-97149366D02*
X190816666Y-97082700D01*
X190816666Y-97082700D02*
X190783333Y-96949366D01*
X190783333Y-96949366D02*
X190783333Y-96782700D01*
X190783333Y-96782700D02*
X190816666Y-96649366D01*
X190816666Y-96649366D02*
X190850000Y-96582700D01*
X190850000Y-96582700D02*
X190883333Y-96549366D01*
X190883333Y-96549366D02*
X190950000Y-96516033D01*
D12*
X208883333Y-94208633D02*
X208650000Y-93875300D01*
X208483333Y-94208633D02*
X208483333Y-93508633D01*
X208483333Y-93508633D02*
X208750000Y-93508633D01*
X208750000Y-93508633D02*
X208816667Y-93541966D01*
X208816667Y-93541966D02*
X208850000Y-93575300D01*
X208850000Y-93575300D02*
X208883333Y-93641966D01*
X208883333Y-93641966D02*
X208883333Y-93741966D01*
X208883333Y-93741966D02*
X208850000Y-93808633D01*
X208850000Y-93808633D02*
X208816667Y-93841966D01*
X208816667Y-93841966D02*
X208750000Y-93875300D01*
X208750000Y-93875300D02*
X208483333Y-93875300D01*
X209283333Y-93808633D02*
X209216667Y-93775300D01*
X209216667Y-93775300D02*
X209183333Y-93741966D01*
X209183333Y-93741966D02*
X209150000Y-93675300D01*
X209150000Y-93675300D02*
X209150000Y-93641966D01*
X209150000Y-93641966D02*
X209183333Y-93575300D01*
X209183333Y-93575300D02*
X209216667Y-93541966D01*
X209216667Y-93541966D02*
X209283333Y-93508633D01*
X209283333Y-93508633D02*
X209416667Y-93508633D01*
X209416667Y-93508633D02*
X209483333Y-93541966D01*
X209483333Y-93541966D02*
X209516667Y-93575300D01*
X209516667Y-93575300D02*
X209550000Y-93641966D01*
X209550000Y-93641966D02*
X209550000Y-93675300D01*
X209550000Y-93675300D02*
X209516667Y-93741966D01*
X209516667Y-93741966D02*
X209483333Y-93775300D01*
X209483333Y-93775300D02*
X209416667Y-93808633D01*
X209416667Y-93808633D02*
X209283333Y-93808633D01*
X209283333Y-93808633D02*
X209216667Y-93841966D01*
X209216667Y-93841966D02*
X209183333Y-93875300D01*
X209183333Y-93875300D02*
X209150000Y-93941966D01*
X209150000Y-93941966D02*
X209150000Y-94075300D01*
X209150000Y-94075300D02*
X209183333Y-94141966D01*
X209183333Y-94141966D02*
X209216667Y-94175300D01*
X209216667Y-94175300D02*
X209283333Y-94208633D01*
X209283333Y-94208633D02*
X209416667Y-94208633D01*
X209416667Y-94208633D02*
X209483333Y-94175300D01*
X209483333Y-94175300D02*
X209516667Y-94141966D01*
X209516667Y-94141966D02*
X209550000Y-94075300D01*
X209550000Y-94075300D02*
X209550000Y-93941966D01*
X209550000Y-93941966D02*
X209516667Y-93875300D01*
X209516667Y-93875300D02*
X209483333Y-93841966D01*
X209483333Y-93841966D02*
X209416667Y-93808633D01*
X211312333Y-106879966D02*
X211279000Y-106913300D01*
X211279000Y-106913300D02*
X211179000Y-106946633D01*
X211179000Y-106946633D02*
X211112333Y-106946633D01*
X211112333Y-106946633D02*
X211012333Y-106913300D01*
X211012333Y-106913300D02*
X210945667Y-106846633D01*
X210945667Y-106846633D02*
X210912333Y-106779966D01*
X210912333Y-106779966D02*
X210879000Y-106646633D01*
X210879000Y-106646633D02*
X210879000Y-106546633D01*
X210879000Y-106546633D02*
X210912333Y-106413300D01*
X210912333Y-106413300D02*
X210945667Y-106346633D01*
X210945667Y-106346633D02*
X211012333Y-106279966D01*
X211012333Y-106279966D02*
X211112333Y-106246633D01*
X211112333Y-106246633D02*
X211179000Y-106246633D01*
X211179000Y-106246633D02*
X211279000Y-106279966D01*
X211279000Y-106279966D02*
X211312333Y-106313300D01*
X211945667Y-106246633D02*
X211612333Y-106246633D01*
X211612333Y-106246633D02*
X211579000Y-106579966D01*
X211579000Y-106579966D02*
X211612333Y-106546633D01*
X211612333Y-106546633D02*
X211679000Y-106513300D01*
X211679000Y-106513300D02*
X211845667Y-106513300D01*
X211845667Y-106513300D02*
X211912333Y-106546633D01*
X211912333Y-106546633D02*
X211945667Y-106579966D01*
X211945667Y-106579966D02*
X211979000Y-106646633D01*
X211979000Y-106646633D02*
X211979000Y-106813300D01*
X211979000Y-106813300D02*
X211945667Y-106879966D01*
X211945667Y-106879966D02*
X211912333Y-106913300D01*
X211912333Y-106913300D02*
X211845667Y-106946633D01*
X211845667Y-106946633D02*
X211679000Y-106946633D01*
X211679000Y-106946633D02*
X211612333Y-106913300D01*
X211612333Y-106913300D02*
X211579000Y-106879966D01*
X184963333Y-118508633D02*
X184963333Y-117808633D01*
X184963333Y-117808633D02*
X185130000Y-117808633D01*
X185130000Y-117808633D02*
X185230000Y-117841966D01*
X185230000Y-117841966D02*
X185296667Y-117908633D01*
X185296667Y-117908633D02*
X185330000Y-117975300D01*
X185330000Y-117975300D02*
X185363333Y-118108633D01*
X185363333Y-118108633D02*
X185363333Y-118208633D01*
X185363333Y-118208633D02*
X185330000Y-118341966D01*
X185330000Y-118341966D02*
X185296667Y-118408633D01*
X185296667Y-118408633D02*
X185230000Y-118475300D01*
X185230000Y-118475300D02*
X185130000Y-118508633D01*
X185130000Y-118508633D02*
X184963333Y-118508633D01*
X185630000Y-117875300D02*
X185663333Y-117841966D01*
X185663333Y-117841966D02*
X185730000Y-117808633D01*
X185730000Y-117808633D02*
X185896667Y-117808633D01*
X185896667Y-117808633D02*
X185963333Y-117841966D01*
X185963333Y-117841966D02*
X185996667Y-117875300D01*
X185996667Y-117875300D02*
X186030000Y-117941966D01*
X186030000Y-117941966D02*
X186030000Y-118008633D01*
X186030000Y-118008633D02*
X185996667Y-118108633D01*
X185996667Y-118108633D02*
X185596667Y-118508633D01*
X185596667Y-118508633D02*
X186030000Y-118508633D01*
D14*
X178999366Y-116941666D02*
X179032700Y-116974999D01*
X179032700Y-116974999D02*
X179066033Y-117074999D01*
X179066033Y-117074999D02*
X179066033Y-117141666D01*
X179066033Y-117141666D02*
X179032700Y-117241666D01*
X179032700Y-117241666D02*
X178966033Y-117308333D01*
X178966033Y-117308333D02*
X178899366Y-117341666D01*
X178899366Y-117341666D02*
X178766033Y-117374999D01*
X178766033Y-117374999D02*
X178666033Y-117374999D01*
X178666033Y-117374999D02*
X178532700Y-117341666D01*
X178532700Y-117341666D02*
X178466033Y-117308333D01*
X178466033Y-117308333D02*
X178399366Y-117241666D01*
X178399366Y-117241666D02*
X178366033Y-117141666D01*
X178366033Y-117141666D02*
X178366033Y-117074999D01*
X178366033Y-117074999D02*
X178399366Y-116974999D01*
X178399366Y-116974999D02*
X178432700Y-116941666D01*
X179066033Y-116274999D02*
X179066033Y-116674999D01*
X179066033Y-116474999D02*
X178366033Y-116474999D01*
X178366033Y-116474999D02*
X178466033Y-116541666D01*
X178466033Y-116541666D02*
X178532700Y-116608333D01*
X178532700Y-116608333D02*
X178566033Y-116674999D01*
X182499999Y-119174366D02*
X182466666Y-119207700D01*
X182466666Y-119207700D02*
X182366666Y-119241033D01*
X182366666Y-119241033D02*
X182299999Y-119241033D01*
X182299999Y-119241033D02*
X182199999Y-119207700D01*
X182199999Y-119207700D02*
X182133333Y-119141033D01*
X182133333Y-119141033D02*
X182099999Y-119074366D01*
X182099999Y-119074366D02*
X182066666Y-118941033D01*
X182066666Y-118941033D02*
X182066666Y-118841033D01*
X182066666Y-118841033D02*
X182099999Y-118707700D01*
X182099999Y-118707700D02*
X182133333Y-118641033D01*
X182133333Y-118641033D02*
X182199999Y-118574366D01*
X182199999Y-118574366D02*
X182299999Y-118541033D01*
X182299999Y-118541033D02*
X182366666Y-118541033D01*
X182366666Y-118541033D02*
X182466666Y-118574366D01*
X182466666Y-118574366D02*
X182499999Y-118607700D01*
X183166666Y-119241033D02*
X182766666Y-119241033D01*
X182966666Y-119241033D02*
X182966666Y-118541033D01*
X182966666Y-118541033D02*
X182899999Y-118641033D01*
X182899999Y-118641033D02*
X182833333Y-118707700D01*
X182833333Y-118707700D02*
X182766666Y-118741033D01*
X183800000Y-118541033D02*
X183466666Y-118541033D01*
X183466666Y-118541033D02*
X183433333Y-118874366D01*
X183433333Y-118874366D02*
X183466666Y-118841033D01*
X183466666Y-118841033D02*
X183533333Y-118807700D01*
X183533333Y-118807700D02*
X183700000Y-118807700D01*
X183700000Y-118807700D02*
X183766666Y-118841033D01*
X183766666Y-118841033D02*
X183800000Y-118874366D01*
X183800000Y-118874366D02*
X183833333Y-118941033D01*
X183833333Y-118941033D02*
X183833333Y-119107700D01*
X183833333Y-119107700D02*
X183800000Y-119174366D01*
X183800000Y-119174366D02*
X183766666Y-119207700D01*
X183766666Y-119207700D02*
X183700000Y-119241033D01*
X183700000Y-119241033D02*
X183533333Y-119241033D01*
X183533333Y-119241033D02*
X183466666Y-119207700D01*
X183466666Y-119207700D02*
X183433333Y-119174366D01*
X184699999Y-105199366D02*
X184666666Y-105232700D01*
X184666666Y-105232700D02*
X184566666Y-105266033D01*
X184566666Y-105266033D02*
X184499999Y-105266033D01*
X184499999Y-105266033D02*
X184399999Y-105232700D01*
X184399999Y-105232700D02*
X184333333Y-105166033D01*
X184333333Y-105166033D02*
X184299999Y-105099366D01*
X184299999Y-105099366D02*
X184266666Y-104966033D01*
X184266666Y-104966033D02*
X184266666Y-104866033D01*
X184266666Y-104866033D02*
X184299999Y-104732700D01*
X184299999Y-104732700D02*
X184333333Y-104666033D01*
X184333333Y-104666033D02*
X184399999Y-104599366D01*
X184399999Y-104599366D02*
X184499999Y-104566033D01*
X184499999Y-104566033D02*
X184566666Y-104566033D01*
X184566666Y-104566033D02*
X184666666Y-104599366D01*
X184666666Y-104599366D02*
X184699999Y-104632700D01*
X185366666Y-105266033D02*
X184966666Y-105266033D01*
X185166666Y-105266033D02*
X185166666Y-104566033D01*
X185166666Y-104566033D02*
X185099999Y-104666033D01*
X185099999Y-104666033D02*
X185033333Y-104732700D01*
X185033333Y-104732700D02*
X184966666Y-104766033D01*
X185966666Y-104566033D02*
X185833333Y-104566033D01*
X185833333Y-104566033D02*
X185766666Y-104599366D01*
X185766666Y-104599366D02*
X185733333Y-104632700D01*
X185733333Y-104632700D02*
X185666666Y-104732700D01*
X185666666Y-104732700D02*
X185633333Y-104866033D01*
X185633333Y-104866033D02*
X185633333Y-105132700D01*
X185633333Y-105132700D02*
X185666666Y-105199366D01*
X185666666Y-105199366D02*
X185700000Y-105232700D01*
X185700000Y-105232700D02*
X185766666Y-105266033D01*
X185766666Y-105266033D02*
X185900000Y-105266033D01*
X185900000Y-105266033D02*
X185966666Y-105232700D01*
X185966666Y-105232700D02*
X186000000Y-105199366D01*
X186000000Y-105199366D02*
X186033333Y-105132700D01*
X186033333Y-105132700D02*
X186033333Y-104966033D01*
X186033333Y-104966033D02*
X186000000Y-104899366D01*
X186000000Y-104899366D02*
X185966666Y-104866033D01*
X185966666Y-104866033D02*
X185900000Y-104832700D01*
X185900000Y-104832700D02*
X185766666Y-104832700D01*
X185766666Y-104832700D02*
X185700000Y-104866033D01*
X185700000Y-104866033D02*
X185666666Y-104899366D01*
X185666666Y-104899366D02*
X185633333Y-104966033D01*
D12*
X190149999Y-114076966D02*
X190116666Y-114110300D01*
X190116666Y-114110300D02*
X190016666Y-114143633D01*
X190016666Y-114143633D02*
X189949999Y-114143633D01*
X189949999Y-114143633D02*
X189849999Y-114110300D01*
X189849999Y-114110300D02*
X189783333Y-114043633D01*
X189783333Y-114043633D02*
X189749999Y-113976966D01*
X189749999Y-113976966D02*
X189716666Y-113843633D01*
X189716666Y-113843633D02*
X189716666Y-113743633D01*
X189716666Y-113743633D02*
X189749999Y-113610300D01*
X189749999Y-113610300D02*
X189783333Y-113543633D01*
X189783333Y-113543633D02*
X189849999Y-113476966D01*
X189849999Y-113476966D02*
X189949999Y-113443633D01*
X189949999Y-113443633D02*
X190016666Y-113443633D01*
X190016666Y-113443633D02*
X190116666Y-113476966D01*
X190116666Y-113476966D02*
X190149999Y-113510300D01*
X190816666Y-114143633D02*
X190416666Y-114143633D01*
X190616666Y-114143633D02*
X190616666Y-113443633D01*
X190616666Y-113443633D02*
X190549999Y-113543633D01*
X190549999Y-113543633D02*
X190483333Y-113610300D01*
X190483333Y-113610300D02*
X190416666Y-113643633D01*
X191050000Y-113443633D02*
X191516666Y-113443633D01*
X191516666Y-113443633D02*
X191216666Y-114143633D01*
X187502866Y-92174833D02*
X187502866Y-92741500D01*
X187502866Y-92741500D02*
X187536200Y-92808166D01*
X187536200Y-92808166D02*
X187569533Y-92841500D01*
X187569533Y-92841500D02*
X187636200Y-92874833D01*
X187636200Y-92874833D02*
X187769533Y-92874833D01*
X187769533Y-92874833D02*
X187836200Y-92841500D01*
X187836200Y-92841500D02*
X187869533Y-92808166D01*
X187869533Y-92808166D02*
X187902866Y-92741500D01*
X187902866Y-92741500D02*
X187902866Y-92174833D01*
X188602866Y-92874833D02*
X188202866Y-92874833D01*
X188402866Y-92874833D02*
X188402866Y-92174833D01*
X188402866Y-92174833D02*
X188336199Y-92274833D01*
X188336199Y-92274833D02*
X188269533Y-92341500D01*
X188269533Y-92341500D02*
X188202866Y-92374833D01*
D14*
X192422000Y-94154819D02*
X192422000Y-94392914D01*
X192183905Y-94297676D02*
X192422000Y-94392914D01*
X192422000Y-94392914D02*
X192660095Y-94297676D01*
X192279143Y-94583390D02*
X192422000Y-94392914D01*
X192422000Y-94392914D02*
X192564857Y-94583390D01*
D12*
X187721266Y-118818633D02*
X187721266Y-119385300D01*
X187721266Y-119385300D02*
X187754600Y-119451966D01*
X187754600Y-119451966D02*
X187787933Y-119485300D01*
X187787933Y-119485300D02*
X187854600Y-119518633D01*
X187854600Y-119518633D02*
X187987933Y-119518633D01*
X187987933Y-119518633D02*
X188054600Y-119485300D01*
X188054600Y-119485300D02*
X188087933Y-119451966D01*
X188087933Y-119451966D02*
X188121266Y-119385300D01*
X188121266Y-119385300D02*
X188121266Y-118818633D01*
X188387933Y-118818633D02*
X188821266Y-118818633D01*
X188821266Y-118818633D02*
X188587933Y-119085300D01*
X188587933Y-119085300D02*
X188687933Y-119085300D01*
X188687933Y-119085300D02*
X188754599Y-119118633D01*
X188754599Y-119118633D02*
X188787933Y-119151966D01*
X188787933Y-119151966D02*
X188821266Y-119218633D01*
X188821266Y-119218633D02*
X188821266Y-119385300D01*
X188821266Y-119385300D02*
X188787933Y-119451966D01*
X188787933Y-119451966D02*
X188754599Y-119485300D01*
X188754599Y-119485300D02*
X188687933Y-119518633D01*
X188687933Y-119518633D02*
X188487933Y-119518633D01*
X188487933Y-119518633D02*
X188421266Y-119485300D01*
X188421266Y-119485300D02*
X188387933Y-119451966D01*
X210949999Y-111582966D02*
X210916666Y-111616300D01*
X210916666Y-111616300D02*
X210816666Y-111649633D01*
X210816666Y-111649633D02*
X210749999Y-111649633D01*
X210749999Y-111649633D02*
X210649999Y-111616300D01*
X210649999Y-111616300D02*
X210583333Y-111549633D01*
X210583333Y-111549633D02*
X210549999Y-111482966D01*
X210549999Y-111482966D02*
X210516666Y-111349633D01*
X210516666Y-111349633D02*
X210516666Y-111249633D01*
X210516666Y-111249633D02*
X210549999Y-111116300D01*
X210549999Y-111116300D02*
X210583333Y-111049633D01*
X210583333Y-111049633D02*
X210649999Y-110982966D01*
X210649999Y-110982966D02*
X210749999Y-110949633D01*
X210749999Y-110949633D02*
X210816666Y-110949633D01*
X210816666Y-110949633D02*
X210916666Y-110982966D01*
X210916666Y-110982966D02*
X210949999Y-111016300D01*
X211616666Y-111649633D02*
X211216666Y-111649633D01*
X211416666Y-111649633D02*
X211416666Y-110949633D01*
X211416666Y-110949633D02*
X211349999Y-111049633D01*
X211349999Y-111049633D02*
X211283333Y-111116300D01*
X211283333Y-111116300D02*
X211216666Y-111149633D01*
X212283333Y-111649633D02*
X211883333Y-111649633D01*
X212083333Y-111649633D02*
X212083333Y-110949633D01*
X212083333Y-110949633D02*
X212016666Y-111049633D01*
X212016666Y-111049633D02*
X211950000Y-111116300D01*
X211950000Y-111116300D02*
X211883333Y-111149633D01*
D14*
X181274366Y-117641666D02*
X181307700Y-117674999D01*
X181307700Y-117674999D02*
X181341033Y-117774999D01*
X181341033Y-117774999D02*
X181341033Y-117841666D01*
X181341033Y-117841666D02*
X181307700Y-117941666D01*
X181307700Y-117941666D02*
X181241033Y-118008333D01*
X181241033Y-118008333D02*
X181174366Y-118041666D01*
X181174366Y-118041666D02*
X181041033Y-118074999D01*
X181041033Y-118074999D02*
X180941033Y-118074999D01*
X180941033Y-118074999D02*
X180807700Y-118041666D01*
X180807700Y-118041666D02*
X180741033Y-118008333D01*
X180741033Y-118008333D02*
X180674366Y-117941666D01*
X180674366Y-117941666D02*
X180641033Y-117841666D01*
X180641033Y-117841666D02*
X180641033Y-117774999D01*
X180641033Y-117774999D02*
X180674366Y-117674999D01*
X180674366Y-117674999D02*
X180707700Y-117641666D01*
X180641033Y-117408333D02*
X180641033Y-116974999D01*
X180641033Y-116974999D02*
X180907700Y-117208333D01*
X180907700Y-117208333D02*
X180907700Y-117108333D01*
X180907700Y-117108333D02*
X180941033Y-117041666D01*
X180941033Y-117041666D02*
X180974366Y-117008333D01*
X180974366Y-117008333D02*
X181041033Y-116974999D01*
X181041033Y-116974999D02*
X181207700Y-116974999D01*
X181207700Y-116974999D02*
X181274366Y-117008333D01*
X181274366Y-117008333D02*
X181307700Y-117041666D01*
X181307700Y-117041666D02*
X181341033Y-117108333D01*
X181341033Y-117108333D02*
X181341033Y-117308333D01*
X181341033Y-117308333D02*
X181307700Y-117374999D01*
X181307700Y-117374999D02*
X181274366Y-117408333D01*
X187333333Y-112816033D02*
X187100000Y-112482700D01*
X186933333Y-112816033D02*
X186933333Y-112116033D01*
X186933333Y-112116033D02*
X187200000Y-112116033D01*
X187200000Y-112116033D02*
X187266667Y-112149366D01*
X187266667Y-112149366D02*
X187300000Y-112182700D01*
X187300000Y-112182700D02*
X187333333Y-112249366D01*
X187333333Y-112249366D02*
X187333333Y-112349366D01*
X187333333Y-112349366D02*
X187300000Y-112416033D01*
X187300000Y-112416033D02*
X187266667Y-112449366D01*
X187266667Y-112449366D02*
X187200000Y-112482700D01*
X187200000Y-112482700D02*
X186933333Y-112482700D01*
X187933333Y-112349366D02*
X187933333Y-112816033D01*
X187766667Y-112082700D02*
X187600000Y-112582700D01*
X187600000Y-112582700D02*
X188033333Y-112582700D01*
D12*
X203398999Y-112740966D02*
X203365666Y-112774300D01*
X203365666Y-112774300D02*
X203265666Y-112807633D01*
X203265666Y-112807633D02*
X203198999Y-112807633D01*
X203198999Y-112807633D02*
X203098999Y-112774300D01*
X203098999Y-112774300D02*
X203032333Y-112707633D01*
X203032333Y-112707633D02*
X202998999Y-112640966D01*
X202998999Y-112640966D02*
X202965666Y-112507633D01*
X202965666Y-112507633D02*
X202965666Y-112407633D01*
X202965666Y-112407633D02*
X202998999Y-112274300D01*
X202998999Y-112274300D02*
X203032333Y-112207633D01*
X203032333Y-112207633D02*
X203098999Y-112140966D01*
X203098999Y-112140966D02*
X203198999Y-112107633D01*
X203198999Y-112107633D02*
X203265666Y-112107633D01*
X203265666Y-112107633D02*
X203365666Y-112140966D01*
X203365666Y-112140966D02*
X203398999Y-112174300D01*
X204065666Y-112807633D02*
X203665666Y-112807633D01*
X203865666Y-112807633D02*
X203865666Y-112107633D01*
X203865666Y-112107633D02*
X203798999Y-112207633D01*
X203798999Y-112207633D02*
X203732333Y-112274300D01*
X203732333Y-112274300D02*
X203665666Y-112307633D01*
X204299000Y-112107633D02*
X204732333Y-112107633D01*
X204732333Y-112107633D02*
X204499000Y-112374300D01*
X204499000Y-112374300D02*
X204599000Y-112374300D01*
X204599000Y-112374300D02*
X204665666Y-112407633D01*
X204665666Y-112407633D02*
X204699000Y-112440966D01*
X204699000Y-112440966D02*
X204732333Y-112507633D01*
X204732333Y-112507633D02*
X204732333Y-112674300D01*
X204732333Y-112674300D02*
X204699000Y-112740966D01*
X204699000Y-112740966D02*
X204665666Y-112774300D01*
X204665666Y-112774300D02*
X204599000Y-112807633D01*
X204599000Y-112807633D02*
X204399000Y-112807633D01*
X204399000Y-112807633D02*
X204332333Y-112774300D01*
X204332333Y-112774300D02*
X204299000Y-112740966D01*
X211312333Y-109217966D02*
X211279000Y-109251300D01*
X211279000Y-109251300D02*
X211179000Y-109284633D01*
X211179000Y-109284633D02*
X211112333Y-109284633D01*
X211112333Y-109284633D02*
X211012333Y-109251300D01*
X211012333Y-109251300D02*
X210945667Y-109184633D01*
X210945667Y-109184633D02*
X210912333Y-109117966D01*
X210912333Y-109117966D02*
X210879000Y-108984633D01*
X210879000Y-108984633D02*
X210879000Y-108884633D01*
X210879000Y-108884633D02*
X210912333Y-108751300D01*
X210912333Y-108751300D02*
X210945667Y-108684633D01*
X210945667Y-108684633D02*
X211012333Y-108617966D01*
X211012333Y-108617966D02*
X211112333Y-108584633D01*
X211112333Y-108584633D02*
X211179000Y-108584633D01*
X211179000Y-108584633D02*
X211279000Y-108617966D01*
X211279000Y-108617966D02*
X211312333Y-108651300D01*
X211912333Y-108584633D02*
X211779000Y-108584633D01*
X211779000Y-108584633D02*
X211712333Y-108617966D01*
X211712333Y-108617966D02*
X211679000Y-108651300D01*
X211679000Y-108651300D02*
X211612333Y-108751300D01*
X211612333Y-108751300D02*
X211579000Y-108884633D01*
X211579000Y-108884633D02*
X211579000Y-109151300D01*
X211579000Y-109151300D02*
X211612333Y-109217966D01*
X211612333Y-109217966D02*
X211645667Y-109251300D01*
X211645667Y-109251300D02*
X211712333Y-109284633D01*
X211712333Y-109284633D02*
X211845667Y-109284633D01*
X211845667Y-109284633D02*
X211912333Y-109251300D01*
X211912333Y-109251300D02*
X211945667Y-109217966D01*
X211945667Y-109217966D02*
X211979000Y-109151300D01*
X211979000Y-109151300D02*
X211979000Y-108984633D01*
X211979000Y-108984633D02*
X211945667Y-108917966D01*
X211945667Y-108917966D02*
X211912333Y-108884633D01*
X211912333Y-108884633D02*
X211845667Y-108851300D01*
X211845667Y-108851300D02*
X211712333Y-108851300D01*
X211712333Y-108851300D02*
X211645667Y-108884633D01*
X211645667Y-108884633D02*
X211612333Y-108917966D01*
X211612333Y-108917966D02*
X211579000Y-108984633D01*
D14*
X206897999Y-119101033D02*
X206664666Y-118767700D01*
X206497999Y-119101033D02*
X206497999Y-118401033D01*
X206497999Y-118401033D02*
X206764666Y-118401033D01*
X206764666Y-118401033D02*
X206831333Y-118434366D01*
X206831333Y-118434366D02*
X206864666Y-118467700D01*
X206864666Y-118467700D02*
X206897999Y-118534366D01*
X206897999Y-118534366D02*
X206897999Y-118634366D01*
X206897999Y-118634366D02*
X206864666Y-118701033D01*
X206864666Y-118701033D02*
X206831333Y-118734366D01*
X206831333Y-118734366D02*
X206764666Y-118767700D01*
X206764666Y-118767700D02*
X206497999Y-118767700D01*
X207564666Y-119101033D02*
X207164666Y-119101033D01*
X207364666Y-119101033D02*
X207364666Y-118401033D01*
X207364666Y-118401033D02*
X207297999Y-118501033D01*
X207297999Y-118501033D02*
X207231333Y-118567700D01*
X207231333Y-118567700D02*
X207164666Y-118601033D01*
X208164666Y-118401033D02*
X208031333Y-118401033D01*
X208031333Y-118401033D02*
X207964666Y-118434366D01*
X207964666Y-118434366D02*
X207931333Y-118467700D01*
X207931333Y-118467700D02*
X207864666Y-118567700D01*
X207864666Y-118567700D02*
X207831333Y-118701033D01*
X207831333Y-118701033D02*
X207831333Y-118967700D01*
X207831333Y-118967700D02*
X207864666Y-119034366D01*
X207864666Y-119034366D02*
X207898000Y-119067700D01*
X207898000Y-119067700D02*
X207964666Y-119101033D01*
X207964666Y-119101033D02*
X208098000Y-119101033D01*
X208098000Y-119101033D02*
X208164666Y-119067700D01*
X208164666Y-119067700D02*
X208198000Y-119034366D01*
X208198000Y-119034366D02*
X208231333Y-118967700D01*
X208231333Y-118967700D02*
X208231333Y-118801033D01*
X208231333Y-118801033D02*
X208198000Y-118734366D01*
X208198000Y-118734366D02*
X208164666Y-118701033D01*
X208164666Y-118701033D02*
X208098000Y-118667700D01*
X208098000Y-118667700D02*
X207964666Y-118667700D01*
X207964666Y-118667700D02*
X207898000Y-118701033D01*
X207898000Y-118701033D02*
X207864666Y-118734366D01*
X207864666Y-118734366D02*
X207831333Y-118801033D01*
X205049366Y-110200000D02*
X205082700Y-110233333D01*
X205082700Y-110233333D02*
X205116033Y-110333333D01*
X205116033Y-110333333D02*
X205116033Y-110400000D01*
X205116033Y-110400000D02*
X205082700Y-110500000D01*
X205082700Y-110500000D02*
X205016033Y-110566667D01*
X205016033Y-110566667D02*
X204949366Y-110600000D01*
X204949366Y-110600000D02*
X204816033Y-110633333D01*
X204816033Y-110633333D02*
X204716033Y-110633333D01*
X204716033Y-110633333D02*
X204582700Y-110600000D01*
X204582700Y-110600000D02*
X204516033Y-110566667D01*
X204516033Y-110566667D02*
X204449366Y-110500000D01*
X204449366Y-110500000D02*
X204416033Y-110400000D01*
X204416033Y-110400000D02*
X204416033Y-110333333D01*
X204416033Y-110333333D02*
X204449366Y-110233333D01*
X204449366Y-110233333D02*
X204482700Y-110200000D01*
X205116033Y-109533333D02*
X205116033Y-109933333D01*
X205116033Y-109733333D02*
X204416033Y-109733333D01*
X204416033Y-109733333D02*
X204516033Y-109800000D01*
X204516033Y-109800000D02*
X204582700Y-109866667D01*
X204582700Y-109866667D02*
X204616033Y-109933333D01*
X204649366Y-108933333D02*
X205116033Y-108933333D01*
X204382700Y-109100000D02*
X204882700Y-109266666D01*
X204882700Y-109266666D02*
X204882700Y-108833333D01*
D12*
X195566666Y-115618633D02*
X195566666Y-114918633D01*
X195566666Y-115251966D02*
X195966666Y-115251966D01*
X195966666Y-115618633D02*
X195966666Y-114918633D01*
X196199999Y-114918633D02*
X196433333Y-115618633D01*
X196433333Y-115618633D02*
X196666666Y-114918633D01*
X197266666Y-115618633D02*
X196866666Y-115618633D01*
X197066666Y-115618633D02*
X197066666Y-114918633D01*
X197066666Y-114918633D02*
X196999999Y-115018633D01*
X196999999Y-115018633D02*
X196933333Y-115085300D01*
X196933333Y-115085300D02*
X196866666Y-115118633D01*
X207732666Y-114408233D02*
X207732666Y-114974900D01*
X207732666Y-114974900D02*
X207766000Y-115041566D01*
X207766000Y-115041566D02*
X207799333Y-115074900D01*
X207799333Y-115074900D02*
X207866000Y-115108233D01*
X207866000Y-115108233D02*
X207999333Y-115108233D01*
X207999333Y-115108233D02*
X208066000Y-115074900D01*
X208066000Y-115074900D02*
X208099333Y-115041566D01*
X208099333Y-115041566D02*
X208132666Y-114974900D01*
X208132666Y-114974900D02*
X208132666Y-114408233D01*
X208432666Y-114474900D02*
X208465999Y-114441566D01*
X208465999Y-114441566D02*
X208532666Y-114408233D01*
X208532666Y-114408233D02*
X208699333Y-114408233D01*
X208699333Y-114408233D02*
X208765999Y-114441566D01*
X208765999Y-114441566D02*
X208799333Y-114474900D01*
X208799333Y-114474900D02*
X208832666Y-114541566D01*
X208832666Y-114541566D02*
X208832666Y-114608233D01*
X208832666Y-114608233D02*
X208799333Y-114708233D01*
X208799333Y-114708233D02*
X208399333Y-115108233D01*
X208399333Y-115108233D02*
X208832666Y-115108233D01*
D14*
X211058333Y-112941033D02*
X210825000Y-112607700D01*
X210658333Y-112941033D02*
X210658333Y-112241033D01*
X210658333Y-112241033D02*
X210925000Y-112241033D01*
X210925000Y-112241033D02*
X210991667Y-112274366D01*
X210991667Y-112274366D02*
X211025000Y-112307700D01*
X211025000Y-112307700D02*
X211058333Y-112374366D01*
X211058333Y-112374366D02*
X211058333Y-112474366D01*
X211058333Y-112474366D02*
X211025000Y-112541033D01*
X211025000Y-112541033D02*
X210991667Y-112574366D01*
X210991667Y-112574366D02*
X210925000Y-112607700D01*
X210925000Y-112607700D02*
X210658333Y-112607700D01*
X211691667Y-112241033D02*
X211358333Y-112241033D01*
X211358333Y-112241033D02*
X211325000Y-112574366D01*
X211325000Y-112574366D02*
X211358333Y-112541033D01*
X211358333Y-112541033D02*
X211425000Y-112507700D01*
X211425000Y-112507700D02*
X211591667Y-112507700D01*
X211591667Y-112507700D02*
X211658333Y-112541033D01*
X211658333Y-112541033D02*
X211691667Y-112574366D01*
X211691667Y-112574366D02*
X211725000Y-112641033D01*
X211725000Y-112641033D02*
X211725000Y-112807700D01*
X211725000Y-112807700D02*
X211691667Y-112874366D01*
X211691667Y-112874366D02*
X211658333Y-112907700D01*
X211658333Y-112907700D02*
X211591667Y-112941033D01*
X211591667Y-112941033D02*
X211425000Y-112941033D01*
X211425000Y-112941033D02*
X211358333Y-112907700D01*
X211358333Y-112907700D02*
X211325000Y-112874366D01*
D12*
X202471633Y-106513333D02*
X201771633Y-106513333D01*
X202404966Y-105780000D02*
X202438300Y-105813333D01*
X202438300Y-105813333D02*
X202471633Y-105913333D01*
X202471633Y-105913333D02*
X202471633Y-105980000D01*
X202471633Y-105980000D02*
X202438300Y-106080000D01*
X202438300Y-106080000D02*
X202371633Y-106146667D01*
X202371633Y-106146667D02*
X202304966Y-106180000D01*
X202304966Y-106180000D02*
X202171633Y-106213333D01*
X202171633Y-106213333D02*
X202071633Y-106213333D01*
X202071633Y-106213333D02*
X201938300Y-106180000D01*
X201938300Y-106180000D02*
X201871633Y-106146667D01*
X201871633Y-106146667D02*
X201804966Y-106080000D01*
X201804966Y-106080000D02*
X201771633Y-105980000D01*
X201771633Y-105980000D02*
X201771633Y-105913333D01*
X201771633Y-105913333D02*
X201804966Y-105813333D01*
X201804966Y-105813333D02*
X201838300Y-105780000D01*
X202004966Y-105180000D02*
X202471633Y-105180000D01*
X201738300Y-105346667D02*
X202238300Y-105513333D01*
X202238300Y-105513333D02*
X202238300Y-105080000D01*
D14*
X195566666Y-93815165D02*
X195566666Y-94529450D01*
X195566666Y-94529450D02*
X195519047Y-94672307D01*
X195519047Y-94672307D02*
X195423809Y-94767546D01*
X195423809Y-94767546D02*
X195280952Y-94815165D01*
X195280952Y-94815165D02*
X195185714Y-94815165D01*
X196471428Y-94148498D02*
X196471428Y-94815165D01*
X196233333Y-93767546D02*
X195995238Y-94481831D01*
X195995238Y-94481831D02*
X196614285Y-94481831D01*
X181899999Y-107416033D02*
X181666666Y-107082700D01*
X181499999Y-107416033D02*
X181499999Y-106716033D01*
X181499999Y-106716033D02*
X181766666Y-106716033D01*
X181766666Y-106716033D02*
X181833333Y-106749366D01*
X181833333Y-106749366D02*
X181866666Y-106782700D01*
X181866666Y-106782700D02*
X181899999Y-106849366D01*
X181899999Y-106849366D02*
X181899999Y-106949366D01*
X181899999Y-106949366D02*
X181866666Y-107016033D01*
X181866666Y-107016033D02*
X181833333Y-107049366D01*
X181833333Y-107049366D02*
X181766666Y-107082700D01*
X181766666Y-107082700D02*
X181499999Y-107082700D01*
X182566666Y-107416033D02*
X182166666Y-107416033D01*
X182366666Y-107416033D02*
X182366666Y-106716033D01*
X182366666Y-106716033D02*
X182299999Y-106816033D01*
X182299999Y-106816033D02*
X182233333Y-106882700D01*
X182233333Y-106882700D02*
X182166666Y-106916033D01*
X182833333Y-106782700D02*
X182866666Y-106749366D01*
X182866666Y-106749366D02*
X182933333Y-106716033D01*
X182933333Y-106716033D02*
X183100000Y-106716033D01*
X183100000Y-106716033D02*
X183166666Y-106749366D01*
X183166666Y-106749366D02*
X183200000Y-106782700D01*
X183200000Y-106782700D02*
X183233333Y-106849366D01*
X183233333Y-106849366D02*
X183233333Y-106916033D01*
X183233333Y-106916033D02*
X183200000Y-107016033D01*
X183200000Y-107016033D02*
X182800000Y-107416033D01*
X182800000Y-107416033D02*
X183233333Y-107416033D01*
D11*
%TO.C,R6*%
X184894158Y-109125484D02*
X185368674Y-109125484D01*
X184894158Y-110170484D02*
X185368674Y-110170484D01*
%TO.C,R10*%
X191587258Y-112102500D02*
X191112742Y-112102500D01*
X191587258Y-113147500D02*
X191112742Y-113147500D01*
%TO.C,R2*%
X185356274Y-110649484D02*
X184881758Y-110649484D01*
X185356274Y-111694484D02*
X184881758Y-111694484D01*
%TO.C,R7*%
X197502000Y-112499758D02*
X197502000Y-112025242D01*
X198547000Y-112499758D02*
X198547000Y-112025242D01*
D14*
%TO.C,J1*%
X180644800Y-90246200D02*
X188264800Y-90246200D01*
X180644800Y-91516200D02*
X180644800Y-90246200D01*
X186994800Y-90373200D02*
X188137800Y-90373200D01*
X186994800Y-91389200D02*
X186994800Y-90373200D01*
X187121800Y-90373200D02*
X187121800Y-91389200D01*
X188137800Y-90373200D02*
X188137800Y-91389200D01*
X188137800Y-91389200D02*
X186994800Y-91389200D01*
X188264800Y-90246200D02*
X188264800Y-91516200D01*
X188264800Y-91516200D02*
X180644800Y-91516200D01*
X188168615Y-90881200D02*
G75*
G02*
X187090985Y-90881200I-538815J0D01*
G01*
X187090985Y-90881200D02*
G75*
G02*
X188168615Y-90881200I538815J0D01*
G01*
D11*
%TO.C,IC1*%
X178781716Y-109101046D02*
X178781716Y-111972922D01*
X183074316Y-111972922D02*
X183074316Y-109101046D01*
%TO.C,C7*%
X188689970Y-100788781D02*
X188888781Y-100589970D01*
X189411219Y-101510030D02*
X189610030Y-101311219D01*
%TO.C,C2*%
X204190000Y-104090580D02*
X204190000Y-103809420D01*
X205210000Y-104090580D02*
X205210000Y-103809420D01*
%TO.C,R1*%
X195692500Y-112505258D02*
X195692500Y-112030742D01*
X196737500Y-112505258D02*
X196737500Y-112030742D01*
%TO.C,C4*%
X178840000Y-98340580D02*
X178840000Y-98059420D01*
X179860000Y-98340580D02*
X179860000Y-98059420D01*
D12*
%TO.C,IC2*%
X188941503Y-102756007D02*
X188672095Y-103025415D01*
X188492490Y-102845810D01*
X188761897Y-102576402D01*
X188941503Y-102756007D01*
G36*
X188941503Y-102756007D02*
G01*
X188672095Y-103025415D01*
X188492490Y-102845810D01*
X188761897Y-102576402D01*
X188941503Y-102756007D01*
G37*
X195781486Y-110727363D02*
X195512078Y-110996770D01*
X195332473Y-110817165D01*
X195601881Y-110547758D01*
X195781486Y-110727363D01*
G36*
X195781486Y-110727363D02*
G01*
X195512078Y-110996770D01*
X195332473Y-110817165D01*
X195601881Y-110547758D01*
X195781486Y-110727363D01*
G37*
X197478542Y-102280124D02*
X197298937Y-102459729D01*
X197029529Y-102190321D01*
X197209134Y-102010716D01*
X197478542Y-102280124D01*
G36*
X197478542Y-102280124D02*
G01*
X197298937Y-102459729D01*
X197029529Y-102190321D01*
X197209134Y-102010716D01*
X197478542Y-102280124D01*
G37*
%TO.C,L1*%
X176500000Y-100950000D02*
X177200000Y-100950000D01*
X176500000Y-106350000D02*
X176500000Y-100950000D01*
X177200000Y-106350000D02*
X176500000Y-106350000D01*
X181200000Y-106350000D02*
X181900000Y-106350000D01*
X181900000Y-100950000D02*
X181200000Y-100950000D01*
X181900000Y-106350000D02*
X181900000Y-100950000D01*
D11*
%TO.C,J3*%
X206061000Y-96930000D02*
X207391000Y-96930000D01*
X206061000Y-98260000D02*
X206061000Y-96930000D01*
X206061000Y-99530000D02*
X206061000Y-104670000D01*
X206061000Y-99530000D02*
X208661000Y-99530000D01*
X206061000Y-104670000D02*
X211261000Y-104670000D01*
X208661000Y-96930000D02*
X211261000Y-96930000D01*
X208661000Y-99530000D02*
X208661000Y-96930000D01*
X211261000Y-96930000D02*
X211261000Y-104670000D01*
%TO.C,C9*%
X193292000Y-92850580D02*
X193292000Y-92569420D01*
X194312000Y-92850580D02*
X194312000Y-92569420D01*
%TO.C,R13*%
X190510900Y-115916942D02*
X190510900Y-116391458D01*
X191555900Y-115916942D02*
X191555900Y-116391458D01*
%TO.C,R11*%
X183211916Y-115219242D02*
X183211916Y-114744726D01*
X184256916Y-115219242D02*
X184256916Y-114744726D01*
%TO.C,D3*%
X175740000Y-113910000D02*
X175740000Y-108850000D01*
X175740000Y-113910000D02*
X178460000Y-113910000D01*
X178460000Y-113910000D02*
X178460000Y-108850000D01*
%TO.C,TP_GND2*%
X199080000Y-117680000D02*
G75*
G02*
X197680000Y-117680000I-700000J0D01*
G01*
X197680000Y-117680000D02*
G75*
G02*
X199080000Y-117680000I700000J0D01*
G01*
%TO.C,R3*%
X199153000Y-112025242D02*
X199153000Y-112499758D01*
X200198000Y-112025242D02*
X200198000Y-112499758D01*
%TO.C,C12*%
X209124000Y-114293420D02*
X209124000Y-114574580D01*
X210144000Y-114293420D02*
X210144000Y-114574580D01*
%TO.C,R15*%
X210551500Y-117237742D02*
X210551500Y-117712258D01*
X211596500Y-117237742D02*
X211596500Y-117712258D01*
%TO.C,C18*%
X186739970Y-102561219D02*
X186938781Y-102760030D01*
X187461219Y-101839970D02*
X187660030Y-102038781D01*
%TO.C,R9*%
X193412779Y-96940000D02*
X193087221Y-96940000D01*
X193412779Y-97960000D02*
X193087221Y-97960000D01*
%TO.C,C10*%
X190105420Y-94613000D02*
X190386580Y-94613000D01*
X190105420Y-95633000D02*
X190386580Y-95633000D01*
%TO.C,R8*%
X206537221Y-93890000D02*
X206862779Y-93890000D01*
X206537221Y-94910000D02*
X206862779Y-94910000D01*
%TO.C,C5*%
X209006064Y-105643000D02*
X207801936Y-105643000D01*
X209006064Y-107463000D02*
X207801936Y-107463000D01*
%TO.C,D2*%
X184650016Y-113608984D02*
X184650016Y-116158984D01*
X186350016Y-113608984D02*
X184650016Y-113608984D01*
X186350016Y-113608984D02*
X186350016Y-116158984D01*
%TO.C,C1*%
X179665000Y-114834420D02*
X179665000Y-115115580D01*
X180685000Y-114834420D02*
X180685000Y-115115580D01*
%TO.C,C15*%
X182784420Y-116990000D02*
X183065580Y-116990000D01*
X182784420Y-118010000D02*
X183065580Y-118010000D01*
%TO.C,C16*%
X185259596Y-105835984D02*
X184978436Y-105835984D01*
X185259596Y-106855984D02*
X184978436Y-106855984D01*
%TO.C,C17*%
X187946420Y-113282000D02*
X188227580Y-113282000D01*
X187946420Y-114302000D02*
X188227580Y-114302000D01*
%TO.C,U1*%
X189818700Y-92219739D02*
X189818700Y-92946261D01*
X189818700Y-94221300D02*
X191825300Y-94221300D01*
X191825300Y-90944700D02*
X189818700Y-90944700D01*
%TO.C,U3*%
X186654000Y-116586000D02*
X186654000Y-115786000D01*
X186654000Y-116586000D02*
X186654000Y-118386000D01*
X189774000Y-116586000D02*
X189774000Y-115786000D01*
X189774000Y-116586000D02*
X189774000Y-117386000D01*
%TO.C,C11*%
X209006064Y-110469000D02*
X207801936Y-110469000D01*
X209006064Y-112289000D02*
X207801936Y-112289000D01*
%TO.C,C3*%
X181390000Y-115165580D02*
X181390000Y-114884420D01*
X182410000Y-115165580D02*
X182410000Y-114884420D01*
%TO.C,R4*%
X185356274Y-112173484D02*
X184881758Y-112173484D01*
X185356274Y-113218484D02*
X184881758Y-113218484D01*
%TO.C,C13*%
X202925000Y-114586936D02*
X202925000Y-115791064D01*
X204745000Y-114586936D02*
X204745000Y-115791064D01*
%TO.C,C6*%
X209006064Y-108056000D02*
X207801936Y-108056000D01*
X209006064Y-109876000D02*
X207801936Y-109876000D01*
%TO.C,R16*%
X207585258Y-116832500D02*
X207110742Y-116832500D01*
X207585258Y-117877500D02*
X207110742Y-117877500D01*
%TO.C,C14*%
X204265000Y-106909420D02*
X204265000Y-107190580D01*
X205285000Y-106909420D02*
X205285000Y-107190580D01*
%TO.C,HV1*%
X199074000Y-115189000D02*
G75*
G02*
X197674000Y-115189000I-700000J0D01*
G01*
X197674000Y-115189000D02*
G75*
G02*
X199074000Y-115189000I700000J0D01*
G01*
%TO.C,U2*%
X206067000Y-116352000D02*
X207867000Y-116352000D01*
X207867000Y-113132000D02*
X205417000Y-113132000D01*
%TO.C,R5*%
X210635500Y-114196742D02*
X210635500Y-114671258D01*
X211680500Y-114196742D02*
X211680500Y-114671258D01*
D15*
%TO.C,IC4*%
X200603000Y-109505000D02*
X200603000Y-108030000D01*
X200653000Y-103980000D02*
X203653000Y-103980000D01*
X200653000Y-107680000D02*
X200653000Y-103980000D01*
X203653000Y-103980000D02*
X203653000Y-107680000D01*
X203653000Y-107680000D02*
X200653000Y-107680000D01*
D17*
%TO.C,J4*%
X195300000Y-95950000D02*
X196830000Y-95950000D01*
X195300000Y-99750000D02*
X195300000Y-95950000D01*
X196830000Y-99750000D02*
X195300000Y-99750000D01*
X199270000Y-95950000D02*
X200830000Y-95950000D01*
X200830000Y-99750000D02*
X199270000Y-99750000D01*
X203270000Y-95950000D02*
X204800000Y-95950000D01*
X204800000Y-95950000D02*
X204800000Y-99750000D01*
X204800000Y-99750000D02*
X203270000Y-99750000D01*
D15*
X194700000Y-96150000D02*
G75*
G02*
X194500000Y-96150000I-100000J0D01*
G01*
X194500000Y-96150000D02*
G75*
G02*
X194700000Y-96150000I100000J0D01*
G01*
D11*
%TO.C,R12*%
X184881758Y-107474484D02*
X185356274Y-107474484D01*
X184881758Y-108519484D02*
X185356274Y-108519484D01*
%TD*%
M02*
