%TF.GenerationSoftware,KiCad,Pcbnew,9.0.7*%
%TF.CreationDate,2026-02-15T20:10:59-05:00*%
%TF.ProjectId,bias_generator_LT8362,62696173-5f67-4656-9e65-7261746f725f,rev?*%
%TF.SameCoordinates,Original*%
%TF.FileFunction,Soldermask,Top*%
%TF.FilePolarity,Negative*%
%FSLAX46Y46*%
G04 Gerber Fmt 4.6, Leading zero omitted, Abs format (unit mm)*
G04 Created by KiCad (PCBNEW 9.0.7) date 2026-02-15 20:10:59*
%MOMM*%
%LPD*%
G01*
G04 APERTURE LIST*
G04 Aperture macros list*
%AMRoundRect*
0 Rectangle with rounded corners*
0 $1 Rounding radius*
0 $2 $3 $4 $5 $6 $7 $8 $9 X,Y pos of 4 corners*
0 Add a 4 corners polygon primitive as box body*
4,1,4,$2,$3,$4,$5,$6,$7,$8,$9,$2,$3,0*
0 Add four circle primitives for the rounded corners*
1,1,$1+$1,$2,$3*
1,1,$1+$1,$4,$5*
1,1,$1+$1,$6,$7*
1,1,$1+$1,$8,$9*
0 Add four rect primitives between the rounded corners*
20,1,$1+$1,$2,$3,$4,$5,0*
20,1,$1+$1,$4,$5,$6,$7,0*
20,1,$1+$1,$6,$7,$8,$9,0*
20,1,$1+$1,$8,$9,$2,$3,0*%
%AMRotRect*
0 Rectangle, with rotation*
0 The origin of the aperture is its center*
0 $1 length*
0 $2 width*
0 $3 Rotation angle, in degrees counterclockwise*
0 Add horizontal line*
21,1,$1,$2,0,0,$3*%
G04 Aperture macros list end*
%ADD10RoundRect,0.200000X-0.200000X-0.275000X0.200000X-0.275000X0.200000X0.275000X-0.200000X0.275000X0*%
%ADD11RoundRect,0.200000X0.200000X0.275000X-0.200000X0.275000X-0.200000X-0.275000X0.200000X-0.275000X0*%
%ADD12RoundRect,0.200000X0.275000X-0.200000X0.275000X0.200000X-0.275000X0.200000X-0.275000X-0.200000X0*%
%ADD13C,0.704800*%
%ADD14R,0.700000X0.700000*%
%ADD15R,0.304800X0.889000*%
%ADD16R,2.844800X1.651000*%
%ADD17RoundRect,0.225000X0.017678X-0.335876X0.335876X-0.017678X-0.017678X0.335876X-0.335876X0.017678X0*%
%ADD18RoundRect,0.225000X0.250000X-0.225000X0.250000X0.225000X-0.250000X0.225000X-0.250000X-0.225000X0*%
%ADD19RotRect,0.508000X1.473200X135.000000*%
%ADD20RotRect,0.508000X1.473200X45.000000*%
%ADD21R,2.800000X1.500000*%
%ADD22R,1.700000X1.700000*%
%ADD23O,1.700000X1.700000*%
%ADD24RoundRect,0.200000X-0.275000X0.200000X-0.275000X-0.200000X0.275000X-0.200000X0.275000X0.200000X0*%
%ADD25RoundRect,0.250000X0.800000X-0.450000X0.800000X0.450000X-0.800000X0.450000X-0.800000X-0.450000X0*%
%ADD26C,1.000000*%
%ADD27RoundRect,0.225000X-0.250000X0.225000X-0.250000X-0.225000X0.250000X-0.225000X0.250000X0.225000X0*%
%ADD28RoundRect,0.225000X-0.335876X-0.017678X-0.017678X-0.335876X0.335876X0.017678X0.017678X0.335876X0*%
%ADD29RoundRect,0.218750X0.218750X0.256250X-0.218750X0.256250X-0.218750X-0.256250X0.218750X-0.256250X0*%
%ADD30RoundRect,0.225000X-0.225000X-0.250000X0.225000X-0.250000X0.225000X0.250000X-0.225000X0.250000X0*%
%ADD31RoundRect,0.218750X-0.218750X-0.256250X0.218750X-0.256250X0.218750X0.256250X-0.218750X0.256250X0*%
%ADD32RoundRect,0.250000X0.375000X0.625000X-0.375000X0.625000X-0.375000X-0.625000X0.375000X-0.625000X0*%
%ADD33R,0.500000X0.500000*%
%ADD34RoundRect,0.225000X0.225000X0.250000X-0.225000X0.250000X-0.225000X-0.250000X0.225000X-0.250000X0*%
%ADD35R,0.977900X0.508000*%
%ADD36RoundRect,0.150000X0.150000X-0.512500X0.150000X0.512500X-0.150000X0.512500X-0.150000X-0.512500X0*%
%ADD37RoundRect,0.250000X-0.625000X0.375000X-0.625000X-0.375000X0.625000X-0.375000X0.625000X0.375000X0*%
%ADD38R,1.060000X0.650000*%
%ADD39R,0.450000X1.475000*%
%ADD40RoundRect,0.090000X-0.210000X-0.210000X0.210000X-0.210000X0.210000X0.210000X-0.210000X0.210000X0*%
%ADD41RoundRect,0.150000X-0.850000X-0.350000X0.850000X-0.350000X0.850000X0.350000X-0.850000X0.350000X0*%
G04 APERTURE END LIST*
D10*
%TO.C,R6*%
X184306416Y-109647984D03*
X185956416Y-109647984D03*
%TD*%
D11*
%TO.C,R10*%
X192175000Y-112625000D03*
X190525000Y-112625000D03*
%TD*%
%TO.C,R2*%
X185944016Y-111171984D03*
X184294016Y-111171984D03*
%TD*%
D12*
%TO.C,R7*%
X198024500Y-113087500D03*
X198024500Y-111437500D03*
%TD*%
D13*
%TO.C,J1*%
X187629800Y-90881200D03*
D14*
X186359800Y-90881200D03*
X185089800Y-90881200D03*
X183819800Y-90881200D03*
X182549800Y-90881200D03*
D13*
X181279800Y-90881200D03*
%TD*%
D15*
%TO.C,IC1*%
X179176686Y-112645184D03*
X180177446Y-112645184D03*
X181178206Y-112645184D03*
X181678586Y-112645184D03*
X182178966Y-112645184D03*
X182679346Y-112645184D03*
X182679346Y-108428784D03*
X182178966Y-108428784D03*
X181678586Y-108428784D03*
X181178206Y-108428784D03*
X180177446Y-108428784D03*
X179176686Y-108428784D03*
D16*
X180928016Y-110536984D03*
%TD*%
D17*
%TO.C,C7*%
X188601992Y-101598008D03*
X189698008Y-100501992D03*
%TD*%
D18*
%TO.C,C2*%
X204700000Y-104725000D03*
X204700000Y-103175000D03*
%TD*%
D12*
%TO.C,R1*%
X196215000Y-113093000D03*
X196215000Y-111443000D03*
%TD*%
D18*
%TO.C,C4*%
X179350000Y-98975000D03*
X179350000Y-97425000D03*
%TD*%
D19*
%TO.C,IC2*%
X188375889Y-106587889D03*
X188941573Y-107153573D03*
X189507259Y-107719259D03*
X190072945Y-108284945D03*
X190638629Y-108850629D03*
X191204315Y-109416315D03*
X191770000Y-109982000D03*
X192335685Y-110547685D03*
D20*
X194201033Y-110547685D03*
X194766717Y-109982001D03*
X195332403Y-109416315D03*
X195898089Y-108850629D03*
X196463773Y-108284945D03*
X197029459Y-107719259D03*
X197595144Y-107153574D03*
X198160829Y-106587889D03*
D19*
X198160829Y-104722541D03*
X197595145Y-104156857D03*
X197029459Y-103591171D03*
X196463773Y-103025485D03*
X195898089Y-102459801D03*
X195332403Y-101894115D03*
X194766718Y-101328430D03*
X194201033Y-100762745D03*
D20*
X192335685Y-100762745D03*
X191770001Y-101328429D03*
X191204315Y-101894115D03*
X190638629Y-102459801D03*
X190072945Y-103025485D03*
X189507259Y-103591171D03*
X188941574Y-104156856D03*
X188375889Y-104722541D03*
%TD*%
D21*
%TO.C,L1*%
X179200000Y-105800000D03*
X179200000Y-101500000D03*
%TD*%
D22*
%TO.C,J3*%
X207391000Y-98260000D03*
D23*
X209931000Y-98260000D03*
X207391000Y-100800000D03*
X209931000Y-100800000D03*
X207391000Y-103340000D03*
X209931000Y-103340000D03*
%TD*%
D18*
%TO.C,C9*%
X193802000Y-93485000D03*
X193802000Y-91935000D03*
%TD*%
D24*
%TO.C,R13*%
X191033400Y-115329200D03*
X191033400Y-116979200D03*
%TD*%
D12*
%TO.C,R11*%
X183734416Y-115806984D03*
X183734416Y-114156984D03*
%TD*%
D25*
%TO.C,D3*%
X177100000Y-112950000D03*
X177100000Y-108550000D03*
%TD*%
D26*
%TO.C,TP_GND2*%
X198380000Y-117680000D03*
%TD*%
D24*
%TO.C,R3*%
X199675500Y-111437500D03*
X199675500Y-113087500D03*
%TD*%
D27*
%TO.C,C12*%
X209634000Y-113659000D03*
X209634000Y-115209000D03*
%TD*%
D24*
%TO.C,R15*%
X211074000Y-116650000D03*
X211074000Y-118300000D03*
%TD*%
D28*
%TO.C,C18*%
X186651992Y-101751992D03*
X187748008Y-102848008D03*
%TD*%
D29*
%TO.C,R9*%
X194037500Y-97450000D03*
X192462500Y-97450000D03*
%TD*%
D30*
%TO.C,C10*%
X189471000Y-95123000D03*
X191021000Y-95123000D03*
%TD*%
D31*
%TO.C,R8*%
X205912500Y-94400000D03*
X207487500Y-94400000D03*
%TD*%
D32*
%TO.C,C5*%
X209804000Y-106553000D03*
X207004000Y-106553000D03*
%TD*%
D33*
%TO.C,D2*%
X185500016Y-114008984D03*
X185500016Y-116208984D03*
%TD*%
D27*
%TO.C,C1*%
X180175000Y-114200000D03*
X180175000Y-115750000D03*
%TD*%
D30*
%TO.C,C15*%
X182150000Y-117500000D03*
X183700000Y-117500000D03*
%TD*%
D34*
%TO.C,C16*%
X185894016Y-106345984D03*
X184344016Y-106345984D03*
%TD*%
D30*
%TO.C,C17*%
X187312000Y-113792000D03*
X188862000Y-113792000D03*
%TD*%
D35*
%TO.C,U1*%
X192187250Y-93533001D03*
X192187250Y-92583000D03*
X192187250Y-91632999D03*
X189456750Y-91632999D03*
X189456750Y-93533001D03*
%TD*%
D36*
%TO.C,U3*%
X187264000Y-117723500D03*
X188214000Y-117723500D03*
X189164000Y-117723500D03*
X189164000Y-115448500D03*
X188214000Y-115448500D03*
X187264000Y-115448500D03*
%TD*%
D32*
%TO.C,C11*%
X209804000Y-111379000D03*
X207004000Y-111379000D03*
%TD*%
D18*
%TO.C,C3*%
X181900000Y-115800000D03*
X181900000Y-114250000D03*
%TD*%
D11*
%TO.C,R4*%
X185944016Y-112695984D03*
X184294016Y-112695984D03*
%TD*%
D37*
%TO.C,C13*%
X203835000Y-113789000D03*
X203835000Y-116589000D03*
%TD*%
D32*
%TO.C,C6*%
X209804000Y-108966000D03*
X207004000Y-108966000D03*
%TD*%
D11*
%TO.C,R16*%
X208173000Y-117355000D03*
X206523000Y-117355000D03*
%TD*%
D27*
%TO.C,C14*%
X204775000Y-106275000D03*
X204775000Y-107825000D03*
%TD*%
D26*
%TO.C,HV1*%
X198374000Y-115189000D03*
%TD*%
D38*
%TO.C,U2*%
X205867000Y-113792000D03*
X205867000Y-114742000D03*
X205867000Y-115692000D03*
X208067000Y-115692000D03*
X208067000Y-113792000D03*
%TD*%
D24*
%TO.C,R5*%
X211158000Y-113609000D03*
X211158000Y-115259000D03*
%TD*%
D39*
%TO.C,IC4*%
X201178000Y-108768000D03*
X201828000Y-108768000D03*
X202478000Y-108768000D03*
X203128000Y-108768000D03*
X203128000Y-102892000D03*
X202478000Y-102892000D03*
X201828000Y-102892000D03*
X201178000Y-102892000D03*
%TD*%
D40*
%TO.C,J4*%
X196800000Y-97150000D03*
X197750000Y-97150000D03*
X198700000Y-97150000D03*
X199600000Y-97150000D03*
X200500000Y-97150000D03*
X201400000Y-97150000D03*
X202350000Y-97150000D03*
X203300000Y-97150000D03*
X203300000Y-98550000D03*
X202350000Y-98550000D03*
X201400000Y-98550000D03*
X200500000Y-98550000D03*
X199600000Y-98550000D03*
X198700000Y-98550000D03*
X197750000Y-98550000D03*
X196800000Y-98550000D03*
D41*
X198025000Y-99800988D03*
X198050000Y-95925000D03*
X202050000Y-95925000D03*
X202050988Y-99800988D03*
%TD*%
D10*
%TO.C,R12*%
X184294016Y-107996984D03*
X185944016Y-107996984D03*
%TD*%
M02*
