M48
; DRILL file {KiCad 9.0.7} date 2026-02-15T20:11:01-0500
; FORMAT={-:-/ absolute / metric / decimal}
; #@! TF.CreationDate,2026-02-15T20:11:01-05:00
; #@! TF.GenerationSoftware,Kicad,Pcbnew,9.0.7
; #@! TF.FileFunction,MixedPlating,1,4
FMAT,2
METRIC
; #@! TA.AperFunction,Plated,PTH,ViaDrill
T1C0.200
; #@! TA.AperFunction,Plated,PTH,ComponentDrill
T2C0.300
; #@! TA.AperFunction,Plated,PTH,ComponentDrill
T3C0.400
; #@! TA.AperFunction,Plated,PTH,ComponentDrill
T4C0.500
; #@! TA.AperFunction,Plated,PTH,ComponentDrill
T5C1.000
%
G90
G05
T1
X176.7Y-112.4
X177.6Y-113.1
X177.75Y-111.85
X178.925Y-114.92
X179.2Y-110.0
X179.2Y-110.6
X179.35Y-96.7
X179.75Y-111.7
X180.175Y-113.425
X180.25Y-115.075
X180.4Y-99.0
X180.9Y-110.1
X180.9Y-111.0
X181.15Y-117.525
X181.304Y-113.546
X181.925Y-115.075
X183.82Y-99.644
X184.35Y-110.35
X184.565Y-100.939
X185.09Y-97.866
X185.5Y-117.5
X185.9Y-112.8
X186.7Y-106.3
X186.7Y-107.997
X186.8Y-109.0
X187.0Y-100.95
X187.25Y-114.55
X187.8Y-106.25
X188.2Y-116.5
X188.214Y-96.012
X188.44Y-108.71
X189.0Y-99.95
X189.471Y-95.872
X189.475Y-114.325
X189.5Y-111.0
X190.408Y-104.492
X190.699Y-100.258
X191.021Y-94.15
X191.43Y-104.26
X191.6Y-97.45
X192.187Y-90.841
X193.05Y-92.6
X193.103Y-112.966
X193.65Y-111.0
X193.802Y-94.2
X194.05Y-109.25
X194.183Y-111.887
X194.6Y-108.7
X195.2Y-96.55
X197.231Y-108.966
X198.374Y-115.189
X198.4Y-117.65
X199.517Y-112.903
X199.644Y-111.252
X200.0Y-103.025
X201.625Y-107.1
X203.125Y-110.925
X203.8Y-103.175
X203.9Y-106.225
X204.55Y-115.15
X205.05Y-115.697
X205.2Y-118.0
X208.3Y-94.5
X208.401Y-106.553
X208.401Y-108.966
X208.401Y-111.379
X209.8Y-109.2
X209.804Y-106.553
X210.05Y-118.5
T2
X181.28Y-90.881
X187.63Y-90.881
T3
X196.8Y-97.15
X196.8Y-98.55
X197.75Y-97.15
X197.75Y-98.55
X198.7Y-97.15
X198.7Y-98.55
X199.6Y-97.15
X199.6Y-98.55
X200.5Y-97.15
X200.5Y-98.55
X201.4Y-97.15
X201.4Y-98.55
X202.35Y-97.15
X202.35Y-98.55
X203.3Y-97.15
X203.3Y-98.55
T5
X207.391Y-98.26
X207.391Y-100.8
X207.391Y-103.34
X209.931Y-98.26
X209.931Y-100.8
X209.931Y-103.34
T4
X197.575Y-99.801G85X198.475Y-99.801
G05
X197.6Y-95.925G85X198.5Y-95.925
G05
X201.6Y-95.925G85X202.5Y-95.925
G05
X201.601Y-99.801G85X202.501Y-99.801
G05
M30
