%TF.GenerationSoftware,KiCad,Pcbnew,9.0.7*%
%TF.CreationDate,2026-02-15T20:11:08-05:00*%
%TF.ProjectId,tiav3,74696176-332e-46b6-9963-61645f706362,rev?*%
%TF.SameCoordinates,Original*%
%TF.FileFunction,Soldermask,Top*%
%TF.FilePolarity,Negative*%
%FSLAX46Y46*%
G04 Gerber Fmt 4.6, Leading zero omitted, Abs format (unit mm)*
G04 Created by KiCad (PCBNEW 9.0.7) date 2026-02-15 20:11:08*
%MOMM*%
%LPD*%
G01*
G04 APERTURE LIST*
G04 Aperture macros list*
%AMRoundRect*
0 Rectangle with rounded corners*
0 $1 Rounding radius*
0 $2 $3 $4 $5 $6 $7 $8 $9 X,Y pos of 4 corners*
0 Add a 4 corners polygon primitive as box body*
4,1,4,$2,$3,$4,$5,$6,$7,$8,$9,$2,$3,0*
0 Add four circle primitives for the rounded corners*
1,1,$1+$1,$2,$3*
1,1,$1+$1,$4,$5*
1,1,$1+$1,$6,$7*
1,1,$1+$1,$8,$9*
0 Add four rect primitives between the rounded corners*
20,1,$1+$1,$2,$3,$4,$5,0*
20,1,$1+$1,$4,$5,$6,$7,0*
20,1,$1+$1,$6,$7,$8,$9,0*
20,1,$1+$1,$8,$9,$2,$3,0*%
G04 Aperture macros list end*
%ADD10RoundRect,0.250000X-0.650000X0.412500X-0.650000X-0.412500X0.650000X-0.412500X0.650000X0.412500X0*%
%ADD11RoundRect,0.140000X0.140000X0.170000X-0.140000X0.170000X-0.140000X-0.170000X0.140000X-0.170000X0*%
%ADD12RoundRect,0.225000X0.225000X0.250000X-0.225000X0.250000X-0.225000X-0.250000X0.225000X-0.250000X0*%
%ADD13RoundRect,0.160000X-0.197500X-0.160000X0.197500X-0.160000X0.197500X0.160000X-0.197500X0.160000X0*%
%ADD14RoundRect,0.160000X0.197500X0.160000X-0.197500X0.160000X-0.197500X-0.160000X0.197500X-0.160000X0*%
%ADD15R,1.700000X1.700000*%
%ADD16O,1.700000X1.700000*%
%ADD17RoundRect,0.237500X-0.237500X0.287500X-0.237500X-0.287500X0.237500X-0.287500X0.237500X0.287500X0*%
%ADD18RoundRect,0.160000X0.160000X-0.197500X0.160000X0.197500X-0.160000X0.197500X-0.160000X-0.197500X0*%
%ADD19RoundRect,0.140000X0.170000X-0.140000X0.170000X0.140000X-0.170000X0.140000X-0.170000X-0.140000X0*%
%ADD20R,1.473200X0.558800*%
%ADD21C,2.240000*%
%ADD22C,2.740000*%
%ADD23RoundRect,0.155000X0.155000X-0.212500X0.155000X0.212500X-0.155000X0.212500X-0.155000X-0.212500X0*%
%ADD24RoundRect,0.155000X-0.212500X-0.155000X0.212500X-0.155000X0.212500X0.155000X-0.212500X0.155000X0*%
%ADD25RoundRect,0.218750X-0.218750X-0.256250X0.218750X-0.256250X0.218750X0.256250X-0.218750X0.256250X0*%
%ADD26C,1.200000*%
G04 APERTURE END LIST*
D10*
%TO.C,C1*%
X200200000Y-101837500D03*
X200200000Y-104962500D03*
%TD*%
D11*
%TO.C,C7*%
X190165400Y-100201800D03*
X189205400Y-100201800D03*
%TD*%
%TO.C,C5*%
X193430000Y-97350000D03*
X192470000Y-97350000D03*
%TD*%
D12*
%TO.C,C8*%
X190460400Y-101301800D03*
X188910400Y-101301800D03*
%TD*%
D13*
%TO.C,R3*%
X189087900Y-102401800D03*
X190282900Y-102401800D03*
%TD*%
D14*
%TO.C,R11*%
X205797500Y-105300000D03*
X204602500Y-105300000D03*
%TD*%
D15*
%TO.C,J1*%
X206900000Y-97500000D03*
D16*
X209440000Y-97500000D03*
X206900000Y-100040000D03*
X209440000Y-100040000D03*
X206900000Y-102580000D03*
X209440000Y-102580000D03*
%TD*%
D14*
%TO.C,R23*%
X196095000Y-100150000D03*
X194900000Y-100150000D03*
%TD*%
D17*
%TO.C,L1*%
X196000000Y-103487500D03*
X196000000Y-105237500D03*
%TD*%
D18*
%TO.C,R1*%
X191425000Y-97550000D03*
X191425000Y-96355000D03*
%TD*%
D19*
%TO.C,C9*%
X190250000Y-99230000D03*
X190250000Y-98270000D03*
%TD*%
D18*
%TO.C,R5*%
X196000000Y-102345000D03*
X196000000Y-101150000D03*
%TD*%
D20*
%TO.C,U1*%
X191520800Y-98251799D03*
X191520800Y-99201800D03*
X191520800Y-100151801D03*
X193756000Y-100151801D03*
X193756000Y-99201800D03*
X193756000Y-98251799D03*
%TD*%
D21*
%TO.C,J2*%
X200025000Y-91950000D03*
D22*
X197485000Y-89410000D03*
X197485000Y-94490000D03*
X202565000Y-89410000D03*
X202565000Y-94490000D03*
%TD*%
D13*
%TO.C,R7*%
X191250000Y-102400000D03*
X192445000Y-102400000D03*
%TD*%
D23*
%TO.C,C3*%
X194275000Y-94972500D03*
X194275000Y-93837500D03*
%TD*%
D24*
%TO.C,C2*%
X191427500Y-93900000D03*
X192562500Y-93900000D03*
%TD*%
D25*
%TO.C,L2*%
X191550000Y-95100000D03*
X193125000Y-95100000D03*
%TD*%
D10*
%TO.C,C4*%
X202400000Y-101837500D03*
X202400000Y-104962500D03*
%TD*%
D26*
%TO.C,D1*%
X202540000Y-100000000D03*
X197460000Y-100000000D03*
X200000000Y-97460000D03*
%TD*%
M02*
