%TF.GenerationSoftware,KiCad,Pcbnew,9.0.7*%
%TF.CreationDate,2026-02-15T20:11:08-05:00*%
%TF.ProjectId,tiav3,74696176-332e-46b6-9963-61645f706362,rev?*%
%TF.SameCoordinates,Original*%
%TF.FileFunction,Copper,L1,Top*%
%TF.FilePolarity,Positive*%
%FSLAX46Y46*%
G04 Gerber Fmt 4.6, Leading zero omitted, Abs format (unit mm)*
G04 Created by KiCad (PCBNEW 9.0.7) date 2026-02-15 20:11:08*
%MOMM*%
%LPD*%
G01*
G04 APERTURE LIST*
G04 Aperture macros list*
%AMRoundRect*
0 Rectangle with rounded corners*
0 $1 Rounding radius*
0 $2 $3 $4 $5 $6 $7 $8 $9 X,Y pos of 4 corners*
0 Add a 4 corners polygon primitive as box body*
4,1,4,$2,$3,$4,$5,$6,$7,$8,$9,$2,$3,0*
0 Add four circle primitives for the rounded corners*
1,1,$1+$1,$2,$3*
1,1,$1+$1,$4,$5*
1,1,$1+$1,$6,$7*
1,1,$1+$1,$8,$9*
0 Add four rect primitives between the rounded corners*
20,1,$1+$1,$2,$3,$4,$5,0*
20,1,$1+$1,$4,$5,$6,$7,0*
20,1,$1+$1,$6,$7,$8,$9,0*
20,1,$1+$1,$8,$9,$2,$3,0*%
G04 Aperture macros list end*
%TA.AperFunction,SMDPad,CuDef*%
%ADD10RoundRect,0.250000X-0.650000X0.412500X-0.650000X-0.412500X0.650000X-0.412500X0.650000X0.412500X0*%
%TD*%
%TA.AperFunction,SMDPad,CuDef*%
%ADD11RoundRect,0.140000X0.140000X0.170000X-0.140000X0.170000X-0.140000X-0.170000X0.140000X-0.170000X0*%
%TD*%
%TA.AperFunction,SMDPad,CuDef*%
%ADD12RoundRect,0.225000X0.225000X0.250000X-0.225000X0.250000X-0.225000X-0.250000X0.225000X-0.250000X0*%
%TD*%
%TA.AperFunction,SMDPad,CuDef*%
%ADD13RoundRect,0.160000X-0.197500X-0.160000X0.197500X-0.160000X0.197500X0.160000X-0.197500X0.160000X0*%
%TD*%
%TA.AperFunction,SMDPad,CuDef*%
%ADD14RoundRect,0.160000X0.197500X0.160000X-0.197500X0.160000X-0.197500X-0.160000X0.197500X-0.160000X0*%
%TD*%
%TA.AperFunction,ComponentPad*%
%ADD15R,1.700000X1.700000*%
%TD*%
%TA.AperFunction,ComponentPad*%
%ADD16O,1.700000X1.700000*%
%TD*%
%TA.AperFunction,SMDPad,CuDef*%
%ADD17RoundRect,0.237500X-0.237500X0.287500X-0.237500X-0.287500X0.237500X-0.287500X0.237500X0.287500X0*%
%TD*%
%TA.AperFunction,SMDPad,CuDef*%
%ADD18RoundRect,0.160000X0.160000X-0.197500X0.160000X0.197500X-0.160000X0.197500X-0.160000X-0.197500X0*%
%TD*%
%TA.AperFunction,SMDPad,CuDef*%
%ADD19RoundRect,0.140000X0.170000X-0.140000X0.170000X0.140000X-0.170000X0.140000X-0.170000X-0.140000X0*%
%TD*%
%TA.AperFunction,SMDPad,CuDef*%
%ADD20R,1.473200X0.558800*%
%TD*%
%TA.AperFunction,ComponentPad*%
%ADD21C,2.240000*%
%TD*%
%TA.AperFunction,ComponentPad*%
%ADD22C,2.740000*%
%TD*%
%TA.AperFunction,SMDPad,CuDef*%
%ADD23RoundRect,0.155000X0.155000X-0.212500X0.155000X0.212500X-0.155000X0.212500X-0.155000X-0.212500X0*%
%TD*%
%TA.AperFunction,SMDPad,CuDef*%
%ADD24RoundRect,0.155000X-0.212500X-0.155000X0.212500X-0.155000X0.212500X0.155000X-0.212500X0.155000X0*%
%TD*%
%TA.AperFunction,SMDPad,CuDef*%
%ADD25RoundRect,0.218750X-0.218750X-0.256250X0.218750X-0.256250X0.218750X0.256250X-0.218750X0.256250X0*%
%TD*%
%TA.AperFunction,ComponentPad*%
%ADD26C,1.200000*%
%TD*%
%TA.AperFunction,ViaPad*%
%ADD27C,0.450000*%
%TD*%
%TA.AperFunction,Conductor*%
%ADD28C,0.200000*%
%TD*%
%TA.AperFunction,Conductor*%
%ADD29C,0.250000*%
%TD*%
%TA.AperFunction,Conductor*%
%ADD30C,0.500000*%
%TD*%
%TA.AperFunction,Conductor*%
%ADD31C,0.293370*%
%TD*%
G04 APERTURE END LIST*
D10*
%TO.P,C1,1*%
%TO.N,/VBiasFilt*%
X200200000Y-101837500D03*
%TO.P,C1,2*%
%TO.N,GND*%
X200200000Y-104962500D03*
%TD*%
D11*
%TO.P,C7,1*%
%TO.N,Net-(U1-+)*%
X190165400Y-100201800D03*
%TO.P,C7,2*%
%TO.N,GND*%
X189205400Y-100201800D03*
%TD*%
%TO.P,C5,1*%
%TO.N,VDDA*%
X193430000Y-97350000D03*
%TO.P,C5,2*%
%TO.N,GND*%
X192470000Y-97350000D03*
%TD*%
D12*
%TO.P,C8,1*%
%TO.N,Net-(U1-+)*%
X190460400Y-101301800D03*
%TO.P,C8,2*%
%TO.N,GND*%
X188910400Y-101301800D03*
%TD*%
D13*
%TO.P,R3,1*%
%TO.N,GND*%
X189087900Y-102401800D03*
%TO.P,R3,2*%
%TO.N,Net-(U1-+)*%
X190282900Y-102401800D03*
%TD*%
D14*
%TO.P,R11,1*%
%TO.N,+VDC*%
X205797500Y-105300000D03*
%TO.P,R11,2*%
%TO.N,/VBiasFilt*%
X204602500Y-105300000D03*
%TD*%
D15*
%TO.P,J1,1,Pin_1*%
%TO.N,+5V*%
X206900000Y-97500000D03*
D16*
%TO.P,J1,2,Pin_2*%
%TO.N,VSSA*%
X209440000Y-97500000D03*
%TO.P,J1,3,Pin_3*%
%TO.N,VDDA*%
X206900000Y-100040000D03*
%TO.P,J1,4,Pin_4*%
%TO.N,LINE*%
X209440000Y-100040000D03*
%TO.P,J1,5,Pin_5*%
%TO.N,+VDC*%
X206900000Y-102580000D03*
%TO.P,J1,6,Pin_6*%
%TO.N,GND*%
X209440000Y-102580000D03*
%TD*%
D14*
%TO.P,R23,1*%
%TO.N,Net-(D1-A)*%
X196095000Y-100150000D03*
%TO.P,R23,2*%
%TO.N,Net-(U1--)*%
X194900000Y-100150000D03*
%TD*%
D17*
%TO.P,L1,1*%
%TO.N,Net-(L1-Pad1)*%
X196000000Y-103487500D03*
%TO.P,L1,2*%
%TO.N,GND*%
X196000000Y-105237500D03*
%TD*%
D18*
%TO.P,R1,1*%
%TO.N,/OUT*%
X191425000Y-97550000D03*
%TO.P,R1,2*%
%TO.N,Net-(C2-Pad1)*%
X191425000Y-96355000D03*
%TD*%
D19*
%TO.P,C9,1*%
%TO.N,VSSA*%
X190250000Y-99230000D03*
%TO.P,C9,2*%
%TO.N,GND*%
X190250000Y-98270000D03*
%TD*%
D18*
%TO.P,R5,1*%
%TO.N,Net-(L1-Pad1)*%
X196000000Y-102345000D03*
%TO.P,R5,2*%
%TO.N,Net-(D1-A)*%
X196000000Y-101150000D03*
%TD*%
D20*
%TO.P,U1,1*%
%TO.N,/OUT*%
X191520800Y-98251799D03*
%TO.P,U1,2,V-*%
%TO.N,VSSA*%
X191520800Y-99201800D03*
%TO.P,U1,3,+*%
%TO.N,Net-(U1-+)*%
X191520800Y-100151801D03*
%TO.P,U1,4,-*%
%TO.N,Net-(U1--)*%
X193756000Y-100151801D03*
%TO.P,U1,5,~{DIS}*%
%TO.N,unconnected-(U1-~{DIS}-Pad5)*%
X193756000Y-99201800D03*
%TO.P,U1,6,V+*%
%TO.N,VDDA*%
X193756000Y-98251799D03*
%TD*%
D21*
%TO.P,J2,1,In*%
%TO.N,Net-(J2-In)*%
X200025000Y-91950000D03*
D22*
%TO.P,J2,2,Ext*%
%TO.N,GND*%
X197485000Y-89410000D03*
X197485000Y-94490000D03*
X202565000Y-89410000D03*
X202565000Y-94490000D03*
%TD*%
D13*
%TO.P,R7,1*%
%TO.N,Net-(U1-+)*%
X191250000Y-102400000D03*
%TO.P,R7,2*%
%TO.N,LINE*%
X192445000Y-102400000D03*
%TD*%
D23*
%TO.P,C3,1*%
%TO.N,Net-(J2-In)*%
X194275000Y-94972500D03*
%TO.P,C3,2*%
%TO.N,GND*%
X194275000Y-93837500D03*
%TD*%
D24*
%TO.P,C2,1*%
%TO.N,Net-(C2-Pad1)*%
X191427500Y-93900000D03*
%TO.P,C2,2*%
%TO.N,GND*%
X192562500Y-93900000D03*
%TD*%
D25*
%TO.P,L2,1*%
%TO.N,Net-(C2-Pad1)*%
X191550000Y-95100000D03*
%TO.P,L2,2*%
%TO.N,Net-(J2-In)*%
X193125000Y-95100000D03*
%TD*%
D10*
%TO.P,C4,1*%
%TO.N,/VBiasFilt*%
X202400000Y-101837500D03*
%TO.P,C4,2*%
%TO.N,GND*%
X202400000Y-104962500D03*
%TD*%
D26*
%TO.P,D1,1,K*%
%TO.N,/VBiasFilt*%
X202540000Y-100000000D03*
%TO.P,D1,2,A*%
%TO.N,Net-(D1-A)*%
X197460000Y-100000000D03*
%TO.P,D1,3,CASE*%
%TO.N,GND*%
X200000000Y-97460000D03*
%TD*%
D27*
%TO.N,GND*%
X189200000Y-100150000D03*
X200200000Y-104850000D03*
X202400000Y-104850000D03*
X194775000Y-93575000D03*
X191400600Y-101310000D03*
X193900000Y-101550000D03*
X204100000Y-99750000D03*
X193050000Y-93925000D03*
X196000000Y-106325000D03*
X195900000Y-109850000D03*
X189200000Y-102450000D03*
X197600000Y-101950000D03*
X190900000Y-106150000D03*
X190300000Y-98250000D03*
X192500000Y-97350000D03*
%TO.N,VDDA*%
X193450000Y-98150000D03*
%TO.N,VSSA*%
X190200000Y-99250000D03*
%TO.N,/OUT*%
X191950000Y-98272201D03*
%TO.N,LINE*%
X192650000Y-103250000D03*
%TO.N,Net-(U1--)*%
X193150000Y-100101001D03*
%TD*%
D28*
%TO.N,GND*%
X189200400Y-101301800D02*
X189200400Y-102401800D01*
X189200400Y-100201800D02*
X189200400Y-101301800D01*
D29*
X192500000Y-93925000D02*
X192475000Y-93900000D01*
X194275000Y-93800000D02*
X194175000Y-93900000D01*
X193050000Y-93925000D02*
X192500000Y-93925000D01*
D28*
X196000000Y-105040000D02*
X196000000Y-106325000D01*
D29*
X194775000Y-93575000D02*
X194550000Y-93800000D01*
X194550000Y-93800000D02*
X194275000Y-93800000D01*
D30*
%TO.N,/VBiasFilt*%
X202540000Y-101985000D02*
X202540000Y-100000000D01*
D28*
X204715000Y-105300000D02*
X204715000Y-103952500D01*
X202850000Y-102087500D02*
X204715000Y-103952500D01*
D30*
X200600000Y-102000000D02*
X202700000Y-102000000D01*
D29*
%TO.N,Net-(C2-Pad1)*%
X191425000Y-96355000D02*
X191425000Y-95225000D01*
X191550000Y-93935000D02*
X191515000Y-93900000D01*
X191425000Y-95225000D02*
X191550000Y-95100000D01*
X191550000Y-95100000D02*
X191550000Y-93935000D01*
D30*
%TO.N,VDDA*%
X193450000Y-98067599D02*
X193450000Y-97365000D01*
%TO.N,VSSA*%
X191520800Y-99201800D02*
X190283200Y-99201800D01*
D29*
%TO.N,/OUT*%
X191400000Y-98251799D02*
X191400000Y-97355800D01*
D28*
%TO.N,Net-(L1-Pad1)*%
X196000000Y-103777500D02*
X196000000Y-102150000D01*
D31*
%TO.N,Net-(J2-In)*%
X197368277Y-91950000D02*
X200025000Y-91950000D01*
X193310000Y-95125000D02*
X194145000Y-95125000D01*
X194188277Y-95130000D02*
X197368277Y-91950000D01*
D28*
%TO.N,+VDC*%
X205685000Y-105300000D02*
X205685000Y-103795000D01*
X205685000Y-103795000D02*
X206900000Y-102580000D01*
%TO.N,Net-(U1-+)*%
X190170400Y-101301800D02*
X190170400Y-102401800D01*
X192117800Y-100151801D02*
X190220399Y-100151801D01*
X190170400Y-100201800D02*
X190170400Y-101301800D01*
X191215000Y-102453000D02*
X190221600Y-102453000D01*
D29*
%TO.N,LINE*%
X192397500Y-102450000D02*
X192397500Y-102997500D01*
X192397500Y-102997500D02*
X192650000Y-103250000D01*
D28*
%TO.N,Net-(D1-A)*%
X196000000Y-101115000D02*
X196000000Y-100209600D01*
X195990400Y-100100000D02*
X197360000Y-100100000D01*
%TO.N,Net-(U1--)*%
X195008100Y-100150000D02*
X193791899Y-100150000D01*
%TD*%
%TA.AperFunction,Conductor*%
%TO.N,GND*%
G36*
X200357958Y-87341037D02*
G01*
X201061657Y-87380556D01*
X201067153Y-87381019D01*
X201767579Y-87459938D01*
X201773060Y-87460712D01*
X202467905Y-87578771D01*
X202473334Y-87579851D01*
X202537436Y-87594482D01*
X202589960Y-87625864D01*
X202614007Y-87682126D01*
X202600392Y-87741777D01*
X202554315Y-87782033D01*
X202515406Y-87790000D01*
X202437500Y-87790000D01*
X202185653Y-87829888D01*
X201943135Y-87908687D01*
X201715937Y-88024450D01*
X201509642Y-88174331D01*
X201507875Y-88176097D01*
X202058154Y-88726376D01*
X202023156Y-88749762D01*
X201904762Y-88868156D01*
X201881376Y-88903154D01*
X201331097Y-88352875D01*
X201329331Y-88354642D01*
X201179450Y-88560937D01*
X201063687Y-88788135D01*
X200984888Y-89030653D01*
X200945000Y-89282499D01*
X200945000Y-89537500D01*
X200984888Y-89789346D01*
X201063687Y-90031864D01*
X201179450Y-90259062D01*
X201329332Y-90465357D01*
X201331098Y-90467123D01*
X201881376Y-89916844D01*
X201904762Y-89951844D01*
X202023156Y-90070238D01*
X202058153Y-90093622D01*
X201507876Y-90643901D01*
X201509642Y-90645667D01*
X201715937Y-90795549D01*
X201943135Y-90911312D01*
X202185653Y-90990111D01*
X202437500Y-91030000D01*
X202692500Y-91030000D01*
X202944346Y-90990111D01*
X203186864Y-90911312D01*
X203414062Y-90795549D01*
X203620360Y-90645664D01*
X203620366Y-90645659D01*
X203622123Y-90643901D01*
X203071845Y-90093623D01*
X203106844Y-90070238D01*
X203225238Y-89951844D01*
X203248623Y-89916845D01*
X203798901Y-90467123D01*
X203800659Y-90465366D01*
X203800664Y-90465360D01*
X203950549Y-90259062D01*
X204066312Y-90031864D01*
X204145111Y-89789346D01*
X204185000Y-89537500D01*
X204185000Y-89282499D01*
X204145111Y-89030653D01*
X204066312Y-88788135D01*
X203950549Y-88560937D01*
X203800667Y-88354642D01*
X203798901Y-88352876D01*
X203248622Y-88903153D01*
X203225238Y-88868156D01*
X203106844Y-88749762D01*
X203071844Y-88726376D01*
X203622123Y-88176098D01*
X203620357Y-88174332D01*
X203414061Y-88024449D01*
X203414059Y-88024448D01*
X203365810Y-87999864D01*
X203322546Y-87956600D01*
X203312975Y-87896167D01*
X203340753Y-87841651D01*
X203395270Y-87813874D01*
X203438161Y-87816523D01*
X203843154Y-87933200D01*
X203848403Y-87934874D01*
X204513676Y-88167663D01*
X204518839Y-88169633D01*
X205170023Y-88439362D01*
X205175064Y-88441617D01*
X205810110Y-88747440D01*
X205815017Y-88749976D01*
X206280744Y-89007374D01*
X206431880Y-89090904D01*
X206436660Y-89093723D01*
X206658669Y-89233221D01*
X207033445Y-89468708D01*
X207038062Y-89471793D01*
X207612883Y-89879650D01*
X207617320Y-89882990D01*
X208168341Y-90322414D01*
X208172584Y-90325996D01*
X208679063Y-90778614D01*
X208698119Y-90795643D01*
X208702155Y-90799458D01*
X209200541Y-91297844D01*
X209204356Y-91301880D01*
X209674003Y-91827415D01*
X209677585Y-91831658D01*
X210117009Y-92382679D01*
X210120349Y-92387116D01*
X210528206Y-92961937D01*
X210531291Y-92966554D01*
X210906274Y-93563336D01*
X210909095Y-93568119D01*
X211250016Y-94184969D01*
X211252565Y-94189902D01*
X211558375Y-94824921D01*
X211560643Y-94829990D01*
X211830361Y-95481148D01*
X211832341Y-95486336D01*
X212065118Y-96151575D01*
X212066805Y-96156866D01*
X212261924Y-96834137D01*
X212263311Y-96839515D01*
X212420146Y-97526657D01*
X212421229Y-97532103D01*
X212539285Y-98226930D01*
X212540062Y-98232429D01*
X212618978Y-98932828D01*
X212619444Y-98938361D01*
X212658962Y-99642041D01*
X212659118Y-99647592D01*
X212659118Y-100352407D01*
X212658962Y-100357958D01*
X212619444Y-101061638D01*
X212618978Y-101067171D01*
X212540062Y-101767570D01*
X212539285Y-101773069D01*
X212421229Y-102467896D01*
X212420146Y-102473342D01*
X212263311Y-103160484D01*
X212261924Y-103165862D01*
X212066805Y-103843133D01*
X212065118Y-103848424D01*
X211832341Y-104513663D01*
X211830361Y-104518851D01*
X211560643Y-105170009D01*
X211558375Y-105175078D01*
X211252565Y-105810097D01*
X211250016Y-105815030D01*
X210909095Y-106431880D01*
X210906274Y-106436663D01*
X210531291Y-107033445D01*
X210528206Y-107038062D01*
X210120349Y-107612883D01*
X210117009Y-107617320D01*
X209677585Y-108168341D01*
X209674003Y-108172584D01*
X209204356Y-108698119D01*
X209200541Y-108702155D01*
X208702155Y-109200541D01*
X208698119Y-109204356D01*
X208172584Y-109674003D01*
X208168341Y-109677585D01*
X207617320Y-110117009D01*
X207612883Y-110120349D01*
X207038062Y-110528206D01*
X207033445Y-110531291D01*
X206436663Y-110906274D01*
X206431880Y-110909095D01*
X205815030Y-111250016D01*
X205810097Y-111252565D01*
X205175078Y-111558375D01*
X205170009Y-111560643D01*
X204518851Y-111830361D01*
X204513663Y-111832341D01*
X203848424Y-112065118D01*
X203843133Y-112066805D01*
X203165862Y-112261924D01*
X203160484Y-112263311D01*
X202473342Y-112420146D01*
X202467896Y-112421229D01*
X201773069Y-112539285D01*
X201767570Y-112540062D01*
X201067171Y-112618978D01*
X201061638Y-112619444D01*
X200357959Y-112658962D01*
X200352408Y-112659118D01*
X199647592Y-112659118D01*
X199642041Y-112658962D01*
X198938361Y-112619444D01*
X198932828Y-112618978D01*
X198232429Y-112540062D01*
X198226930Y-112539285D01*
X197532103Y-112421229D01*
X197526657Y-112420146D01*
X196839515Y-112263311D01*
X196834137Y-112261924D01*
X196156866Y-112066805D01*
X196151575Y-112065118D01*
X195486336Y-111832341D01*
X195481148Y-111830361D01*
X194829990Y-111560643D01*
X194824921Y-111558375D01*
X194189902Y-111252565D01*
X194184969Y-111250016D01*
X193568119Y-110909095D01*
X193563336Y-110906274D01*
X192966554Y-110531291D01*
X192961937Y-110528206D01*
X192387116Y-110120349D01*
X192382679Y-110117009D01*
X191831658Y-109677585D01*
X191827415Y-109674003D01*
X191301880Y-109204356D01*
X191297844Y-109200541D01*
X190799458Y-108702155D01*
X190795643Y-108698119D01*
X190325996Y-108172584D01*
X190322414Y-108168341D01*
X189882990Y-107617320D01*
X189879650Y-107612883D01*
X189471793Y-107038062D01*
X189468708Y-107033445D01*
X189093725Y-106436663D01*
X189090904Y-106431880D01*
X188749976Y-105815017D01*
X188747434Y-105810097D01*
X188722080Y-105757450D01*
X188441617Y-105175064D01*
X188439356Y-105170009D01*
X188412754Y-105105787D01*
X188169633Y-104518839D01*
X188167658Y-104513663D01*
X187934874Y-103848403D01*
X187933200Y-103843154D01*
X187738069Y-103165840D01*
X187736688Y-103160484D01*
X187735785Y-103156528D01*
X187607408Y-102594071D01*
X188480400Y-102594071D01*
X188495604Y-102690071D01*
X188554568Y-102805795D01*
X188646404Y-102897631D01*
X188762123Y-102956593D01*
X188858128Y-102971799D01*
X188962900Y-102971799D01*
X188962900Y-102526800D01*
X188480402Y-102526800D01*
X188480401Y-102526801D01*
X188480401Y-102594071D01*
X188480400Y-102594071D01*
X187607408Y-102594071D01*
X187579852Y-102473341D01*
X187578770Y-102467896D01*
X187577918Y-102462883D01*
X187460712Y-101773060D01*
X187459937Y-101767570D01*
X187381019Y-101067153D01*
X187380556Y-101061654D01*
X187377451Y-101006365D01*
X188210400Y-101006365D01*
X188210400Y-101176799D01*
X188210401Y-101176800D01*
X189610398Y-101176800D01*
X189610399Y-101176799D01*
X189610399Y-101006369D01*
X189610398Y-101006363D01*
X189604318Y-100949795D01*
X189604317Y-100949793D01*
X189556584Y-100821813D01*
X189553193Y-100815603D01*
X189555867Y-100814142D01*
X189541080Y-100767350D01*
X189560456Y-100709314D01*
X189570302Y-100697917D01*
X189650626Y-100618116D01*
X189677781Y-100604391D01*
X189704914Y-100590567D01*
X189705081Y-100590593D01*
X189705233Y-100590517D01*
X189735155Y-100595356D01*
X189765346Y-100600138D01*
X189765525Y-100600268D01*
X189765634Y-100600286D01*
X189765852Y-100600506D01*
X189790401Y-100618341D01*
X189827084Y-100655024D01*
X189827086Y-100655025D01*
X189827683Y-100655443D01*
X189828230Y-100656169D01*
X189833209Y-100661148D01*
X189832509Y-100661847D01*
X189864506Y-100704308D01*
X189869900Y-100736540D01*
X189869900Y-100808120D01*
X189859110Y-100853064D01*
X189825682Y-100918669D01*
X189825681Y-100918674D01*
X189809900Y-101018310D01*
X189809900Y-101585290D01*
X189825681Y-101684927D01*
X189825682Y-101684929D01*
X189859109Y-101750533D01*
X189869900Y-101795478D01*
X189869900Y-101906468D01*
X189850993Y-101964659D01*
X189840904Y-101976472D01*
X189784531Y-102032845D01*
X189730014Y-102060622D01*
X189669582Y-102051051D01*
X189626317Y-102007786D01*
X189626317Y-102007785D01*
X189621232Y-101997805D01*
X189552438Y-101929011D01*
X189524661Y-101874494D01*
X189534232Y-101814062D01*
X189543190Y-101799676D01*
X189556586Y-101781781D01*
X189604316Y-101653809D01*
X189604318Y-101653801D01*
X189610400Y-101597234D01*
X189610400Y-101426801D01*
X189610399Y-101426800D01*
X188210402Y-101426800D01*
X188210401Y-101426801D01*
X188210401Y-101597236D01*
X188216481Y-101653804D01*
X188216482Y-101653806D01*
X188264214Y-101781783D01*
X188346068Y-101891127D01*
X188346072Y-101891131D01*
X188455413Y-101972983D01*
X188458435Y-101974633D01*
X188460407Y-101976721D01*
X188461084Y-101977228D01*
X188460996Y-101977345D01*
X188500447Y-102019115D01*
X188508289Y-102079796D01*
X188499203Y-102106462D01*
X188495607Y-102113519D01*
X188495606Y-102113523D01*
X188480400Y-102209529D01*
X188480400Y-102276799D01*
X188480401Y-102276800D01*
X188988900Y-102276800D01*
X189003812Y-102281645D01*
X189019493Y-102281645D01*
X189032178Y-102290861D01*
X189047091Y-102295707D01*
X189056307Y-102308392D01*
X189068993Y-102317609D01*
X189073838Y-102332521D01*
X189083055Y-102345207D01*
X189087900Y-102375800D01*
X189087900Y-102401800D01*
X189113900Y-102401800D01*
X189172091Y-102420707D01*
X189208055Y-102470207D01*
X189212900Y-102500800D01*
X189212900Y-102971798D01*
X189212901Y-102971799D01*
X189317671Y-102971799D01*
X189413671Y-102956595D01*
X189529395Y-102897631D01*
X189621231Y-102805795D01*
X189626316Y-102795816D01*
X189669579Y-102752550D01*
X189730011Y-102742976D01*
X189784528Y-102770752D01*
X189784531Y-102770754D01*
X189787950Y-102774173D01*
X189787951Y-102774175D01*
X189873025Y-102859249D01*
X189981114Y-102912091D01*
X190051185Y-102922300D01*
X190514614Y-102922299D01*
X190584686Y-102912091D01*
X190692775Y-102859249D01*
X190697348Y-102854675D01*
X190751863Y-102826900D01*
X190812295Y-102836471D01*
X190837350Y-102854674D01*
X190840125Y-102857449D01*
X190948214Y-102910291D01*
X191018285Y-102920500D01*
X191481714Y-102920499D01*
X191551786Y-102910291D01*
X191659875Y-102857449D01*
X191744949Y-102772375D01*
X191758558Y-102744536D01*
X191801099Y-102700563D01*
X191861365Y-102689992D01*
X191916334Y-102716863D01*
X191922731Y-102723664D01*
X191930914Y-102733231D01*
X191950051Y-102772375D01*
X192035125Y-102857449D01*
X192038635Y-102859165D01*
X192048232Y-102870384D01*
X192055546Y-102888005D01*
X192066892Y-102903346D01*
X192070101Y-102923071D01*
X192071689Y-102926895D01*
X192071114Y-102929295D01*
X192072000Y-102934736D01*
X192072000Y-102954647D01*
X192072000Y-103040353D01*
X192091562Y-103113363D01*
X192094183Y-103123143D01*
X192137031Y-103197357D01*
X192137033Y-103197359D01*
X192137035Y-103197362D01*
X192197988Y-103258315D01*
X192223610Y-103302694D01*
X192224500Y-103306015D01*
X192224500Y-103306018D01*
X192248604Y-103395977D01*
X192253498Y-103414241D01*
X192309329Y-103510941D01*
X192309515Y-103511263D01*
X192388737Y-103590485D01*
X192388739Y-103590486D01*
X192485759Y-103646501D01*
X192485757Y-103646501D01*
X192485761Y-103646502D01*
X192485763Y-103646503D01*
X192593982Y-103675500D01*
X192593984Y-103675500D01*
X192706016Y-103675500D01*
X192706018Y-103675500D01*
X192814237Y-103646503D01*
X192814239Y-103646501D01*
X192814241Y-103646501D01*
X192843064Y-103629859D01*
X192911263Y-103590485D01*
X192990485Y-103511263D01*
X193046503Y-103414237D01*
X193075500Y-103306018D01*
X193075500Y-103193982D01*
X193046503Y-103085763D01*
X193046501Y-103085760D01*
X193046501Y-103085758D01*
X192990486Y-102988739D01*
X192990485Y-102988737D01*
X192927037Y-102925289D01*
X192899262Y-102870775D01*
X192908833Y-102810343D01*
X192927036Y-102785287D01*
X192939949Y-102772375D01*
X192992791Y-102664286D01*
X193003000Y-102594215D01*
X193002999Y-102205786D01*
X192992791Y-102135714D01*
X192939949Y-102027625D01*
X192854875Y-101942551D01*
X192854873Y-101942550D01*
X192854872Y-101942549D01*
X192788997Y-101910345D01*
X192746786Y-101889709D01*
X192676715Y-101879500D01*
X192676711Y-101879500D01*
X192213290Y-101879500D01*
X192213287Y-101879500D01*
X192213286Y-101879501D01*
X192189928Y-101882903D01*
X192143212Y-101889709D01*
X192035126Y-101942550D01*
X192035125Y-101942550D01*
X192035125Y-101942551D01*
X191950051Y-102027625D01*
X191950050Y-102027626D01*
X191950049Y-102027628D01*
X191950047Y-102027630D01*
X191936440Y-102055464D01*
X191893897Y-102099438D01*
X191833631Y-102110007D01*
X191778663Y-102083134D01*
X191758560Y-102055464D01*
X191744952Y-102027630D01*
X191744951Y-102027628D01*
X191744949Y-102027626D01*
X191744949Y-102027625D01*
X191659875Y-101942551D01*
X191659873Y-101942550D01*
X191659872Y-101942549D01*
X191593997Y-101910345D01*
X191551786Y-101889709D01*
X191481715Y-101879500D01*
X191481712Y-101879500D01*
X191157531Y-101879500D01*
X191099340Y-101860593D01*
X191063376Y-101811093D01*
X191063376Y-101749907D01*
X191069318Y-101735561D01*
X191095119Y-101684926D01*
X191110900Y-101585288D01*
X191110900Y-101018312D01*
X191109008Y-101006369D01*
X191103397Y-100970941D01*
X191095119Y-100918674D01*
X191095116Y-100918669D01*
X191095116Y-100918667D01*
X191033929Y-100798582D01*
X191029347Y-100792275D01*
X191031105Y-100790997D01*
X191008275Y-100746188D01*
X191017846Y-100685756D01*
X191061111Y-100642491D01*
X191106056Y-100631701D01*
X192277147Y-100631701D01*
X192277148Y-100631701D01*
X192335631Y-100620068D01*
X192401952Y-100575753D01*
X192401952Y-100575752D01*
X192410059Y-100570336D01*
X192411492Y-100572481D01*
X192453225Y-100551219D01*
X192468712Y-100550000D01*
X192808088Y-100550000D01*
X192866279Y-100568907D01*
X192872306Y-100574054D01*
X192874847Y-100575752D01*
X192874848Y-100575753D01*
X192941169Y-100620068D01*
X192985631Y-100628912D01*
X192999641Y-100631699D01*
X192999646Y-100631699D01*
X192999652Y-100631701D01*
X192999653Y-100631701D01*
X194516828Y-100631701D01*
X194560307Y-100641760D01*
X194587440Y-100655024D01*
X194598214Y-100660291D01*
X194668285Y-100670500D01*
X195131714Y-100670499D01*
X195201786Y-100660291D01*
X195309875Y-100607449D01*
X195338329Y-100578995D01*
X195345446Y-100575368D01*
X195350141Y-100568907D01*
X195372190Y-100561742D01*
X195392846Y-100551219D01*
X195408332Y-100550000D01*
X195493669Y-100550000D01*
X195551860Y-100568907D01*
X195587824Y-100618407D01*
X195587824Y-100679593D01*
X195563674Y-100719001D01*
X195546136Y-100736540D01*
X195542549Y-100740127D01*
X195502616Y-100821813D01*
X195489709Y-100848214D01*
X195481277Y-100906093D01*
X195479500Y-100918288D01*
X195479500Y-101381709D01*
X195479500Y-101381711D01*
X195479501Y-101381714D01*
X195489709Y-101451786D01*
X195542551Y-101559875D01*
X195627625Y-101644949D01*
X195627626Y-101644949D01*
X195627628Y-101644951D01*
X195655462Y-101658558D01*
X195699437Y-101701100D01*
X195710007Y-101761366D01*
X195683135Y-101816335D01*
X195655466Y-101836438D01*
X195627631Y-101850046D01*
X195627628Y-101850049D01*
X195627626Y-101850050D01*
X195627625Y-101850051D01*
X195571208Y-101906468D01*
X195542549Y-101935127D01*
X195496450Y-102029425D01*
X195489709Y-102043214D01*
X195481518Y-102099438D01*
X195479500Y-102113288D01*
X195479500Y-102576709D01*
X195479500Y-102576711D01*
X195479501Y-102576714D01*
X195489709Y-102646786D01*
X195489709Y-102646787D01*
X195489710Y-102646789D01*
X195494956Y-102657520D01*
X195503527Y-102718102D01*
X195474851Y-102772152D01*
X195419882Y-102799024D01*
X195406015Y-102800000D01*
X195040000Y-102800000D01*
X195040000Y-106100000D01*
X195040001Y-106100000D01*
X196939999Y-106100000D01*
X196940000Y-106100000D01*
X196940000Y-105422824D01*
X199049999Y-105422824D01*
X199056401Y-105482370D01*
X199056403Y-105482381D01*
X199106646Y-105617088D01*
X199106647Y-105617090D01*
X199192807Y-105732184D01*
X199192815Y-105732192D01*
X199307909Y-105818352D01*
X199307911Y-105818353D01*
X199442618Y-105868596D01*
X199442629Y-105868598D01*
X199502176Y-105875000D01*
X200074999Y-105875000D01*
X200075000Y-105874999D01*
X200075000Y-105087501D01*
X200325000Y-105087501D01*
X200325000Y-105874999D01*
X200325001Y-105875000D01*
X200897824Y-105875000D01*
X200957370Y-105868598D01*
X200957381Y-105868596D01*
X201092088Y-105818353D01*
X201092090Y-105818352D01*
X201207184Y-105732192D01*
X201207192Y-105732184D01*
X201220747Y-105714078D01*
X201270756Y-105678825D01*
X201331935Y-105679699D01*
X201379253Y-105714078D01*
X201392807Y-105732184D01*
X201392815Y-105732192D01*
X201507909Y-105818352D01*
X201507911Y-105818353D01*
X201642618Y-105868596D01*
X201642629Y-105868598D01*
X201702176Y-105875000D01*
X202274999Y-105875000D01*
X202275000Y-105874999D01*
X202275000Y-105087501D01*
X202525000Y-105087501D01*
X202525000Y-105874999D01*
X202525001Y-105875000D01*
X203097824Y-105875000D01*
X203157370Y-105868598D01*
X203157381Y-105868596D01*
X203292088Y-105818353D01*
X203292090Y-105818352D01*
X203407184Y-105732192D01*
X203407192Y-105732184D01*
X203493352Y-105617090D01*
X203493353Y-105617088D01*
X203543596Y-105482381D01*
X203543598Y-105482370D01*
X203550000Y-105422824D01*
X203550000Y-105087501D01*
X203549999Y-105087500D01*
X202525001Y-105087500D01*
X202525000Y-105087501D01*
X202275000Y-105087501D01*
X202274999Y-105087500D01*
X200325001Y-105087500D01*
X200325000Y-105087501D01*
X200075000Y-105087501D01*
X200074999Y-105087500D01*
X199050001Y-105087500D01*
X199050000Y-105087501D01*
X199050000Y-105422824D01*
X199049999Y-105422824D01*
X196940000Y-105422824D01*
X196940000Y-104502175D01*
X199050000Y-104502175D01*
X199050000Y-104837499D01*
X199050001Y-104837500D01*
X200074999Y-104837500D01*
X200075000Y-104837499D01*
X200075000Y-104050001D01*
X200325000Y-104050001D01*
X200325000Y-104837499D01*
X200325001Y-104837500D01*
X202274999Y-104837500D01*
X202275000Y-104837499D01*
X202275000Y-104050001D01*
X202525000Y-104050001D01*
X202525000Y-104837499D01*
X202525001Y-104837500D01*
X203549999Y-104837500D01*
X203550000Y-104837499D01*
X203550000Y-104502175D01*
X203543598Y-104442629D01*
X203543596Y-104442618D01*
X203493353Y-104307911D01*
X203493352Y-104307909D01*
X203407192Y-104192815D01*
X203407184Y-104192807D01*
X203292090Y-104106647D01*
X203292088Y-104106646D01*
X203157381Y-104056403D01*
X203157370Y-104056401D01*
X203097824Y-104050000D01*
X202525001Y-104050000D01*
X202525000Y-104050001D01*
X202275000Y-104050001D01*
X202274999Y-104050000D01*
X201702176Y-104050000D01*
X201642629Y-104056401D01*
X201642618Y-104056403D01*
X201507911Y-104106646D01*
X201507909Y-104106647D01*
X201392815Y-104192807D01*
X201392807Y-104192815D01*
X201379253Y-104210922D01*
X201329244Y-104246175D01*
X201268065Y-104245301D01*
X201220747Y-104210922D01*
X201207192Y-104192815D01*
X201207184Y-104192807D01*
X201092090Y-104106647D01*
X201092088Y-104106646D01*
X200957381Y-104056403D01*
X200957370Y-104056401D01*
X200897824Y-104050000D01*
X200325001Y-104050000D01*
X200325000Y-104050001D01*
X200075000Y-104050001D01*
X200074999Y-104050000D01*
X199502176Y-104050000D01*
X199442629Y-104056401D01*
X199442618Y-104056403D01*
X199307911Y-104106646D01*
X199307909Y-104106647D01*
X199192815Y-104192807D01*
X199192807Y-104192815D01*
X199106647Y-104307909D01*
X199106646Y-104307911D01*
X199056403Y-104442618D01*
X199056401Y-104442629D01*
X199050000Y-104502175D01*
X196940000Y-104502175D01*
X196940000Y-102800000D01*
X196939999Y-102800000D01*
X196593984Y-102800000D01*
X196535793Y-102781093D01*
X196499829Y-102731593D01*
X196499829Y-102670407D01*
X196505043Y-102657520D01*
X196510291Y-102646786D01*
X196520500Y-102576715D01*
X196520499Y-102113286D01*
X196510291Y-102043214D01*
X196457449Y-101935125D01*
X196372375Y-101850051D01*
X196372373Y-101850050D01*
X196372372Y-101850049D01*
X196344536Y-101836441D01*
X196300562Y-101793898D01*
X196289992Y-101733632D01*
X196316864Y-101678664D01*
X196344536Y-101658559D01*
X196354268Y-101653801D01*
X196372375Y-101644949D01*
X196457449Y-101559875D01*
X196510291Y-101451786D01*
X196520500Y-101381715D01*
X196520500Y-101370725D01*
X199099500Y-101370725D01*
X199099500Y-102304274D01*
X199102353Y-102334694D01*
X199102355Y-102334703D01*
X199147207Y-102462883D01*
X199227845Y-102572144D01*
X199227847Y-102572146D01*
X199227850Y-102572150D01*
X199227853Y-102572152D01*
X199227855Y-102572154D01*
X199337116Y-102652792D01*
X199337117Y-102652792D01*
X199337118Y-102652793D01*
X199465301Y-102697646D01*
X199495725Y-102700499D01*
X199495727Y-102700500D01*
X199495734Y-102700500D01*
X200904273Y-102700500D01*
X200904273Y-102700499D01*
X200934699Y-102697646D01*
X201062882Y-102652793D01*
X201172150Y-102572150D01*
X201220345Y-102506846D01*
X201270111Y-102471255D01*
X201331295Y-102471712D01*
X201379654Y-102506846D01*
X201427850Y-102572150D01*
X201427853Y-102572152D01*
X201427855Y-102572154D01*
X201537116Y-102652792D01*
X201537117Y-102652792D01*
X201537118Y-102652793D01*
X201665301Y-102697646D01*
X201695725Y-102700499D01*
X201695727Y-102700500D01*
X201695734Y-102700500D01*
X202997021Y-102700500D01*
X203055212Y-102719407D01*
X203067025Y-102729496D01*
X204385504Y-104047975D01*
X204413281Y-104102492D01*
X204414500Y-104117979D01*
X204414500Y-104687510D01*
X204395593Y-104745701D01*
X204346093Y-104781665D01*
X204329776Y-104785475D01*
X204315577Y-104787543D01*
X204300712Y-104789709D01*
X204192626Y-104842550D01*
X204107549Y-104927627D01*
X204054709Y-105035714D01*
X204044500Y-105105788D01*
X204044500Y-105494209D01*
X204044501Y-105494212D01*
X204054709Y-105564287D01*
X204093940Y-105644534D01*
X204107551Y-105672375D01*
X204192625Y-105757449D01*
X204300714Y-105810291D01*
X204370785Y-105820500D01*
X204834214Y-105820499D01*
X204904286Y-105810291D01*
X205012375Y-105757449D01*
X205097449Y-105672375D01*
X205111058Y-105644536D01*
X205153599Y-105600563D01*
X205213865Y-105589992D01*
X205268834Y-105616863D01*
X205288939Y-105644534D01*
X205302548Y-105672371D01*
X205302550Y-105672373D01*
X205302551Y-105672375D01*
X205387625Y-105757449D01*
X205495714Y-105810291D01*
X205565785Y-105820500D01*
X206029214Y-105820499D01*
X206099286Y-105810291D01*
X206207375Y-105757449D01*
X206292449Y-105672375D01*
X206345291Y-105564286D01*
X206355500Y-105494215D01*
X206355499Y-105105786D01*
X206345291Y-105035714D01*
X206292449Y-104927625D01*
X206207375Y-104842551D01*
X206207373Y-104842550D01*
X206207372Y-104842549D01*
X206134350Y-104806851D01*
X206099286Y-104789709D01*
X206099284Y-104789708D01*
X206099283Y-104789708D01*
X206070225Y-104785474D01*
X206015368Y-104758374D01*
X205986918Y-104704205D01*
X205985500Y-104687509D01*
X205985500Y-103960477D01*
X206004407Y-103902286D01*
X206014490Y-103890480D01*
X206349708Y-103555261D01*
X206404223Y-103527485D01*
X206457591Y-103533801D01*
X206593580Y-103590130D01*
X206796535Y-103630500D01*
X206796536Y-103630500D01*
X207003464Y-103630500D01*
X207003465Y-103630500D01*
X207206420Y-103590130D01*
X207397598Y-103510941D01*
X207569655Y-103395977D01*
X207715977Y-103249655D01*
X207830941Y-103077598D01*
X207910130Y-102886420D01*
X207950500Y-102683465D01*
X207950500Y-102476535D01*
X207946216Y-102454999D01*
X208346085Y-102454999D01*
X208346086Y-102455000D01*
X208955856Y-102455000D01*
X208940000Y-102514174D01*
X208940000Y-102645826D01*
X208955856Y-102705000D01*
X208346085Y-102705000D01*
X208367084Y-102837579D01*
X208420588Y-103002248D01*
X208499195Y-103156524D01*
X208499197Y-103156528D01*
X208600962Y-103296596D01*
X208723403Y-103419037D01*
X208863471Y-103520802D01*
X208863475Y-103520804D01*
X209017751Y-103599411D01*
X209182420Y-103652915D01*
X209315000Y-103673913D01*
X209315000Y-103064144D01*
X209374174Y-103080000D01*
X209505826Y-103080000D01*
X209565000Y-103064144D01*
X209565000Y-103673912D01*
X209697579Y-103652915D01*
X209862248Y-103599411D01*
X210016524Y-103520804D01*
X210016528Y-103520802D01*
X210156596Y-103419037D01*
X210279037Y-103296596D01*
X210380802Y-103156528D01*
X210380804Y-103156524D01*
X210459411Y-103002248D01*
X210512915Y-102837579D01*
X210533914Y-102705000D01*
X209924144Y-102705000D01*
X209940000Y-102645826D01*
X209940000Y-102514174D01*
X209924144Y-102455000D01*
X210533914Y-102455000D01*
X210533914Y-102454999D01*
X210512915Y-102322420D01*
X210459411Y-102157751D01*
X210380804Y-102003475D01*
X210380802Y-102003471D01*
X210279037Y-101863403D01*
X210156596Y-101740962D01*
X210016528Y-101639197D01*
X210016524Y-101639195D01*
X209862248Y-101560588D01*
X209697579Y-101507084D01*
X209565000Y-101486085D01*
X209565000Y-102095855D01*
X209505826Y-102080000D01*
X209374174Y-102080000D01*
X209315000Y-102095855D01*
X209315000Y-101486086D01*
X209314999Y-101486085D01*
X209182420Y-101507084D01*
X209017751Y-101560588D01*
X208863475Y-101639195D01*
X208863471Y-101639197D01*
X208723403Y-101740962D01*
X208600962Y-101863403D01*
X208499197Y-102003471D01*
X208499195Y-102003475D01*
X208420588Y-102157751D01*
X208367084Y-102322420D01*
X208346085Y-102454999D01*
X207946216Y-102454999D01*
X207910130Y-102273580D01*
X207830941Y-102082402D01*
X207715977Y-101910345D01*
X207569655Y-101764023D01*
X207569651Y-101764020D01*
X207397597Y-101649058D01*
X207206418Y-101569869D01*
X207003467Y-101529500D01*
X207003465Y-101529500D01*
X206796535Y-101529500D01*
X206796532Y-101529500D01*
X206593581Y-101569869D01*
X206402402Y-101649058D01*
X206230348Y-101764020D01*
X206084020Y-101910348D01*
X205969058Y-102082402D01*
X205889869Y-102273581D01*
X205849500Y-102476532D01*
X205849500Y-102683467D01*
X205889869Y-102886418D01*
X205946196Y-103022402D01*
X205950997Y-103083399D01*
X205924736Y-103130291D01*
X205500489Y-103554539D01*
X205444539Y-103610489D01*
X205404980Y-103679007D01*
X205404978Y-103679011D01*
X205384500Y-103755435D01*
X205384500Y-104804668D01*
X205383790Y-104806851D01*
X205384402Y-104809064D01*
X205379331Y-104820576D01*
X205365593Y-104862859D01*
X205362930Y-104866358D01*
X205359449Y-104870726D01*
X205302551Y-104927625D01*
X205284182Y-104965197D01*
X205277430Y-104973673D01*
X205260502Y-104984857D01*
X205246397Y-104999438D01*
X205235560Y-105001338D01*
X205226382Y-105007403D01*
X205206116Y-105006502D01*
X205186131Y-105010007D01*
X205176246Y-105005174D01*
X205165257Y-105004686D01*
X205149390Y-104992045D01*
X205131163Y-104983134D01*
X205121484Y-104969812D01*
X205117402Y-104966560D01*
X205116345Y-104962739D01*
X205111060Y-104955464D01*
X205097452Y-104927630D01*
X205097448Y-104927624D01*
X205044496Y-104874671D01*
X205016719Y-104820154D01*
X205015500Y-104804668D01*
X205015500Y-103912937D01*
X205015499Y-103912935D01*
X204995021Y-103836511D01*
X204995019Y-103836507D01*
X204955460Y-103767989D01*
X204899511Y-103712039D01*
X204899511Y-103712040D01*
X203529496Y-102342025D01*
X203501719Y-102287508D01*
X203500500Y-102272021D01*
X203500500Y-101370727D01*
X203500499Y-101370725D01*
X203497646Y-101340305D01*
X203497646Y-101340301D01*
X203452793Y-101212118D01*
X203426727Y-101176800D01*
X203372154Y-101102855D01*
X203372152Y-101102853D01*
X203372150Y-101102850D01*
X203372146Y-101102847D01*
X203372144Y-101102845D01*
X203262883Y-101022207D01*
X203134703Y-100977355D01*
X203134694Y-100977353D01*
X203104274Y-100974500D01*
X203104266Y-100974500D01*
X203089500Y-100974500D01*
X203074588Y-100969655D01*
X203058907Y-100969655D01*
X203046221Y-100960438D01*
X203031309Y-100955593D01*
X203022092Y-100942907D01*
X203009407Y-100933691D01*
X203004561Y-100918778D01*
X202995345Y-100906093D01*
X202990500Y-100875500D01*
X202990500Y-100714655D01*
X203009407Y-100656464D01*
X203034497Y-100632340D01*
X203050289Y-100621789D01*
X203161789Y-100510289D01*
X203249394Y-100379179D01*
X203309737Y-100233497D01*
X203340500Y-100078842D01*
X203340500Y-99936532D01*
X205849500Y-99936532D01*
X205849500Y-100143467D01*
X205889869Y-100346418D01*
X205969058Y-100537597D01*
X206083850Y-100709396D01*
X206084023Y-100709655D01*
X206230345Y-100855977D01*
X206402402Y-100970941D01*
X206593580Y-101050130D01*
X206796535Y-101090500D01*
X206796536Y-101090500D01*
X207003464Y-101090500D01*
X207003465Y-101090500D01*
X207206420Y-101050130D01*
X207397598Y-100970941D01*
X207569655Y-100855977D01*
X207715977Y-100709655D01*
X207830941Y-100537598D01*
X207910130Y-100346420D01*
X207950500Y-100143465D01*
X207950500Y-99936535D01*
X207950499Y-99936532D01*
X208389500Y-99936532D01*
X208389500Y-100143467D01*
X208429869Y-100346418D01*
X208509058Y-100537597D01*
X208623850Y-100709396D01*
X208624023Y-100709655D01*
X208770345Y-100855977D01*
X208942402Y-100970941D01*
X209133580Y-101050130D01*
X209336535Y-101090500D01*
X209336536Y-101090500D01*
X209543464Y-101090500D01*
X209543465Y-101090500D01*
X209746420Y-101050130D01*
X209937598Y-100970941D01*
X210109655Y-100855977D01*
X210255977Y-100709655D01*
X210370941Y-100537598D01*
X210450130Y-100346420D01*
X210490500Y-100143465D01*
X210490500Y-99936535D01*
X210450130Y-99733580D01*
X210370941Y-99542402D01*
X210255977Y-99370345D01*
X210109655Y-99224023D01*
X210109651Y-99224020D01*
X209937597Y-99109058D01*
X209746418Y-99029869D01*
X209543467Y-98989500D01*
X209543465Y-98989500D01*
X209336535Y-98989500D01*
X209336532Y-98989500D01*
X209133581Y-99029869D01*
X208942402Y-99109058D01*
X208770348Y-99224020D01*
X208624020Y-99370348D01*
X208509058Y-99542402D01*
X208429869Y-99733581D01*
X208389500Y-99936532D01*
X207950499Y-99936532D01*
X207910130Y-99733580D01*
X207830941Y-99542402D01*
X207715977Y-99370345D01*
X207569655Y-99224023D01*
X207569651Y-99224020D01*
X207397597Y-99109058D01*
X207206418Y-99029869D01*
X207003467Y-98989500D01*
X207003465Y-98989500D01*
X206796535Y-98989500D01*
X206796532Y-98989500D01*
X206593581Y-99029869D01*
X206402402Y-99109058D01*
X206230348Y-99224020D01*
X206084020Y-99370348D01*
X205969058Y-99542402D01*
X205889869Y-99733581D01*
X205849500Y-99936532D01*
X203340500Y-99936532D01*
X203340500Y-99921158D01*
X203309737Y-99766503D01*
X203281291Y-99697828D01*
X203249396Y-99620825D01*
X203249390Y-99620814D01*
X203196996Y-99542402D01*
X203161789Y-99489711D01*
X203050289Y-99378211D01*
X202998059Y-99343312D01*
X202919185Y-99290609D01*
X202919174Y-99290603D01*
X202773497Y-99230263D01*
X202618844Y-99199500D01*
X202618842Y-99199500D01*
X202461158Y-99199500D01*
X202461155Y-99199500D01*
X202306503Y-99230263D01*
X202306501Y-99230263D01*
X202160825Y-99290603D01*
X202160814Y-99290609D01*
X202029711Y-99378211D01*
X202029707Y-99378214D01*
X201918214Y-99489707D01*
X201918211Y-99489711D01*
X201830609Y-99620814D01*
X201830603Y-99620825D01*
X201770263Y-99766501D01*
X201770263Y-99766503D01*
X201739500Y-99921155D01*
X201739500Y-100078844D01*
X201770263Y-100233496D01*
X201770263Y-100233498D01*
X201830603Y-100379174D01*
X201830609Y-100379185D01*
X201870442Y-100438798D01*
X201918211Y-100510289D01*
X201918214Y-100510292D01*
X201918218Y-100510297D01*
X201976829Y-100568907D01*
X202029711Y-100621789D01*
X202045501Y-100632339D01*
X202056377Y-100646136D01*
X202070593Y-100656464D01*
X202074850Y-100669567D01*
X202083380Y-100680387D01*
X202089500Y-100714655D01*
X202089500Y-100875500D01*
X202070593Y-100933691D01*
X202021093Y-100969655D01*
X201990500Y-100974500D01*
X201695725Y-100974500D01*
X201665305Y-100977353D01*
X201665296Y-100977355D01*
X201537116Y-101022207D01*
X201427855Y-101102845D01*
X201427845Y-101102855D01*
X201379655Y-101168151D01*
X201329887Y-101203744D01*
X201268704Y-101203286D01*
X201220345Y-101168151D01*
X201172154Y-101102855D01*
X201172152Y-101102853D01*
X201172150Y-101102850D01*
X201172146Y-101102847D01*
X201172144Y-101102845D01*
X201062883Y-101022207D01*
X200934703Y-100977355D01*
X200934694Y-100977353D01*
X200904274Y-100974500D01*
X200904266Y-100974500D01*
X199495734Y-100974500D01*
X199495725Y-100974500D01*
X199465305Y-100977353D01*
X199465296Y-100977355D01*
X199337116Y-101022207D01*
X199227855Y-101102845D01*
X199227845Y-101102855D01*
X199147207Y-101212116D01*
X199102355Y-101340296D01*
X199102353Y-101340305D01*
X199099500Y-101370725D01*
X196520500Y-101370725D01*
X196520499Y-100918286D01*
X196510291Y-100848214D01*
X196502310Y-100831889D01*
X196457728Y-100740695D01*
X196449156Y-100680113D01*
X196477831Y-100626063D01*
X196503195Y-100608270D01*
X196504875Y-100607449D01*
X196589949Y-100522375D01*
X196622388Y-100456019D01*
X196639049Y-100438798D01*
X196653138Y-100419407D01*
X196659951Y-100417193D01*
X196664931Y-100412046D01*
X196711329Y-100400500D01*
X196711936Y-100400500D01*
X196770127Y-100419407D01*
X196794249Y-100444496D01*
X196838211Y-100510289D01*
X196949711Y-100621789D01*
X197021216Y-100669567D01*
X197080814Y-100709390D01*
X197080825Y-100709396D01*
X197134638Y-100731685D01*
X197226503Y-100769737D01*
X197381158Y-100800500D01*
X197381159Y-100800500D01*
X197538841Y-100800500D01*
X197538842Y-100800500D01*
X197693497Y-100769737D01*
X197839179Y-100709394D01*
X197970289Y-100621789D01*
X198081789Y-100510289D01*
X198169394Y-100379179D01*
X198229737Y-100233497D01*
X198260500Y-100078842D01*
X198260500Y-99921158D01*
X198229737Y-99766503D01*
X198201291Y-99697828D01*
X198169396Y-99620825D01*
X198169390Y-99620814D01*
X198116996Y-99542402D01*
X198081789Y-99489711D01*
X197970289Y-99378211D01*
X197918059Y-99343312D01*
X197839185Y-99290609D01*
X197839174Y-99290603D01*
X197693497Y-99230263D01*
X197538844Y-99199500D01*
X197538842Y-99199500D01*
X197381158Y-99199500D01*
X197381155Y-99199500D01*
X197226503Y-99230263D01*
X197226501Y-99230263D01*
X197080825Y-99290603D01*
X197080814Y-99290609D01*
X196949711Y-99378211D01*
X196949707Y-99378214D01*
X196838214Y-99489707D01*
X196838211Y-99489711D01*
X196750609Y-99620814D01*
X196750605Y-99620822D01*
X196714323Y-99708414D01*
X196674586Y-99754940D01*
X196615091Y-99769223D01*
X196558563Y-99745808D01*
X196552868Y-99740544D01*
X196504875Y-99692551D01*
X196504873Y-99692550D01*
X196504872Y-99692549D01*
X196448475Y-99664978D01*
X196396786Y-99639709D01*
X196326715Y-99629500D01*
X196326711Y-99629500D01*
X195863290Y-99629500D01*
X195863287Y-99629500D01*
X195863286Y-99629501D01*
X195839928Y-99632903D01*
X195793212Y-99639709D01*
X195685126Y-99692550D01*
X195685125Y-99692550D01*
X195685125Y-99692551D01*
X195669001Y-99708674D01*
X195614487Y-99736450D01*
X195554055Y-99726879D01*
X195510790Y-99683614D01*
X195500000Y-99638669D01*
X195500000Y-98550001D01*
X195500000Y-98550000D01*
X195499999Y-98550000D01*
X194792100Y-98550000D01*
X194733909Y-98531093D01*
X194697945Y-98481593D01*
X194693100Y-98451000D01*
X194693100Y-97952652D01*
X194693098Y-97952640D01*
X194690311Y-97938630D01*
X194681467Y-97894168D01*
X194637152Y-97827847D01*
X194637148Y-97827844D01*
X194570833Y-97783533D01*
X194570831Y-97783532D01*
X194570828Y-97783531D01*
X194570827Y-97783531D01*
X194512358Y-97771900D01*
X194512348Y-97771899D01*
X194512347Y-97771899D01*
X193999500Y-97771899D01*
X193984588Y-97767054D01*
X193968907Y-97767054D01*
X193956221Y-97757837D01*
X193941309Y-97752992D01*
X193932092Y-97740306D01*
X193919407Y-97731090D01*
X193914561Y-97716177D01*
X193905345Y-97703492D01*
X193900500Y-97672899D01*
X193900500Y-97635532D01*
X193903143Y-97617018D01*
X193902983Y-97616997D01*
X193903972Y-97609487D01*
X193910500Y-97559901D01*
X193910499Y-97376279D01*
X199150000Y-97376279D01*
X199150000Y-97543720D01*
X199182664Y-97707934D01*
X199246739Y-97862625D01*
X199316376Y-97966845D01*
X199717692Y-97565528D01*
X199720444Y-97575796D01*
X199759940Y-97644205D01*
X199815795Y-97700060D01*
X199884204Y-97739556D01*
X199894468Y-97742306D01*
X199493153Y-98143622D01*
X199597374Y-98213260D01*
X199752065Y-98277335D01*
X199916279Y-98309999D01*
X199916283Y-98310000D01*
X200083717Y-98310000D01*
X200083720Y-98309999D01*
X200247934Y-98277335D01*
X200402624Y-98213260D01*
X200506845Y-98143622D01*
X200105529Y-97742306D01*
X200115796Y-97739556D01*
X200184205Y-97700060D01*
X200240060Y-97644205D01*
X200279556Y-97575796D01*
X200282306Y-97565529D01*
X200683622Y-97966845D01*
X200753260Y-97862624D01*
X200817335Y-97707934D01*
X200849999Y-97543720D01*
X200850000Y-97543716D01*
X200850000Y-97376283D01*
X200849999Y-97376279D01*
X200817335Y-97212065D01*
X200753260Y-97057374D01*
X200683622Y-96953153D01*
X200282306Y-97354468D01*
X200279556Y-97344204D01*
X200240060Y-97275795D01*
X200184205Y-97219940D01*
X200115796Y-97180444D01*
X200105528Y-97177692D01*
X200506845Y-96776376D01*
X200404069Y-96707704D01*
X200404068Y-96707703D01*
X200402626Y-96706740D01*
X200247934Y-96642664D01*
X200185539Y-96630253D01*
X205849500Y-96630253D01*
X205849500Y-98369746D01*
X205849501Y-98369758D01*
X205861132Y-98428227D01*
X205861134Y-98428233D01*
X205896789Y-98481593D01*
X205905448Y-98494552D01*
X205971769Y-98538867D01*
X206016231Y-98547711D01*
X206030241Y-98550498D01*
X206030246Y-98550498D01*
X206030252Y-98550500D01*
X206030253Y-98550500D01*
X207769747Y-98550500D01*
X207769748Y-98550500D01*
X207828231Y-98538867D01*
X207894552Y-98494552D01*
X207938867Y-98428231D01*
X207950500Y-98369748D01*
X207950500Y-97396532D01*
X208389500Y-97396532D01*
X208389500Y-97603467D01*
X208429869Y-97806418D01*
X208509058Y-97997597D01*
X208607549Y-98145000D01*
X208624023Y-98169655D01*
X208770345Y-98315977D01*
X208942402Y-98430941D01*
X209133580Y-98510130D01*
X209336535Y-98550500D01*
X209336536Y-98550500D01*
X209543464Y-98550500D01*
X209543465Y-98550500D01*
X209746420Y-98510130D01*
X209937598Y-98430941D01*
X210109655Y-98315977D01*
X210255977Y-98169655D01*
X210370941Y-97997598D01*
X210450130Y-97806420D01*
X210490500Y-97603465D01*
X210490500Y-97396535D01*
X210450130Y-97193580D01*
X210370941Y-97002402D01*
X210255977Y-96830345D01*
X210109655Y-96684023D01*
X210109651Y-96684020D01*
X209937597Y-96569058D01*
X209746418Y-96489869D01*
X209543467Y-96449500D01*
X209543465Y-96449500D01*
X209336535Y-96449500D01*
X209336532Y-96449500D01*
X209133581Y-96489869D01*
X208942402Y-96569058D01*
X208770348Y-96684020D01*
X208624020Y-96830348D01*
X208509058Y-97002402D01*
X208429869Y-97193581D01*
X208389500Y-97396532D01*
X207950500Y-97396532D01*
X207950500Y-96630252D01*
X207938867Y-96571769D01*
X207894552Y-96505448D01*
X207894548Y-96505445D01*
X207828233Y-96461134D01*
X207828231Y-96461133D01*
X207828228Y-96461132D01*
X207828227Y-96461132D01*
X207769758Y-96449501D01*
X207769748Y-96449500D01*
X206030252Y-96449500D01*
X206030251Y-96449500D01*
X206030241Y-96449501D01*
X205971772Y-96461132D01*
X205971766Y-96461134D01*
X205905451Y-96505445D01*
X205905445Y-96505451D01*
X205861134Y-96571766D01*
X205861132Y-96571772D01*
X205849501Y-96630241D01*
X205849500Y-96630253D01*
X200185539Y-96630253D01*
X200083720Y-96610000D01*
X199916279Y-96610000D01*
X199752065Y-96642664D01*
X199597374Y-96706739D01*
X199493153Y-96776376D01*
X199894470Y-97177693D01*
X199884204Y-97180444D01*
X199815795Y-97219940D01*
X199759940Y-97275795D01*
X199720444Y-97344204D01*
X199717693Y-97354470D01*
X199316376Y-96953153D01*
X199246739Y-97057374D01*
X199182664Y-97212065D01*
X199150000Y-97376279D01*
X193910499Y-97376279D01*
X193910499Y-97344204D01*
X193910499Y-97140103D01*
X193910498Y-97140092D01*
X193903972Y-97090513D01*
X193903972Y-97090511D01*
X193853225Y-96981686D01*
X193853224Y-96981685D01*
X193853224Y-96981684D01*
X193768316Y-96896776D01*
X193768314Y-96896775D01*
X193768313Y-96896774D01*
X193659489Y-96846029D01*
X193659488Y-96846028D01*
X193642958Y-96843852D01*
X193609901Y-96839500D01*
X193609899Y-96839500D01*
X193250104Y-96839500D01*
X193250092Y-96839501D01*
X193200513Y-96846027D01*
X193200511Y-96846027D01*
X193091686Y-96896774D01*
X193091684Y-96896775D01*
X193091684Y-96896776D01*
X193055002Y-96933457D01*
X193000488Y-96961233D01*
X192940056Y-96951662D01*
X192914997Y-96933456D01*
X192842090Y-96860549D01*
X192842088Y-96860548D01*
X192732022Y-96804466D01*
X192732021Y-96804465D01*
X192640693Y-96790000D01*
X192595001Y-96790000D01*
X192595000Y-96790001D01*
X192595000Y-97790404D01*
X192576093Y-97848595D01*
X192526593Y-97884559D01*
X192465407Y-97884559D01*
X192424990Y-97859387D01*
X192418700Y-97852913D01*
X192401952Y-97827847D01*
X192380287Y-97813371D01*
X192372990Y-97805859D01*
X192363889Y-97787340D01*
X192351119Y-97771140D01*
X192348373Y-97755765D01*
X192346005Y-97750946D01*
X192346747Y-97746660D01*
X192345000Y-97736876D01*
X192345000Y-96789999D01*
X192299307Y-96790000D01*
X192299305Y-96790001D01*
X192207984Y-96804463D01*
X192207977Y-96804465D01*
X192097911Y-96860548D01*
X192097909Y-96860549D01*
X192010549Y-96947909D01*
X191964290Y-97038696D01*
X191921025Y-97081960D01*
X191860593Y-97091531D01*
X191821889Y-97076601D01*
X191813320Y-97070996D01*
X191797375Y-97055051D01*
X191763989Y-97038729D01*
X191758824Y-97035351D01*
X191743328Y-97016086D01*
X191725562Y-96998898D01*
X191724462Y-96992631D01*
X191720476Y-96987675D01*
X191719263Y-96962984D01*
X191714992Y-96938632D01*
X191717786Y-96932916D01*
X191717474Y-96926563D01*
X191731006Y-96905873D01*
X191741864Y-96883664D01*
X191748855Y-96878584D01*
X191750966Y-96875358D01*
X191755852Y-96873500D01*
X191769536Y-96863559D01*
X191778215Y-96859315D01*
X191797375Y-96849949D01*
X191882449Y-96764875D01*
X191935291Y-96656786D01*
X191945500Y-96586715D01*
X191945499Y-96123286D01*
X191935291Y-96053214D01*
X191882449Y-95945125D01*
X191861203Y-95923879D01*
X191833428Y-95869365D01*
X191842999Y-95808933D01*
X191886264Y-95765668D01*
X191899272Y-95760281D01*
X191899924Y-95759949D01*
X192018251Y-95699658D01*
X192112158Y-95605751D01*
X192172451Y-95487420D01*
X192188000Y-95389246D01*
X192188000Y-94810754D01*
X192188000Y-94810751D01*
X192487000Y-94810751D01*
X192487000Y-95389248D01*
X192502549Y-95487419D01*
X192502550Y-95487423D01*
X192532071Y-95545360D01*
X192562842Y-95605751D01*
X192656749Y-95699658D01*
X192775080Y-95759951D01*
X192841630Y-95770491D01*
X192873251Y-95775500D01*
X192873254Y-95775500D01*
X193376749Y-95775500D01*
X193405303Y-95770976D01*
X193474920Y-95759951D01*
X193593251Y-95699658D01*
X193687158Y-95605751D01*
X193729051Y-95523530D01*
X193730599Y-95520906D01*
X193751354Y-95502556D01*
X193770937Y-95482975D01*
X193774462Y-95482128D01*
X193776439Y-95480381D01*
X193785269Y-95479534D01*
X193815881Y-95472185D01*
X193875109Y-95472185D01*
X193918589Y-95482244D01*
X193929175Y-95487419D01*
X194017160Y-95530433D01*
X194086258Y-95540500D01*
X194086261Y-95540500D01*
X194463738Y-95540500D01*
X194463742Y-95540500D01*
X194532840Y-95530433D01*
X194639429Y-95478324D01*
X194723324Y-95394429D01*
X194775433Y-95287840D01*
X194785500Y-95218742D01*
X194785500Y-95064777D01*
X194804407Y-95006586D01*
X194814490Y-94994779D01*
X195728260Y-94081009D01*
X195782775Y-94053234D01*
X195843207Y-94062805D01*
X195886472Y-94106070D01*
X195896043Y-94166502D01*
X195865000Y-94362499D01*
X195865000Y-94617500D01*
X195904888Y-94869346D01*
X195983687Y-95111864D01*
X196099450Y-95339062D01*
X196249332Y-95545357D01*
X196251098Y-95547123D01*
X196801376Y-94996845D01*
X196824762Y-95031844D01*
X196943156Y-95150238D01*
X196978153Y-95173622D01*
X196427876Y-95723901D01*
X196429642Y-95725667D01*
X196635937Y-95875549D01*
X196863135Y-95991312D01*
X197105653Y-96070111D01*
X197357500Y-96110000D01*
X197612500Y-96110000D01*
X197864346Y-96070111D01*
X198106864Y-95991312D01*
X198334062Y-95875549D01*
X198540360Y-95725664D01*
X198540366Y-95725659D01*
X198542123Y-95723901D01*
X197991845Y-95173623D01*
X198026844Y-95150238D01*
X198145238Y-95031844D01*
X198168623Y-94996845D01*
X198718901Y-95547123D01*
X198720659Y-95545366D01*
X198720664Y-95545360D01*
X198870549Y-95339062D01*
X198986312Y-95111864D01*
X199065111Y-94869346D01*
X199105000Y-94617500D01*
X199105000Y-94362499D01*
X200945000Y-94362499D01*
X200945000Y-94617500D01*
X200984888Y-94869346D01*
X201063687Y-95111864D01*
X201179450Y-95339062D01*
X201329332Y-95545357D01*
X201331098Y-95547123D01*
X201881376Y-94996844D01*
X201904762Y-95031844D01*
X202023156Y-95150238D01*
X202058153Y-95173622D01*
X201507876Y-95723901D01*
X201509642Y-95725667D01*
X201715937Y-95875549D01*
X201943135Y-95991312D01*
X202185653Y-96070111D01*
X202437500Y-96110000D01*
X202692500Y-96110000D01*
X202944346Y-96070111D01*
X203186864Y-95991312D01*
X203414062Y-95875549D01*
X203620360Y-95725664D01*
X203620366Y-95725659D01*
X203622124Y-95723901D01*
X203071845Y-95173623D01*
X203106844Y-95150238D01*
X203225238Y-95031844D01*
X203248623Y-94996845D01*
X203798901Y-95547123D01*
X203800659Y-95545366D01*
X203800664Y-95545360D01*
X203950549Y-95339062D01*
X204066312Y-95111864D01*
X204145111Y-94869346D01*
X204185000Y-94617500D01*
X204185000Y-94362499D01*
X204145111Y-94110653D01*
X204066312Y-93868135D01*
X203950549Y-93640937D01*
X203800667Y-93434642D01*
X203798901Y-93432876D01*
X203248622Y-93983153D01*
X203225238Y-93948156D01*
X203106844Y-93829762D01*
X203071844Y-93806376D01*
X203622123Y-93256098D01*
X203620357Y-93254332D01*
X203414062Y-93104450D01*
X203186864Y-92988687D01*
X202944346Y-92909888D01*
X202692500Y-92870000D01*
X202437500Y-92870000D01*
X202185653Y-92909888D01*
X201943135Y-92988687D01*
X201715937Y-93104450D01*
X201509642Y-93254331D01*
X201507875Y-93256097D01*
X202058154Y-93806376D01*
X202023156Y-93829762D01*
X201904762Y-93948156D01*
X201881376Y-93983154D01*
X201331097Y-93432875D01*
X201329331Y-93434642D01*
X201179450Y-93640937D01*
X201063687Y-93868135D01*
X200984888Y-94110653D01*
X200945000Y-94362499D01*
X199105000Y-94362499D01*
X199065111Y-94110653D01*
X198986312Y-93868135D01*
X198870549Y-93640937D01*
X198720667Y-93434642D01*
X198718901Y-93432876D01*
X198168622Y-93983153D01*
X198145238Y-93948156D01*
X198026844Y-93829762D01*
X197991845Y-93806376D01*
X198542123Y-93256098D01*
X198540357Y-93254332D01*
X198334062Y-93104450D01*
X198106864Y-92988687D01*
X197864346Y-92909888D01*
X197612500Y-92870000D01*
X197357500Y-92870000D01*
X197161503Y-92901042D01*
X197101071Y-92891470D01*
X197057806Y-92848206D01*
X197048235Y-92787774D01*
X197076012Y-92733258D01*
X197352382Y-92456889D01*
X197483091Y-92326181D01*
X197537607Y-92298404D01*
X197553094Y-92297185D01*
X198677424Y-92297185D01*
X198735615Y-92316092D01*
X198771577Y-92365589D01*
X198772761Y-92369231D01*
X198801243Y-92456892D01*
X198801245Y-92456896D01*
X198895607Y-92642093D01*
X199017779Y-92810248D01*
X199164752Y-92957221D01*
X199332907Y-93079393D01*
X199518104Y-93173755D01*
X199518106Y-93173755D01*
X199518107Y-93173756D01*
X199518110Y-93173758D01*
X199715776Y-93237984D01*
X199715780Y-93237985D01*
X199921071Y-93270500D01*
X199921074Y-93270500D01*
X200128929Y-93270500D01*
X200334219Y-93237985D01*
X200334223Y-93237984D01*
X200442056Y-93202946D01*
X200442062Y-93202944D01*
X200531896Y-93173755D01*
X200717093Y-93079393D01*
X200885248Y-92957221D01*
X201032221Y-92810248D01*
X201154393Y-92642093D01*
X201248755Y-92456896D01*
X201248756Y-92456891D01*
X201248758Y-92456889D01*
X201312984Y-92259223D01*
X201312985Y-92259219D01*
X201345500Y-92053929D01*
X201345500Y-91846070D01*
X201312985Y-91640780D01*
X201312984Y-91640776D01*
X201248758Y-91443110D01*
X201248756Y-91443107D01*
X201248755Y-91443105D01*
X201248755Y-91443104D01*
X201154393Y-91257907D01*
X201032221Y-91089752D01*
X200885248Y-90942779D01*
X200717093Y-90820607D01*
X200717092Y-90820606D01*
X200717090Y-90820605D01*
X200531892Y-90726243D01*
X200531889Y-90726241D01*
X200442047Y-90697049D01*
X200442041Y-90697049D01*
X200334215Y-90662014D01*
X200128929Y-90629500D01*
X200128926Y-90629500D01*
X199921074Y-90629500D01*
X199921071Y-90629500D01*
X199715780Y-90662014D01*
X199715776Y-90662015D01*
X199518110Y-90726241D01*
X199518107Y-90726243D01*
X199332909Y-90820605D01*
X199164753Y-90942778D01*
X199017778Y-91089753D01*
X198895605Y-91257909D01*
X198801244Y-91443105D01*
X198785185Y-91492528D01*
X198771577Y-91534408D01*
X198735615Y-91583907D01*
X198677424Y-91602815D01*
X197322569Y-91602815D01*
X197313239Y-91605314D01*
X197278419Y-91614644D01*
X197278419Y-91614645D01*
X197234268Y-91626475D01*
X197234266Y-91626475D01*
X197234262Y-91626477D01*
X197155104Y-91672179D01*
X194893779Y-93933504D01*
X194839262Y-93961281D01*
X194823775Y-93962500D01*
X193715001Y-93962500D01*
X193715000Y-93962501D01*
X193715000Y-94081874D01*
X193730021Y-94176710D01*
X193730022Y-94176715D01*
X193788263Y-94291018D01*
X193867242Y-94369997D01*
X193873157Y-94381607D01*
X193882859Y-94390302D01*
X193886706Y-94408199D01*
X193895019Y-94424514D01*
X193892980Y-94437383D01*
X193895719Y-94450121D01*
X193888588Y-94465114D01*
X193885448Y-94484946D01*
X193870963Y-94506074D01*
X193869149Y-94508097D01*
X193826676Y-94550571D01*
X193821384Y-94561393D01*
X193812205Y-94571637D01*
X193797049Y-94580434D01*
X193784865Y-94593025D01*
X193771246Y-94595411D01*
X193759288Y-94602353D01*
X193741856Y-94600561D01*
X193724598Y-94603586D01*
X193712176Y-94597511D01*
X193698423Y-94596098D01*
X193685375Y-94584404D01*
X193669633Y-94576706D01*
X193668536Y-94575627D01*
X193593251Y-94500342D01*
X193572952Y-94489999D01*
X193474923Y-94440050D01*
X193474920Y-94440049D01*
X193450376Y-94436161D01*
X193376749Y-94424500D01*
X193376746Y-94424500D01*
X193202825Y-94424500D01*
X193144634Y-94405593D01*
X193108670Y-94356093D01*
X193108670Y-94294907D01*
X193114616Y-94280554D01*
X193164977Y-94181715D01*
X193164978Y-94181710D01*
X193180000Y-94086874D01*
X193180000Y-94025001D01*
X193179999Y-94025000D01*
X192687501Y-94025000D01*
X192687500Y-94025001D01*
X192687500Y-94428584D01*
X192668593Y-94486775D01*
X192658504Y-94498588D01*
X192656750Y-94500340D01*
X192656749Y-94500342D01*
X192562842Y-94594249D01*
X192552610Y-94614328D01*
X192552608Y-94614332D01*
X192502551Y-94712573D01*
X192502549Y-94712580D01*
X192487000Y-94810751D01*
X192188000Y-94810751D01*
X192172451Y-94712580D01*
X192112158Y-94594249D01*
X192112157Y-94594248D01*
X192108621Y-94587308D01*
X192111041Y-94586074D01*
X192096037Y-94539891D01*
X192114946Y-94481701D01*
X192164447Y-94445739D01*
X192215280Y-94445739D01*
X192215593Y-94443760D01*
X192318125Y-94460000D01*
X192423979Y-94460000D01*
X192437500Y-94444129D01*
X192437500Y-93340001D01*
X192687500Y-93340001D01*
X192687500Y-93774999D01*
X192687501Y-93775000D01*
X193179999Y-93775000D01*
X193180000Y-93774999D01*
X193180000Y-93713125D01*
X193164978Y-93618288D01*
X193164977Y-93618284D01*
X193152158Y-93593125D01*
X193715000Y-93593125D01*
X193715000Y-93712499D01*
X193715001Y-93712500D01*
X194149999Y-93712500D01*
X194150000Y-93712499D01*
X194150000Y-93220001D01*
X194400000Y-93220001D01*
X194400000Y-93712499D01*
X194400001Y-93712500D01*
X194834767Y-93712500D01*
X194835000Y-93712267D01*
X194835000Y-93593125D01*
X194819978Y-93498289D01*
X194819977Y-93498284D01*
X194761736Y-93383981D01*
X194671018Y-93293263D01*
X194556715Y-93235022D01*
X194556710Y-93235021D01*
X194461875Y-93220000D01*
X194400001Y-93220000D01*
X194400000Y-93220001D01*
X194150000Y-93220001D01*
X194149999Y-93220000D01*
X194088125Y-93220000D01*
X193993289Y-93235021D01*
X193993284Y-93235022D01*
X193878981Y-93293263D01*
X193788263Y-93383981D01*
X193730022Y-93498284D01*
X193730021Y-93498289D01*
X193715000Y-93593125D01*
X193152158Y-93593125D01*
X193106736Y-93503981D01*
X193016018Y-93413263D01*
X192901715Y-93355022D01*
X192901710Y-93355021D01*
X192806875Y-93340000D01*
X192687501Y-93340000D01*
X192687500Y-93340001D01*
X192437500Y-93340001D01*
X192437499Y-93340000D01*
X192318125Y-93340000D01*
X192223289Y-93355021D01*
X192223284Y-93355022D01*
X192108980Y-93413264D01*
X192108978Y-93413265D01*
X192030001Y-93492242D01*
X191975484Y-93520019D01*
X191915052Y-93510447D01*
X191889997Y-93492244D01*
X191849429Y-93451676D01*
X191849427Y-93451675D01*
X191849426Y-93451674D01*
X191770855Y-93413263D01*
X191742840Y-93399567D01*
X191673742Y-93389500D01*
X191181258Y-93389500D01*
X191112160Y-93399567D01*
X191005573Y-93451674D01*
X190921674Y-93535573D01*
X190893539Y-93593125D01*
X190869567Y-93642160D01*
X190859500Y-93711258D01*
X190859500Y-94088742D01*
X190869567Y-94157840D01*
X190894486Y-94208813D01*
X190921674Y-94264426D01*
X190921675Y-94264427D01*
X190921676Y-94264429D01*
X191005571Y-94348324D01*
X191034268Y-94362353D01*
X191078242Y-94404895D01*
X191088813Y-94465160D01*
X191061942Y-94520129D01*
X191060793Y-94521297D01*
X190987843Y-94594247D01*
X190987842Y-94594249D01*
X190927550Y-94712576D01*
X190927549Y-94712580D01*
X190912000Y-94810751D01*
X190912000Y-95389248D01*
X190927549Y-95487419D01*
X190927550Y-95487423D01*
X190957071Y-95545360D01*
X190987842Y-95605751D01*
X191070505Y-95688414D01*
X191074130Y-95695529D01*
X191080593Y-95700225D01*
X191087756Y-95722273D01*
X191098281Y-95742929D01*
X191099500Y-95758416D01*
X191099500Y-95775622D01*
X191080593Y-95833813D01*
X191058033Y-95856188D01*
X191052632Y-95860044D01*
X190967549Y-95945127D01*
X190914709Y-96053214D01*
X190904500Y-96123288D01*
X190904500Y-96586709D01*
X190904501Y-96586712D01*
X190914709Y-96656787D01*
X190967550Y-96764872D01*
X190967551Y-96764875D01*
X191052625Y-96849949D01*
X191052626Y-96849949D01*
X191052628Y-96849951D01*
X191080462Y-96863558D01*
X191124437Y-96906100D01*
X191135007Y-96966366D01*
X191108135Y-97021335D01*
X191080466Y-97041438D01*
X191052631Y-97055046D01*
X191052628Y-97055049D01*
X191052626Y-97055050D01*
X191052625Y-97055051D01*
X190967584Y-97140092D01*
X190967549Y-97140127D01*
X190932381Y-97212065D01*
X190914709Y-97248214D01*
X190904500Y-97318285D01*
X190904500Y-97543720D01*
X190904501Y-97672899D01*
X190885594Y-97731090D01*
X190836094Y-97767054D01*
X190822746Y-97770385D01*
X190814187Y-97771899D01*
X190764452Y-97771899D01*
X190705969Y-97783532D01*
X190690681Y-97793747D01*
X190670207Y-97797369D01*
X190659487Y-97795868D01*
X190649069Y-97798806D01*
X190612741Y-97789325D01*
X190609613Y-97788888D01*
X190609075Y-97788369D01*
X190608017Y-97788093D01*
X190542019Y-97754465D01*
X190450693Y-97740000D01*
X190375001Y-97740000D01*
X190375000Y-97740001D01*
X190375000Y-98171000D01*
X190370155Y-98185911D01*
X190370155Y-98201593D01*
X190360938Y-98214278D01*
X190356093Y-98229191D01*
X190343407Y-98238407D01*
X190334191Y-98251093D01*
X190319278Y-98255938D01*
X190306593Y-98265155D01*
X190276000Y-98270000D01*
X190250000Y-98270000D01*
X190250000Y-98296000D01*
X190231093Y-98354191D01*
X190181593Y-98390155D01*
X190151000Y-98395000D01*
X189690002Y-98395000D01*
X189690001Y-98395001D01*
X189690001Y-98440693D01*
X189690000Y-98440693D01*
X189704463Y-98532015D01*
X189704465Y-98532022D01*
X189760548Y-98642088D01*
X189760549Y-98642090D01*
X189833456Y-98714997D01*
X189861233Y-98769514D01*
X189851662Y-98829946D01*
X189833458Y-98855001D01*
X189796776Y-98891684D01*
X189796774Y-98891686D01*
X189746029Y-99000510D01*
X189746028Y-99000511D01*
X189739500Y-99050100D01*
X189739500Y-99409895D01*
X189739501Y-99409907D01*
X189746027Y-99459486D01*
X189746027Y-99459488D01*
X189796774Y-99568313D01*
X189796775Y-99568314D01*
X189796776Y-99568316D01*
X189832058Y-99603598D01*
X189839175Y-99617567D01*
X189850263Y-99628655D01*
X189852715Y-99644142D01*
X189859834Y-99658113D01*
X189857381Y-99673600D01*
X189859834Y-99689087D01*
X189852715Y-99703057D01*
X189850263Y-99718545D01*
X189832057Y-99743604D01*
X189827085Y-99748575D01*
X189827084Y-99748576D01*
X189790402Y-99785257D01*
X189735888Y-99813033D01*
X189675456Y-99803462D01*
X189650397Y-99785256D01*
X189577490Y-99712349D01*
X189577488Y-99712348D01*
X189467422Y-99656266D01*
X189467421Y-99656265D01*
X189376093Y-99641800D01*
X189330401Y-99641800D01*
X189330400Y-99641801D01*
X189330400Y-100102800D01*
X189325555Y-100117711D01*
X189325555Y-100133393D01*
X189316338Y-100146078D01*
X189311493Y-100160991D01*
X189298807Y-100170207D01*
X189289591Y-100182893D01*
X189274678Y-100187738D01*
X189261993Y-100196955D01*
X189231400Y-100201800D01*
X189205400Y-100201800D01*
X189205400Y-100227800D01*
X189186493Y-100285991D01*
X189136993Y-100321955D01*
X189106400Y-100326800D01*
X188675402Y-100326800D01*
X188675401Y-100326801D01*
X188675401Y-100402493D01*
X188675400Y-100402493D01*
X188685671Y-100467342D01*
X188676099Y-100527774D01*
X188632834Y-100571038D01*
X188598472Y-100581261D01*
X188583394Y-100582881D01*
X188583393Y-100582882D01*
X188455416Y-100630614D01*
X188346072Y-100712468D01*
X188346068Y-100712472D01*
X188264214Y-100821816D01*
X188216483Y-100949790D01*
X188216481Y-100949798D01*
X188210400Y-101006365D01*
X187377451Y-101006365D01*
X187344489Y-100419407D01*
X187341038Y-100357958D01*
X187340882Y-100352407D01*
X187340882Y-100001107D01*
X188675400Y-100001107D01*
X188675400Y-100076799D01*
X188675401Y-100076800D01*
X189080400Y-100076800D01*
X189080400Y-99641799D01*
X189034707Y-99641800D01*
X189034705Y-99641801D01*
X188943384Y-99656263D01*
X188943377Y-99656265D01*
X188833311Y-99712348D01*
X188833309Y-99712349D01*
X188745949Y-99799709D01*
X188745948Y-99799711D01*
X188689866Y-99909777D01*
X188689865Y-99909778D01*
X188675400Y-100001107D01*
X187340882Y-100001107D01*
X187340882Y-99647592D01*
X187341038Y-99642041D01*
X187345178Y-99568313D01*
X187380556Y-98938339D01*
X187381019Y-98932849D01*
X187459938Y-98232415D01*
X187460714Y-98226930D01*
X187465019Y-98201593D01*
X187482398Y-98099307D01*
X189690000Y-98099307D01*
X189690000Y-98144999D01*
X189690001Y-98145000D01*
X190125000Y-98145000D01*
X190125000Y-97739999D01*
X190049306Y-97740000D01*
X190049305Y-97740000D01*
X189957984Y-97754463D01*
X189957977Y-97754465D01*
X189847911Y-97810548D01*
X189847909Y-97810549D01*
X189760549Y-97897909D01*
X189760548Y-97897911D01*
X189704466Y-98007977D01*
X189704465Y-98007978D01*
X189690000Y-98099307D01*
X187482398Y-98099307D01*
X187578772Y-97532087D01*
X187579853Y-97526657D01*
X187580394Y-97524286D01*
X187736693Y-96839491D01*
X187738067Y-96834167D01*
X187933203Y-96156835D01*
X187934870Y-96151606D01*
X188167667Y-95486311D01*
X188169628Y-95481172D01*
X188439367Y-94829963D01*
X188441611Y-94824948D01*
X188747447Y-94189874D01*
X188749968Y-94184996D01*
X189090914Y-93568100D01*
X189093714Y-93563354D01*
X189468720Y-92966534D01*
X189471779Y-92961956D01*
X189879654Y-92387109D01*
X189882990Y-92382679D01*
X190322426Y-91831642D01*
X190325983Y-91827429D01*
X190795661Y-91301860D01*
X190799440Y-91297862D01*
X191297862Y-90799440D01*
X191301860Y-90795661D01*
X191827429Y-90325983D01*
X191831642Y-90322426D01*
X192382685Y-89882985D01*
X192387116Y-89879650D01*
X192961956Y-89471779D01*
X192966534Y-89468720D01*
X193563354Y-89093714D01*
X193568100Y-89090914D01*
X194184996Y-88749968D01*
X194189874Y-88747447D01*
X194824948Y-88441611D01*
X194829963Y-88439367D01*
X195481172Y-88169628D01*
X195486311Y-88167667D01*
X196151606Y-87934870D01*
X196156835Y-87933203D01*
X196676890Y-87783378D01*
X196738040Y-87785437D01*
X196786302Y-87823047D01*
X196803240Y-87881841D01*
X196782385Y-87939362D01*
X196749241Y-87966718D01*
X196635945Y-88024445D01*
X196635938Y-88024449D01*
X196429642Y-88174331D01*
X196427875Y-88176097D01*
X196978154Y-88726376D01*
X196943156Y-88749762D01*
X196824762Y-88868156D01*
X196801376Y-88903154D01*
X196251097Y-88352875D01*
X196249331Y-88354642D01*
X196099450Y-88560937D01*
X195983687Y-88788135D01*
X195904888Y-89030653D01*
X195865000Y-89282499D01*
X195865000Y-89537500D01*
X195904888Y-89789346D01*
X195983687Y-90031864D01*
X196099450Y-90259062D01*
X196249332Y-90465357D01*
X196251098Y-90467123D01*
X196801376Y-89916844D01*
X196824762Y-89951844D01*
X196943156Y-90070238D01*
X196978153Y-90093622D01*
X196427876Y-90643901D01*
X196429642Y-90645667D01*
X196635937Y-90795549D01*
X196863135Y-90911312D01*
X197105653Y-90990111D01*
X197357500Y-91030000D01*
X197612500Y-91030000D01*
X197864346Y-90990111D01*
X198106864Y-90911312D01*
X198334062Y-90795549D01*
X198540360Y-90645664D01*
X198540366Y-90645659D01*
X198542123Y-90643901D01*
X197991845Y-90093623D01*
X198026844Y-90070238D01*
X198145238Y-89951844D01*
X198168623Y-89916845D01*
X198718901Y-90467123D01*
X198720659Y-90465366D01*
X198720664Y-90465360D01*
X198870549Y-90259062D01*
X198986312Y-90031864D01*
X199065111Y-89789346D01*
X199105000Y-89537500D01*
X199105000Y-89282499D01*
X199065111Y-89030653D01*
X198986312Y-88788135D01*
X198870549Y-88560937D01*
X198720667Y-88354642D01*
X198718901Y-88352876D01*
X198168622Y-88903153D01*
X198145238Y-88868156D01*
X198026844Y-88749762D01*
X197991844Y-88726376D01*
X198542123Y-88176098D01*
X198540357Y-88174332D01*
X198334062Y-88024450D01*
X198106864Y-87908687D01*
X197864346Y-87829888D01*
X197612500Y-87790000D01*
X197484594Y-87790000D01*
X197465586Y-87783824D01*
X197445685Y-87782033D01*
X197437165Y-87774589D01*
X197426403Y-87771093D01*
X197414655Y-87754924D01*
X197399608Y-87741778D01*
X197397090Y-87730747D01*
X197390439Y-87721593D01*
X197390439Y-87701608D01*
X197385992Y-87682126D01*
X197390439Y-87671722D01*
X197390439Y-87660407D01*
X197402186Y-87644237D01*
X197410040Y-87625865D01*
X197419750Y-87620062D01*
X197426403Y-87610907D01*
X197462564Y-87594482D01*
X197526672Y-87579849D01*
X197532087Y-87578772D01*
X198226944Y-87460711D01*
X198232415Y-87459938D01*
X198932849Y-87381019D01*
X198938339Y-87380556D01*
X199642041Y-87341037D01*
X199647592Y-87340882D01*
X200352408Y-87340882D01*
X200357958Y-87341037D01*
G37*
%TD.AperFunction*%
%TD*%
M02*
