M48
; DRILL file {KiCad 9.0.7} date 2026-02-15T20:11:04-0500
; FORMAT={-:-/ absolute / metric / decimal}
; #@! TF.CreationDate,2026-02-15T20:11:04-05:00
; #@! TF.GenerationSoftware,Kicad,Pcbnew,9.0.7
; #@! TF.FileFunction,MixedPlating,1,2
FMAT,2
METRIC
; #@! TA.AperFunction,Plated,PTH,ViaDrill
T1C0.300
; #@! TA.AperFunction,Plated,PTH,ViaDrill
T2C0.400
; #@! TA.AperFunction,Plated,PTH,ComponentDrill
T3C1.000
%
G90
G05
T1
X191.418Y-102.763
X192.825Y-98.45
X193.46Y-100.35
X194.418Y-104.213
X194.8Y-100.338
X195.24Y-106.88
X196.7Y-109.225
X197.2Y-110.6
X197.975Y-108.2
X198.075Y-105.163
X198.09Y-100.32
X198.31Y-98.92
X201.2Y-109.3
X201.85Y-109.3
X203.068Y-104.763
X204.5Y-95.93
X205.8Y-98.84
X207.18Y-96.48
T2
X196.6Y-97.7
T3
X207.41Y-98.06
X207.41Y-100.6
X207.41Y-103.14
X209.95Y-98.06
X209.95Y-100.6
X209.95Y-103.14
M30
