%TF.GenerationSoftware,KiCad,Pcbnew,9.0.7*%
%TF.CreationDate,2026-02-15T20:11:15-05:00*%
%TF.ProjectId,tiav3_s14160,74696176-335f-4733-9134-3136302e6b69,rev?*%
%TF.SameCoordinates,Original*%
%TF.FileFunction,Legend,Top*%
%TF.FilePolarity,Positive*%
%FSLAX46Y46*%
G04 Gerber Fmt 4.6, Leading zero omitted, Abs format (unit mm)*
G04 Created by KiCad (PCBNEW 9.0.7) date 2026-02-15 20:11:15*
%MOMM*%
%LPD*%
G01*
G04 APERTURE LIST*
%ADD10C,0.076200*%
%ADD11C,0.127000*%
%ADD12C,0.200000*%
%ADD13C,0.150000*%
%ADD14C,0.120000*%
G04 APERTURE END LIST*
D10*
X196923200Y-93723200D02*
G75*
G02*
X196673200Y-93723200I-125000J0D01*
G01*
X196673200Y-93723200D02*
G75*
G02*
X196923200Y-93723200I125000J0D01*
G01*
X200209600Y-100609600D02*
X200209600Y-99390400D01*
X200209600Y-100000000D02*
X201317800Y-100000000D01*
X199600000Y-100558800D02*
X199600000Y-99390400D01*
X199600000Y-99390400D02*
X200209600Y-100000000D01*
X200209600Y-100000000D02*
X199600000Y-100609600D01*
X199192800Y-101609600D02*
X199192800Y-101558800D01*
X199600000Y-99974600D02*
X198425000Y-99974600D01*
D11*
X197268857Y-104595524D02*
X197486572Y-104668095D01*
X197486572Y-104668095D02*
X197849429Y-104668095D01*
X197849429Y-104668095D02*
X197994572Y-104595524D01*
X197994572Y-104595524D02*
X198067143Y-104522952D01*
X198067143Y-104522952D02*
X198139714Y-104377809D01*
X198139714Y-104377809D02*
X198139714Y-104232666D01*
X198139714Y-104232666D02*
X198067143Y-104087524D01*
X198067143Y-104087524D02*
X197994572Y-104014952D01*
X197994572Y-104014952D02*
X197849429Y-103942381D01*
X197849429Y-103942381D02*
X197559143Y-103869809D01*
X197559143Y-103869809D02*
X197414000Y-103797238D01*
X197414000Y-103797238D02*
X197341429Y-103724666D01*
X197341429Y-103724666D02*
X197268857Y-103579524D01*
X197268857Y-103579524D02*
X197268857Y-103434381D01*
X197268857Y-103434381D02*
X197341429Y-103289238D01*
X197341429Y-103289238D02*
X197414000Y-103216666D01*
X197414000Y-103216666D02*
X197559143Y-103144095D01*
X197559143Y-103144095D02*
X197922000Y-103144095D01*
X197922000Y-103144095D02*
X198139714Y-103216666D01*
X198792858Y-104668095D02*
X198792858Y-103652095D01*
X198792858Y-103144095D02*
X198720286Y-103216666D01*
X198720286Y-103216666D02*
X198792858Y-103289238D01*
X198792858Y-103289238D02*
X198865429Y-103216666D01*
X198865429Y-103216666D02*
X198792858Y-103144095D01*
X198792858Y-103144095D02*
X198792858Y-103289238D01*
X199518572Y-104668095D02*
X199518572Y-103144095D01*
X199518572Y-103144095D02*
X200099143Y-103144095D01*
X200099143Y-103144095D02*
X200244286Y-103216666D01*
X200244286Y-103216666D02*
X200316857Y-103289238D01*
X200316857Y-103289238D02*
X200389429Y-103434381D01*
X200389429Y-103434381D02*
X200389429Y-103652095D01*
X200389429Y-103652095D02*
X200316857Y-103797238D01*
X200316857Y-103797238D02*
X200244286Y-103869809D01*
X200244286Y-103869809D02*
X200099143Y-103942381D01*
X200099143Y-103942381D02*
X199518572Y-103942381D01*
X201042572Y-104668095D02*
X201042572Y-103144095D01*
X201042572Y-103144095D02*
X201550572Y-104232666D01*
X201550572Y-104232666D02*
X202058572Y-103144095D01*
X202058572Y-103144095D02*
X202058572Y-104668095D01*
X195127999Y-105597650D02*
X195998857Y-105597650D01*
X195563428Y-107121650D02*
X195563428Y-105597650D01*
X196506857Y-107121650D02*
X196506857Y-105597650D01*
X197159999Y-106686221D02*
X197885714Y-106686221D01*
X197014856Y-107121650D02*
X197522856Y-105597650D01*
X197522856Y-105597650D02*
X198030856Y-107121650D01*
X198393714Y-106105650D02*
X198756571Y-107121650D01*
X198756571Y-107121650D02*
X199119428Y-106105650D01*
X200498285Y-107121650D02*
X199627428Y-107121650D01*
X200062857Y-107121650D02*
X200062857Y-105597650D01*
X200062857Y-105597650D02*
X199917714Y-105815364D01*
X199917714Y-105815364D02*
X199772571Y-105960507D01*
X199772571Y-105960507D02*
X199627428Y-106033079D01*
X201949714Y-107121650D02*
X201078857Y-107121650D01*
X201514286Y-107121650D02*
X201514286Y-105597650D01*
X201514286Y-105597650D02*
X201369143Y-105815364D01*
X201369143Y-105815364D02*
X201224000Y-105960507D01*
X201224000Y-105960507D02*
X201078857Y-106033079D01*
X202602858Y-106976507D02*
X202675429Y-107049079D01*
X202675429Y-107049079D02*
X202602858Y-107121650D01*
X202602858Y-107121650D02*
X202530286Y-107049079D01*
X202530286Y-107049079D02*
X202602858Y-106976507D01*
X202602858Y-106976507D02*
X202602858Y-107121650D01*
X204126857Y-107121650D02*
X203256000Y-107121650D01*
X203691429Y-107121650D02*
X203691429Y-105597650D01*
X203691429Y-105597650D02*
X203546286Y-105815364D01*
X203546286Y-105815364D02*
X203401143Y-105960507D01*
X203401143Y-105960507D02*
X203256000Y-106033079D01*
X195635998Y-109502634D02*
X195853713Y-109575205D01*
X195853713Y-109575205D02*
X196216570Y-109575205D01*
X196216570Y-109575205D02*
X196361713Y-109502634D01*
X196361713Y-109502634D02*
X196434284Y-109430062D01*
X196434284Y-109430062D02*
X196506855Y-109284919D01*
X196506855Y-109284919D02*
X196506855Y-109139776D01*
X196506855Y-109139776D02*
X196434284Y-108994634D01*
X196434284Y-108994634D02*
X196361713Y-108922062D01*
X196361713Y-108922062D02*
X196216570Y-108849491D01*
X196216570Y-108849491D02*
X195926284Y-108776919D01*
X195926284Y-108776919D02*
X195781141Y-108704348D01*
X195781141Y-108704348D02*
X195708570Y-108631776D01*
X195708570Y-108631776D02*
X195635998Y-108486634D01*
X195635998Y-108486634D02*
X195635998Y-108341491D01*
X195635998Y-108341491D02*
X195708570Y-108196348D01*
X195708570Y-108196348D02*
X195781141Y-108123776D01*
X195781141Y-108123776D02*
X195926284Y-108051205D01*
X195926284Y-108051205D02*
X196289141Y-108051205D01*
X196289141Y-108051205D02*
X196506855Y-108123776D01*
X197958284Y-109575205D02*
X197087427Y-109575205D01*
X197522856Y-109575205D02*
X197522856Y-108051205D01*
X197522856Y-108051205D02*
X197377713Y-108268919D01*
X197377713Y-108268919D02*
X197232570Y-108414062D01*
X197232570Y-108414062D02*
X197087427Y-108486634D01*
X199264571Y-108559205D02*
X199264571Y-109575205D01*
X198901713Y-107978634D02*
X198538856Y-109067205D01*
X198538856Y-109067205D02*
X199482285Y-109067205D01*
X200861142Y-109575205D02*
X199990285Y-109575205D01*
X200425714Y-109575205D02*
X200425714Y-108051205D01*
X200425714Y-108051205D02*
X200280571Y-108268919D01*
X200280571Y-108268919D02*
X200135428Y-108414062D01*
X200135428Y-108414062D02*
X199990285Y-108486634D01*
X202167429Y-108051205D02*
X201877143Y-108051205D01*
X201877143Y-108051205D02*
X201732000Y-108123776D01*
X201732000Y-108123776D02*
X201659429Y-108196348D01*
X201659429Y-108196348D02*
X201514286Y-108414062D01*
X201514286Y-108414062D02*
X201441714Y-108704348D01*
X201441714Y-108704348D02*
X201441714Y-109284919D01*
X201441714Y-109284919D02*
X201514286Y-109430062D01*
X201514286Y-109430062D02*
X201586857Y-109502634D01*
X201586857Y-109502634D02*
X201732000Y-109575205D01*
X201732000Y-109575205D02*
X202022286Y-109575205D01*
X202022286Y-109575205D02*
X202167429Y-109502634D01*
X202167429Y-109502634D02*
X202240000Y-109430062D01*
X202240000Y-109430062D02*
X202312571Y-109284919D01*
X202312571Y-109284919D02*
X202312571Y-108922062D01*
X202312571Y-108922062D02*
X202240000Y-108776919D01*
X202240000Y-108776919D02*
X202167429Y-108704348D01*
X202167429Y-108704348D02*
X202022286Y-108631776D01*
X202022286Y-108631776D02*
X201732000Y-108631776D01*
X201732000Y-108631776D02*
X201586857Y-108704348D01*
X201586857Y-108704348D02*
X201514286Y-108776919D01*
X201514286Y-108776919D02*
X201441714Y-108922062D01*
X203256000Y-108051205D02*
X203401143Y-108051205D01*
X203401143Y-108051205D02*
X203546286Y-108123776D01*
X203546286Y-108123776D02*
X203618858Y-108196348D01*
X203618858Y-108196348D02*
X203691429Y-108341491D01*
X203691429Y-108341491D02*
X203764000Y-108631776D01*
X203764000Y-108631776D02*
X203764000Y-108994634D01*
X203764000Y-108994634D02*
X203691429Y-109284919D01*
X203691429Y-109284919D02*
X203618858Y-109430062D01*
X203618858Y-109430062D02*
X203546286Y-109502634D01*
X203546286Y-109502634D02*
X203401143Y-109575205D01*
X203401143Y-109575205D02*
X203256000Y-109575205D01*
X203256000Y-109575205D02*
X203110858Y-109502634D01*
X203110858Y-109502634D02*
X203038286Y-109430062D01*
X203038286Y-109430062D02*
X202965715Y-109284919D01*
X202965715Y-109284919D02*
X202893143Y-108994634D01*
X202893143Y-108994634D02*
X202893143Y-108631776D01*
X202893143Y-108631776D02*
X202965715Y-108341491D01*
X202965715Y-108341491D02*
X203038286Y-108196348D01*
X203038286Y-108196348D02*
X203110858Y-108123776D01*
X203110858Y-108123776D02*
X203256000Y-108051205D01*
D12*
X205519673Y-95136266D02*
X206281578Y-95136266D01*
X205900625Y-95517219D02*
X205900625Y-94755314D01*
X207233958Y-94517219D02*
X206757768Y-94517219D01*
X206757768Y-94517219D02*
X206710149Y-94993409D01*
X206710149Y-94993409D02*
X206757768Y-94945790D01*
X206757768Y-94945790D02*
X206853006Y-94898171D01*
X206853006Y-94898171D02*
X207091101Y-94898171D01*
X207091101Y-94898171D02*
X207186339Y-94945790D01*
X207186339Y-94945790D02*
X207233958Y-94993409D01*
X207233958Y-94993409D02*
X207281577Y-95088647D01*
X207281577Y-95088647D02*
X207281577Y-95326742D01*
X207281577Y-95326742D02*
X207233958Y-95421980D01*
X207233958Y-95421980D02*
X207186339Y-95469600D01*
X207186339Y-95469600D02*
X207091101Y-95517219D01*
X207091101Y-95517219D02*
X206853006Y-95517219D01*
X206853006Y-95517219D02*
X206757768Y-95469600D01*
X206757768Y-95469600D02*
X206710149Y-95421980D01*
X207614911Y-94850552D02*
X207853006Y-95517219D01*
X207853006Y-95517219D02*
X208091101Y-94850552D01*
D13*
X195342801Y-104068546D02*
X194763742Y-104119126D01*
X195057087Y-104563418D02*
X194191062Y-104063418D01*
X194191062Y-104063418D02*
X194381538Y-103733503D01*
X194381538Y-103733503D02*
X194470396Y-103674834D01*
X194470396Y-103674834D02*
X194535445Y-103657405D01*
X194535445Y-103657405D02*
X194641733Y-103663784D01*
X194641733Y-103663784D02*
X194765451Y-103735213D01*
X194765451Y-103735213D02*
X194824120Y-103824071D01*
X194824120Y-103824071D02*
X194841550Y-103889120D01*
X194841550Y-103889120D02*
X194835170Y-103995408D01*
X194835170Y-103995408D02*
X194644694Y-104325323D01*
X194749731Y-103286251D02*
X194732301Y-103221202D01*
X194732301Y-103221202D02*
X194738681Y-103114914D01*
X194738681Y-103114914D02*
X194857728Y-102908717D01*
X194857728Y-102908717D02*
X194946587Y-102850048D01*
X194946587Y-102850048D02*
X195011635Y-102832618D01*
X195011635Y-102832618D02*
X195117924Y-102838998D01*
X195117924Y-102838998D02*
X195200402Y-102886617D01*
X195200402Y-102886617D02*
X195300311Y-102999285D01*
X195300311Y-102999285D02*
X195509468Y-103779871D01*
X195509468Y-103779871D02*
X195818992Y-103243760D01*
X204166666Y-91766033D02*
X204166666Y-92266033D01*
X204166666Y-92266033D02*
X204133333Y-92366033D01*
X204133333Y-92366033D02*
X204066666Y-92432700D01*
X204066666Y-92432700D02*
X203966666Y-92466033D01*
X203966666Y-92466033D02*
X203900000Y-92466033D01*
X204466666Y-91832700D02*
X204499999Y-91799366D01*
X204499999Y-91799366D02*
X204566666Y-91766033D01*
X204566666Y-91766033D02*
X204733333Y-91766033D01*
X204733333Y-91766033D02*
X204799999Y-91799366D01*
X204799999Y-91799366D02*
X204833333Y-91832700D01*
X204833333Y-91832700D02*
X204866666Y-91899366D01*
X204866666Y-91899366D02*
X204866666Y-91966033D01*
X204866666Y-91966033D02*
X204833333Y-92066033D01*
X204833333Y-92066033D02*
X204433333Y-92466033D01*
X204433333Y-92466033D02*
X204866666Y-92466033D01*
D14*
%TO.C,J1*%
X205570000Y-96170000D02*
X206900000Y-96170000D01*
X205570000Y-97500000D02*
X205570000Y-96170000D01*
X205570000Y-98770000D02*
X205570000Y-103910000D01*
X205570000Y-98770000D02*
X208170000Y-98770000D01*
X205570000Y-103910000D02*
X210770000Y-103910000D01*
X208170000Y-96170000D02*
X210770000Y-96170000D01*
X208170000Y-98770000D02*
X208170000Y-96170000D01*
X210770000Y-96170000D02*
X210770000Y-103910000D01*
%TO.C,R2*%
X193766731Y-102788743D02*
X193613090Y-103054857D01*
X194424910Y-103168743D02*
X194271269Y-103434857D01*
%TO.C,J2*%
X196519800Y-93150000D02*
X196519800Y-91150000D01*
X199025000Y-88644800D02*
X201025000Y-88644800D01*
X201025000Y-95655200D02*
X199025000Y-95655200D01*
X203530200Y-91150000D02*
X203530200Y-93150000D01*
%TD*%
M02*
