%TF.GenerationSoftware,KiCad,Pcbnew,9.0.7*%
%TF.CreationDate,2026-02-15T20:11:02-05:00*%
%TF.ProjectId,psu,7073752e-6b69-4636-9164-5f7063625858,rev?*%
%TF.SameCoordinates,Original*%
%TF.FileFunction,Legend,Top*%
%TF.FilePolarity,Positive*%
%FSLAX46Y46*%
G04 Gerber Fmt 4.6, Leading zero omitted, Abs format (unit mm)*
G04 Created by KiCad (PCBNEW 9.0.7) date 2026-02-15 20:11:02*
%MOMM*%
%LPD*%
G01*
G04 APERTURE LIST*
%ADD10C,0.120000*%
%ADD11C,0.100000*%
%ADD12C,0.200000*%
%ADD13C,0.152400*%
G04 APERTURE END LIST*
D10*
X192142600Y-100912500D02*
X193292600Y-100912500D01*
X204768097Y-90194283D02*
G75*
G02*
X195500000Y-90075000I-4768097J-10355717D01*
G01*
D11*
X192799999Y-96147371D02*
X192942856Y-96547371D01*
X192942856Y-96547371D02*
X193085713Y-96147371D01*
X193628570Y-96547371D02*
X193285713Y-96547371D01*
X193457142Y-96547371D02*
X193457142Y-95947371D01*
X193457142Y-95947371D02*
X193399999Y-96033085D01*
X193399999Y-96033085D02*
X193342856Y-96090228D01*
X193342856Y-96090228D02*
X193285713Y-96118800D01*
X193857142Y-96004514D02*
X193885714Y-95975942D01*
X193885714Y-95975942D02*
X193942857Y-95947371D01*
X193942857Y-95947371D02*
X194085714Y-95947371D01*
X194085714Y-95947371D02*
X194142857Y-95975942D01*
X194142857Y-95975942D02*
X194171428Y-96004514D01*
X194171428Y-96004514D02*
X194199999Y-96061657D01*
X194199999Y-96061657D02*
X194199999Y-96118800D01*
X194199999Y-96118800D02*
X194171428Y-96204514D01*
X194171428Y-96204514D02*
X193828571Y-96547371D01*
X193828571Y-96547371D02*
X194199999Y-96547371D01*
X194428571Y-96004514D02*
X194457143Y-95975942D01*
X194457143Y-95975942D02*
X194514286Y-95947371D01*
X194514286Y-95947371D02*
X194657143Y-95947371D01*
X194657143Y-95947371D02*
X194714286Y-95975942D01*
X194714286Y-95975942D02*
X194742857Y-96004514D01*
X194742857Y-96004514D02*
X194771428Y-96061657D01*
X194771428Y-96061657D02*
X194771428Y-96118800D01*
X194771428Y-96118800D02*
X194742857Y-96204514D01*
X194742857Y-96204514D02*
X194400000Y-96547371D01*
X194400000Y-96547371D02*
X194771428Y-96547371D01*
D12*
X192054762Y-93874628D02*
X192197619Y-93922247D01*
X192197619Y-93922247D02*
X192435714Y-93922247D01*
X192435714Y-93922247D02*
X192530952Y-93874628D01*
X192530952Y-93874628D02*
X192578571Y-93827008D01*
X192578571Y-93827008D02*
X192626190Y-93731770D01*
X192626190Y-93731770D02*
X192626190Y-93636532D01*
X192626190Y-93636532D02*
X192578571Y-93541294D01*
X192578571Y-93541294D02*
X192530952Y-93493675D01*
X192530952Y-93493675D02*
X192435714Y-93446056D01*
X192435714Y-93446056D02*
X192245238Y-93398437D01*
X192245238Y-93398437D02*
X192150000Y-93350818D01*
X192150000Y-93350818D02*
X192102381Y-93303199D01*
X192102381Y-93303199D02*
X192054762Y-93207961D01*
X192054762Y-93207961D02*
X192054762Y-93112723D01*
X192054762Y-93112723D02*
X192102381Y-93017485D01*
X192102381Y-93017485D02*
X192150000Y-92969866D01*
X192150000Y-92969866D02*
X192245238Y-92922247D01*
X192245238Y-92922247D02*
X192483333Y-92922247D01*
X192483333Y-92922247D02*
X192626190Y-92969866D01*
X193054762Y-93922247D02*
X193054762Y-93255580D01*
X193054762Y-92922247D02*
X193007143Y-92969866D01*
X193007143Y-92969866D02*
X193054762Y-93017485D01*
X193054762Y-93017485D02*
X193102381Y-92969866D01*
X193102381Y-92969866D02*
X193054762Y-92922247D01*
X193054762Y-92922247D02*
X193054762Y-93017485D01*
X193530952Y-93922247D02*
X193530952Y-92922247D01*
X193530952Y-92922247D02*
X193911904Y-92922247D01*
X193911904Y-92922247D02*
X194007142Y-92969866D01*
X194007142Y-92969866D02*
X194054761Y-93017485D01*
X194054761Y-93017485D02*
X194102380Y-93112723D01*
X194102380Y-93112723D02*
X194102380Y-93255580D01*
X194102380Y-93255580D02*
X194054761Y-93350818D01*
X194054761Y-93350818D02*
X194007142Y-93398437D01*
X194007142Y-93398437D02*
X193911904Y-93446056D01*
X193911904Y-93446056D02*
X193530952Y-93446056D01*
X194530952Y-93922247D02*
X194530952Y-92922247D01*
X194530952Y-92922247D02*
X194864285Y-93636532D01*
X194864285Y-93636532D02*
X195197618Y-92922247D01*
X195197618Y-92922247D02*
X195197618Y-93922247D01*
X192388095Y-95532191D02*
X192388095Y-94532191D01*
X192388095Y-94532191D02*
X192769047Y-94532191D01*
X192769047Y-94532191D02*
X192864285Y-94579810D01*
X192864285Y-94579810D02*
X192911904Y-94627429D01*
X192911904Y-94627429D02*
X192959523Y-94722667D01*
X192959523Y-94722667D02*
X192959523Y-94865524D01*
X192959523Y-94865524D02*
X192911904Y-94960762D01*
X192911904Y-94960762D02*
X192864285Y-95008381D01*
X192864285Y-95008381D02*
X192769047Y-95056000D01*
X192769047Y-95056000D02*
X192388095Y-95056000D01*
X193340476Y-95484572D02*
X193483333Y-95532191D01*
X193483333Y-95532191D02*
X193721428Y-95532191D01*
X193721428Y-95532191D02*
X193816666Y-95484572D01*
X193816666Y-95484572D02*
X193864285Y-95436952D01*
X193864285Y-95436952D02*
X193911904Y-95341714D01*
X193911904Y-95341714D02*
X193911904Y-95246476D01*
X193911904Y-95246476D02*
X193864285Y-95151238D01*
X193864285Y-95151238D02*
X193816666Y-95103619D01*
X193816666Y-95103619D02*
X193721428Y-95056000D01*
X193721428Y-95056000D02*
X193530952Y-95008381D01*
X193530952Y-95008381D02*
X193435714Y-94960762D01*
X193435714Y-94960762D02*
X193388095Y-94913143D01*
X193388095Y-94913143D02*
X193340476Y-94817905D01*
X193340476Y-94817905D02*
X193340476Y-94722667D01*
X193340476Y-94722667D02*
X193388095Y-94627429D01*
X193388095Y-94627429D02*
X193435714Y-94579810D01*
X193435714Y-94579810D02*
X193530952Y-94532191D01*
X193530952Y-94532191D02*
X193769047Y-94532191D01*
X193769047Y-94532191D02*
X193911904Y-94579810D01*
X194340476Y-94532191D02*
X194340476Y-95341714D01*
X194340476Y-95341714D02*
X194388095Y-95436952D01*
X194388095Y-95436952D02*
X194435714Y-95484572D01*
X194435714Y-95484572D02*
X194530952Y-95532191D01*
X194530952Y-95532191D02*
X194721428Y-95532191D01*
X194721428Y-95532191D02*
X194816666Y-95484572D01*
X194816666Y-95484572D02*
X194864285Y-95436952D01*
X194864285Y-95436952D02*
X194911904Y-95341714D01*
X194911904Y-95341714D02*
X194911904Y-94532191D01*
D11*
X199500000Y-98135228D02*
X199471428Y-98163800D01*
X199471428Y-98163800D02*
X199385714Y-98192371D01*
X199385714Y-98192371D02*
X199328571Y-98192371D01*
X199328571Y-98192371D02*
X199242857Y-98163800D01*
X199242857Y-98163800D02*
X199185714Y-98106657D01*
X199185714Y-98106657D02*
X199157143Y-98049514D01*
X199157143Y-98049514D02*
X199128571Y-97935228D01*
X199128571Y-97935228D02*
X199128571Y-97849514D01*
X199128571Y-97849514D02*
X199157143Y-97735228D01*
X199157143Y-97735228D02*
X199185714Y-97678085D01*
X199185714Y-97678085D02*
X199242857Y-97620942D01*
X199242857Y-97620942D02*
X199328571Y-97592371D01*
X199328571Y-97592371D02*
X199385714Y-97592371D01*
X199385714Y-97592371D02*
X199471428Y-97620942D01*
X199471428Y-97620942D02*
X199500000Y-97649514D01*
X200014286Y-97592371D02*
X199900000Y-97592371D01*
X199900000Y-97592371D02*
X199842857Y-97620942D01*
X199842857Y-97620942D02*
X199814286Y-97649514D01*
X199814286Y-97649514D02*
X199757143Y-97735228D01*
X199757143Y-97735228D02*
X199728571Y-97849514D01*
X199728571Y-97849514D02*
X199728571Y-98078085D01*
X199728571Y-98078085D02*
X199757143Y-98135228D01*
X199757143Y-98135228D02*
X199785714Y-98163800D01*
X199785714Y-98163800D02*
X199842857Y-98192371D01*
X199842857Y-98192371D02*
X199957143Y-98192371D01*
X199957143Y-98192371D02*
X200014286Y-98163800D01*
X200014286Y-98163800D02*
X200042857Y-98135228D01*
X200042857Y-98135228D02*
X200071428Y-98078085D01*
X200071428Y-98078085D02*
X200071428Y-97935228D01*
X200071428Y-97935228D02*
X200042857Y-97878085D01*
X200042857Y-97878085D02*
X200014286Y-97849514D01*
X200014286Y-97849514D02*
X199957143Y-97820942D01*
X199957143Y-97820942D02*
X199842857Y-97820942D01*
X199842857Y-97820942D02*
X199785714Y-97849514D01*
X199785714Y-97849514D02*
X199757143Y-97878085D01*
X199757143Y-97878085D02*
X199728571Y-97935228D01*
D10*
%TO.C,C17*%
X198487221Y-110165000D02*
X198812779Y-110165000D01*
X198487221Y-111185000D02*
X198812779Y-111185000D01*
D13*
%TO.C,U5*%
X198184950Y-106612499D02*
X196834950Y-106612499D01*
X199638250Y-108550360D02*
X199638250Y-107874638D01*
D10*
%TO.C,J3*%
X206080000Y-96730000D02*
X207410000Y-96730000D01*
X206080000Y-98060000D02*
X206080000Y-96730000D01*
X206080000Y-99330000D02*
X206080000Y-104470000D01*
X206080000Y-99330000D02*
X208680000Y-99330000D01*
X206080000Y-104470000D02*
X211280000Y-104470000D01*
X208680000Y-96730000D02*
X211280000Y-96730000D01*
X208680000Y-99330000D02*
X208680000Y-96730000D01*
X211280000Y-96730000D02*
X211280000Y-104470000D01*
%TO.C,C2*%
X195390000Y-107662779D02*
X195390000Y-107337221D01*
X196410000Y-107662779D02*
X196410000Y-107337221D01*
%TO.C,C1*%
X195384600Y-99230280D02*
X195384600Y-98904722D01*
X196404600Y-99230280D02*
X196404600Y-98904722D01*
%TO.C,C3*%
X200865000Y-108062779D02*
X200865000Y-107737221D01*
X201885000Y-108062779D02*
X201885000Y-107737221D01*
%TO.C,C8*%
X189515000Y-100881280D02*
X189515000Y-100555722D01*
X190535000Y-100881280D02*
X190535000Y-100555722D01*
%TO.C,C15*%
X195384600Y-101444722D02*
X195384600Y-101770280D01*
X196404600Y-101444722D02*
X196404600Y-101770280D01*
%TO.C,R9*%
X199404821Y-104652501D02*
X199730379Y-104652501D01*
X199404821Y-105672501D02*
X199730379Y-105672501D01*
%TO.C,R8*%
X201807600Y-103025280D02*
X201807600Y-102699722D01*
X202827600Y-103025280D02*
X202827600Y-102699722D01*
D13*
%TO.C,U1*%
X193597600Y-101872500D02*
X194593812Y-101872500D01*
D10*
%TO.C,C5*%
X199526221Y-99880000D02*
X199851779Y-99880000D01*
X199526221Y-100900000D02*
X199851779Y-100900000D01*
D13*
%TO.C,U3*%
X198807600Y-100975001D02*
X197407600Y-100975001D01*
X200220900Y-102962862D02*
X200220900Y-102287140D01*
D10*
%TO.C,C6*%
X199527221Y-98460000D02*
X199852779Y-98460000D01*
X199527221Y-99480000D02*
X199852779Y-99480000D01*
%TD*%
M02*
