%TF.GenerationSoftware,KiCad,Pcbnew,9.0.7*%
%TF.CreationDate,2026-02-15T20:11:11-05:00*%
%TF.ProjectId,tiav3_s13360_3030VE,74696176-335f-4733-9133-3336305f3330,rev?*%
%TF.SameCoordinates,Original*%
%TF.FileFunction,Copper,L4,Bot*%
%TF.FilePolarity,Positive*%
%FSLAX46Y46*%
G04 Gerber Fmt 4.6, Leading zero omitted, Abs format (unit mm)*
G04 Created by KiCad (PCBNEW 9.0.7) date 2026-02-15 20:11:11*
%MOMM*%
%LPD*%
G01*
G04 APERTURE LIST*
G04 Aperture macros list*
%AMRoundRect*
0 Rectangle with rounded corners*
0 $1 Rounding radius*
0 $2 $3 $4 $5 $6 $7 $8 $9 X,Y pos of 4 corners*
0 Add a 4 corners polygon primitive as box body*
4,1,4,$2,$3,$4,$5,$6,$7,$8,$9,$2,$3,0*
0 Add four circle primitives for the rounded corners*
1,1,$1+$1,$2,$3*
1,1,$1+$1,$4,$5*
1,1,$1+$1,$6,$7*
1,1,$1+$1,$8,$9*
0 Add four rect primitives between the rounded corners*
20,1,$1+$1,$2,$3,$4,$5,0*
20,1,$1+$1,$4,$5,$6,$7,0*
20,1,$1+$1,$6,$7,$8,$9,0*
20,1,$1+$1,$8,$9,$2,$3,0*%
G04 Aperture macros list end*
%TA.AperFunction,ComponentPad*%
%ADD10R,1.700000X1.700000*%
%TD*%
%TA.AperFunction,ComponentPad*%
%ADD11O,1.700000X1.700000*%
%TD*%
%TA.AperFunction,ComponentPad*%
%ADD12C,2.240000*%
%TD*%
%TA.AperFunction,ComponentPad*%
%ADD13C,2.740000*%
%TD*%
%TA.AperFunction,SMDPad,CuDef*%
%ADD14RoundRect,0.250000X-0.650000X0.325000X-0.650000X-0.325000X0.650000X-0.325000X0.650000X0.325000X0*%
%TD*%
%TA.AperFunction,SMDPad,CuDef*%
%ADD15RoundRect,0.140000X0.170000X-0.140000X0.170000X0.140000X-0.170000X0.140000X-0.170000X-0.140000X0*%
%TD*%
%TA.AperFunction,SMDPad,CuDef*%
%ADD16RoundRect,0.140000X0.140000X0.170000X-0.140000X0.170000X-0.140000X-0.170000X0.140000X-0.170000X0*%
%TD*%
%TA.AperFunction,SMDPad,CuDef*%
%ADD17RoundRect,0.160000X-0.160000X0.197500X-0.160000X-0.197500X0.160000X-0.197500X0.160000X0.197500X0*%
%TD*%
%TA.AperFunction,SMDPad,CuDef*%
%ADD18RoundRect,0.160000X0.197500X0.160000X-0.197500X0.160000X-0.197500X-0.160000X0.197500X-0.160000X0*%
%TD*%
%TA.AperFunction,SMDPad,CuDef*%
%ADD19RoundRect,0.237500X-0.237500X0.287500X-0.237500X-0.287500X0.237500X-0.287500X0.237500X0.287500X0*%
%TD*%
%TA.AperFunction,SMDPad,CuDef*%
%ADD20RoundRect,0.140000X-0.170000X0.140000X-0.170000X-0.140000X0.170000X-0.140000X0.170000X0.140000X0*%
%TD*%
%TA.AperFunction,SMDPad,CuDef*%
%ADD21RoundRect,0.160000X0.160000X-0.197500X0.160000X0.197500X-0.160000X0.197500X-0.160000X-0.197500X0*%
%TD*%
%TA.AperFunction,SMDPad,CuDef*%
%ADD22R,1.473200X0.558800*%
%TD*%
%TA.AperFunction,SMDPad,CuDef*%
%ADD23C,0.700000*%
%TD*%
%TA.AperFunction,SMDPad,CuDef*%
%ADD24RoundRect,0.140000X-0.140000X-0.170000X0.140000X-0.170000X0.140000X0.170000X-0.140000X0.170000X0*%
%TD*%
%TA.AperFunction,SMDPad,CuDef*%
%ADD25RoundRect,0.218750X0.256250X-0.218750X0.256250X0.218750X-0.256250X0.218750X-0.256250X-0.218750X0*%
%TD*%
%TA.AperFunction,ViaPad*%
%ADD26C,0.450000*%
%TD*%
%TA.AperFunction,Conductor*%
%ADD27C,0.250000*%
%TD*%
%TA.AperFunction,Conductor*%
%ADD28C,0.200000*%
%TD*%
%TA.AperFunction,Conductor*%
%ADD29C,0.293370*%
%TD*%
%TA.AperFunction,Conductor*%
%ADD30C,0.300000*%
%TD*%
%TA.AperFunction,Conductor*%
%ADD31C,0.500000*%
%TD*%
G04 APERTURE END LIST*
D10*
%TO.P,J1,1,Pin_1*%
%TO.N,+5V*%
X206900000Y-97500000D03*
D11*
%TO.P,J1,2,Pin_2*%
%TO.N,VSSA*%
X209440000Y-97500000D03*
%TO.P,J1,3,Pin_3*%
%TO.N,VDDA*%
X206900000Y-100040000D03*
%TO.P,J1,4,Pin_4*%
%TO.N,LINE*%
X209440000Y-100040000D03*
%TO.P,J1,5,Pin_5*%
%TO.N,+VDC*%
X206900000Y-102580000D03*
%TO.P,J1,6,Pin_6*%
%TO.N,GND*%
X209440000Y-102580000D03*
%TD*%
D12*
%TO.P,J2,1,In*%
%TO.N,Net-(J2-In)*%
X200025000Y-92150000D03*
D13*
%TO.P,J2,2,Ext*%
%TO.N,GND*%
X197485000Y-89610000D03*
X197485000Y-94690000D03*
X202565000Y-89610000D03*
X202565000Y-94690000D03*
%TD*%
D14*
%TO.P,C1,1*%
%TO.N,/VBiasFilt*%
X200400000Y-103475000D03*
%TO.P,C1,2*%
%TO.N,GND*%
X200400000Y-106425000D03*
%TD*%
D15*
%TO.P,C7,1*%
%TO.N,Net-(U1-+)*%
X193500000Y-98712522D03*
%TO.P,C7,2*%
%TO.N,GND*%
X193500000Y-97752522D03*
%TD*%
D16*
%TO.P,C5,1*%
%TO.N,VDDA*%
X194915200Y-103059122D03*
%TO.P,C5,2*%
%TO.N,GND*%
X193955200Y-103059122D03*
%TD*%
D15*
%TO.P,C8,1*%
%TO.N,Net-(U1-+)*%
X194600000Y-98712522D03*
%TO.P,C8,2*%
%TO.N,GND*%
X194600000Y-97752522D03*
%TD*%
D17*
%TO.P,R3,1*%
%TO.N,GND*%
X195700000Y-97635022D03*
%TO.P,R3,2*%
%TO.N,Net-(U1-+)*%
X195700000Y-98830022D03*
%TD*%
D18*
%TO.P,R11,1*%
%TO.N,+VDC*%
X206897500Y-106700000D03*
%TO.P,R11,2*%
%TO.N,/VBiasFilt*%
X205702500Y-106700000D03*
%TD*%
%TO.P,R23,1*%
%TO.N,Net-(D2-A)*%
X197602900Y-99977522D03*
%TO.P,R23,2*%
%TO.N,Net-(U1--)*%
X196407900Y-99977522D03*
%TD*%
D19*
%TO.P,L1,1*%
%TO.N,Net-(L1-Pad1)*%
X197506000Y-103365722D03*
%TO.P,L1,2*%
%TO.N,GND*%
X197506000Y-105115722D03*
%TD*%
D18*
%TO.P,R1,1*%
%TO.N,/OUT*%
X192903500Y-102754322D03*
%TO.P,R1,2*%
%TO.N,Net-(C2-Pad1)*%
X191708500Y-102754322D03*
%TD*%
D20*
%TO.P,C9,1*%
%TO.N,VSSA*%
X191656000Y-100910722D03*
%TO.P,C9,2*%
%TO.N,GND*%
X191656000Y-101870722D03*
%TD*%
D21*
%TO.P,R5,1*%
%TO.N,Net-(L1-Pad1)*%
X197474000Y-102213222D03*
%TO.P,R5,2*%
%TO.N,Net-(D2-A)*%
X197474000Y-101018222D03*
%TD*%
D22*
%TO.P,U1,1*%
%TO.N,/OUT*%
X193020800Y-101925723D03*
%TO.P,U1,2,V-*%
%TO.N,VSSA*%
X193020800Y-100975722D03*
%TO.P,U1,3,+*%
%TO.N,Net-(U1-+)*%
X193020800Y-100025721D03*
%TO.P,U1,4,-*%
%TO.N,Net-(U1--)*%
X195256000Y-100025721D03*
%TO.P,U1,5,~{DIS}*%
%TO.N,unconnected-(U1-~{DIS}-Pad5)*%
X195256000Y-100975722D03*
%TO.P,U1,6,V+*%
%TO.N,VDDA*%
X195256000Y-101925723D03*
%TD*%
D21*
%TO.P,R7,1*%
%TO.N,Net-(U1-+)*%
X196750000Y-98850022D03*
%TO.P,R7,2*%
%TO.N,LINE*%
X196750000Y-97655022D03*
%TD*%
D15*
%TO.P,C3,1*%
%TO.N,Net-(J2-In)*%
X190400000Y-99230000D03*
%TO.P,C3,2*%
%TO.N,GND*%
X190400000Y-98270000D03*
%TD*%
D23*
%TO.P,D2,1,K*%
%TO.N,/VBiasFilt*%
X201100000Y-101100000D03*
X201100000Y-98900000D03*
X198900000Y-101100000D03*
X198900000Y-98900000D03*
%TO.P,D2,2,A*%
%TO.N,Net-(D2-A)*%
X200000000Y-100000000D03*
%TD*%
D16*
%TO.P,C2,1*%
%TO.N,Net-(C2-Pad1)*%
X190936000Y-102850000D03*
%TO.P,C2,2*%
%TO.N,GND*%
X189976000Y-102850000D03*
%TD*%
D24*
%TO.P,C6,1*%
%TO.N,LINE*%
X197795000Y-97325000D03*
%TO.P,C6,2*%
%TO.N,GND*%
X198755000Y-97325000D03*
%TD*%
D25*
%TO.P,L2,1*%
%TO.N,Net-(C2-Pad1)*%
X190350000Y-101787500D03*
%TO.P,L2,2*%
%TO.N,Net-(J2-In)*%
X190350000Y-100212500D03*
%TD*%
D14*
%TO.P,C4,1*%
%TO.N,/VBiasFilt*%
X203000000Y-103475000D03*
%TO.P,C4,2*%
%TO.N,GND*%
X203000000Y-106425000D03*
%TD*%
D26*
%TO.N,GND*%
X192875000Y-97725000D03*
X191692000Y-101990722D03*
X189481415Y-102216362D03*
X200450000Y-106400000D03*
X198476284Y-97721685D03*
X202950000Y-106400000D03*
X195306000Y-97138200D03*
X197506000Y-106050000D03*
X190400000Y-97700000D03*
X193600000Y-103550000D03*
%TO.N,VDDA*%
X194950000Y-103600000D03*
%TO.N,VSSA*%
X192156000Y-100990722D03*
%TO.N,/OUT*%
X193450000Y-101905321D03*
%TO.N,Net-(L1-Pad1)*%
X197500000Y-102000000D03*
%TO.N,LINE*%
X196800000Y-97173200D03*
%TO.N,Net-(U1--)*%
X194806000Y-100090722D03*
X196550000Y-100000000D03*
%TO.N,Net-(D2-A)*%
X197500000Y-100000000D03*
%TD*%
D27*
%TO.N,GND*%
X192894000Y-97706000D02*
X193056000Y-97706000D01*
D28*
X197506000Y-106050000D02*
X197506000Y-104985222D01*
D27*
X195306000Y-97353522D02*
X195306000Y-97138200D01*
D28*
X195697478Y-97745000D02*
X193100000Y-97745000D01*
D27*
X193955200Y-103194800D02*
X193955200Y-103059122D01*
X192875000Y-97725000D02*
X192894000Y-97706000D01*
X193600000Y-103550000D02*
X193955200Y-103194800D01*
X195700000Y-97747522D02*
X195306000Y-97353522D01*
X189862046Y-102551000D02*
X189926000Y-102551000D01*
X189926000Y-102551000D02*
X189976000Y-102601000D01*
X189976000Y-102601000D02*
X189976000Y-102940722D01*
X198755000Y-97325000D02*
X198755000Y-97442969D01*
X189549000Y-102216362D02*
X189549000Y-102237954D01*
X198755000Y-97442969D02*
X198476284Y-97721685D01*
X189481415Y-102216362D02*
X189549000Y-102216362D01*
D29*
X190400000Y-97700000D02*
X190400000Y-98270000D01*
D27*
X189549000Y-102237954D02*
X189862046Y-102551000D01*
D28*
%TO.N,/VBiasFilt*%
X201100000Y-98900000D02*
X198900000Y-98900000D01*
X201100000Y-101100000D02*
X201100000Y-98900000D01*
X200400000Y-103487500D02*
X201110000Y-102777500D01*
D27*
X201100000Y-102775000D02*
X200400000Y-103475000D01*
D29*
X205815000Y-106302500D02*
X203000000Y-103487500D01*
X205815000Y-106700000D02*
X205815000Y-106302500D01*
D27*
X198900000Y-101100000D02*
X201100000Y-101100000D01*
D30*
X201100000Y-101100000D02*
X201100000Y-102775000D01*
D29*
%TO.N,Net-(C2-Pad1)*%
X190936000Y-102940722D02*
X190936000Y-102760322D01*
X191753900Y-102754322D02*
X190918900Y-102754322D01*
X190936000Y-102760322D02*
X190350000Y-102174322D01*
D31*
%TO.N,VDDA*%
X194950000Y-102109923D02*
X194950000Y-102812522D01*
D27*
X194950000Y-103600000D02*
X194950000Y-103093922D01*
D31*
%TO.N,VSSA*%
X193020800Y-100975722D02*
X191783200Y-100975722D01*
D27*
%TO.N,/OUT*%
X192900000Y-101925723D02*
X192900000Y-102821722D01*
D28*
%TO.N,Net-(L1-Pad1)*%
X197506000Y-103453222D02*
X197500000Y-102000000D01*
D29*
%TO.N,Net-(J2-In)*%
X194500000Y-92150000D02*
X189650000Y-97000000D01*
X200025000Y-92150000D02*
X194500000Y-92150000D01*
X189650000Y-99800000D02*
X190120722Y-100270722D01*
D27*
X190350000Y-100212500D02*
X190350000Y-99280000D01*
X190350000Y-99280000D02*
X190400000Y-99230000D01*
D29*
X189650000Y-97000000D02*
X189650000Y-99800000D01*
X190120722Y-100270722D02*
X190350000Y-100270722D01*
%TO.N,+VDC*%
X206900000Y-106585000D02*
X206900000Y-102580000D01*
D28*
%TO.N,Net-(U1-+)*%
X194600000Y-98717522D02*
X195700000Y-98717522D01*
X193500000Y-98717522D02*
X194600000Y-98717522D01*
X195756000Y-98790722D02*
X196856000Y-98790722D01*
D27*
X193500000Y-99546521D02*
X193500000Y-98712522D01*
X193020800Y-100025721D02*
X193500000Y-99546521D01*
%TO.N,LINE*%
X197080022Y-97325000D02*
X196750000Y-97655022D01*
D29*
X196800000Y-97650000D02*
X196800000Y-97173200D01*
D27*
X197795000Y-97325000D02*
X197080022Y-97325000D01*
D28*
%TO.N,Net-(U1--)*%
X196520400Y-99977522D02*
X195304199Y-99977522D01*
%TO.N,Net-(D2-A)*%
X197474000Y-101124000D02*
X197474000Y-100225322D01*
X198260000Y-100000000D02*
X200000000Y-100000000D01*
X197282400Y-99994522D02*
X198652000Y-99994522D01*
%TD*%
%TA.AperFunction,Conductor*%
%TO.N,GND*%
G36*
X200357958Y-87341037D02*
G01*
X201061657Y-87380556D01*
X201067153Y-87381019D01*
X201767579Y-87459938D01*
X201773060Y-87460712D01*
X202467905Y-87578771D01*
X202473341Y-87579852D01*
X203160499Y-87736692D01*
X203165840Y-87738069D01*
X203843154Y-87933200D01*
X203848403Y-87934874D01*
X204513676Y-88167663D01*
X204518839Y-88169633D01*
X205170023Y-88439362D01*
X205175064Y-88441617D01*
X205810110Y-88747440D01*
X205815017Y-88749976D01*
X206393811Y-89069864D01*
X206431880Y-89090904D01*
X206436663Y-89093725D01*
X207033445Y-89468708D01*
X207038062Y-89471793D01*
X207612883Y-89879650D01*
X207617320Y-89882990D01*
X208168341Y-90322414D01*
X208172584Y-90325996D01*
X208679063Y-90778614D01*
X208698119Y-90795643D01*
X208702155Y-90799458D01*
X209200541Y-91297844D01*
X209204356Y-91301880D01*
X209674003Y-91827415D01*
X209677585Y-91831658D01*
X210117009Y-92382679D01*
X210120349Y-92387116D01*
X210528206Y-92961937D01*
X210531291Y-92966554D01*
X210906274Y-93563336D01*
X210909095Y-93568119D01*
X211250016Y-94184969D01*
X211252565Y-94189902D01*
X211558375Y-94824921D01*
X211560643Y-94829990D01*
X211830361Y-95481148D01*
X211832341Y-95486336D01*
X212065118Y-96151575D01*
X212066805Y-96156866D01*
X212261924Y-96834137D01*
X212263311Y-96839515D01*
X212420146Y-97526657D01*
X212421229Y-97532103D01*
X212539285Y-98226930D01*
X212540062Y-98232429D01*
X212618978Y-98932828D01*
X212619444Y-98938361D01*
X212658962Y-99642041D01*
X212659118Y-99647592D01*
X212659118Y-100352407D01*
X212658962Y-100357958D01*
X212619444Y-101061638D01*
X212618978Y-101067171D01*
X212540062Y-101767570D01*
X212539285Y-101773069D01*
X212421229Y-102467896D01*
X212420146Y-102473342D01*
X212263311Y-103160484D01*
X212261924Y-103165862D01*
X212066805Y-103843133D01*
X212065118Y-103848424D01*
X211832341Y-104513663D01*
X211830361Y-104518851D01*
X211560643Y-105170009D01*
X211558375Y-105175078D01*
X211252565Y-105810097D01*
X211250016Y-105815030D01*
X210909095Y-106431880D01*
X210906274Y-106436663D01*
X210531291Y-107033445D01*
X210528206Y-107038062D01*
X210120349Y-107612883D01*
X210117009Y-107617320D01*
X209677585Y-108168341D01*
X209674003Y-108172584D01*
X209204356Y-108698119D01*
X209200541Y-108702155D01*
X208702155Y-109200541D01*
X208698119Y-109204356D01*
X208172584Y-109674003D01*
X208168341Y-109677585D01*
X207617320Y-110117009D01*
X207612883Y-110120349D01*
X207038062Y-110528206D01*
X207033445Y-110531291D01*
X206436663Y-110906274D01*
X206431880Y-110909095D01*
X205815030Y-111250016D01*
X205810097Y-111252565D01*
X205175078Y-111558375D01*
X205170009Y-111560643D01*
X204518851Y-111830361D01*
X204513663Y-111832341D01*
X203848424Y-112065118D01*
X203843133Y-112066805D01*
X203165862Y-112261924D01*
X203160484Y-112263311D01*
X202473342Y-112420146D01*
X202467896Y-112421229D01*
X201773069Y-112539285D01*
X201767570Y-112540062D01*
X201067171Y-112618978D01*
X201061638Y-112619444D01*
X200357959Y-112658962D01*
X200352408Y-112659118D01*
X199647592Y-112659118D01*
X199642041Y-112658962D01*
X198938361Y-112619444D01*
X198932828Y-112618978D01*
X198232429Y-112540062D01*
X198226930Y-112539285D01*
X197532103Y-112421229D01*
X197526657Y-112420146D01*
X196839515Y-112263311D01*
X196834137Y-112261924D01*
X196156866Y-112066805D01*
X196151575Y-112065118D01*
X195486336Y-111832341D01*
X195481148Y-111830361D01*
X194829990Y-111560643D01*
X194824921Y-111558375D01*
X194189902Y-111252565D01*
X194184969Y-111250016D01*
X193568119Y-110909095D01*
X193563336Y-110906274D01*
X192966554Y-110531291D01*
X192961937Y-110528206D01*
X192387116Y-110120349D01*
X192382679Y-110117009D01*
X191831658Y-109677585D01*
X191827415Y-109674003D01*
X191301880Y-109204356D01*
X191297844Y-109200541D01*
X190799458Y-108702155D01*
X190795643Y-108698119D01*
X190325996Y-108172584D01*
X190322414Y-108168341D01*
X189882990Y-107617320D01*
X189879650Y-107612883D01*
X189471793Y-107038062D01*
X189468708Y-107033445D01*
X189381221Y-106894211D01*
X189093723Y-106436660D01*
X189090904Y-106431880D01*
X189072974Y-106399438D01*
X188749976Y-105815017D01*
X188747434Y-105810097D01*
X188614711Y-105534496D01*
X188441617Y-105175064D01*
X188439356Y-105170009D01*
X188432344Y-105153081D01*
X188169633Y-104518839D01*
X188167658Y-104513663D01*
X187996843Y-104025500D01*
X187934874Y-103848403D01*
X187933200Y-103843154D01*
X187738069Y-103165840D01*
X187736688Y-103160484D01*
X187736284Y-103158715D01*
X187579852Y-102473341D01*
X187578770Y-102467896D01*
X187576493Y-102454496D01*
X187460712Y-101773060D01*
X187459937Y-101767570D01*
X187381019Y-101067153D01*
X187380556Y-101061657D01*
X187341038Y-100357958D01*
X187340882Y-100352407D01*
X187340882Y-99647592D01*
X187341038Y-99642041D01*
X187345788Y-99557453D01*
X187380556Y-98938339D01*
X187381019Y-98932849D01*
X187459938Y-98232415D01*
X187460714Y-98226930D01*
X187463077Y-98213022D01*
X187578772Y-97532087D01*
X187579853Y-97526657D01*
X187609552Y-97396536D01*
X187710491Y-96954292D01*
X189302815Y-96954292D01*
X189302815Y-99845708D01*
X189313077Y-99884010D01*
X189326474Y-99934008D01*
X189327933Y-99936535D01*
X189341734Y-99960438D01*
X189372183Y-100013177D01*
X189436823Y-100077817D01*
X189436825Y-100077818D01*
X189645504Y-100286497D01*
X189673281Y-100341014D01*
X189674500Y-100356501D01*
X189674500Y-100464248D01*
X189679849Y-100498021D01*
X189686117Y-100537597D01*
X189690049Y-100562419D01*
X189690050Y-100562423D01*
X189713448Y-100608343D01*
X189750342Y-100680751D01*
X189843145Y-100773554D01*
X189870921Y-100828069D01*
X189872140Y-100843644D01*
X189871861Y-101156810D01*
X189852902Y-101214984D01*
X189842865Y-101226725D01*
X189750343Y-101319247D01*
X189750342Y-101319249D01*
X189690050Y-101437576D01*
X189690049Y-101437580D01*
X189674500Y-101535751D01*
X189674500Y-102039248D01*
X189690049Y-102137419D01*
X189690050Y-102137423D01*
X189739169Y-102233823D01*
X189750342Y-102255751D01*
X189844249Y-102349658D01*
X189962580Y-102409951D01*
X190029130Y-102420491D01*
X190060751Y-102425500D01*
X190060754Y-102425500D01*
X190069177Y-102425500D01*
X190127368Y-102444407D01*
X190139181Y-102454496D01*
X190426504Y-102741819D01*
X190454281Y-102796336D01*
X190455500Y-102811823D01*
X190455500Y-103059895D01*
X190455501Y-103059907D01*
X190462027Y-103109486D01*
X190462027Y-103109488D01*
X190512774Y-103218313D01*
X190512775Y-103218314D01*
X190512776Y-103218316D01*
X190597684Y-103303224D01*
X190706513Y-103353972D01*
X190756099Y-103360500D01*
X191115900Y-103360499D01*
X191165487Y-103353972D01*
X191165488Y-103353972D01*
X191274312Y-103303226D01*
X191274312Y-103303225D01*
X191274316Y-103303224D01*
X191293739Y-103283801D01*
X191348255Y-103256022D01*
X191398971Y-103263625D01*
X191399368Y-103262343D01*
X191406711Y-103264612D01*
X191406712Y-103264612D01*
X191406714Y-103264613D01*
X191476785Y-103274822D01*
X191940214Y-103274821D01*
X192010286Y-103264613D01*
X192118375Y-103211771D01*
X192160710Y-103169435D01*
X192215225Y-103141660D01*
X192235748Y-103140569D01*
X192279800Y-103142812D01*
X192279800Y-103148522D01*
X192391891Y-103148522D01*
X192394404Y-103148650D01*
X192420742Y-103158715D01*
X192447559Y-103167429D01*
X192450812Y-103170208D01*
X192451558Y-103170493D01*
X192452074Y-103171285D01*
X192459371Y-103177518D01*
X192493623Y-103211770D01*
X192493625Y-103211771D01*
X192601714Y-103264613D01*
X192671785Y-103274822D01*
X193135214Y-103274821D01*
X193205286Y-103264613D01*
X193313375Y-103211771D01*
X193398449Y-103126697D01*
X193451291Y-103018608D01*
X193461500Y-102948537D01*
X193461499Y-102560108D01*
X193455495Y-102518894D01*
X193465817Y-102458585D01*
X193509615Y-102415862D01*
X193553461Y-102405623D01*
X193777147Y-102405623D01*
X193777148Y-102405623D01*
X193835631Y-102393990D01*
X193901952Y-102349675D01*
X193901952Y-102349674D01*
X193910059Y-102344258D01*
X193910955Y-102345598D01*
X193955425Y-102322941D01*
X193970912Y-102321722D01*
X194305888Y-102321722D01*
X194361106Y-102338552D01*
X194372557Y-102346247D01*
X194374848Y-102349675D01*
X194441169Y-102393990D01*
X194444626Y-102394677D01*
X194455718Y-102402131D01*
X194468792Y-102418805D01*
X194484908Y-102432568D01*
X194487899Y-102443174D01*
X194493471Y-102450280D01*
X194494003Y-102464815D01*
X194499500Y-102484301D01*
X194499500Y-102652723D01*
X194490224Y-102694562D01*
X194441229Y-102799632D01*
X194441228Y-102799633D01*
X194434700Y-102849222D01*
X194434700Y-103269018D01*
X194434701Y-103269029D01*
X194441227Y-103318608D01*
X194441227Y-103318610D01*
X194491974Y-103427435D01*
X194491975Y-103427436D01*
X194491976Y-103427438D01*
X194501840Y-103437302D01*
X194529616Y-103491817D01*
X194527463Y-103532923D01*
X194524500Y-103543982D01*
X194524500Y-103656018D01*
X194550072Y-103751455D01*
X194553498Y-103764241D01*
X194600583Y-103845793D01*
X194609515Y-103861263D01*
X194688737Y-103940485D01*
X194688739Y-103940486D01*
X194785759Y-103996501D01*
X194785757Y-103996501D01*
X194785761Y-103996502D01*
X194785763Y-103996503D01*
X194893982Y-104025500D01*
X194893984Y-104025500D01*
X195006016Y-104025500D01*
X195006018Y-104025500D01*
X195114237Y-103996503D01*
X195114239Y-103996501D01*
X195114241Y-103996501D01*
X195143064Y-103979859D01*
X195211263Y-103940485D01*
X195290485Y-103861263D01*
X195346503Y-103764237D01*
X195375500Y-103656018D01*
X195375500Y-103543982D01*
X195351463Y-103454274D01*
X195354665Y-103393177D01*
X195357359Y-103386831D01*
X195389172Y-103318609D01*
X195395700Y-103269023D01*
X195395699Y-102902780D01*
X195399073Y-102877155D01*
X195400500Y-102871830D01*
X195400500Y-102504623D01*
X195419407Y-102446432D01*
X195468907Y-102410468D01*
X195499500Y-102405623D01*
X196012347Y-102405623D01*
X196012348Y-102405623D01*
X196070831Y-102393990D01*
X196137152Y-102349675D01*
X196181467Y-102283354D01*
X196193100Y-102224871D01*
X196193100Y-101626575D01*
X196181467Y-101568092D01*
X196139792Y-101505723D01*
X196123184Y-101446836D01*
X196139791Y-101395723D01*
X196181467Y-101333353D01*
X196193100Y-101274870D01*
X196193100Y-100676574D01*
X196193100Y-100676571D01*
X196192987Y-100675424D01*
X196193100Y-100674908D01*
X196193100Y-100671710D01*
X196193802Y-100671710D01*
X196206099Y-100615660D01*
X196251835Y-100575018D01*
X196291506Y-100566720D01*
X196878307Y-100566719D01*
X196936497Y-100585626D01*
X196972461Y-100635126D01*
X196972461Y-100696312D01*
X196967248Y-100709197D01*
X196963710Y-100716434D01*
X196963709Y-100716436D01*
X196955227Y-100774658D01*
X196953500Y-100786510D01*
X196953500Y-101249931D01*
X196953501Y-101249934D01*
X196963709Y-101320009D01*
X197000722Y-101395719D01*
X197016551Y-101428097D01*
X197101625Y-101513171D01*
X197101626Y-101513171D01*
X197101628Y-101513173D01*
X197129462Y-101526780D01*
X197173437Y-101569322D01*
X197184007Y-101629588D01*
X197157135Y-101684557D01*
X197129466Y-101704660D01*
X197101631Y-101718268D01*
X197101628Y-101718271D01*
X197101626Y-101718272D01*
X197101625Y-101718273D01*
X197056809Y-101763089D01*
X197016549Y-101803349D01*
X196963709Y-101911436D01*
X196953500Y-101981510D01*
X196953500Y-102444931D01*
X196953500Y-102444933D01*
X196953501Y-102444936D01*
X196963709Y-102515008D01*
X196963709Y-102515009D01*
X196963710Y-102515011D01*
X197015048Y-102620025D01*
X197015253Y-102621479D01*
X197016244Y-102622563D01*
X197019518Y-102651624D01*
X197023619Y-102680607D01*
X197022930Y-102681904D01*
X197023095Y-102683364D01*
X197017556Y-102692033D01*
X196994943Y-102734657D01*
X196992899Y-102736579D01*
X196989065Y-102740083D01*
X196955289Y-102765011D01*
X196941806Y-102783279D01*
X196934677Y-102789796D01*
X196915184Y-102798650D01*
X196897772Y-102811103D01*
X196882609Y-102813446D01*
X196878969Y-102815100D01*
X196875932Y-102814478D01*
X196867885Y-102815722D01*
X196506000Y-102815722D01*
X196506000Y-105865722D01*
X196506001Y-105865722D01*
X198405999Y-105865722D01*
X198406000Y-105865722D01*
X198406000Y-102815722D01*
X198405999Y-102815722D01*
X198144115Y-102815722D01*
X198085924Y-102796815D01*
X198080645Y-102792699D01*
X198071518Y-102785075D01*
X198056711Y-102765011D01*
X197977679Y-102706683D01*
X197975390Y-102704771D01*
X197960629Y-102681263D01*
X197944479Y-102658682D01*
X197944502Y-102655580D01*
X197942853Y-102652954D01*
X197944729Y-102625255D01*
X197944937Y-102597498D01*
X197946941Y-102592596D01*
X197946988Y-102591909D01*
X197947447Y-102591358D01*
X197949916Y-102585321D01*
X197984291Y-102515008D01*
X197994500Y-102444937D01*
X197994499Y-101981508D01*
X197984291Y-101911436D01*
X197931449Y-101803347D01*
X197846375Y-101718273D01*
X197846373Y-101718272D01*
X197846372Y-101718271D01*
X197846370Y-101718270D01*
X197818536Y-101704663D01*
X197774561Y-101662121D01*
X197763991Y-101601855D01*
X197790863Y-101546886D01*
X197818536Y-101526781D01*
X197827509Y-101522393D01*
X197846371Y-101513173D01*
X197846372Y-101513173D01*
X197846373Y-101513171D01*
X197846375Y-101513171D01*
X197931449Y-101428097D01*
X197984291Y-101320008D01*
X197994500Y-101249937D01*
X197994499Y-100786508D01*
X197984291Y-100716436D01*
X197931449Y-100608347D01*
X197931448Y-100608346D01*
X197931447Y-100608343D01*
X197928655Y-100604433D01*
X197910227Y-100546088D01*
X197929613Y-100488055D01*
X197965743Y-100457963D01*
X198012775Y-100434971D01*
X198097849Y-100349897D01*
X198097849Y-100349895D01*
X198097851Y-100349894D01*
X198102618Y-100343218D01*
X198103802Y-100344063D01*
X198114194Y-100333320D01*
X198128284Y-100313929D01*
X198135096Y-100311715D01*
X198140076Y-100306568D01*
X198186475Y-100295022D01*
X198186960Y-100295022D01*
X198212581Y-100298394D01*
X198220438Y-100300500D01*
X198342304Y-100300500D01*
X198400495Y-100319407D01*
X198436459Y-100368907D01*
X198441303Y-100399920D01*
X198439732Y-100770097D01*
X198426470Y-100819176D01*
X198387016Y-100887513D01*
X198364662Y-100970941D01*
X198349500Y-101027525D01*
X198349500Y-101172475D01*
X198384340Y-101302500D01*
X198387017Y-101312487D01*
X198423687Y-101376000D01*
X198436950Y-101425921D01*
X198435999Y-101650000D01*
X198825659Y-101650000D01*
X198827525Y-101650500D01*
X198972475Y-101650500D01*
X198974341Y-101650000D01*
X199049227Y-101650000D01*
X199107418Y-101668907D01*
X199143382Y-101718407D01*
X199147219Y-101763089D01*
X199144500Y-101782000D01*
X199144500Y-105025996D01*
X199152625Y-105101571D01*
X199163830Y-105153080D01*
X199181502Y-105210461D01*
X199181503Y-105210464D01*
X199242537Y-105310314D01*
X199242538Y-105310315D01*
X199288294Y-105363121D01*
X199351471Y-105420408D01*
X199351472Y-105420409D01*
X199351473Y-105420409D01*
X199351475Y-105420411D01*
X199456802Y-105471414D01*
X199456805Y-105471415D01*
X199456808Y-105471416D01*
X199494731Y-105482551D01*
X199523841Y-105491099D01*
X199624000Y-105505500D01*
X204485998Y-105505500D01*
X204544189Y-105524407D01*
X204556002Y-105534496D01*
X205208337Y-106186831D01*
X205236114Y-106241348D01*
X205226543Y-106301780D01*
X205208342Y-106326833D01*
X205207554Y-106327620D01*
X205207550Y-106327626D01*
X205156583Y-106431880D01*
X205154709Y-106435714D01*
X205152989Y-106447523D01*
X205144500Y-106505788D01*
X205144500Y-106894209D01*
X205144501Y-106894212D01*
X205154709Y-106964287D01*
X205188519Y-107033445D01*
X205207551Y-107072375D01*
X205292625Y-107157449D01*
X205400714Y-107210291D01*
X205470785Y-107220500D01*
X205934214Y-107220499D01*
X206004286Y-107210291D01*
X206112375Y-107157449D01*
X206197449Y-107072375D01*
X206211058Y-107044536D01*
X206253599Y-107000563D01*
X206313865Y-106989992D01*
X206368834Y-107016863D01*
X206388939Y-107044534D01*
X206402548Y-107072371D01*
X206402550Y-107072373D01*
X206402551Y-107072375D01*
X206487625Y-107157449D01*
X206595714Y-107210291D01*
X206665785Y-107220500D01*
X207129214Y-107220499D01*
X207199286Y-107210291D01*
X207307375Y-107157449D01*
X207392449Y-107072375D01*
X207445291Y-106964286D01*
X207455500Y-106894215D01*
X207455499Y-106505786D01*
X207445291Y-106435714D01*
X207392449Y-106327625D01*
X207307375Y-106242551D01*
X207302700Y-106240265D01*
X207258729Y-106197721D01*
X207247185Y-106151327D01*
X207247185Y-103639393D01*
X207266092Y-103581202D01*
X207308298Y-103547929D01*
X207397598Y-103510941D01*
X207569655Y-103395977D01*
X207715977Y-103249655D01*
X207830941Y-103077598D01*
X207910130Y-102886420D01*
X207950500Y-102683465D01*
X207950500Y-102476535D01*
X207910130Y-102273580D01*
X207830941Y-102082402D01*
X207715977Y-101910345D01*
X207569655Y-101764023D01*
X207569651Y-101764020D01*
X207397597Y-101649058D01*
X207206418Y-101569869D01*
X207003467Y-101529500D01*
X207003465Y-101529500D01*
X206796535Y-101529500D01*
X206796532Y-101529500D01*
X206593581Y-101569869D01*
X206402402Y-101649058D01*
X206230348Y-101764020D01*
X206084020Y-101910348D01*
X205969058Y-102082402D01*
X205889869Y-102273581D01*
X205849500Y-102476532D01*
X205849500Y-102683467D01*
X205889869Y-102886418D01*
X205969058Y-103077597D01*
X206063081Y-103218313D01*
X206084023Y-103249655D01*
X206230345Y-103395977D01*
X206402402Y-103510941D01*
X206491700Y-103547929D01*
X206538226Y-103587665D01*
X206552815Y-103639393D01*
X206552815Y-106148882D01*
X206533908Y-106207073D01*
X206497296Y-106237822D01*
X206487630Y-106242547D01*
X206487626Y-106242550D01*
X206487625Y-106242551D01*
X206402551Y-106327625D01*
X206402550Y-106327626D01*
X206402547Y-106327630D01*
X206388940Y-106355464D01*
X206380797Y-106363880D01*
X206376530Y-106374785D01*
X206360025Y-106385350D01*
X206346397Y-106399438D01*
X206334860Y-106401461D01*
X206325000Y-106407774D01*
X206305436Y-106406621D01*
X206286131Y-106410007D01*
X206275610Y-106404863D01*
X206263921Y-106404175D01*
X206252302Y-106393468D01*
X206231163Y-106383134D01*
X206216622Y-106365361D01*
X206213555Y-106360571D01*
X206197449Y-106327625D01*
X206183593Y-106313769D01*
X206177807Y-106304731D01*
X206172657Y-106285000D01*
X206163403Y-106266836D01*
X206163118Y-106263214D01*
X206163032Y-106263226D01*
X206162185Y-106256794D01*
X206162185Y-106256792D01*
X206138525Y-106168492D01*
X206138525Y-106168491D01*
X206121172Y-106138435D01*
X206092820Y-106089327D01*
X206092819Y-106089326D01*
X206092818Y-106089325D01*
X206092817Y-106089323D01*
X205295988Y-105292494D01*
X205268211Y-105237977D01*
X205271003Y-105194597D01*
X205274351Y-105183195D01*
X205291099Y-105126159D01*
X205305500Y-105026000D01*
X205305500Y-101782000D01*
X205297375Y-101706430D01*
X205286169Y-101654919D01*
X205268497Y-101597536D01*
X205207463Y-101497686D01*
X205190795Y-101478450D01*
X205161705Y-101444878D01*
X205098528Y-101387591D01*
X205098527Y-101387590D01*
X204993201Y-101336587D01*
X204993191Y-101336583D01*
X204926171Y-101316904D01*
X204926151Y-101316899D01*
X204840492Y-101304583D01*
X204826000Y-101302500D01*
X204825999Y-101302500D01*
X201744679Y-101302500D01*
X201686488Y-101283593D01*
X201650524Y-101234093D01*
X201649052Y-101177878D01*
X201650500Y-101172475D01*
X201650500Y-101027525D01*
X201612984Y-100887515D01*
X201612982Y-100887512D01*
X201612982Y-100887510D01*
X201610500Y-100881517D01*
X201611423Y-100881134D01*
X201600000Y-100838498D01*
X201600000Y-99936532D01*
X205849500Y-99936532D01*
X205849500Y-100143467D01*
X205889869Y-100346418D01*
X205969058Y-100537597D01*
X206083717Y-100709197D01*
X206084023Y-100709655D01*
X206230345Y-100855977D01*
X206402402Y-100970941D01*
X206593580Y-101050130D01*
X206796535Y-101090500D01*
X206796536Y-101090500D01*
X207003464Y-101090500D01*
X207003465Y-101090500D01*
X207206420Y-101050130D01*
X207397598Y-100970941D01*
X207569655Y-100855977D01*
X207715977Y-100709655D01*
X207830941Y-100537598D01*
X207910130Y-100346420D01*
X207950500Y-100143465D01*
X207950500Y-99936535D01*
X207950499Y-99936532D01*
X208389500Y-99936532D01*
X208389500Y-100143467D01*
X208429869Y-100346418D01*
X208509058Y-100537597D01*
X208623717Y-100709197D01*
X208624023Y-100709655D01*
X208770345Y-100855977D01*
X208942402Y-100970941D01*
X209133580Y-101050130D01*
X209336535Y-101090500D01*
X209336536Y-101090500D01*
X209543464Y-101090500D01*
X209543465Y-101090500D01*
X209746420Y-101050130D01*
X209937598Y-100970941D01*
X210109655Y-100855977D01*
X210255977Y-100709655D01*
X210370941Y-100537598D01*
X210450130Y-100346420D01*
X210490500Y-100143465D01*
X210490500Y-99936535D01*
X210450130Y-99733580D01*
X210370941Y-99542402D01*
X210255977Y-99370345D01*
X210109655Y-99224023D01*
X210109651Y-99224020D01*
X209937597Y-99109058D01*
X209746418Y-99029869D01*
X209543467Y-98989500D01*
X209543465Y-98989500D01*
X209336535Y-98989500D01*
X209336532Y-98989500D01*
X209133581Y-99029869D01*
X208942402Y-99109058D01*
X208770348Y-99224020D01*
X208624020Y-99370348D01*
X208509058Y-99542402D01*
X208429869Y-99733581D01*
X208389500Y-99936532D01*
X207950499Y-99936532D01*
X207910130Y-99733580D01*
X207830941Y-99542402D01*
X207715977Y-99370345D01*
X207569655Y-99224023D01*
X207569651Y-99224020D01*
X207397597Y-99109058D01*
X207206418Y-99029869D01*
X207003467Y-98989500D01*
X207003465Y-98989500D01*
X206796535Y-98989500D01*
X206796532Y-98989500D01*
X206593581Y-99029869D01*
X206402402Y-99109058D01*
X206230348Y-99224020D01*
X206084020Y-99370348D01*
X205969058Y-99542402D01*
X205889869Y-99733581D01*
X205849500Y-99936532D01*
X201600000Y-99936532D01*
X201600000Y-99161500D01*
X201611426Y-99118863D01*
X201610500Y-99118480D01*
X201612977Y-99112496D01*
X201612984Y-99112485D01*
X201650500Y-98972475D01*
X201650500Y-98827525D01*
X201612984Y-98687515D01*
X201612982Y-98687512D01*
X201612982Y-98687510D01*
X201610500Y-98681517D01*
X201611423Y-98681134D01*
X201600000Y-98638498D01*
X201600000Y-98350001D01*
X201600000Y-98350000D01*
X201599999Y-98350000D01*
X201174341Y-98350000D01*
X201172475Y-98349500D01*
X201027525Y-98349500D01*
X201025659Y-98350000D01*
X198982762Y-98350000D01*
X198975134Y-98349500D01*
X198972475Y-98349500D01*
X198827525Y-98349500D01*
X198824866Y-98349500D01*
X198817238Y-98350000D01*
X198449999Y-98350000D01*
X198449134Y-98553812D01*
X198435872Y-98602891D01*
X198387016Y-98687513D01*
X198349500Y-98827525D01*
X198349500Y-98972475D01*
X198362031Y-99019241D01*
X198387017Y-99112489D01*
X198432952Y-99192049D01*
X198446215Y-99241969D01*
X198444716Y-99595442D01*
X198439872Y-99610137D01*
X198439872Y-99625615D01*
X198430534Y-99638467D01*
X198425562Y-99653552D01*
X198413005Y-99662593D01*
X198403908Y-99675115D01*
X198388798Y-99680024D01*
X198375910Y-99689305D01*
X198345717Y-99694022D01*
X198203097Y-99694022D01*
X198144906Y-99675115D01*
X198114157Y-99638503D01*
X198097852Y-99605152D01*
X198097851Y-99605150D01*
X198097849Y-99605148D01*
X198097849Y-99605147D01*
X198012775Y-99520073D01*
X198012773Y-99520072D01*
X198012772Y-99520071D01*
X197956375Y-99492500D01*
X197904686Y-99467231D01*
X197834615Y-99457022D01*
X197834611Y-99457022D01*
X197371190Y-99457022D01*
X197371187Y-99457022D01*
X197371186Y-99457023D01*
X197301114Y-99467231D01*
X197301112Y-99467231D01*
X197301110Y-99467232D01*
X197245216Y-99494557D01*
X197184634Y-99503128D01*
X197130584Y-99474452D01*
X197103712Y-99419484D01*
X197114282Y-99359218D01*
X197131730Y-99335615D01*
X197207449Y-99259897D01*
X197260291Y-99151808D01*
X197270500Y-99081737D01*
X197270499Y-98618308D01*
X197260291Y-98548236D01*
X197207449Y-98440147D01*
X197122375Y-98355073D01*
X197122373Y-98355072D01*
X197122372Y-98355071D01*
X197094536Y-98341463D01*
X197050562Y-98298920D01*
X197039992Y-98238654D01*
X197066864Y-98183686D01*
X197094536Y-98163581D01*
X197103215Y-98159337D01*
X197122375Y-98149971D01*
X197207449Y-98064897D01*
X197260291Y-97956808D01*
X197270500Y-97886737D01*
X197270499Y-97831045D01*
X197289405Y-97772857D01*
X197338905Y-97736892D01*
X197400090Y-97736891D01*
X197439500Y-97761040D01*
X197456684Y-97778224D01*
X197565513Y-97828972D01*
X197615099Y-97835500D01*
X197974900Y-97835499D01*
X198024487Y-97828972D01*
X198024488Y-97828972D01*
X198083137Y-97801622D01*
X198133316Y-97778224D01*
X198218224Y-97693316D01*
X198268972Y-97584487D01*
X198275500Y-97534901D01*
X198275499Y-97115100D01*
X198268972Y-97065513D01*
X198268972Y-97065511D01*
X198218225Y-96956686D01*
X198218224Y-96956685D01*
X198218224Y-96956684D01*
X198133316Y-96871776D01*
X198133314Y-96871775D01*
X198133313Y-96871774D01*
X198024489Y-96821029D01*
X198024488Y-96821028D01*
X198007958Y-96818852D01*
X197974901Y-96814500D01*
X197974899Y-96814500D01*
X197615104Y-96814500D01*
X197615092Y-96814501D01*
X197565513Y-96821027D01*
X197565511Y-96821027D01*
X197456686Y-96871774D01*
X197371771Y-96956689D01*
X197371351Y-96957290D01*
X197370620Y-96957840D01*
X197365652Y-96962809D01*
X197364953Y-96962110D01*
X197358159Y-96967228D01*
X197348450Y-96980593D01*
X197334335Y-96985179D01*
X197322483Y-96994109D01*
X197290259Y-96999500D01*
X197248197Y-96999500D01*
X197190006Y-96980593D01*
X197162460Y-96949999D01*
X197140486Y-96911939D01*
X197140485Y-96911937D01*
X197061263Y-96832715D01*
X197061260Y-96832713D01*
X196964240Y-96776698D01*
X196964242Y-96776698D01*
X196922251Y-96765447D01*
X196856018Y-96747700D01*
X196743982Y-96747700D01*
X196677748Y-96765447D01*
X196635758Y-96776698D01*
X196538739Y-96832713D01*
X196459513Y-96911939D01*
X196403498Y-97008958D01*
X196374500Y-97117183D01*
X196374500Y-97122190D01*
X196355593Y-97180381D01*
X196345504Y-97192193D01*
X196292551Y-97245146D01*
X196292549Y-97245149D01*
X196239709Y-97353236D01*
X196233401Y-97396536D01*
X196229500Y-97423310D01*
X196229500Y-97886731D01*
X196229501Y-97886734D01*
X196239709Y-97956809D01*
X196259650Y-97997598D01*
X196292551Y-98064897D01*
X196377625Y-98149971D01*
X196377626Y-98149971D01*
X196377628Y-98149973D01*
X196405462Y-98163580D01*
X196449437Y-98206122D01*
X196460007Y-98266388D01*
X196433135Y-98321357D01*
X196425148Y-98328752D01*
X196416057Y-98336284D01*
X196377625Y-98355073D01*
X196301443Y-98431254D01*
X196297873Y-98434213D01*
X196273525Y-98443875D01*
X196250194Y-98455763D01*
X196245460Y-98455013D01*
X196241003Y-98456782D01*
X196215627Y-98450287D01*
X196189762Y-98446191D01*
X196185594Y-98442601D01*
X196181727Y-98441612D01*
X196174951Y-98433434D01*
X196164641Y-98424555D01*
X196163249Y-98425948D01*
X196157449Y-98420148D01*
X196157449Y-98420147D01*
X196072375Y-98335073D01*
X196072373Y-98335072D01*
X196072372Y-98335071D01*
X196005196Y-98302231D01*
X195964286Y-98282231D01*
X195894215Y-98272022D01*
X195894211Y-98272022D01*
X195505790Y-98272022D01*
X195505787Y-98272022D01*
X195505786Y-98272023D01*
X195482428Y-98275425D01*
X195435712Y-98282231D01*
X195327625Y-98335072D01*
X195274671Y-98388026D01*
X195267554Y-98391651D01*
X195262859Y-98398115D01*
X195240807Y-98405279D01*
X195220154Y-98415803D01*
X195204668Y-98417022D01*
X195134741Y-98417022D01*
X195076550Y-98398115D01*
X195053649Y-98374812D01*
X195053228Y-98374211D01*
X195053224Y-98374207D01*
X195053224Y-98374206D01*
X194968316Y-98289298D01*
X194968314Y-98289297D01*
X194968313Y-98289296D01*
X194859489Y-98238551D01*
X194859488Y-98238550D01*
X194842958Y-98236374D01*
X194809901Y-98232022D01*
X194809899Y-98232022D01*
X194390103Y-98232022D01*
X194390092Y-98232023D01*
X194340513Y-98238549D01*
X194340511Y-98238549D01*
X194231686Y-98289296D01*
X194146771Y-98374211D01*
X194146351Y-98374812D01*
X194145620Y-98375362D01*
X194140652Y-98380331D01*
X194139953Y-98379632D01*
X194133159Y-98384750D01*
X194123450Y-98398115D01*
X194109335Y-98402701D01*
X194097483Y-98411631D01*
X194065259Y-98417022D01*
X194034741Y-98417022D01*
X193976550Y-98398115D01*
X193953649Y-98374812D01*
X193953228Y-98374211D01*
X193953224Y-98374207D01*
X193953224Y-98374206D01*
X193868316Y-98289298D01*
X193868314Y-98289297D01*
X193868313Y-98289296D01*
X193759489Y-98238551D01*
X193759488Y-98238550D01*
X193742958Y-98236374D01*
X193709901Y-98232022D01*
X193709899Y-98232022D01*
X193290103Y-98232022D01*
X193290092Y-98232023D01*
X193240513Y-98238549D01*
X193240511Y-98238549D01*
X193131686Y-98289296D01*
X193046774Y-98374208D01*
X192996029Y-98483032D01*
X192996028Y-98483033D01*
X192989500Y-98532622D01*
X192989500Y-98892417D01*
X192989501Y-98892429D01*
X192996027Y-98942008D01*
X192996027Y-98942010D01*
X193046774Y-99050835D01*
X193046775Y-99050836D01*
X193046776Y-99050838D01*
X193131684Y-99135746D01*
X193131686Y-99135747D01*
X193132283Y-99136165D01*
X193132830Y-99136891D01*
X193137809Y-99141870D01*
X193137109Y-99142569D01*
X193142225Y-99149358D01*
X193155593Y-99159071D01*
X193160177Y-99173182D01*
X193169106Y-99185030D01*
X193174500Y-99217262D01*
X193174500Y-99303522D01*
X193155593Y-99361713D01*
X193106093Y-99397677D01*
X193075500Y-99402522D01*
X192996000Y-99402522D01*
X192996000Y-99402523D01*
X192996000Y-99446821D01*
X192977093Y-99505012D01*
X192927593Y-99540976D01*
X192897000Y-99545821D01*
X192264452Y-99545821D01*
X192264451Y-99545821D01*
X192264441Y-99545822D01*
X192205972Y-99557453D01*
X192205966Y-99557455D01*
X192139651Y-99601766D01*
X192139645Y-99601772D01*
X192095334Y-99668087D01*
X192095332Y-99668093D01*
X192083701Y-99726562D01*
X192083700Y-99726574D01*
X192083700Y-100029187D01*
X192064793Y-100087378D01*
X192015293Y-100123342D01*
X191984371Y-100128186D01*
X191124710Y-100125330D01*
X191066582Y-100106230D01*
X191030783Y-100056611D01*
X191026044Y-100025299D01*
X191051200Y-97625000D01*
X191051199Y-97625000D01*
X190096185Y-97625000D01*
X190037994Y-97606093D01*
X190002030Y-97556593D01*
X189997185Y-97526000D01*
X189997185Y-97184816D01*
X190016092Y-97126625D01*
X190026181Y-97114812D01*
X190510740Y-96630253D01*
X205849500Y-96630253D01*
X205849500Y-98369746D01*
X205849501Y-98369758D01*
X205861132Y-98428227D01*
X205861134Y-98428233D01*
X205905445Y-98494548D01*
X205905448Y-98494552D01*
X205971769Y-98538867D01*
X206016231Y-98547711D01*
X206030241Y-98550498D01*
X206030246Y-98550498D01*
X206030252Y-98550500D01*
X206030253Y-98550500D01*
X207769747Y-98550500D01*
X207769748Y-98550500D01*
X207828231Y-98538867D01*
X207894552Y-98494552D01*
X207938867Y-98428231D01*
X207950500Y-98369748D01*
X207950500Y-97396532D01*
X208389500Y-97396532D01*
X208389500Y-97603467D01*
X208429869Y-97806418D01*
X208509058Y-97997597D01*
X208624020Y-98169651D01*
X208624023Y-98169655D01*
X208770345Y-98315977D01*
X208942402Y-98430941D01*
X209133580Y-98510130D01*
X209336535Y-98550500D01*
X209336536Y-98550500D01*
X209543464Y-98550500D01*
X209543465Y-98550500D01*
X209746420Y-98510130D01*
X209937598Y-98430941D01*
X210109655Y-98315977D01*
X210255977Y-98169655D01*
X210370941Y-97997598D01*
X210450130Y-97806420D01*
X210490500Y-97603465D01*
X210490500Y-97396535D01*
X210450130Y-97193580D01*
X210370941Y-97002402D01*
X210255977Y-96830345D01*
X210109655Y-96684023D01*
X210029182Y-96630253D01*
X209937597Y-96569058D01*
X209746418Y-96489869D01*
X209543467Y-96449500D01*
X209543465Y-96449500D01*
X209336535Y-96449500D01*
X209336532Y-96449500D01*
X209133581Y-96489869D01*
X208942402Y-96569058D01*
X208770348Y-96684020D01*
X208624020Y-96830348D01*
X208509058Y-97002402D01*
X208429869Y-97193581D01*
X208389500Y-97396532D01*
X207950500Y-97396532D01*
X207950500Y-96630252D01*
X207938867Y-96571769D01*
X207894552Y-96505448D01*
X207894548Y-96505445D01*
X207828233Y-96461134D01*
X207828231Y-96461133D01*
X207828228Y-96461132D01*
X207828227Y-96461132D01*
X207769758Y-96449501D01*
X207769748Y-96449500D01*
X206030252Y-96449500D01*
X206030251Y-96449500D01*
X206030241Y-96449501D01*
X205971772Y-96461132D01*
X205971766Y-96461134D01*
X205905451Y-96505445D01*
X205905445Y-96505451D01*
X205861134Y-96571766D01*
X205861132Y-96571772D01*
X205849501Y-96630241D01*
X205849500Y-96630253D01*
X190510740Y-96630253D01*
X194614812Y-92526181D01*
X194669329Y-92498404D01*
X194684816Y-92497185D01*
X198677424Y-92497185D01*
X198735615Y-92516092D01*
X198771577Y-92565589D01*
X198789979Y-92622226D01*
X198801243Y-92656892D01*
X198801245Y-92656896D01*
X198895607Y-92842093D01*
X199017779Y-93010248D01*
X199164752Y-93157221D01*
X199332907Y-93279393D01*
X199518104Y-93373755D01*
X199518106Y-93373755D01*
X199518107Y-93373756D01*
X199518110Y-93373758D01*
X199715776Y-93437984D01*
X199715780Y-93437985D01*
X199921071Y-93470500D01*
X199921074Y-93470500D01*
X200128929Y-93470500D01*
X200334219Y-93437985D01*
X200334223Y-93437984D01*
X200531889Y-93373758D01*
X200531891Y-93373756D01*
X200531896Y-93373755D01*
X200717093Y-93279393D01*
X200885248Y-93157221D01*
X201032221Y-93010248D01*
X201154393Y-92842093D01*
X201248755Y-92656896D01*
X201248756Y-92656891D01*
X201248758Y-92656889D01*
X201312984Y-92459223D01*
X201312985Y-92459219D01*
X201345500Y-92253929D01*
X201345500Y-92046070D01*
X201312985Y-91840780D01*
X201312984Y-91840776D01*
X201248758Y-91643110D01*
X201248756Y-91643107D01*
X201248755Y-91643105D01*
X201248755Y-91643104D01*
X201154393Y-91457907D01*
X201032221Y-91289752D01*
X200885248Y-91142779D01*
X200717093Y-91020607D01*
X200717092Y-91020606D01*
X200717090Y-91020605D01*
X200531892Y-90926243D01*
X200531889Y-90926241D01*
X200334223Y-90862015D01*
X200334219Y-90862014D01*
X200128929Y-90829500D01*
X200128926Y-90829500D01*
X199921074Y-90829500D01*
X199921071Y-90829500D01*
X199715780Y-90862014D01*
X199715776Y-90862015D01*
X199518110Y-90926241D01*
X199518107Y-90926243D01*
X199332909Y-91020605D01*
X199164753Y-91142778D01*
X199017778Y-91289753D01*
X198895605Y-91457909D01*
X198801244Y-91643105D01*
X198785185Y-91692528D01*
X198771577Y-91734408D01*
X198735615Y-91783907D01*
X198677424Y-91802815D01*
X194454292Y-91802815D01*
X194447851Y-91804540D01*
X194417370Y-91812707D01*
X194417371Y-91812708D01*
X194365991Y-91826475D01*
X194365990Y-91826475D01*
X194365988Y-91826476D01*
X194341221Y-91840776D01*
X194341211Y-91840782D01*
X194318223Y-91854054D01*
X194286822Y-91872183D01*
X194222182Y-91936822D01*
X194222183Y-91936823D01*
X194222181Y-91936825D01*
X189436825Y-96722181D01*
X189436823Y-96722183D01*
X189436822Y-96722182D01*
X189372183Y-96786822D01*
X189364862Y-96799503D01*
X189364861Y-96799502D01*
X189326476Y-96865987D01*
X189326475Y-96865990D01*
X189322928Y-96879223D01*
X189322929Y-96879224D01*
X189302815Y-96954292D01*
X187710491Y-96954292D01*
X187736695Y-96839483D01*
X187738067Y-96834167D01*
X187933203Y-96156835D01*
X187934870Y-96151606D01*
X188167667Y-95486311D01*
X188169628Y-95481172D01*
X188439367Y-94829963D01*
X188441611Y-94824948D01*
X188747447Y-94189874D01*
X188749968Y-94184996D01*
X189090914Y-93568100D01*
X189093714Y-93563354D01*
X189468720Y-92966534D01*
X189471779Y-92961956D01*
X189879654Y-92387109D01*
X189882990Y-92382679D01*
X190322426Y-91831642D01*
X190325983Y-91827429D01*
X190795661Y-91301860D01*
X190799440Y-91297862D01*
X191297862Y-90799440D01*
X191301860Y-90795661D01*
X191827429Y-90325983D01*
X191831642Y-90322426D01*
X192382685Y-89882985D01*
X192387116Y-89879650D01*
X192961956Y-89471779D01*
X192966534Y-89468720D01*
X193563354Y-89093714D01*
X193568100Y-89090914D01*
X194184996Y-88749968D01*
X194189874Y-88747447D01*
X194824948Y-88441611D01*
X194829963Y-88439367D01*
X195481172Y-88169628D01*
X195486311Y-88167667D01*
X196151606Y-87934870D01*
X196156835Y-87933203D01*
X196834167Y-87738067D01*
X196839491Y-87736693D01*
X197526665Y-87579851D01*
X197532087Y-87578772D01*
X198226944Y-87460711D01*
X198232415Y-87459938D01*
X198932849Y-87381019D01*
X198938339Y-87380556D01*
X199642041Y-87341037D01*
X199647592Y-87340882D01*
X200352408Y-87340882D01*
X200357958Y-87341037D01*
G37*
%TD.AperFunction*%
%TD*%
%TA.AperFunction,Conductor*%
%TO.N,/VBiasFilt*%
G36*
X204893039Y-101677685D02*
G01*
X204938794Y-101730489D01*
X204950000Y-101782000D01*
X204950000Y-105026000D01*
X204930315Y-105093039D01*
X204877511Y-105138794D01*
X204826000Y-105150000D01*
X199624000Y-105150000D01*
X199556961Y-105130315D01*
X199511206Y-105077511D01*
X199500000Y-105026000D01*
X199500000Y-101782000D01*
X199519685Y-101714961D01*
X199572489Y-101669206D01*
X199624000Y-101658000D01*
X204826000Y-101658000D01*
X204893039Y-101677685D01*
G37*
%TD.AperFunction*%
%TD*%
M02*
