%TF.GenerationSoftware,KiCad,Pcbnew,9.0.7*%
%TF.CreationDate,2026-02-15T20:11:11-05:00*%
%TF.ProjectId,tiav3_s13360_3030VE,74696176-335f-4733-9133-3336305f3330,rev?*%
%TF.SameCoordinates,Original*%
%TF.FileFunction,Soldermask,Bot*%
%TF.FilePolarity,Negative*%
%FSLAX46Y46*%
G04 Gerber Fmt 4.6, Leading zero omitted, Abs format (unit mm)*
G04 Created by KiCad (PCBNEW 9.0.7) date 2026-02-15 20:11:11*
%MOMM*%
%LPD*%
G01*
G04 APERTURE LIST*
G04 Aperture macros list*
%AMRoundRect*
0 Rectangle with rounded corners*
0 $1 Rounding radius*
0 $2 $3 $4 $5 $6 $7 $8 $9 X,Y pos of 4 corners*
0 Add a 4 corners polygon primitive as box body*
4,1,4,$2,$3,$4,$5,$6,$7,$8,$9,$2,$3,0*
0 Add four circle primitives for the rounded corners*
1,1,$1+$1,$2,$3*
1,1,$1+$1,$4,$5*
1,1,$1+$1,$6,$7*
1,1,$1+$1,$8,$9*
0 Add four rect primitives between the rounded corners*
20,1,$1+$1,$2,$3,$4,$5,0*
20,1,$1+$1,$4,$5,$6,$7,0*
20,1,$1+$1,$6,$7,$8,$9,0*
20,1,$1+$1,$8,$9,$2,$3,0*%
G04 Aperture macros list end*
%ADD10R,1.700000X1.700000*%
%ADD11O,1.700000X1.700000*%
%ADD12C,2.240000*%
%ADD13C,2.740000*%
%ADD14RoundRect,0.250000X-0.650000X0.325000X-0.650000X-0.325000X0.650000X-0.325000X0.650000X0.325000X0*%
%ADD15RoundRect,0.140000X0.170000X-0.140000X0.170000X0.140000X-0.170000X0.140000X-0.170000X-0.140000X0*%
%ADD16RoundRect,0.140000X0.140000X0.170000X-0.140000X0.170000X-0.140000X-0.170000X0.140000X-0.170000X0*%
%ADD17RoundRect,0.160000X-0.160000X0.197500X-0.160000X-0.197500X0.160000X-0.197500X0.160000X0.197500X0*%
%ADD18RoundRect,0.160000X0.197500X0.160000X-0.197500X0.160000X-0.197500X-0.160000X0.197500X-0.160000X0*%
%ADD19RoundRect,0.237500X-0.237500X0.287500X-0.237500X-0.287500X0.237500X-0.287500X0.237500X0.287500X0*%
%ADD20RoundRect,0.140000X-0.170000X0.140000X-0.170000X-0.140000X0.170000X-0.140000X0.170000X0.140000X0*%
%ADD21RoundRect,0.160000X0.160000X-0.197500X0.160000X0.197500X-0.160000X0.197500X-0.160000X-0.197500X0*%
%ADD22R,1.473200X0.558800*%
%ADD23C,0.700000*%
%ADD24RoundRect,0.140000X-0.140000X-0.170000X0.140000X-0.170000X0.140000X0.170000X-0.140000X0.170000X0*%
%ADD25RoundRect,0.218750X0.256250X-0.218750X0.256250X0.218750X-0.256250X0.218750X-0.256250X-0.218750X0*%
G04 APERTURE END LIST*
D10*
%TO.C,J1*%
X206900000Y-97500000D03*
D11*
X209440000Y-97500000D03*
X206900000Y-100040000D03*
X209440000Y-100040000D03*
X206900000Y-102580000D03*
X209440000Y-102580000D03*
%TD*%
D12*
%TO.C,J2*%
X200025000Y-92150000D03*
D13*
X197485000Y-89610000D03*
X197485000Y-94690000D03*
X202565000Y-89610000D03*
X202565000Y-94690000D03*
%TD*%
D14*
%TO.C,C1*%
X200400000Y-103475000D03*
X200400000Y-106425000D03*
%TD*%
D15*
%TO.C,C7*%
X193500000Y-98712522D03*
X193500000Y-97752522D03*
%TD*%
D16*
%TO.C,C5*%
X194915200Y-103059122D03*
X193955200Y-103059122D03*
%TD*%
D15*
%TO.C,C8*%
X194600000Y-98712522D03*
X194600000Y-97752522D03*
%TD*%
D17*
%TO.C,R3*%
X195700000Y-97635022D03*
X195700000Y-98830022D03*
%TD*%
D18*
%TO.C,R11*%
X206897500Y-106700000D03*
X205702500Y-106700000D03*
%TD*%
%TO.C,R23*%
X197602900Y-99977522D03*
X196407900Y-99977522D03*
%TD*%
D19*
%TO.C,L1*%
X197506000Y-103365722D03*
X197506000Y-105115722D03*
%TD*%
D18*
%TO.C,R1*%
X192903500Y-102754322D03*
X191708500Y-102754322D03*
%TD*%
D20*
%TO.C,C9*%
X191656000Y-100910722D03*
X191656000Y-101870722D03*
%TD*%
D21*
%TO.C,R5*%
X197474000Y-102213222D03*
X197474000Y-101018222D03*
%TD*%
D22*
%TO.C,U1*%
X193020800Y-101925723D03*
X193020800Y-100975722D03*
X193020800Y-100025721D03*
X195256000Y-100025721D03*
X195256000Y-100975722D03*
X195256000Y-101925723D03*
%TD*%
D21*
%TO.C,R7*%
X196750000Y-98850022D03*
X196750000Y-97655022D03*
%TD*%
D15*
%TO.C,C3*%
X190400000Y-99230000D03*
X190400000Y-98270000D03*
%TD*%
D23*
%TO.C,D2*%
X201100000Y-101100000D03*
X201100000Y-98900000D03*
X198900000Y-101100000D03*
X198900000Y-98900000D03*
X200000000Y-100000000D03*
%TD*%
D16*
%TO.C,C2*%
X190936000Y-102850000D03*
X189976000Y-102850000D03*
%TD*%
D24*
%TO.C,C6*%
X197795000Y-97325000D03*
X198755000Y-97325000D03*
%TD*%
D25*
%TO.C,L2*%
X190350000Y-101787500D03*
X190350000Y-100212500D03*
%TD*%
D14*
%TO.C,C4*%
X203000000Y-103475000D03*
X203000000Y-106425000D03*
%TD*%
M02*
