M48
; DRILL file {KiCad 9.0.7} date 2026-02-15T20:11:14-0500
; FORMAT={-:-/ absolute / metric / decimal}
; #@! TF.CreationDate,2026-02-15T20:11:14-05:00
; #@! TF.GenerationSoftware,Kicad,Pcbnew,9.0.7
; #@! TF.FileFunction,MixedPlating,1,4
FMAT,2
METRIC
; #@! TA.AperFunction,Plated,PTH,ViaDrill
T1C0.200
; #@! TA.AperFunction,Plated,PTH,ComponentDrill
T2C1.000
; #@! TA.AperFunction,Plated,PTH,ComponentDrill
T3C1.200
; #@! TA.AperFunction,Plated,PTH,ComponentDrill
T4C1.700
%
G90
G05
T1
X189.481Y-102.216
X190.4Y-97.7
X191.692Y-101.991
X192.156Y-100.991
X192.875Y-97.725
X193.45Y-101.905
X193.6Y-103.55
X194.806Y-100.091
X194.95Y-103.6
X195.306Y-97.138
X196.55Y-100.0
X196.8Y-97.173
X197.5Y-100.0
X197.5Y-102.0
X197.506Y-106.05
X198.476Y-97.722
X200.45Y-106.4
X202.95Y-106.4
T2
X206.9Y-97.5
X206.9Y-100.04
X206.9Y-102.58
X209.44Y-97.5
X209.44Y-100.04
X209.44Y-102.58
T3
X200.025Y-92.15
T4
X197.485Y-89.61
X197.485Y-94.69
X202.565Y-89.61
X202.565Y-94.69
M30
