%TF.GenerationSoftware,KiCad,Pcbnew,9.0.7*%
%TF.CreationDate,2026-02-15T20:11:11-05:00*%
%TF.ProjectId,tiav3_s13360_3030VE,74696176-335f-4733-9133-3336305f3330,rev?*%
%TF.SameCoordinates,Original*%
%TF.FileFunction,Copper,L1,Top*%
%TF.FilePolarity,Positive*%
%FSLAX46Y46*%
G04 Gerber Fmt 4.6, Leading zero omitted, Abs format (unit mm)*
G04 Created by KiCad (PCBNEW 9.0.7) date 2026-02-15 20:11:11*
%MOMM*%
%LPD*%
G01*
G04 APERTURE LIST*
G04 Aperture macros list*
%AMRoundRect*
0 Rectangle with rounded corners*
0 $1 Rounding radius*
0 $2 $3 $4 $5 $6 $7 $8 $9 X,Y pos of 4 corners*
0 Add a 4 corners polygon primitive as box body*
4,1,4,$2,$3,$4,$5,$6,$7,$8,$9,$2,$3,0*
0 Add four circle primitives for the rounded corners*
1,1,$1+$1,$2,$3*
1,1,$1+$1,$4,$5*
1,1,$1+$1,$6,$7*
1,1,$1+$1,$8,$9*
0 Add four rect primitives between the rounded corners*
20,1,$1+$1,$2,$3,$4,$5,0*
20,1,$1+$1,$4,$5,$6,$7,0*
20,1,$1+$1,$6,$7,$8,$9,0*
20,1,$1+$1,$8,$9,$2,$3,0*%
G04 Aperture macros list end*
%TA.AperFunction,ComponentPad*%
%ADD10R,1.700000X1.700000*%
%TD*%
%TA.AperFunction,ComponentPad*%
%ADD11O,1.700000X1.700000*%
%TD*%
%TA.AperFunction,SMDPad,CuDef*%
%ADD12RoundRect,0.160000X-0.039814X0.251040X-0.237314X-0.091040X0.039814X-0.251040X0.237314X0.091040X0*%
%TD*%
%TA.AperFunction,ComponentPad*%
%ADD13C,2.240000*%
%TD*%
%TA.AperFunction,ComponentPad*%
%ADD14C,2.740000*%
%TD*%
%TA.AperFunction,SMDPad,CuDef*%
%ADD15RoundRect,0.160000X0.197500X0.160000X-0.197500X0.160000X-0.197500X-0.160000X0.197500X-0.160000X0*%
%TD*%
%TA.AperFunction,SMDPad,CuDef*%
%ADD16RoundRect,0.160000X0.160000X-0.197500X0.160000X0.197500X-0.160000X0.197500X-0.160000X-0.197500X0*%
%TD*%
%TA.AperFunction,ViaPad*%
%ADD17C,0.450000*%
%TD*%
%TA.AperFunction,Conductor*%
%ADD18C,0.200000*%
%TD*%
%TA.AperFunction,Conductor*%
%ADD19C,0.293370*%
%TD*%
G04 APERTURE END LIST*
D10*
%TO.P,J1,1,Pin_1*%
%TO.N,+5V*%
X206900000Y-97500000D03*
D11*
%TO.P,J1,2,Pin_2*%
%TO.N,VSSA*%
X209440000Y-97500000D03*
%TO.P,J1,3,Pin_3*%
%TO.N,VDDA*%
X206900000Y-100040000D03*
%TO.P,J1,4,Pin_4*%
%TO.N,LINE*%
X209440000Y-100040000D03*
%TO.P,J1,5,Pin_5*%
%TO.N,+VDC*%
X206900000Y-102580000D03*
%TO.P,J1,6,Pin_6*%
%TO.N,GND*%
X209440000Y-102580000D03*
%TD*%
D12*
%TO.P,R2,1*%
%TO.N,Net-(U1--)*%
X194373750Y-100485072D03*
%TO.P,R2,2*%
%TO.N,/OUT*%
X193776250Y-101519972D03*
%TD*%
D13*
%TO.P,J2,1,In*%
%TO.N,Net-(J2-In)*%
X200025000Y-92150000D03*
D14*
%TO.P,J2,2,Ext*%
%TO.N,GND*%
X197485000Y-89610000D03*
X197485000Y-94690000D03*
X202565000Y-89610000D03*
X202565000Y-94690000D03*
%TD*%
D15*
%TO.P,R4,1*%
%TO.N,Net-(D2-A)*%
X197632500Y-100000000D03*
%TO.P,R4,2*%
%TO.N,Net-(U1--)*%
X196437500Y-100000000D03*
%TD*%
D16*
%TO.P,R6,1*%
%TO.N,Net-(L1-Pad1)*%
X197500000Y-102232500D03*
%TO.P,R6,2*%
%TO.N,Net-(D2-A)*%
X197500000Y-101037500D03*
%TD*%
D17*
%TO.N,GND*%
X192875000Y-97725000D03*
X191692000Y-101990722D03*
X189481415Y-102216362D03*
X200450000Y-106400000D03*
X198476284Y-97721685D03*
X202950000Y-106400000D03*
X195306000Y-97138200D03*
X197506000Y-106050000D03*
X190400000Y-97700000D03*
X193600000Y-103550000D03*
%TO.N,VDDA*%
X194950000Y-103600000D03*
%TO.N,VSSA*%
X192156000Y-100990722D03*
%TO.N,/OUT*%
X193450000Y-101905321D03*
%TO.N,Net-(L1-Pad1)*%
X197500000Y-102000000D03*
%TO.N,LINE*%
X196800000Y-97173200D03*
%TO.N,Net-(U1--)*%
X194806000Y-100090722D03*
X196550000Y-100000000D03*
%TO.N,Net-(D2-A)*%
X197500000Y-100000000D03*
%TD*%
D18*
%TO.N,/OUT*%
X193867799Y-101487522D02*
X193450000Y-101905321D01*
D19*
%TO.N,LINE*%
X196823200Y-97150000D02*
X196800000Y-97173200D01*
X211400000Y-96400000D02*
X210000000Y-95000000D01*
X205550000Y-95000000D02*
X203400000Y-97150000D01*
X209757000Y-100040000D02*
X211400000Y-98397000D01*
X210000000Y-95000000D02*
X205550000Y-95000000D01*
X211400000Y-98397000D02*
X211400000Y-96400000D01*
X203400000Y-97150000D02*
X196823200Y-97150000D01*
D18*
%TO.N,Net-(U1--)*%
X194650000Y-100076521D02*
X194650000Y-100250000D01*
X194650000Y-100250000D02*
X194317500Y-100582500D01*
%TO.N,Net-(D2-A)*%
X197500000Y-101150000D02*
X197500000Y-100000000D01*
%TD*%
%TA.AperFunction,Conductor*%
%TO.N,GND*%
G36*
X200357958Y-87341037D02*
G01*
X201061657Y-87380556D01*
X201067153Y-87381019D01*
X201767579Y-87459938D01*
X201773060Y-87460712D01*
X202467905Y-87578771D01*
X202473341Y-87579852D01*
X203160499Y-87736692D01*
X203165840Y-87738069D01*
X203843154Y-87933200D01*
X203848403Y-87934874D01*
X204513676Y-88167663D01*
X204518839Y-88169633D01*
X205170023Y-88439362D01*
X205175064Y-88441617D01*
X205810110Y-88747440D01*
X205815017Y-88749976D01*
X206393811Y-89069864D01*
X206431880Y-89090904D01*
X206436663Y-89093725D01*
X207033445Y-89468708D01*
X207038062Y-89471793D01*
X207612883Y-89879650D01*
X207617320Y-89882990D01*
X208168341Y-90322414D01*
X208172584Y-90325996D01*
X208679063Y-90778614D01*
X208698119Y-90795643D01*
X208702155Y-90799458D01*
X209200541Y-91297844D01*
X209204356Y-91301880D01*
X209674003Y-91827415D01*
X209677585Y-91831658D01*
X210117009Y-92382679D01*
X210120349Y-92387116D01*
X210528206Y-92961937D01*
X210531291Y-92966554D01*
X210906274Y-93563336D01*
X210909095Y-93568119D01*
X211250016Y-94184969D01*
X211252565Y-94189902D01*
X211558375Y-94824921D01*
X211560643Y-94829990D01*
X211830361Y-95481148D01*
X211832341Y-95486336D01*
X212065118Y-96151575D01*
X212065182Y-96154451D01*
X212066805Y-96156866D01*
X212261924Y-96834137D01*
X212263311Y-96839515D01*
X212420146Y-97526657D01*
X212421229Y-97532103D01*
X212539285Y-98226930D01*
X212540062Y-98232429D01*
X212618978Y-98932828D01*
X212619444Y-98938361D01*
X212658962Y-99642041D01*
X212659118Y-99647592D01*
X212659118Y-100352407D01*
X212658962Y-100357958D01*
X212619444Y-101061638D01*
X212618978Y-101067171D01*
X212540062Y-101767570D01*
X212539285Y-101773069D01*
X212421229Y-102467896D01*
X212420146Y-102473342D01*
X212263311Y-103160484D01*
X212261924Y-103165862D01*
X212066805Y-103843133D01*
X212065118Y-103848424D01*
X211832341Y-104513663D01*
X211830361Y-104518851D01*
X211560643Y-105170009D01*
X211558375Y-105175078D01*
X211252565Y-105810097D01*
X211250016Y-105815030D01*
X210909095Y-106431880D01*
X210906274Y-106436663D01*
X210531291Y-107033445D01*
X210528206Y-107038062D01*
X210120349Y-107612883D01*
X210117009Y-107617320D01*
X209677585Y-108168341D01*
X209674003Y-108172584D01*
X209204356Y-108698119D01*
X209200541Y-108702155D01*
X208702155Y-109200541D01*
X208698119Y-109204356D01*
X208172584Y-109674003D01*
X208168341Y-109677585D01*
X207617320Y-110117009D01*
X207612883Y-110120349D01*
X207038062Y-110528206D01*
X207033445Y-110531291D01*
X206436663Y-110906274D01*
X206431880Y-110909095D01*
X205815030Y-111250016D01*
X205810097Y-111252565D01*
X205175078Y-111558375D01*
X205170009Y-111560643D01*
X204518851Y-111830361D01*
X204513663Y-111832341D01*
X203848424Y-112065118D01*
X203843133Y-112066805D01*
X203165862Y-112261924D01*
X203160484Y-112263311D01*
X202473342Y-112420146D01*
X202467896Y-112421229D01*
X201773069Y-112539285D01*
X201767570Y-112540062D01*
X201067171Y-112618978D01*
X201061638Y-112619444D01*
X200357959Y-112658962D01*
X200352408Y-112659118D01*
X199647592Y-112659118D01*
X199642041Y-112658962D01*
X198938361Y-112619444D01*
X198932828Y-112618978D01*
X198232429Y-112540062D01*
X198226930Y-112539285D01*
X197532103Y-112421229D01*
X197526657Y-112420146D01*
X196839515Y-112263311D01*
X196834137Y-112261924D01*
X196156866Y-112066805D01*
X196151575Y-112065118D01*
X195486336Y-111832341D01*
X195481148Y-111830361D01*
X194829990Y-111560643D01*
X194824921Y-111558375D01*
X194189902Y-111252565D01*
X194184969Y-111250016D01*
X193568119Y-110909095D01*
X193563336Y-110906274D01*
X192966554Y-110531291D01*
X192961937Y-110528206D01*
X192387116Y-110120349D01*
X192382679Y-110117009D01*
X191831658Y-109677585D01*
X191827415Y-109674003D01*
X191301880Y-109204356D01*
X191297844Y-109200541D01*
X190799458Y-108702155D01*
X190795643Y-108698119D01*
X190325996Y-108172584D01*
X190322414Y-108168341D01*
X189882990Y-107617320D01*
X189879650Y-107612883D01*
X189471793Y-107038062D01*
X189468708Y-107033445D01*
X189093725Y-106436663D01*
X189090904Y-106431880D01*
X188749983Y-105815030D01*
X188747434Y-105810097D01*
X188441624Y-105175078D01*
X188439356Y-105170009D01*
X188169638Y-104518851D01*
X188167658Y-104513663D01*
X187996843Y-104025500D01*
X187934874Y-103848403D01*
X187933200Y-103843154D01*
X187847010Y-103543982D01*
X194524500Y-103543982D01*
X194524500Y-103656018D01*
X194550072Y-103751455D01*
X194553498Y-103764241D01*
X194600583Y-103845793D01*
X194609515Y-103861263D01*
X194688737Y-103940485D01*
X194688739Y-103940486D01*
X194785759Y-103996501D01*
X194785757Y-103996501D01*
X194785761Y-103996502D01*
X194785763Y-103996503D01*
X194893982Y-104025500D01*
X194893984Y-104025500D01*
X195006016Y-104025500D01*
X195006018Y-104025500D01*
X195114237Y-103996503D01*
X195114239Y-103996501D01*
X195114241Y-103996501D01*
X195143064Y-103979859D01*
X195211263Y-103940485D01*
X195290485Y-103861263D01*
X195346503Y-103764237D01*
X195375500Y-103656018D01*
X195375500Y-103543982D01*
X195346503Y-103435763D01*
X195346501Y-103435760D01*
X195346501Y-103435758D01*
X195290486Y-103338739D01*
X195290485Y-103338737D01*
X195211263Y-103259515D01*
X195211260Y-103259513D01*
X195114240Y-103203498D01*
X195114242Y-103203498D01*
X195072251Y-103192247D01*
X195006018Y-103174500D01*
X194893982Y-103174500D01*
X194827748Y-103192247D01*
X194785758Y-103203498D01*
X194688739Y-103259513D01*
X194609513Y-103338739D01*
X194553498Y-103435758D01*
X194553497Y-103435763D01*
X194524500Y-103543982D01*
X187847010Y-103543982D01*
X187738069Y-103165840D01*
X187736688Y-103160484D01*
X187674134Y-102886418D01*
X187579852Y-102473341D01*
X187578770Y-102467896D01*
X187578144Y-102464214D01*
X187460712Y-101773060D01*
X187459937Y-101767570D01*
X187459806Y-101766403D01*
X187381019Y-101067153D01*
X187380556Y-101061657D01*
X187373427Y-100934704D01*
X191730500Y-100934704D01*
X191730500Y-101046740D01*
X191756072Y-101142177D01*
X191759498Y-101154963D01*
X191815513Y-101251982D01*
X191815515Y-101251985D01*
X191894737Y-101331207D01*
X191894739Y-101331208D01*
X191991759Y-101387223D01*
X191991757Y-101387223D01*
X191991761Y-101387224D01*
X191991763Y-101387225D01*
X192099982Y-101416222D01*
X192099985Y-101416222D01*
X192101623Y-101416661D01*
X192152937Y-101449985D01*
X192174864Y-101507106D01*
X192175000Y-101512288D01*
X192175000Y-102327521D01*
X192175000Y-102327522D01*
X192177778Y-102327455D01*
X192178417Y-102327440D01*
X192237046Y-102344941D01*
X192274191Y-102393561D01*
X192279800Y-102426411D01*
X192279800Y-103148522D01*
X192279801Y-103148522D01*
X193200999Y-103148522D01*
X193201000Y-103148522D01*
X193214236Y-102418924D01*
X193219065Y-102404933D01*
X193219065Y-102390129D01*
X193228796Y-102376735D01*
X193234196Y-102361088D01*
X193246327Y-102352606D01*
X193255029Y-102340629D01*
X193270773Y-102335513D01*
X193284340Y-102326028D01*
X193313220Y-102321722D01*
X193346990Y-102321722D01*
X193372612Y-102325095D01*
X193393982Y-102330821D01*
X193393983Y-102330821D01*
X193506017Y-102330821D01*
X193506018Y-102330821D01*
X193527388Y-102325095D01*
X193553010Y-102321722D01*
X194524998Y-102321722D01*
X194525000Y-102321722D01*
X194895280Y-101838764D01*
X194945691Y-101804088D01*
X194973846Y-101800000D01*
X196009999Y-101800000D01*
X196010000Y-101800000D01*
X196010000Y-100665721D01*
X196028907Y-100607530D01*
X196078407Y-100571566D01*
X196108995Y-100566721D01*
X196913731Y-100566719D01*
X196971921Y-100585626D01*
X197007885Y-100635126D01*
X197007885Y-100696311D01*
X197002672Y-100709197D01*
X196989709Y-100735713D01*
X196979500Y-100805788D01*
X196979500Y-101269209D01*
X196979500Y-101269211D01*
X196979501Y-101269214D01*
X196989709Y-101339286D01*
X197042551Y-101447375D01*
X197127625Y-101532449D01*
X197155463Y-101546058D01*
X197199437Y-101588599D01*
X197210008Y-101648865D01*
X197183137Y-101703834D01*
X197155468Y-101723938D01*
X197127626Y-101737550D01*
X197042549Y-101822627D01*
X196989709Y-101930714D01*
X196979500Y-102000788D01*
X196979500Y-102464209D01*
X196979500Y-102464211D01*
X196979501Y-102464214D01*
X196989709Y-102534286D01*
X197042551Y-102642375D01*
X197127625Y-102727449D01*
X197235714Y-102780291D01*
X197305785Y-102790500D01*
X197694214Y-102790499D01*
X197764286Y-102780291D01*
X197872375Y-102727449D01*
X197957449Y-102642375D01*
X198010291Y-102534286D01*
X198018705Y-102476532D01*
X205849500Y-102476532D01*
X205849500Y-102683467D01*
X205889869Y-102886418D01*
X205969058Y-103077597D01*
X206033806Y-103174500D01*
X206084023Y-103249655D01*
X206230345Y-103395977D01*
X206402402Y-103510941D01*
X206593580Y-103590130D01*
X206796535Y-103630500D01*
X206796536Y-103630500D01*
X207003464Y-103630500D01*
X207003465Y-103630500D01*
X207206420Y-103590130D01*
X207397598Y-103510941D01*
X207569655Y-103395977D01*
X207715977Y-103249655D01*
X207830941Y-103077598D01*
X207910130Y-102886420D01*
X207950500Y-102683465D01*
X207950500Y-102476535D01*
X207910130Y-102273580D01*
X207830941Y-102082402D01*
X207715977Y-101910345D01*
X207569655Y-101764023D01*
X207530037Y-101737551D01*
X207397597Y-101649058D01*
X207206418Y-101569869D01*
X207003467Y-101529500D01*
X207003465Y-101529500D01*
X206796535Y-101529500D01*
X206796532Y-101529500D01*
X206593581Y-101569869D01*
X206402402Y-101649058D01*
X206230348Y-101764020D01*
X206084020Y-101910348D01*
X205969058Y-102082402D01*
X205889869Y-102273581D01*
X205849500Y-102476532D01*
X198018705Y-102476532D01*
X198020500Y-102464215D01*
X198020499Y-102000786D01*
X198010291Y-101930714D01*
X197957449Y-101822625D01*
X197872375Y-101737551D01*
X197837027Y-101720270D01*
X197830243Y-101715395D01*
X197816836Y-101697143D01*
X197800560Y-101681397D01*
X197799083Y-101672975D01*
X197794021Y-101666084D01*
X197793936Y-101650000D01*
X198435999Y-101650000D01*
X198436000Y-101650000D01*
X201599999Y-101650000D01*
X201600000Y-101650000D01*
X201600000Y-99936532D01*
X205849500Y-99936532D01*
X205849500Y-100143467D01*
X205889869Y-100346418D01*
X205969058Y-100537597D01*
X206044320Y-100650235D01*
X206084023Y-100709655D01*
X206230345Y-100855977D01*
X206402402Y-100970941D01*
X206593580Y-101050130D01*
X206796535Y-101090500D01*
X206796536Y-101090500D01*
X207003464Y-101090500D01*
X207003465Y-101090500D01*
X207206420Y-101050130D01*
X207397598Y-100970941D01*
X207569655Y-100855977D01*
X207715977Y-100709655D01*
X207830941Y-100537598D01*
X207910130Y-100346420D01*
X207950500Y-100143465D01*
X207950500Y-99936535D01*
X207910130Y-99733580D01*
X207830941Y-99542402D01*
X207715977Y-99370345D01*
X207569655Y-99224023D01*
X207485511Y-99167800D01*
X207397597Y-99109058D01*
X207206418Y-99029869D01*
X207003467Y-98989500D01*
X207003465Y-98989500D01*
X206796535Y-98989500D01*
X206796532Y-98989500D01*
X206593581Y-99029869D01*
X206402402Y-99109058D01*
X206230348Y-99224020D01*
X206084020Y-99370348D01*
X205969058Y-99542402D01*
X205889869Y-99733581D01*
X205849500Y-99936532D01*
X201600000Y-99936532D01*
X201600000Y-98350000D01*
X198450000Y-98350000D01*
X198435999Y-101650000D01*
X197793936Y-101650000D01*
X197793902Y-101643437D01*
X197789991Y-101621131D01*
X197793746Y-101613449D01*
X197793702Y-101604899D01*
X197806917Y-101586508D01*
X197816864Y-101566163D01*
X197826642Y-101559058D01*
X197829407Y-101555212D01*
X197834051Y-101553675D01*
X197844536Y-101546059D01*
X197853509Y-101541671D01*
X197872371Y-101532451D01*
X197872372Y-101532451D01*
X197872373Y-101532449D01*
X197872375Y-101532449D01*
X197957449Y-101447375D01*
X198010291Y-101339286D01*
X198020500Y-101269215D01*
X198020499Y-100805786D01*
X198010291Y-100735714D01*
X197957449Y-100627625D01*
X197957447Y-100627623D01*
X197957282Y-100627392D01*
X197957185Y-100627085D01*
X197953846Y-100620255D01*
X197954869Y-100619754D01*
X197938852Y-100569048D01*
X197958236Y-100511014D01*
X197994369Y-100480918D01*
X198000718Y-100477813D01*
X198042375Y-100457449D01*
X198127449Y-100372375D01*
X198180291Y-100264286D01*
X198190500Y-100194215D01*
X198190499Y-99805786D01*
X198180291Y-99735714D01*
X198127449Y-99627625D01*
X198042375Y-99542551D01*
X198042373Y-99542550D01*
X198042372Y-99542549D01*
X197981462Y-99512772D01*
X197934286Y-99489709D01*
X197864215Y-99479500D01*
X197864211Y-99479500D01*
X197400790Y-99479500D01*
X197400787Y-99479500D01*
X197400786Y-99479501D01*
X197330714Y-99489709D01*
X197330712Y-99489709D01*
X197330710Y-99489710D01*
X197242410Y-99532877D01*
X197181828Y-99541448D01*
X197127778Y-99512772D01*
X197100906Y-99457804D01*
X197099930Y-99443776D01*
X197100000Y-99402522D01*
X192996000Y-99402522D01*
X192996000Y-99402523D01*
X192996000Y-101307522D01*
X192977093Y-101365713D01*
X192927593Y-101401677D01*
X192897000Y-101406522D01*
X192578656Y-101406522D01*
X192520465Y-101387615D01*
X192484501Y-101338115D01*
X192484501Y-101276929D01*
X192494339Y-101258238D01*
X192493241Y-101257604D01*
X192552501Y-101154963D01*
X192552501Y-101154961D01*
X192552503Y-101154959D01*
X192581500Y-101046740D01*
X192581500Y-100934704D01*
X192552503Y-100826485D01*
X192552501Y-100826482D01*
X192552501Y-100826480D01*
X192496486Y-100729461D01*
X192496485Y-100729459D01*
X192417263Y-100650237D01*
X192417260Y-100650235D01*
X192320240Y-100594220D01*
X192320242Y-100594220D01*
X192278251Y-100582969D01*
X192212018Y-100565222D01*
X192099982Y-100565222D01*
X192033748Y-100582969D01*
X191991758Y-100594220D01*
X191894739Y-100650235D01*
X191815513Y-100729461D01*
X191759498Y-100826480D01*
X191759497Y-100826485D01*
X191730500Y-100934704D01*
X187373427Y-100934704D01*
X187341038Y-100357958D01*
X187340882Y-100352407D01*
X187340882Y-99647592D01*
X187341038Y-99642041D01*
X187346625Y-99542549D01*
X187380556Y-98938339D01*
X187381019Y-98932849D01*
X187459938Y-98232415D01*
X187460714Y-98226930D01*
X187463220Y-98212183D01*
X187578772Y-97532087D01*
X187579853Y-97526656D01*
X187582814Y-97513686D01*
X187673313Y-97117182D01*
X196374500Y-97117182D01*
X196374500Y-97229218D01*
X196400072Y-97324655D01*
X196403498Y-97337441D01*
X196455678Y-97427817D01*
X196459515Y-97434463D01*
X196538737Y-97513685D01*
X196561205Y-97526657D01*
X196635759Y-97569701D01*
X196635757Y-97569701D01*
X196635761Y-97569702D01*
X196635763Y-97569703D01*
X196743982Y-97598700D01*
X196743984Y-97598700D01*
X196856016Y-97598700D01*
X196856018Y-97598700D01*
X196964237Y-97569703D01*
X196964239Y-97569701D01*
X196964241Y-97569701D01*
X197066868Y-97510449D01*
X197116368Y-97497185D01*
X203445707Y-97497185D01*
X203445708Y-97497185D01*
X203489858Y-97485355D01*
X203534009Y-97473525D01*
X203573592Y-97450671D01*
X203613177Y-97427817D01*
X203677817Y-97363177D01*
X203677818Y-97363174D01*
X204410740Y-96630253D01*
X205849500Y-96630253D01*
X205849500Y-98369746D01*
X205849501Y-98369758D01*
X205861132Y-98428227D01*
X205861134Y-98428233D01*
X205905445Y-98494548D01*
X205905448Y-98494552D01*
X205971769Y-98538867D01*
X206016231Y-98547711D01*
X206030241Y-98550498D01*
X206030246Y-98550498D01*
X206030252Y-98550500D01*
X206030253Y-98550500D01*
X207769747Y-98550500D01*
X207769748Y-98550500D01*
X207828231Y-98538867D01*
X207894552Y-98494552D01*
X207938867Y-98428231D01*
X207950500Y-98369748D01*
X207950500Y-97396532D01*
X208389500Y-97396532D01*
X208389500Y-97603467D01*
X208429869Y-97806418D01*
X208509058Y-97997597D01*
X208509059Y-97997598D01*
X208624023Y-98169655D01*
X208770345Y-98315977D01*
X208942402Y-98430941D01*
X209133580Y-98510130D01*
X209336535Y-98550500D01*
X209336536Y-98550500D01*
X209543464Y-98550500D01*
X209543465Y-98550500D01*
X209746420Y-98510130D01*
X209937598Y-98430941D01*
X210109655Y-98315977D01*
X210255977Y-98169655D01*
X210370941Y-97997598D01*
X210450130Y-97806420D01*
X210490500Y-97603465D01*
X210490500Y-97396535D01*
X210450130Y-97193580D01*
X210370941Y-97002402D01*
X210255977Y-96830345D01*
X210109655Y-96684023D01*
X210029182Y-96630253D01*
X209937597Y-96569058D01*
X209746418Y-96489869D01*
X209543467Y-96449500D01*
X209543465Y-96449500D01*
X209336535Y-96449500D01*
X209336532Y-96449500D01*
X209133581Y-96489869D01*
X208942402Y-96569058D01*
X208770348Y-96684020D01*
X208624020Y-96830348D01*
X208509058Y-97002402D01*
X208429869Y-97193581D01*
X208389500Y-97396532D01*
X207950500Y-97396532D01*
X207950500Y-96630252D01*
X207938867Y-96571769D01*
X207894552Y-96505448D01*
X207894548Y-96505445D01*
X207828233Y-96461134D01*
X207828231Y-96461133D01*
X207828228Y-96461132D01*
X207828227Y-96461132D01*
X207769758Y-96449501D01*
X207769748Y-96449500D01*
X206030252Y-96449500D01*
X206030251Y-96449500D01*
X206030241Y-96449501D01*
X205971772Y-96461132D01*
X205971766Y-96461134D01*
X205905451Y-96505445D01*
X205905445Y-96505451D01*
X205861134Y-96571766D01*
X205861132Y-96571772D01*
X205849501Y-96630241D01*
X205849500Y-96630253D01*
X204410740Y-96630253D01*
X205664813Y-95376181D01*
X205719330Y-95348404D01*
X205734817Y-95347185D01*
X209815184Y-95347185D01*
X209873375Y-95366092D01*
X209885188Y-95376181D01*
X211023819Y-96514812D01*
X211051596Y-96569329D01*
X211052815Y-96584816D01*
X211052815Y-98212183D01*
X211033908Y-98270374D01*
X211023819Y-98282187D01*
X210150517Y-99155488D01*
X210096000Y-99183265D01*
X210035568Y-99173694D01*
X210025512Y-99167800D01*
X209937597Y-99109058D01*
X209746418Y-99029869D01*
X209543467Y-98989500D01*
X209543465Y-98989500D01*
X209336535Y-98989500D01*
X209336532Y-98989500D01*
X209133581Y-99029869D01*
X208942402Y-99109058D01*
X208770348Y-99224020D01*
X208624020Y-99370348D01*
X208509058Y-99542402D01*
X208429869Y-99733581D01*
X208389500Y-99936532D01*
X208389500Y-100143467D01*
X208429869Y-100346418D01*
X208509058Y-100537597D01*
X208584320Y-100650235D01*
X208624023Y-100709655D01*
X208770345Y-100855977D01*
X208942402Y-100970941D01*
X209133580Y-101050130D01*
X209336535Y-101090500D01*
X209336536Y-101090500D01*
X209543464Y-101090500D01*
X209543465Y-101090500D01*
X209746420Y-101050130D01*
X209937598Y-100970941D01*
X210109655Y-100855977D01*
X210255977Y-100709655D01*
X210370941Y-100537598D01*
X210450130Y-100346420D01*
X210490500Y-100143465D01*
X210490500Y-99936535D01*
X210477755Y-99872462D01*
X210484945Y-99811701D01*
X210504845Y-99783146D01*
X211613174Y-98674818D01*
X211613177Y-98674817D01*
X211677817Y-98610177D01*
X211700671Y-98570592D01*
X211723525Y-98531009D01*
X211747185Y-98442707D01*
X211747185Y-98351293D01*
X211747185Y-96354292D01*
X211723525Y-96265992D01*
X211723525Y-96265991D01*
X211700671Y-96226407D01*
X211677817Y-96186823D01*
X211613177Y-96122183D01*
X211613174Y-96122181D01*
X210277818Y-94786825D01*
X210277817Y-94786823D01*
X210213177Y-94722183D01*
X210173592Y-94699329D01*
X210134009Y-94676475D01*
X210089858Y-94664645D01*
X210089857Y-94664644D01*
X210057537Y-94655984D01*
X210045708Y-94652815D01*
X205504292Y-94652815D01*
X205494962Y-94655314D01*
X205460142Y-94664644D01*
X205460142Y-94664645D01*
X205415991Y-94676475D01*
X205415989Y-94676475D01*
X205415985Y-94676477D01*
X205336827Y-94722179D01*
X205336826Y-94722180D01*
X203285188Y-96773819D01*
X203230671Y-96801596D01*
X203215184Y-96802815D01*
X197036002Y-96802815D01*
X196986503Y-96789552D01*
X196964238Y-96776697D01*
X196928164Y-96767031D01*
X196856018Y-96747700D01*
X196743982Y-96747700D01*
X196677748Y-96765447D01*
X196635758Y-96776698D01*
X196538739Y-96832713D01*
X196459513Y-96911939D01*
X196403498Y-97008958D01*
X196403497Y-97008963D01*
X196374500Y-97117182D01*
X187673313Y-97117182D01*
X187736693Y-96839491D01*
X187738067Y-96834167D01*
X187933203Y-96156835D01*
X187934870Y-96151606D01*
X188167667Y-95486311D01*
X188169628Y-95481172D01*
X188439367Y-94829963D01*
X188441611Y-94824948D01*
X188747447Y-94189874D01*
X188749968Y-94184996D01*
X189090914Y-93568100D01*
X189093714Y-93563354D01*
X189468720Y-92966534D01*
X189471779Y-92961956D01*
X189879654Y-92387109D01*
X189882990Y-92382679D01*
X190151426Y-92046070D01*
X198704500Y-92046070D01*
X198704500Y-92253929D01*
X198737014Y-92459219D01*
X198737015Y-92459223D01*
X198801241Y-92656889D01*
X198801243Y-92656892D01*
X198801244Y-92656895D01*
X198801245Y-92656896D01*
X198895607Y-92842093D01*
X199017779Y-93010248D01*
X199164752Y-93157221D01*
X199332907Y-93279393D01*
X199518104Y-93373755D01*
X199518106Y-93373755D01*
X199518107Y-93373756D01*
X199518110Y-93373758D01*
X199715776Y-93437984D01*
X199715780Y-93437985D01*
X199921071Y-93470500D01*
X199921074Y-93470500D01*
X200128929Y-93470500D01*
X200334219Y-93437985D01*
X200334223Y-93437984D01*
X200531889Y-93373758D01*
X200531891Y-93373756D01*
X200531896Y-93373755D01*
X200717093Y-93279393D01*
X200885248Y-93157221D01*
X201032221Y-93010248D01*
X201154393Y-92842093D01*
X201248755Y-92656896D01*
X201248756Y-92656891D01*
X201248758Y-92656889D01*
X201312984Y-92459223D01*
X201312985Y-92459219D01*
X201345500Y-92253929D01*
X201345500Y-92046070D01*
X201312985Y-91840780D01*
X201312984Y-91840776D01*
X201248758Y-91643110D01*
X201248756Y-91643107D01*
X201248755Y-91643106D01*
X201248755Y-91643104D01*
X201154393Y-91457907D01*
X201032221Y-91289752D01*
X200885248Y-91142779D01*
X200717093Y-91020607D01*
X200717092Y-91020606D01*
X200717090Y-91020605D01*
X200531892Y-90926243D01*
X200531889Y-90926241D01*
X200334223Y-90862015D01*
X200334219Y-90862014D01*
X200128929Y-90829500D01*
X200128926Y-90829500D01*
X199921074Y-90829500D01*
X199921071Y-90829500D01*
X199715780Y-90862014D01*
X199715776Y-90862015D01*
X199518110Y-90926241D01*
X199518107Y-90926243D01*
X199332909Y-91020605D01*
X199164753Y-91142778D01*
X199017778Y-91289753D01*
X198895605Y-91457909D01*
X198801243Y-91643107D01*
X198801241Y-91643110D01*
X198737015Y-91840776D01*
X198737014Y-91840780D01*
X198704500Y-92046070D01*
X190151426Y-92046070D01*
X190322441Y-91831624D01*
X190325983Y-91827429D01*
X190795661Y-91301860D01*
X190799440Y-91297862D01*
X191297862Y-90799440D01*
X191301860Y-90795661D01*
X191827429Y-90325983D01*
X191831642Y-90322426D01*
X192382685Y-89882985D01*
X192387116Y-89879650D01*
X192961956Y-89471779D01*
X192966534Y-89468720D01*
X193563354Y-89093714D01*
X193568100Y-89090914D01*
X194184996Y-88749968D01*
X194189874Y-88747447D01*
X194824948Y-88441611D01*
X194829963Y-88439367D01*
X195481172Y-88169628D01*
X195486311Y-88167667D01*
X196151606Y-87934870D01*
X196156835Y-87933203D01*
X196834167Y-87738067D01*
X196839491Y-87736693D01*
X197526665Y-87579851D01*
X197532087Y-87578772D01*
X198226944Y-87460711D01*
X198232415Y-87459938D01*
X198932849Y-87381019D01*
X198938339Y-87380556D01*
X199642041Y-87341037D01*
X199647592Y-87340882D01*
X200352408Y-87340882D01*
X200357958Y-87341037D01*
G37*
%TD.AperFunction*%
%TD*%
M02*
