%TF.GenerationSoftware,KiCad,Pcbnew,9.0.7*%
%TF.CreationDate,2026-02-15T20:11:11-05:00*%
%TF.ProjectId,tiav3_s13360_3030VE,74696176-335f-4733-9133-3336305f3330,rev?*%
%TF.SameCoordinates,Original*%
%TF.FileFunction,Legend,Bot*%
%TF.FilePolarity,Positive*%
%FSLAX46Y46*%
G04 Gerber Fmt 4.6, Leading zero omitted, Abs format (unit mm)*
G04 Created by KiCad (PCBNEW 9.0.7) date 2026-02-15 20:11:11*
%MOMM*%
%LPD*%
G01*
G04 APERTURE LIST*
%ADD10C,0.076200*%
%ADD11C,0.200000*%
%ADD12C,0.150000*%
%ADD13C,0.120000*%
%ADD14C,0.152400*%
G04 APERTURE END LIST*
D10*
X205550000Y-96100000D02*
X210750000Y-96100000D01*
X210750000Y-103900000D01*
X205550000Y-103900000D01*
X205550000Y-96100000D01*
D11*
X208030326Y-95136266D02*
X207268422Y-95136266D01*
X207649374Y-95517219D02*
X207649374Y-94755314D01*
X206316041Y-94517219D02*
X206792231Y-94517219D01*
X206792231Y-94517219D02*
X206839850Y-94993409D01*
X206839850Y-94993409D02*
X206792231Y-94945790D01*
X206792231Y-94945790D02*
X206696993Y-94898171D01*
X206696993Y-94898171D02*
X206458898Y-94898171D01*
X206458898Y-94898171D02*
X206363660Y-94945790D01*
X206363660Y-94945790D02*
X206316041Y-94993409D01*
X206316041Y-94993409D02*
X206268422Y-95088647D01*
X206268422Y-95088647D02*
X206268422Y-95326742D01*
X206268422Y-95326742D02*
X206316041Y-95421980D01*
X206316041Y-95421980D02*
X206363660Y-95469600D01*
X206363660Y-95469600D02*
X206458898Y-95517219D01*
X206458898Y-95517219D02*
X206696993Y-95517219D01*
X206696993Y-95517219D02*
X206792231Y-95469600D01*
X206792231Y-95469600D02*
X206839850Y-95421980D01*
X205935088Y-94850552D02*
X205696993Y-95517219D01*
X205696993Y-95517219D02*
X205458898Y-94850552D01*
D12*
X192599366Y-98183333D02*
X192632700Y-98150000D01*
X192632700Y-98150000D02*
X192666033Y-98050000D01*
X192666033Y-98050000D02*
X192666033Y-97983333D01*
X192666033Y-97983333D02*
X192632700Y-97883333D01*
X192632700Y-97883333D02*
X192566033Y-97816667D01*
X192566033Y-97816667D02*
X192499366Y-97783333D01*
X192499366Y-97783333D02*
X192366033Y-97750000D01*
X192366033Y-97750000D02*
X192266033Y-97750000D01*
X192266033Y-97750000D02*
X192132700Y-97783333D01*
X192132700Y-97783333D02*
X192066033Y-97816667D01*
X192066033Y-97816667D02*
X191999366Y-97883333D01*
X191999366Y-97883333D02*
X191966033Y-97983333D01*
X191966033Y-97983333D02*
X191966033Y-98050000D01*
X191966033Y-98050000D02*
X191999366Y-98150000D01*
X191999366Y-98150000D02*
X192032700Y-98183333D01*
X191966033Y-98416667D02*
X191966033Y-98883333D01*
X191966033Y-98883333D02*
X192666033Y-98583333D01*
X194541666Y-104524366D02*
X194574999Y-104557700D01*
X194574999Y-104557700D02*
X194674999Y-104591033D01*
X194674999Y-104591033D02*
X194741666Y-104591033D01*
X194741666Y-104591033D02*
X194841666Y-104557700D01*
X194841666Y-104557700D02*
X194908333Y-104491033D01*
X194908333Y-104491033D02*
X194941666Y-104424366D01*
X194941666Y-104424366D02*
X194974999Y-104291033D01*
X194974999Y-104291033D02*
X194974999Y-104191033D01*
X194974999Y-104191033D02*
X194941666Y-104057700D01*
X194941666Y-104057700D02*
X194908333Y-103991033D01*
X194908333Y-103991033D02*
X194841666Y-103924366D01*
X194841666Y-103924366D02*
X194741666Y-103891033D01*
X194741666Y-103891033D02*
X194674999Y-103891033D01*
X194674999Y-103891033D02*
X194574999Y-103924366D01*
X194574999Y-103924366D02*
X194541666Y-103957700D01*
X193908333Y-103891033D02*
X194241666Y-103891033D01*
X194241666Y-103891033D02*
X194274999Y-104224366D01*
X194274999Y-104224366D02*
X194241666Y-104191033D01*
X194241666Y-104191033D02*
X194174999Y-104157700D01*
X194174999Y-104157700D02*
X194008333Y-104157700D01*
X194008333Y-104157700D02*
X193941666Y-104191033D01*
X193941666Y-104191033D02*
X193908333Y-104224366D01*
X193908333Y-104224366D02*
X193874999Y-104291033D01*
X193874999Y-104291033D02*
X193874999Y-104457700D01*
X193874999Y-104457700D02*
X193908333Y-104524366D01*
X193908333Y-104524366D02*
X193941666Y-104557700D01*
X193941666Y-104557700D02*
X194008333Y-104591033D01*
X194008333Y-104591033D02*
X194174999Y-104591033D01*
X194174999Y-104591033D02*
X194241666Y-104557700D01*
X194241666Y-104557700D02*
X194274999Y-104524366D01*
X194566666Y-97024366D02*
X194599999Y-97057700D01*
X194599999Y-97057700D02*
X194699999Y-97091033D01*
X194699999Y-97091033D02*
X194766666Y-97091033D01*
X194766666Y-97091033D02*
X194866666Y-97057700D01*
X194866666Y-97057700D02*
X194933333Y-96991033D01*
X194933333Y-96991033D02*
X194966666Y-96924366D01*
X194966666Y-96924366D02*
X194999999Y-96791033D01*
X194999999Y-96791033D02*
X194999999Y-96691033D01*
X194999999Y-96691033D02*
X194966666Y-96557700D01*
X194966666Y-96557700D02*
X194933333Y-96491033D01*
X194933333Y-96491033D02*
X194866666Y-96424366D01*
X194866666Y-96424366D02*
X194766666Y-96391033D01*
X194766666Y-96391033D02*
X194699999Y-96391033D01*
X194699999Y-96391033D02*
X194599999Y-96424366D01*
X194599999Y-96424366D02*
X194566666Y-96457700D01*
X194166666Y-96691033D02*
X194233333Y-96657700D01*
X194233333Y-96657700D02*
X194266666Y-96624366D01*
X194266666Y-96624366D02*
X194299999Y-96557700D01*
X194299999Y-96557700D02*
X194299999Y-96524366D01*
X194299999Y-96524366D02*
X194266666Y-96457700D01*
X194266666Y-96457700D02*
X194233333Y-96424366D01*
X194233333Y-96424366D02*
X194166666Y-96391033D01*
X194166666Y-96391033D02*
X194033333Y-96391033D01*
X194033333Y-96391033D02*
X193966666Y-96424366D01*
X193966666Y-96424366D02*
X193933333Y-96457700D01*
X193933333Y-96457700D02*
X193899999Y-96524366D01*
X193899999Y-96524366D02*
X193899999Y-96557700D01*
X193899999Y-96557700D02*
X193933333Y-96624366D01*
X193933333Y-96624366D02*
X193966666Y-96657700D01*
X193966666Y-96657700D02*
X194033333Y-96691033D01*
X194033333Y-96691033D02*
X194166666Y-96691033D01*
X194166666Y-96691033D02*
X194233333Y-96724366D01*
X194233333Y-96724366D02*
X194266666Y-96757700D01*
X194266666Y-96757700D02*
X194299999Y-96824366D01*
X194299999Y-96824366D02*
X194299999Y-96957700D01*
X194299999Y-96957700D02*
X194266666Y-97024366D01*
X194266666Y-97024366D02*
X194233333Y-97057700D01*
X194233333Y-97057700D02*
X194166666Y-97091033D01*
X194166666Y-97091033D02*
X194033333Y-97091033D01*
X194033333Y-97091033D02*
X193966666Y-97057700D01*
X193966666Y-97057700D02*
X193933333Y-97024366D01*
X193933333Y-97024366D02*
X193899999Y-96957700D01*
X193899999Y-96957700D02*
X193899999Y-96824366D01*
X193899999Y-96824366D02*
X193933333Y-96757700D01*
X193933333Y-96757700D02*
X193966666Y-96724366D01*
X193966666Y-96724366D02*
X194033333Y-96691033D01*
X195916666Y-96841033D02*
X196149999Y-96507700D01*
X196316666Y-96841033D02*
X196316666Y-96141033D01*
X196316666Y-96141033D02*
X196049999Y-96141033D01*
X196049999Y-96141033D02*
X195983333Y-96174366D01*
X195983333Y-96174366D02*
X195949999Y-96207700D01*
X195949999Y-96207700D02*
X195916666Y-96274366D01*
X195916666Y-96274366D02*
X195916666Y-96374366D01*
X195916666Y-96374366D02*
X195949999Y-96441033D01*
X195949999Y-96441033D02*
X195983333Y-96474366D01*
X195983333Y-96474366D02*
X196049999Y-96507700D01*
X196049999Y-96507700D02*
X196316666Y-96507700D01*
X195683333Y-96141033D02*
X195249999Y-96141033D01*
X195249999Y-96141033D02*
X195483333Y-96407700D01*
X195483333Y-96407700D02*
X195383333Y-96407700D01*
X195383333Y-96407700D02*
X195316666Y-96441033D01*
X195316666Y-96441033D02*
X195283333Y-96474366D01*
X195283333Y-96474366D02*
X195249999Y-96541033D01*
X195249999Y-96541033D02*
X195249999Y-96707700D01*
X195249999Y-96707700D02*
X195283333Y-96774366D01*
X195283333Y-96774366D02*
X195316666Y-96807700D01*
X195316666Y-96807700D02*
X195383333Y-96841033D01*
X195383333Y-96841033D02*
X195583333Y-96841033D01*
X195583333Y-96841033D02*
X195649999Y-96807700D01*
X195649999Y-96807700D02*
X195683333Y-96774366D01*
X206375000Y-108091033D02*
X206608333Y-107757700D01*
X206775000Y-108091033D02*
X206775000Y-107391033D01*
X206775000Y-107391033D02*
X206508333Y-107391033D01*
X206508333Y-107391033D02*
X206441667Y-107424366D01*
X206441667Y-107424366D02*
X206408333Y-107457700D01*
X206408333Y-107457700D02*
X206375000Y-107524366D01*
X206375000Y-107524366D02*
X206375000Y-107624366D01*
X206375000Y-107624366D02*
X206408333Y-107691033D01*
X206408333Y-107691033D02*
X206441667Y-107724366D01*
X206441667Y-107724366D02*
X206508333Y-107757700D01*
X206508333Y-107757700D02*
X206775000Y-107757700D01*
X205708333Y-108091033D02*
X206108333Y-108091033D01*
X205908333Y-108091033D02*
X205908333Y-107391033D01*
X205908333Y-107391033D02*
X205975000Y-107491033D01*
X205975000Y-107491033D02*
X206041667Y-107557700D01*
X206041667Y-107557700D02*
X206108333Y-107591033D01*
X205041666Y-108091033D02*
X205441666Y-108091033D01*
X205241666Y-108091033D02*
X205241666Y-107391033D01*
X205241666Y-107391033D02*
X205308333Y-107491033D01*
X205308333Y-107491033D02*
X205375000Y-107557700D01*
X205375000Y-107557700D02*
X205441666Y-107591033D01*
X197991033Y-98249999D02*
X197657700Y-98016666D01*
X197991033Y-97849999D02*
X197291033Y-97849999D01*
X197291033Y-97849999D02*
X197291033Y-98116666D01*
X197291033Y-98116666D02*
X197324366Y-98183333D01*
X197324366Y-98183333D02*
X197357700Y-98216666D01*
X197357700Y-98216666D02*
X197424366Y-98249999D01*
X197424366Y-98249999D02*
X197524366Y-98249999D01*
X197524366Y-98249999D02*
X197591033Y-98216666D01*
X197591033Y-98216666D02*
X197624366Y-98183333D01*
X197624366Y-98183333D02*
X197657700Y-98116666D01*
X197657700Y-98116666D02*
X197657700Y-97849999D01*
X197357700Y-98516666D02*
X197324366Y-98549999D01*
X197324366Y-98549999D02*
X197291033Y-98616666D01*
X197291033Y-98616666D02*
X197291033Y-98783333D01*
X197291033Y-98783333D02*
X197324366Y-98849999D01*
X197324366Y-98849999D02*
X197357700Y-98883333D01*
X197357700Y-98883333D02*
X197424366Y-98916666D01*
X197424366Y-98916666D02*
X197491033Y-98916666D01*
X197491033Y-98916666D02*
X197591033Y-98883333D01*
X197591033Y-98883333D02*
X197991033Y-98483333D01*
X197991033Y-98483333D02*
X197991033Y-98916666D01*
X197291033Y-99150000D02*
X197291033Y-99583333D01*
X197291033Y-99583333D02*
X197557700Y-99350000D01*
X197557700Y-99350000D02*
X197557700Y-99450000D01*
X197557700Y-99450000D02*
X197591033Y-99516666D01*
X197591033Y-99516666D02*
X197624366Y-99550000D01*
X197624366Y-99550000D02*
X197691033Y-99583333D01*
X197691033Y-99583333D02*
X197857700Y-99583333D01*
X197857700Y-99583333D02*
X197924366Y-99550000D01*
X197924366Y-99550000D02*
X197957700Y-99516666D01*
X197957700Y-99516666D02*
X197991033Y-99450000D01*
X197991033Y-99450000D02*
X197991033Y-99250000D01*
X197991033Y-99250000D02*
X197957700Y-99183333D01*
X197957700Y-99183333D02*
X197924366Y-99150000D01*
X196392033Y-104124055D02*
X196392033Y-103790721D01*
X196392033Y-103790721D02*
X195692033Y-103790721D01*
X196392033Y-104724055D02*
X196392033Y-104324055D01*
X196392033Y-104524055D02*
X195692033Y-104524055D01*
X195692033Y-104524055D02*
X195792033Y-104457388D01*
X195792033Y-104457388D02*
X195858700Y-104390722D01*
X195858700Y-104390722D02*
X195892033Y-104324055D01*
X192590287Y-104041033D02*
X192823620Y-103707700D01*
X192990287Y-104041033D02*
X192990287Y-103341033D01*
X192990287Y-103341033D02*
X192723620Y-103341033D01*
X192723620Y-103341033D02*
X192656954Y-103374366D01*
X192656954Y-103374366D02*
X192623620Y-103407700D01*
X192623620Y-103407700D02*
X192590287Y-103474366D01*
X192590287Y-103474366D02*
X192590287Y-103574366D01*
X192590287Y-103574366D02*
X192623620Y-103641033D01*
X192623620Y-103641033D02*
X192656954Y-103674366D01*
X192656954Y-103674366D02*
X192723620Y-103707700D01*
X192723620Y-103707700D02*
X192990287Y-103707700D01*
X191923620Y-104041033D02*
X192323620Y-104041033D01*
X192123620Y-104041033D02*
X192123620Y-103341033D01*
X192123620Y-103341033D02*
X192190287Y-103441033D01*
X192190287Y-103441033D02*
X192256954Y-103507700D01*
X192256954Y-103507700D02*
X192323620Y-103541033D01*
X191799366Y-99683333D02*
X191832700Y-99650000D01*
X191832700Y-99650000D02*
X191866033Y-99550000D01*
X191866033Y-99550000D02*
X191866033Y-99483333D01*
X191866033Y-99483333D02*
X191832700Y-99383333D01*
X191832700Y-99383333D02*
X191766033Y-99316667D01*
X191766033Y-99316667D02*
X191699366Y-99283333D01*
X191699366Y-99283333D02*
X191566033Y-99250000D01*
X191566033Y-99250000D02*
X191466033Y-99250000D01*
X191466033Y-99250000D02*
X191332700Y-99283333D01*
X191332700Y-99283333D02*
X191266033Y-99316667D01*
X191266033Y-99316667D02*
X191199366Y-99383333D01*
X191199366Y-99383333D02*
X191166033Y-99483333D01*
X191166033Y-99483333D02*
X191166033Y-99550000D01*
X191166033Y-99550000D02*
X191199366Y-99650000D01*
X191199366Y-99650000D02*
X191232700Y-99683333D01*
X191866033Y-100016667D02*
X191866033Y-100150000D01*
X191866033Y-100150000D02*
X191832700Y-100216667D01*
X191832700Y-100216667D02*
X191799366Y-100250000D01*
X191799366Y-100250000D02*
X191699366Y-100316667D01*
X191699366Y-100316667D02*
X191566033Y-100350000D01*
X191566033Y-100350000D02*
X191299366Y-100350000D01*
X191299366Y-100350000D02*
X191232700Y-100316667D01*
X191232700Y-100316667D02*
X191199366Y-100283333D01*
X191199366Y-100283333D02*
X191166033Y-100216667D01*
X191166033Y-100216667D02*
X191166033Y-100083333D01*
X191166033Y-100083333D02*
X191199366Y-100016667D01*
X191199366Y-100016667D02*
X191232700Y-99983333D01*
X191232700Y-99983333D02*
X191299366Y-99950000D01*
X191299366Y-99950000D02*
X191466033Y-99950000D01*
X191466033Y-99950000D02*
X191532700Y-99983333D01*
X191532700Y-99983333D02*
X191566033Y-100016667D01*
X191566033Y-100016667D02*
X191599366Y-100083333D01*
X191599366Y-100083333D02*
X191599366Y-100216667D01*
X191599366Y-100216667D02*
X191566033Y-100283333D01*
X191566033Y-100283333D02*
X191532700Y-100316667D01*
X191532700Y-100316667D02*
X191466033Y-100350000D01*
X196866033Y-101331434D02*
X196532700Y-101098101D01*
X196866033Y-100931434D02*
X196166033Y-100931434D01*
X196166033Y-100931434D02*
X196166033Y-101198101D01*
X196166033Y-101198101D02*
X196199366Y-101264768D01*
X196199366Y-101264768D02*
X196232700Y-101298101D01*
X196232700Y-101298101D02*
X196299366Y-101331434D01*
X196299366Y-101331434D02*
X196399366Y-101331434D01*
X196399366Y-101331434D02*
X196466033Y-101298101D01*
X196466033Y-101298101D02*
X196499366Y-101264768D01*
X196499366Y-101264768D02*
X196532700Y-101198101D01*
X196532700Y-101198101D02*
X196532700Y-100931434D01*
X196166033Y-101964768D02*
X196166033Y-101631434D01*
X196166033Y-101631434D02*
X196499366Y-101598101D01*
X196499366Y-101598101D02*
X196466033Y-101631434D01*
X196466033Y-101631434D02*
X196432700Y-101698101D01*
X196432700Y-101698101D02*
X196432700Y-101864768D01*
X196432700Y-101864768D02*
X196466033Y-101931434D01*
X196466033Y-101931434D02*
X196499366Y-101964768D01*
X196499366Y-101964768D02*
X196566033Y-101998101D01*
X196566033Y-101998101D02*
X196732700Y-101998101D01*
X196732700Y-101998101D02*
X196799366Y-101964768D01*
X196799366Y-101964768D02*
X196832700Y-101931434D01*
X196832700Y-101931434D02*
X196866033Y-101864768D01*
X196866033Y-101864768D02*
X196866033Y-101698101D01*
X196866033Y-101698101D02*
X196832700Y-101631434D01*
X196832700Y-101631434D02*
X196799366Y-101598101D01*
X194430228Y-101688236D02*
X194430228Y-101573950D01*
X194430228Y-101573950D02*
X194401657Y-101516807D01*
X194401657Y-101516807D02*
X194344514Y-101459664D01*
X194344514Y-101459664D02*
X194230228Y-101431093D01*
X194230228Y-101431093D02*
X194030228Y-101431093D01*
X194030228Y-101431093D02*
X193915942Y-101459664D01*
X193915942Y-101459664D02*
X193858800Y-101516807D01*
X193858800Y-101516807D02*
X193830228Y-101573950D01*
X193830228Y-101573950D02*
X193830228Y-101688236D01*
X193830228Y-101688236D02*
X193858800Y-101745379D01*
X193858800Y-101745379D02*
X193915942Y-101802521D01*
X193915942Y-101802521D02*
X194030228Y-101831093D01*
X194030228Y-101831093D02*
X194230228Y-101831093D01*
X194230228Y-101831093D02*
X194344514Y-101802521D01*
X194344514Y-101802521D02*
X194401657Y-101745379D01*
X194401657Y-101745379D02*
X194430228Y-101688236D01*
X194001657Y-101202522D02*
X194001657Y-100916808D01*
X193830228Y-101259665D02*
X194430228Y-101059665D01*
X194430228Y-101059665D02*
X193830228Y-100859665D01*
X194430228Y-100745379D02*
X194430228Y-100402522D01*
X193830228Y-100573950D02*
X194430228Y-100573950D01*
X193830228Y-100202521D02*
X194430228Y-100202521D01*
X197291666Y-96941033D02*
X197524999Y-96607700D01*
X197691666Y-96941033D02*
X197691666Y-96241033D01*
X197691666Y-96241033D02*
X197424999Y-96241033D01*
X197424999Y-96241033D02*
X197358333Y-96274366D01*
X197358333Y-96274366D02*
X197324999Y-96307700D01*
X197324999Y-96307700D02*
X197291666Y-96374366D01*
X197291666Y-96374366D02*
X197291666Y-96474366D01*
X197291666Y-96474366D02*
X197324999Y-96541033D01*
X197324999Y-96541033D02*
X197358333Y-96574366D01*
X197358333Y-96574366D02*
X197424999Y-96607700D01*
X197424999Y-96607700D02*
X197691666Y-96607700D01*
X197058333Y-96241033D02*
X196591666Y-96241033D01*
X196591666Y-96241033D02*
X196891666Y-96941033D01*
X190516666Y-97699366D02*
X190549999Y-97732700D01*
X190549999Y-97732700D02*
X190649999Y-97766033D01*
X190649999Y-97766033D02*
X190716666Y-97766033D01*
X190716666Y-97766033D02*
X190816666Y-97732700D01*
X190816666Y-97732700D02*
X190883333Y-97666033D01*
X190883333Y-97666033D02*
X190916666Y-97599366D01*
X190916666Y-97599366D02*
X190949999Y-97466033D01*
X190949999Y-97466033D02*
X190949999Y-97366033D01*
X190949999Y-97366033D02*
X190916666Y-97232700D01*
X190916666Y-97232700D02*
X190883333Y-97166033D01*
X190883333Y-97166033D02*
X190816666Y-97099366D01*
X190816666Y-97099366D02*
X190716666Y-97066033D01*
X190716666Y-97066033D02*
X190649999Y-97066033D01*
X190649999Y-97066033D02*
X190549999Y-97099366D01*
X190549999Y-97099366D02*
X190516666Y-97132700D01*
X190283333Y-97066033D02*
X189849999Y-97066033D01*
X189849999Y-97066033D02*
X190083333Y-97332700D01*
X190083333Y-97332700D02*
X189983333Y-97332700D01*
X189983333Y-97332700D02*
X189916666Y-97366033D01*
X189916666Y-97366033D02*
X189883333Y-97399366D01*
X189883333Y-97399366D02*
X189849999Y-97466033D01*
X189849999Y-97466033D02*
X189849999Y-97632700D01*
X189849999Y-97632700D02*
X189883333Y-97699366D01*
X189883333Y-97699366D02*
X189916666Y-97732700D01*
X189916666Y-97732700D02*
X189983333Y-97766033D01*
X189983333Y-97766033D02*
X190183333Y-97766033D01*
X190183333Y-97766033D02*
X190249999Y-97732700D01*
X190249999Y-97732700D02*
X190283333Y-97699366D01*
X203216666Y-100316033D02*
X203216666Y-99616033D01*
X203216666Y-99616033D02*
X203049999Y-99616033D01*
X203049999Y-99616033D02*
X202949999Y-99649366D01*
X202949999Y-99649366D02*
X202883333Y-99716033D01*
X202883333Y-99716033D02*
X202849999Y-99782700D01*
X202849999Y-99782700D02*
X202816666Y-99916033D01*
X202816666Y-99916033D02*
X202816666Y-100016033D01*
X202816666Y-100016033D02*
X202849999Y-100149366D01*
X202849999Y-100149366D02*
X202883333Y-100216033D01*
X202883333Y-100216033D02*
X202949999Y-100282700D01*
X202949999Y-100282700D02*
X203049999Y-100316033D01*
X203049999Y-100316033D02*
X203216666Y-100316033D01*
X202549999Y-99682700D02*
X202516666Y-99649366D01*
X202516666Y-99649366D02*
X202449999Y-99616033D01*
X202449999Y-99616033D02*
X202283333Y-99616033D01*
X202283333Y-99616033D02*
X202216666Y-99649366D01*
X202216666Y-99649366D02*
X202183333Y-99682700D01*
X202183333Y-99682700D02*
X202149999Y-99749366D01*
X202149999Y-99749366D02*
X202149999Y-99816033D01*
X202149999Y-99816033D02*
X202183333Y-99916033D01*
X202183333Y-99916033D02*
X202583333Y-100316033D01*
X202583333Y-100316033D02*
X202149999Y-100316033D01*
X189405366Y-102683333D02*
X189438700Y-102650000D01*
X189438700Y-102650000D02*
X189472033Y-102550000D01*
X189472033Y-102550000D02*
X189472033Y-102483333D01*
X189472033Y-102483333D02*
X189438700Y-102383333D01*
X189438700Y-102383333D02*
X189372033Y-102316667D01*
X189372033Y-102316667D02*
X189305366Y-102283333D01*
X189305366Y-102283333D02*
X189172033Y-102250000D01*
X189172033Y-102250000D02*
X189072033Y-102250000D01*
X189072033Y-102250000D02*
X188938700Y-102283333D01*
X188938700Y-102283333D02*
X188872033Y-102316667D01*
X188872033Y-102316667D02*
X188805366Y-102383333D01*
X188805366Y-102383333D02*
X188772033Y-102483333D01*
X188772033Y-102483333D02*
X188772033Y-102550000D01*
X188772033Y-102550000D02*
X188805366Y-102650000D01*
X188805366Y-102650000D02*
X188838700Y-102683333D01*
X188838700Y-102950000D02*
X188805366Y-102983333D01*
X188805366Y-102983333D02*
X188772033Y-103050000D01*
X188772033Y-103050000D02*
X188772033Y-103216667D01*
X188772033Y-103216667D02*
X188805366Y-103283333D01*
X188805366Y-103283333D02*
X188838700Y-103316667D01*
X188838700Y-103316667D02*
X188905366Y-103350000D01*
X188905366Y-103350000D02*
X188972033Y-103350000D01*
X188972033Y-103350000D02*
X189072033Y-103316667D01*
X189072033Y-103316667D02*
X189472033Y-102916667D01*
X189472033Y-102916667D02*
X189472033Y-103350000D01*
X199966666Y-97649366D02*
X199999999Y-97682700D01*
X199999999Y-97682700D02*
X200099999Y-97716033D01*
X200099999Y-97716033D02*
X200166666Y-97716033D01*
X200166666Y-97716033D02*
X200266666Y-97682700D01*
X200266666Y-97682700D02*
X200333333Y-97616033D01*
X200333333Y-97616033D02*
X200366666Y-97549366D01*
X200366666Y-97549366D02*
X200399999Y-97416033D01*
X200399999Y-97416033D02*
X200399999Y-97316033D01*
X200399999Y-97316033D02*
X200366666Y-97182700D01*
X200366666Y-97182700D02*
X200333333Y-97116033D01*
X200333333Y-97116033D02*
X200266666Y-97049366D01*
X200266666Y-97049366D02*
X200166666Y-97016033D01*
X200166666Y-97016033D02*
X200099999Y-97016033D01*
X200099999Y-97016033D02*
X199999999Y-97049366D01*
X199999999Y-97049366D02*
X199966666Y-97082700D01*
X199366666Y-97016033D02*
X199499999Y-97016033D01*
X199499999Y-97016033D02*
X199566666Y-97049366D01*
X199566666Y-97049366D02*
X199599999Y-97082700D01*
X199599999Y-97082700D02*
X199666666Y-97182700D01*
X199666666Y-97182700D02*
X199699999Y-97316033D01*
X199699999Y-97316033D02*
X199699999Y-97582700D01*
X199699999Y-97582700D02*
X199666666Y-97649366D01*
X199666666Y-97649366D02*
X199633333Y-97682700D01*
X199633333Y-97682700D02*
X199566666Y-97716033D01*
X199566666Y-97716033D02*
X199433333Y-97716033D01*
X199433333Y-97716033D02*
X199366666Y-97682700D01*
X199366666Y-97682700D02*
X199333333Y-97649366D01*
X199333333Y-97649366D02*
X199299999Y-97582700D01*
X199299999Y-97582700D02*
X199299999Y-97416033D01*
X199299999Y-97416033D02*
X199333333Y-97349366D01*
X199333333Y-97349366D02*
X199366666Y-97316033D01*
X199366666Y-97316033D02*
X199433333Y-97282700D01*
X199433333Y-97282700D02*
X199566666Y-97282700D01*
X199566666Y-97282700D02*
X199633333Y-97316033D01*
X199633333Y-97316033D02*
X199666666Y-97349366D01*
X199666666Y-97349366D02*
X199699999Y-97416033D01*
X188891666Y-101429819D02*
X189367856Y-101429819D01*
X189367856Y-101429819D02*
X189367856Y-100429819D01*
X188605951Y-100525057D02*
X188558332Y-100477438D01*
X188558332Y-100477438D02*
X188463094Y-100429819D01*
X188463094Y-100429819D02*
X188224999Y-100429819D01*
X188224999Y-100429819D02*
X188129761Y-100477438D01*
X188129761Y-100477438D02*
X188082142Y-100525057D01*
X188082142Y-100525057D02*
X188034523Y-100620295D01*
X188034523Y-100620295D02*
X188034523Y-100715533D01*
X188034523Y-100715533D02*
X188082142Y-100858390D01*
X188082142Y-100858390D02*
X188653570Y-101429819D01*
X188653570Y-101429819D02*
X188034523Y-101429819D01*
D13*
%TO.C,C1*%
X199490000Y-104238748D02*
X199490000Y-105661252D01*
X201310000Y-104238748D02*
X201310000Y-105661252D01*
%TO.C,C7*%
X193140000Y-98340358D02*
X193140000Y-98124686D01*
X193860000Y-98340358D02*
X193860000Y-98124686D01*
%TO.C,C5*%
X194543036Y-102699122D02*
X194327364Y-102699122D01*
X194543036Y-103419122D02*
X194327364Y-103419122D01*
%TO.C,C8*%
X194240000Y-98340358D02*
X194240000Y-98124686D01*
X194960000Y-98340358D02*
X194960000Y-98124686D01*
%TO.C,R3*%
X195320000Y-98064901D02*
X195320000Y-98400143D01*
X196080000Y-98064901D02*
X196080000Y-98400143D01*
%TO.C,R11*%
X206467621Y-106320000D02*
X206132379Y-106320000D01*
X206467621Y-107080000D02*
X206132379Y-107080000D01*
%TO.C,R23*%
X197173021Y-99597522D02*
X196837779Y-99597522D01*
X197173021Y-100357522D02*
X196837779Y-100357522D01*
%TO.C,L1*%
X196996000Y-104069455D02*
X196996000Y-104411989D01*
X198016000Y-104069455D02*
X198016000Y-104411989D01*
%TO.C,R1*%
X192473621Y-102374322D02*
X192138379Y-102374322D01*
X192473621Y-103134322D02*
X192138379Y-103134322D01*
%TO.C,C9*%
X191296000Y-101282886D02*
X191296000Y-101498558D01*
X192016000Y-101282886D02*
X192016000Y-101498558D01*
%TO.C,R5*%
X197094000Y-101783343D02*
X197094000Y-101448101D01*
X197854000Y-101783343D02*
X197854000Y-101448101D01*
D14*
%TO.C,U1*%
X193871700Y-102626722D02*
X191865100Y-102626722D01*
D13*
%TO.C,R7*%
X196370000Y-98420143D02*
X196370000Y-98084901D01*
X197130000Y-98420143D02*
X197130000Y-98084901D01*
%TO.C,C3*%
X190040000Y-98857836D02*
X190040000Y-98642164D01*
X190760000Y-98857836D02*
X190760000Y-98642164D01*
%TO.C,D2*%
X199675000Y-100950000D02*
X200015000Y-101290000D01*
X200015000Y-100910000D02*
X200015000Y-100630000D01*
X200015000Y-101290000D02*
X200355000Y-100950000D01*
X200325000Y-100950000D02*
X199675000Y-100950000D01*
X200345000Y-101360000D02*
X199705000Y-101360000D01*
X198300000Y-101700000D02*
X201700000Y-101700000D01*
X201700000Y-98300000D01*
X198300000Y-98300000D01*
X198300000Y-101700000D01*
%TO.C,C2*%
X190563836Y-102490000D02*
X190348164Y-102490000D01*
X190563836Y-103210000D02*
X190348164Y-103210000D01*
%TO.C,C6*%
X198167164Y-96965000D02*
X198382836Y-96965000D01*
X198167164Y-97685000D02*
X198382836Y-97685000D01*
%TO.C,L2*%
X189840000Y-101162779D02*
X189840000Y-100837221D01*
X190860000Y-101162779D02*
X190860000Y-100837221D01*
%TO.C,C4*%
X202090000Y-104238748D02*
X202090000Y-105661252D01*
X203910000Y-104238748D02*
X203910000Y-105661252D01*
%TD*%
M02*
