%TF.GenerationSoftware,KiCad,Pcbnew,9.0.7*%
%TF.CreationDate,2026-02-15T20:11:16-05:00*%
%TF.ProjectId,tiav3_s14160,74696176-335f-4733-9134-3136302e6b69,rev?*%
%TF.SameCoordinates,Original*%
%TF.FileFunction,Copper,L4,Bot*%
%TF.FilePolarity,Positive*%
%FSLAX46Y46*%
G04 Gerber Fmt 4.6, Leading zero omitted, Abs format (unit mm)*
G04 Created by KiCad (PCBNEW 9.0.7) date 2026-02-15 20:11:16*
%MOMM*%
%LPD*%
G01*
G04 APERTURE LIST*
G04 Aperture macros list*
%AMRoundRect*
0 Rectangle with rounded corners*
0 $1 Rounding radius*
0 $2 $3 $4 $5 $6 $7 $8 $9 X,Y pos of 4 corners*
0 Add a 4 corners polygon primitive as box body*
4,1,4,$2,$3,$4,$5,$6,$7,$8,$9,$2,$3,0*
0 Add four circle primitives for the rounded corners*
1,1,$1+$1,$2,$3*
1,1,$1+$1,$4,$5*
1,1,$1+$1,$6,$7*
1,1,$1+$1,$8,$9*
0 Add four rect primitives between the rounded corners*
20,1,$1+$1,$2,$3,$4,$5,0*
20,1,$1+$1,$4,$5,$6,$7,0*
20,1,$1+$1,$6,$7,$8,$9,0*
20,1,$1+$1,$8,$9,$2,$3,0*%
G04 Aperture macros list end*
%TA.AperFunction,ComponentPad*%
%ADD10R,1.700000X1.700000*%
%TD*%
%TA.AperFunction,ComponentPad*%
%ADD11O,1.700000X1.700000*%
%TD*%
%TA.AperFunction,ComponentPad*%
%ADD12C,2.240000*%
%TD*%
%TA.AperFunction,ComponentPad*%
%ADD13C,2.740000*%
%TD*%
%TA.AperFunction,SMDPad,CuDef*%
%ADD14RoundRect,0.250000X-0.650000X0.325000X-0.650000X-0.325000X0.650000X-0.325000X0.650000X0.325000X0*%
%TD*%
%TA.AperFunction,SMDPad,CuDef*%
%ADD15RoundRect,0.140000X-0.140000X-0.170000X0.140000X-0.170000X0.140000X0.170000X-0.140000X0.170000X0*%
%TD*%
%TA.AperFunction,SMDPad,CuDef*%
%ADD16RoundRect,0.140000X0.140000X0.170000X-0.140000X0.170000X-0.140000X-0.170000X0.140000X-0.170000X0*%
%TD*%
%TA.AperFunction,SMDPad,CuDef*%
%ADD17RoundRect,0.225000X-0.225000X-0.250000X0.225000X-0.250000X0.225000X0.250000X-0.225000X0.250000X0*%
%TD*%
%TA.AperFunction,SMDPad,CuDef*%
%ADD18RoundRect,0.135000X0.135000X0.185000X-0.135000X0.185000X-0.135000X-0.185000X0.135000X-0.185000X0*%
%TD*%
%TA.AperFunction,SMDPad,CuDef*%
%ADD19RoundRect,0.160000X0.197500X0.160000X-0.197500X0.160000X-0.197500X-0.160000X0.197500X-0.160000X0*%
%TD*%
%TA.AperFunction,SMDPad,CuDef*%
%ADD20RoundRect,0.237500X-0.237500X0.287500X-0.237500X-0.287500X0.237500X-0.287500X0.237500X0.287500X0*%
%TD*%
%TA.AperFunction,SMDPad,CuDef*%
%ADD21RoundRect,0.140000X-0.170000X0.140000X-0.170000X-0.140000X0.170000X-0.140000X0.170000X0.140000X0*%
%TD*%
%TA.AperFunction,SMDPad,CuDef*%
%ADD22RoundRect,0.135000X0.185000X-0.135000X0.185000X0.135000X-0.185000X0.135000X-0.185000X-0.135000X0*%
%TD*%
%TA.AperFunction,SMDPad,CuDef*%
%ADD23R,1.473200X0.558800*%
%TD*%
%TA.AperFunction,SMDPad,CuDef*%
%ADD24RoundRect,0.135000X-0.135000X-0.185000X0.135000X-0.185000X0.135000X0.185000X-0.135000X0.185000X0*%
%TD*%
%TA.AperFunction,SMDPad,CuDef*%
%ADD25RoundRect,0.140000X0.170000X-0.140000X0.170000X0.140000X-0.170000X0.140000X-0.170000X-0.140000X0*%
%TD*%
%TA.AperFunction,SMDPad,CuDef*%
%ADD26R,1.050000X4.250000*%
%TD*%
%TA.AperFunction,SMDPad,CuDef*%
%ADD27RoundRect,0.218750X0.256250X-0.218750X0.256250X0.218750X-0.256250X0.218750X-0.256250X-0.218750X0*%
%TD*%
%TA.AperFunction,ViaPad*%
%ADD28C,0.450000*%
%TD*%
%TA.AperFunction,Conductor*%
%ADD29C,0.293370*%
%TD*%
%TA.AperFunction,Conductor*%
%ADD30C,0.250000*%
%TD*%
%TA.AperFunction,Conductor*%
%ADD31C,0.200000*%
%TD*%
%TA.AperFunction,Conductor*%
%ADD32C,0.500000*%
%TD*%
G04 APERTURE END LIST*
D10*
%TO.P,J1,1,Pin_1*%
%TO.N,+5V*%
X206900000Y-97500000D03*
D11*
%TO.P,J1,2,Pin_2*%
%TO.N,VSSA*%
X209440000Y-97500000D03*
%TO.P,J1,3,Pin_3*%
%TO.N,VDDA*%
X206900000Y-100040000D03*
%TO.P,J1,4,Pin_4*%
%TO.N,LINE*%
X209440000Y-100040000D03*
%TO.P,J1,5,Pin_5*%
%TO.N,+VDC*%
X206900000Y-102580000D03*
%TO.P,J1,6,Pin_6*%
%TO.N,GND*%
X209440000Y-102580000D03*
%TD*%
D12*
%TO.P,J2,1,In*%
%TO.N,Net-(J2-In)*%
X200025000Y-92150000D03*
D13*
%TO.P,J2,2,Ext*%
%TO.N,GND*%
X197485000Y-89610000D03*
X197485000Y-94690000D03*
X202565000Y-89610000D03*
X202565000Y-94690000D03*
%TD*%
D14*
%TO.P,C1,1*%
%TO.N,/VBiasFilt*%
X200400000Y-103475000D03*
%TO.P,C1,2*%
%TO.N,GND*%
X200400000Y-106425000D03*
%TD*%
D15*
%TO.P,C7,1*%
%TO.N,Net-(U1-+)*%
X193095000Y-100750000D03*
%TO.P,C7,2*%
%TO.N,GND*%
X194055000Y-100750000D03*
%TD*%
D16*
%TO.P,C5,1*%
%TO.N,VDDA*%
X194859200Y-105168400D03*
%TO.P,C5,2*%
%TO.N,GND*%
X193899200Y-105168400D03*
%TD*%
D17*
%TO.P,C8,1*%
%TO.N,Net-(U1-+)*%
X192775000Y-99550000D03*
%TO.P,C8,2*%
%TO.N,GND*%
X194325000Y-99550000D03*
%TD*%
D18*
%TO.P,R3,1*%
%TO.N,GND*%
X194135000Y-98300000D03*
%TO.P,R3,2*%
%TO.N,Net-(U1-+)*%
X193115000Y-98300000D03*
%TD*%
D19*
%TO.P,R11,1*%
%TO.N,+VDC*%
X206897500Y-106700000D03*
%TO.P,R11,2*%
%TO.N,/VBiasFilt*%
X205702500Y-106700000D03*
%TD*%
D18*
%TO.P,R23,1*%
%TO.N,Net-(D2-A)*%
X197385000Y-102125000D03*
%TO.P,R23,2*%
%TO.N,Net-(U1--)*%
X196365000Y-102125000D03*
%TD*%
D20*
%TO.P,L1,1*%
%TO.N,Net-(L1-Pad1)*%
X197425000Y-105550000D03*
%TO.P,L1,2*%
%TO.N,GND*%
X197425000Y-107300000D03*
%TD*%
D18*
%TO.P,R1,1*%
%TO.N,/OUT*%
X192760000Y-104863600D03*
%TO.P,R1,2*%
%TO.N,Net-(C2-Pad1)*%
X191740000Y-104863600D03*
%TD*%
D21*
%TO.P,C9,1*%
%TO.N,VSSA*%
X191600000Y-103020000D03*
%TO.P,C9,2*%
%TO.N,GND*%
X191600000Y-103980000D03*
%TD*%
D22*
%TO.P,R5,1*%
%TO.N,Net-(L1-Pad1)*%
X197418000Y-104235000D03*
%TO.P,R5,2*%
%TO.N,Net-(D2-A)*%
X197418000Y-103215000D03*
%TD*%
D23*
%TO.P,U1,1*%
%TO.N,/OUT*%
X192964800Y-104035001D03*
%TO.P,U1,2,V-*%
%TO.N,VSSA*%
X192964800Y-103085000D03*
%TO.P,U1,3,+*%
%TO.N,Net-(U1-+)*%
X192964800Y-102134999D03*
%TO.P,U1,4,-*%
%TO.N,Net-(U1--)*%
X195200000Y-102134999D03*
%TO.P,U1,5,~{DIS}*%
%TO.N,unconnected-(U1-~{DIS}-Pad5)*%
X195200000Y-103085000D03*
%TO.P,U1,6,V+*%
%TO.N,VDDA*%
X195200000Y-104035001D03*
%TD*%
D24*
%TO.P,R7,1*%
%TO.N,Net-(U1-+)*%
X193115000Y-97150000D03*
%TO.P,R7,2*%
%TO.N,LINE*%
X194135000Y-97150000D03*
%TD*%
D25*
%TO.P,C3,1*%
%TO.N,Net-(J2-In)*%
X190475000Y-101655000D03*
%TO.P,C3,2*%
%TO.N,GND*%
X190475000Y-100695000D03*
%TD*%
D26*
%TO.P,D2,1,A*%
%TO.N,Net-(D2-A)*%
X198910000Y-100240000D03*
%TO.P,D2,2,K*%
%TO.N,/VBiasFilt*%
X201110000Y-100240000D03*
%TD*%
D16*
%TO.P,C2,1*%
%TO.N,Net-(C2-Pad1)*%
X190880000Y-105175000D03*
%TO.P,C2,2*%
%TO.N,GND*%
X189920000Y-105175000D03*
%TD*%
%TO.P,C6,1*%
%TO.N,LINE*%
X196660000Y-98400000D03*
%TO.P,C6,2*%
%TO.N,GND*%
X195700000Y-98400000D03*
%TD*%
D27*
%TO.P,L2,1*%
%TO.N,Net-(C2-Pad1)*%
X190450000Y-104212500D03*
%TO.P,L2,2*%
%TO.N,Net-(J2-In)*%
X190450000Y-102637500D03*
%TD*%
D14*
%TO.P,C4,1*%
%TO.N,/VBiasFilt*%
X203000000Y-103475000D03*
%TO.P,C4,2*%
%TO.N,GND*%
X203000000Y-106425000D03*
%TD*%
D28*
%TO.N,GND*%
X191636000Y-104100000D03*
X189552584Y-104499582D03*
X200450000Y-106400000D03*
X202950000Y-106400000D03*
X195675000Y-97700000D03*
X197450000Y-108350000D03*
X190400000Y-100025000D03*
X195050000Y-100750000D03*
X193414000Y-105320800D03*
X195000000Y-99550000D03*
%TO.N,VDDA*%
X194894000Y-104504000D03*
%TO.N,VSSA*%
X192100000Y-103100000D03*
%TO.N,/OUT*%
X193394000Y-104014599D03*
%TO.N,LINE*%
X196650000Y-97125000D03*
%TO.N,Net-(U1--)*%
X194750000Y-102200000D03*
%TD*%
D29*
%TO.N,GND*%
X190475000Y-100625000D02*
X190400000Y-100550000D01*
D30*
X194055000Y-100750000D02*
X194135000Y-100670000D01*
D31*
X197450000Y-108350000D02*
X197450000Y-107094500D01*
D30*
X194135000Y-100670000D02*
X194135000Y-98300000D01*
X195700000Y-98400000D02*
X195700000Y-97725000D01*
D29*
X190400000Y-100550000D02*
X190400000Y-100025000D01*
D30*
X195675000Y-97700000D02*
X195650000Y-97725000D01*
D29*
X193912800Y-105219200D02*
X193982000Y-105150000D01*
X193566400Y-105219200D02*
X193912800Y-105219200D01*
D30*
X189552584Y-104499582D02*
X189552584Y-104852584D01*
X194055000Y-100750000D02*
X195050000Y-100750000D01*
X189552584Y-104852584D02*
X189750000Y-105050000D01*
X195700000Y-97725000D02*
X195675000Y-97700000D01*
X194325000Y-99550000D02*
X195000000Y-99550000D01*
X189750000Y-105050000D02*
X189920000Y-105050000D01*
D31*
%TO.N,/VBiasFilt*%
X201110000Y-102777500D02*
X201110000Y-100240000D01*
X200400000Y-103487500D02*
X201110000Y-102777500D01*
D29*
X205815000Y-106302500D02*
X203000000Y-103487500D01*
X205815000Y-106700000D02*
X205815000Y-106302500D01*
%TO.N,Net-(C2-Pad1)*%
X190880000Y-105050000D02*
X190880000Y-104869600D01*
X191697900Y-104863600D02*
X190862900Y-104863600D01*
X190930000Y-105000000D02*
X190880000Y-105050000D01*
X190450000Y-104439600D02*
X190450000Y-104185000D01*
X190880000Y-104869600D02*
X190450000Y-104439600D01*
D32*
%TO.N,VDDA*%
X194894000Y-104219201D02*
X194894000Y-104921800D01*
%TO.N,VSSA*%
X192964800Y-103085000D02*
X191727200Y-103085000D01*
D30*
%TO.N,/OUT*%
X192844000Y-104035001D02*
X192844000Y-104931000D01*
D31*
%TO.N,Net-(L1-Pad1)*%
X197450000Y-105562500D02*
X197450000Y-104207000D01*
D29*
%TO.N,Net-(J2-In)*%
X190450000Y-101630000D02*
X190142685Y-101322685D01*
X189817315Y-101040885D02*
X189817315Y-98503485D01*
X189817315Y-98503485D02*
X196170800Y-92150000D01*
X190099115Y-101322685D02*
X189817315Y-101040885D01*
X196170800Y-92150000D02*
X200025000Y-92150000D01*
X190450000Y-102637500D02*
X190450000Y-101630000D01*
X190142685Y-101322685D02*
X190099115Y-101322685D01*
%TO.N,+VDC*%
X206900000Y-106585000D02*
X206900000Y-102580000D01*
D30*
%TO.N,Net-(U1-+)*%
X193025000Y-102074799D02*
X192964800Y-102134999D01*
X193115000Y-97275000D02*
X193115000Y-97150000D01*
X193025000Y-100845000D02*
X193025000Y-102074799D01*
X193095000Y-97295000D02*
X193115000Y-97275000D01*
X193095000Y-100750000D02*
X193095000Y-97295000D01*
D29*
%TO.N,LINE*%
X194112315Y-97127315D02*
X194135000Y-97150000D01*
X196179630Y-97125000D02*
X196177315Y-97127315D01*
X196650000Y-97125000D02*
X196179630Y-97125000D01*
X196660000Y-97622000D02*
X196660000Y-98400000D01*
X196650000Y-97612000D02*
X196660000Y-97622000D01*
X196177315Y-97127315D02*
X194112315Y-97127315D01*
X196650000Y-97612000D02*
X196650000Y-97125000D01*
D31*
%TO.N,Net-(U1--)*%
X196464400Y-102086800D02*
X195248199Y-102086800D01*
%TO.N,Net-(D2-A)*%
X197418000Y-103240000D02*
X197418000Y-102334600D01*
X197226400Y-102103800D02*
X198596000Y-102103800D01*
%TD*%
%TA.AperFunction,Conductor*%
%TO.N,GND*%
G36*
X191158854Y-103370394D02*
G01*
X191231684Y-103443224D01*
X191340513Y-103493972D01*
X191390099Y-103500500D01*
X191524232Y-103500499D01*
X191549855Y-103503872D01*
X191553313Y-103504798D01*
X191553314Y-103504799D01*
X191667891Y-103535500D01*
X191949934Y-103535500D01*
X191953779Y-103536749D01*
X191957710Y-103535806D01*
X191982550Y-103546097D01*
X192008125Y-103554407D01*
X192010501Y-103557677D01*
X192014236Y-103559225D01*
X192028283Y-103582152D01*
X192044089Y-103603907D01*
X192044089Y-103607949D01*
X192046201Y-103611397D01*
X192044089Y-103638201D01*
X192044089Y-103665093D01*
X192041395Y-103672393D01*
X192039282Y-103677493D01*
X191999541Y-103724016D01*
X191947821Y-103738600D01*
X191092435Y-103738600D01*
X191034244Y-103719693D01*
X190998280Y-103670193D01*
X190993451Y-103641380D01*
X190993415Y-103639393D01*
X190989869Y-103442179D01*
X191007727Y-103383659D01*
X191056572Y-103346811D01*
X191117748Y-103345711D01*
X191158854Y-103370394D01*
G37*
%TD.AperFunction*%
%TA.AperFunction,Conductor*%
G36*
X200357958Y-87341037D02*
G01*
X201061657Y-87380556D01*
X201067153Y-87381019D01*
X201767579Y-87459938D01*
X201773060Y-87460712D01*
X202467905Y-87578771D01*
X202473341Y-87579852D01*
X203160499Y-87736692D01*
X203165840Y-87738069D01*
X203843154Y-87933200D01*
X203848403Y-87934874D01*
X204513676Y-88167663D01*
X204518839Y-88169633D01*
X205170023Y-88439362D01*
X205175064Y-88441617D01*
X205810110Y-88747440D01*
X205815017Y-88749976D01*
X206393811Y-89069864D01*
X206431880Y-89090904D01*
X206436663Y-89093725D01*
X207033445Y-89468708D01*
X207038062Y-89471793D01*
X207612883Y-89879650D01*
X207617320Y-89882990D01*
X208168341Y-90322414D01*
X208172584Y-90325996D01*
X208679063Y-90778614D01*
X208698119Y-90795643D01*
X208702155Y-90799458D01*
X209200541Y-91297844D01*
X209204356Y-91301880D01*
X209674003Y-91827415D01*
X209677585Y-91831658D01*
X210117009Y-92382679D01*
X210120349Y-92387116D01*
X210528206Y-92961937D01*
X210531291Y-92966554D01*
X210906274Y-93563336D01*
X210909095Y-93568119D01*
X211250016Y-94184969D01*
X211252565Y-94189902D01*
X211558375Y-94824921D01*
X211560643Y-94829990D01*
X211830361Y-95481148D01*
X211832341Y-95486336D01*
X212065118Y-96151575D01*
X212066805Y-96156866D01*
X212261924Y-96834137D01*
X212263311Y-96839515D01*
X212420146Y-97526657D01*
X212421229Y-97532103D01*
X212539285Y-98226930D01*
X212540062Y-98232429D01*
X212618978Y-98932828D01*
X212619444Y-98938361D01*
X212658962Y-99642041D01*
X212659118Y-99647592D01*
X212659118Y-100352407D01*
X212658962Y-100357958D01*
X212619444Y-101061638D01*
X212618978Y-101067171D01*
X212540062Y-101767570D01*
X212539285Y-101773069D01*
X212421229Y-102467896D01*
X212420146Y-102473342D01*
X212263311Y-103160484D01*
X212261924Y-103165862D01*
X212066805Y-103843133D01*
X212065118Y-103848424D01*
X211832341Y-104513663D01*
X211830361Y-104518851D01*
X211560643Y-105170009D01*
X211558375Y-105175078D01*
X211252565Y-105810097D01*
X211250016Y-105815030D01*
X210909095Y-106431880D01*
X210906274Y-106436663D01*
X210531291Y-107033445D01*
X210528206Y-107038062D01*
X210120349Y-107612883D01*
X210117009Y-107617320D01*
X209677585Y-108168341D01*
X209674003Y-108172584D01*
X209204356Y-108698119D01*
X209200541Y-108702155D01*
X208702155Y-109200541D01*
X208698119Y-109204356D01*
X208172584Y-109674003D01*
X208168341Y-109677585D01*
X207617320Y-110117009D01*
X207612883Y-110120349D01*
X207038062Y-110528206D01*
X207033445Y-110531291D01*
X206436663Y-110906274D01*
X206431880Y-110909095D01*
X205815030Y-111250016D01*
X205810097Y-111252565D01*
X205175078Y-111558375D01*
X205170009Y-111560643D01*
X204518851Y-111830361D01*
X204513663Y-111832341D01*
X203848424Y-112065118D01*
X203843133Y-112066805D01*
X203165862Y-112261924D01*
X203160484Y-112263311D01*
X202473342Y-112420146D01*
X202467896Y-112421229D01*
X201773069Y-112539285D01*
X201767570Y-112540062D01*
X201067171Y-112618978D01*
X201061638Y-112619444D01*
X200357959Y-112658962D01*
X200352408Y-112659118D01*
X199647592Y-112659118D01*
X199642041Y-112658962D01*
X198938361Y-112619444D01*
X198932828Y-112618978D01*
X198232429Y-112540062D01*
X198226930Y-112539285D01*
X197532103Y-112421229D01*
X197526657Y-112420146D01*
X196839515Y-112263311D01*
X196834137Y-112261924D01*
X196156866Y-112066805D01*
X196151575Y-112065118D01*
X195486336Y-111832341D01*
X195481148Y-111830361D01*
X194829990Y-111560643D01*
X194824921Y-111558375D01*
X194189902Y-111252565D01*
X194184969Y-111250016D01*
X193568119Y-110909095D01*
X193563336Y-110906274D01*
X192966554Y-110531291D01*
X192961937Y-110528206D01*
X192387116Y-110120349D01*
X192382679Y-110117009D01*
X191831658Y-109677585D01*
X191827415Y-109674003D01*
X191301880Y-109204356D01*
X191297844Y-109200541D01*
X190799458Y-108702155D01*
X190795643Y-108698119D01*
X190325996Y-108172584D01*
X190322414Y-108168341D01*
X189882990Y-107617320D01*
X189879650Y-107612883D01*
X189471793Y-107038062D01*
X189468708Y-107033445D01*
X189381221Y-106894211D01*
X189093723Y-106436660D01*
X189090904Y-106431880D01*
X189072974Y-106399438D01*
X188749976Y-105815017D01*
X188747434Y-105810097D01*
X188735105Y-105784496D01*
X188441617Y-105175064D01*
X188439356Y-105170009D01*
X188425590Y-105136775D01*
X188169633Y-104518839D01*
X188167658Y-104513663D01*
X188164020Y-104503266D01*
X187934874Y-103848403D01*
X187933200Y-103843154D01*
X187738069Y-103165840D01*
X187736688Y-103160484D01*
X187721909Y-103095734D01*
X187579852Y-102473341D01*
X187578770Y-102467896D01*
X187577676Y-102461460D01*
X187460712Y-101773060D01*
X187459937Y-101767570D01*
X187381019Y-101067153D01*
X187380556Y-101061657D01*
X187344246Y-100415086D01*
X187341038Y-100357958D01*
X187340882Y-100352407D01*
X187340882Y-99647592D01*
X187341038Y-99642041D01*
X187380556Y-98938339D01*
X187381019Y-98932849D01*
X187434547Y-98457777D01*
X189470130Y-98457777D01*
X189470130Y-100995178D01*
X189470130Y-101086592D01*
X189493790Y-101174894D01*
X189501748Y-101188677D01*
X189539498Y-101254062D01*
X189571238Y-101285802D01*
X189576066Y-101292602D01*
X189582834Y-101314235D01*
X189593123Y-101334429D01*
X189594335Y-101348766D01*
X189639999Y-105286798D01*
X189640000Y-105286800D01*
X190300501Y-105286800D01*
X190358692Y-105305707D01*
X190394656Y-105355207D01*
X190398850Y-105381691D01*
X190399289Y-105381663D01*
X190399501Y-105384907D01*
X190406027Y-105434486D01*
X190406027Y-105434488D01*
X190456774Y-105543313D01*
X190456775Y-105543314D01*
X190456776Y-105543316D01*
X190541684Y-105628224D01*
X190650513Y-105678972D01*
X190700099Y-105685500D01*
X191059900Y-105685499D01*
X191109487Y-105678972D01*
X191109488Y-105678972D01*
X191168137Y-105651622D01*
X191218316Y-105628224D01*
X191303224Y-105543316D01*
X191353972Y-105434487D01*
X191353973Y-105434474D01*
X191355743Y-105428407D01*
X191390178Y-105377831D01*
X191447763Y-105357154D01*
X191492628Y-105366384D01*
X191516824Y-105377667D01*
X191516825Y-105377667D01*
X191516827Y-105377668D01*
X191565684Y-105384100D01*
X191565685Y-105384100D01*
X191914314Y-105384100D01*
X191914316Y-105384100D01*
X191963173Y-105377668D01*
X192070404Y-105327665D01*
X192082274Y-105315794D01*
X192089389Y-105312169D01*
X192094085Y-105305707D01*
X192116133Y-105298543D01*
X192136789Y-105288019D01*
X192152276Y-105286800D01*
X192347724Y-105286800D01*
X192405915Y-105305707D01*
X192417721Y-105315790D01*
X192429596Y-105327665D01*
X192429597Y-105327665D01*
X192429598Y-105327666D01*
X192536824Y-105377667D01*
X192536825Y-105377667D01*
X192536827Y-105377668D01*
X192585684Y-105384100D01*
X192585685Y-105384100D01*
X192934314Y-105384100D01*
X192934316Y-105384100D01*
X192983173Y-105377668D01*
X193090404Y-105327665D01*
X193131269Y-105286800D01*
X193145000Y-105286800D01*
X193145000Y-105273069D01*
X193174065Y-105244004D01*
X193224068Y-105136773D01*
X193230500Y-105087916D01*
X193230500Y-104639284D01*
X193228859Y-104626823D01*
X193240008Y-104566665D01*
X193284389Y-104524546D01*
X193327012Y-104514901D01*
X193563000Y-104514901D01*
X193621191Y-104533808D01*
X193657155Y-104583308D01*
X193662000Y-104613901D01*
X193662000Y-104750000D01*
X193662001Y-104750000D01*
X194303932Y-104750000D01*
X194362123Y-104768907D01*
X194398087Y-104818407D01*
X194398087Y-104879593D01*
X194393656Y-104890840D01*
X194385228Y-104908912D01*
X194378700Y-104958500D01*
X194378700Y-105378296D01*
X194378701Y-105378307D01*
X194385227Y-105427886D01*
X194385227Y-105427888D01*
X194435974Y-105536713D01*
X194435975Y-105536714D01*
X194435976Y-105536716D01*
X194520884Y-105621624D01*
X194629713Y-105672372D01*
X194679299Y-105678900D01*
X195039100Y-105678899D01*
X195088687Y-105672372D01*
X195088688Y-105672372D01*
X195183362Y-105628224D01*
X195197516Y-105621624D01*
X195282424Y-105536716D01*
X195333172Y-105427887D01*
X195339700Y-105378301D01*
X195339699Y-105012058D01*
X195343073Y-104986433D01*
X195344500Y-104981108D01*
X195344500Y-104613901D01*
X195363407Y-104555710D01*
X195412907Y-104519746D01*
X195443500Y-104514901D01*
X195956347Y-104514901D01*
X195956348Y-104514901D01*
X196014831Y-104503268D01*
X196081152Y-104458953D01*
X196125467Y-104392632D01*
X196137100Y-104334149D01*
X196137100Y-103735853D01*
X196134745Y-103724016D01*
X196133886Y-103719693D01*
X196125467Y-103677370D01*
X196083792Y-103615001D01*
X196067184Y-103556114D01*
X196083791Y-103505001D01*
X196125467Y-103442631D01*
X196137100Y-103384148D01*
X196137100Y-102785852D01*
X196137099Y-102785850D01*
X196137099Y-102785844D01*
X196132717Y-102763816D01*
X196139907Y-102703054D01*
X196181439Y-102658124D01*
X196229814Y-102645500D01*
X196539314Y-102645500D01*
X196539316Y-102645500D01*
X196588173Y-102639068D01*
X196695404Y-102589065D01*
X196779065Y-102505404D01*
X196779065Y-102505402D01*
X196779475Y-102504993D01*
X196828466Y-102478253D01*
X196838853Y-102475997D01*
X196842043Y-102475997D01*
X196842044Y-102475303D01*
X196871283Y-102468953D01*
X196874261Y-102469252D01*
X196876930Y-102467897D01*
X196904440Y-102472288D01*
X196932161Y-102475078D01*
X196934394Y-102477071D01*
X196937350Y-102477543D01*
X196963653Y-102500436D01*
X196964811Y-102499279D01*
X196970934Y-102505402D01*
X196970935Y-102505404D01*
X197054596Y-102589065D01*
X197060337Y-102591742D01*
X197078497Y-102608675D01*
X197098593Y-102623276D01*
X197100521Y-102629212D01*
X197105086Y-102633468D01*
X197117500Y-102681467D01*
X197117500Y-102700604D01*
X197098593Y-102758795D01*
X197060341Y-102790328D01*
X197037598Y-102800933D01*
X196953933Y-102884598D01*
X196903932Y-102991824D01*
X196903932Y-102991825D01*
X196897500Y-103040685D01*
X196897500Y-103389314D01*
X196903932Y-103438174D01*
X196903932Y-103438175D01*
X196953933Y-103545401D01*
X196953934Y-103545402D01*
X196953935Y-103545404D01*
X197037596Y-103629065D01*
X197037597Y-103629065D01*
X197037598Y-103629066D01*
X197050915Y-103635276D01*
X197095663Y-103677005D01*
X197107337Y-103737066D01*
X197081478Y-103792518D01*
X197050915Y-103814724D01*
X197037598Y-103820933D01*
X196953933Y-103904598D01*
X196903932Y-104011824D01*
X196903932Y-104011825D01*
X196897500Y-104060685D01*
X196897500Y-104409314D01*
X196903932Y-104458174D01*
X196903932Y-104458175D01*
X196953933Y-104565401D01*
X196953934Y-104565402D01*
X196953935Y-104565404D01*
X197037596Y-104649065D01*
X197064400Y-104661564D01*
X197077222Y-104673520D01*
X197092815Y-104681536D01*
X197099043Y-104693868D01*
X197109148Y-104703291D01*
X197112493Y-104720501D01*
X197120397Y-104736151D01*
X197118186Y-104749789D01*
X197120823Y-104763352D01*
X197113413Y-104779241D01*
X197110609Y-104796549D01*
X197101746Y-104804264D01*
X197094966Y-104818805D01*
X197067190Y-104839658D01*
X197061385Y-104842589D01*
X196980525Y-104870884D01*
X196926699Y-104910608D01*
X196919252Y-104914370D01*
X196896858Y-104917834D01*
X196875363Y-104924997D01*
X196874623Y-104925000D01*
X196450000Y-104925000D01*
X196450000Y-107975000D01*
X196450001Y-107975000D01*
X198349999Y-107975000D01*
X198350000Y-107975000D01*
X198350000Y-104925000D01*
X198349999Y-104925000D01*
X197975377Y-104925000D01*
X197928866Y-104913394D01*
X197922441Y-104909974D01*
X197869475Y-104870884D01*
X197809665Y-104849955D01*
X197802989Y-104846402D01*
X197786739Y-104829561D01*
X197768121Y-104815386D01*
X197765754Y-104807815D01*
X197760503Y-104802373D01*
X197757616Y-104781777D01*
X197750500Y-104759008D01*
X197750500Y-104734143D01*
X197769407Y-104675952D01*
X197792719Y-104653045D01*
X197798399Y-104649067D01*
X197798404Y-104649065D01*
X197882065Y-104565404D01*
X197932068Y-104458173D01*
X197938500Y-104409316D01*
X197938500Y-104060684D01*
X197932068Y-104011827D01*
X197882065Y-103904596D01*
X197798404Y-103820935D01*
X197785085Y-103814724D01*
X197740337Y-103772997D01*
X197728662Y-103712936D01*
X197754519Y-103657483D01*
X197785084Y-103635275D01*
X197798404Y-103629065D01*
X197882065Y-103545404D01*
X197932068Y-103438173D01*
X197938500Y-103389316D01*
X197938500Y-103040684D01*
X197932068Y-102991827D01*
X197882065Y-102884596D01*
X197798404Y-102800935D01*
X197798402Y-102800934D01*
X197798401Y-102800933D01*
X197775659Y-102790328D01*
X197757500Y-102773393D01*
X197737407Y-102758795D01*
X197735477Y-102752855D01*
X197730912Y-102748598D01*
X197718500Y-102700604D01*
X197718500Y-102626976D01*
X197737407Y-102568785D01*
X197747490Y-102556978D01*
X197799065Y-102505404D01*
X197812277Y-102477071D01*
X197819557Y-102461460D01*
X197861286Y-102416712D01*
X197909281Y-102404300D01*
X198117204Y-102404300D01*
X198175395Y-102423207D01*
X198199518Y-102448297D01*
X198240448Y-102509552D01*
X198306769Y-102553867D01*
X198343117Y-102561097D01*
X198365241Y-102565498D01*
X198365246Y-102565498D01*
X198365252Y-102565500D01*
X198365253Y-102565500D01*
X199454747Y-102565500D01*
X199454748Y-102565500D01*
X199472824Y-102561904D01*
X199505861Y-102565813D01*
X199510657Y-102561097D01*
X199513148Y-102556209D01*
X199518296Y-102553585D01*
X199528145Y-102543900D01*
X199579552Y-102509552D01*
X199623867Y-102443231D01*
X199635500Y-102384748D01*
X199635500Y-102335234D01*
X199654407Y-102277043D01*
X199703907Y-102241079D01*
X199733717Y-102236237D01*
X199783424Y-102235846D01*
X199811659Y-102244775D01*
X199840084Y-102253122D01*
X199840739Y-102253971D01*
X199841762Y-102254295D01*
X199859354Y-102278112D01*
X199877446Y-102301575D01*
X199877476Y-102302648D01*
X199878114Y-102303511D01*
X199879193Y-102362735D01*
X199858902Y-102431837D01*
X199858899Y-102431848D01*
X199844500Y-102532000D01*
X199844500Y-102600500D01*
X199825593Y-102658691D01*
X199776093Y-102694655D01*
X199760987Y-102698281D01*
X199753290Y-102699500D01*
X199695734Y-102699500D01*
X199665301Y-102702354D01*
X199607442Y-102722599D01*
X199598638Y-102723994D01*
X199576793Y-102720533D01*
X199567354Y-102720745D01*
X199564841Y-102726198D01*
X199538408Y-102746524D01*
X199537119Y-102747204D01*
X199427855Y-102827845D01*
X199427845Y-102827855D01*
X199347207Y-102937116D01*
X199302355Y-103065296D01*
X199302353Y-103065305D01*
X199299500Y-103095725D01*
X199299500Y-103854274D01*
X199302353Y-103884694D01*
X199302355Y-103884703D01*
X199347207Y-104012883D01*
X199427845Y-104122144D01*
X199427847Y-104122146D01*
X199427850Y-104122150D01*
X199427853Y-104122152D01*
X199427855Y-104122154D01*
X199537116Y-104202792D01*
X199537117Y-104202792D01*
X199537118Y-104202793D01*
X199665301Y-104247646D01*
X199695725Y-104250499D01*
X199695727Y-104250500D01*
X199695734Y-104250500D01*
X199745500Y-104250500D01*
X199803691Y-104269407D01*
X199839655Y-104318907D01*
X199844500Y-104349500D01*
X199844500Y-105276000D01*
X199846924Y-105298543D01*
X199852625Y-105351571D01*
X199863830Y-105403080D01*
X199873503Y-105434487D01*
X199881503Y-105460464D01*
X199928111Y-105536713D01*
X199942538Y-105560315D01*
X199988294Y-105613121D01*
X200051471Y-105670408D01*
X200051472Y-105670409D01*
X200051473Y-105670409D01*
X200051475Y-105670411D01*
X200156802Y-105721414D01*
X200156805Y-105721415D01*
X200156808Y-105721416D01*
X200194731Y-105732551D01*
X200223841Y-105741099D01*
X200324000Y-105755500D01*
X204735998Y-105755500D01*
X204794189Y-105774407D01*
X204806002Y-105784496D01*
X205208337Y-106186831D01*
X205236114Y-106241348D01*
X205226543Y-106301780D01*
X205208342Y-106326833D01*
X205207554Y-106327620D01*
X205207550Y-106327626D01*
X205156583Y-106431880D01*
X205154709Y-106435714D01*
X205152989Y-106447523D01*
X205144500Y-106505788D01*
X205144500Y-106894209D01*
X205144501Y-106894212D01*
X205154709Y-106964287D01*
X205188519Y-107033445D01*
X205207551Y-107072375D01*
X205292625Y-107157449D01*
X205400714Y-107210291D01*
X205470785Y-107220500D01*
X205934214Y-107220499D01*
X206004286Y-107210291D01*
X206112375Y-107157449D01*
X206197449Y-107072375D01*
X206211058Y-107044536D01*
X206253599Y-107000563D01*
X206313865Y-106989992D01*
X206368834Y-107016863D01*
X206388939Y-107044534D01*
X206402548Y-107072371D01*
X206402550Y-107072373D01*
X206402551Y-107072375D01*
X206487625Y-107157449D01*
X206595714Y-107210291D01*
X206665785Y-107220500D01*
X207129214Y-107220499D01*
X207199286Y-107210291D01*
X207307375Y-107157449D01*
X207392449Y-107072375D01*
X207445291Y-106964286D01*
X207455500Y-106894215D01*
X207455499Y-106505786D01*
X207445291Y-106435714D01*
X207392449Y-106327625D01*
X207307375Y-106242551D01*
X207302700Y-106240265D01*
X207258729Y-106197721D01*
X207247185Y-106151327D01*
X207247185Y-103639393D01*
X207266092Y-103581202D01*
X207308298Y-103547929D01*
X207397598Y-103510941D01*
X207569655Y-103395977D01*
X207715977Y-103249655D01*
X207830941Y-103077598D01*
X207910130Y-102886420D01*
X207950500Y-102683465D01*
X207950500Y-102476535D01*
X207910130Y-102273580D01*
X207830941Y-102082402D01*
X207715977Y-101910345D01*
X207569655Y-101764023D01*
X207569651Y-101764020D01*
X207397597Y-101649058D01*
X207206418Y-101569869D01*
X207003467Y-101529500D01*
X207003465Y-101529500D01*
X206796535Y-101529500D01*
X206796532Y-101529500D01*
X206593581Y-101569869D01*
X206402402Y-101649058D01*
X206230348Y-101764020D01*
X206084020Y-101910348D01*
X205969058Y-102082402D01*
X205889869Y-102273581D01*
X205849500Y-102476532D01*
X205849500Y-102683467D01*
X205889869Y-102886418D01*
X205969058Y-103077597D01*
X206084020Y-103249651D01*
X206084023Y-103249655D01*
X206230345Y-103395977D01*
X206402402Y-103510941D01*
X206491700Y-103547929D01*
X206538226Y-103587665D01*
X206552815Y-103639393D01*
X206552815Y-106148882D01*
X206533908Y-106207073D01*
X206497296Y-106237822D01*
X206487630Y-106242547D01*
X206487626Y-106242550D01*
X206487625Y-106242551D01*
X206402551Y-106327625D01*
X206402550Y-106327626D01*
X206402547Y-106327630D01*
X206388940Y-106355464D01*
X206380797Y-106363880D01*
X206376530Y-106374785D01*
X206360025Y-106385350D01*
X206346397Y-106399438D01*
X206334860Y-106401461D01*
X206325000Y-106407774D01*
X206305436Y-106406621D01*
X206286131Y-106410007D01*
X206275610Y-106404863D01*
X206263921Y-106404175D01*
X206252302Y-106393468D01*
X206231163Y-106383134D01*
X206216622Y-106365361D01*
X206213555Y-106360571D01*
X206197449Y-106327625D01*
X206183593Y-106313769D01*
X206177807Y-106304731D01*
X206172657Y-106285000D01*
X206163403Y-106266836D01*
X206163118Y-106263214D01*
X206163032Y-106263226D01*
X206162185Y-106256794D01*
X206162185Y-106256792D01*
X206138525Y-106168492D01*
X206138525Y-106168491D01*
X206121172Y-106138435D01*
X206092820Y-106089327D01*
X206092818Y-106089325D01*
X206092817Y-106089323D01*
X205334495Y-105331002D01*
X205306719Y-105276486D01*
X205305500Y-105260999D01*
X205305500Y-102532003D01*
X205305500Y-102532000D01*
X205297375Y-102456430D01*
X205286169Y-102404919D01*
X205268497Y-102347536D01*
X205207463Y-102247686D01*
X205161708Y-102194882D01*
X205161705Y-102194878D01*
X205098528Y-102137591D01*
X205098527Y-102137590D01*
X204993201Y-102086587D01*
X204993191Y-102086583D01*
X204926171Y-102066904D01*
X204926151Y-102066899D01*
X204840492Y-102054583D01*
X204826000Y-102052500D01*
X204825999Y-102052500D01*
X201934500Y-102052500D01*
X201876309Y-102033593D01*
X201840345Y-101984093D01*
X201835500Y-101953500D01*
X201835500Y-99936532D01*
X205849500Y-99936532D01*
X205849500Y-100143467D01*
X205889869Y-100346418D01*
X205969058Y-100537597D01*
X206084020Y-100709651D01*
X206084023Y-100709655D01*
X206230345Y-100855977D01*
X206402402Y-100970941D01*
X206593580Y-101050130D01*
X206796535Y-101090500D01*
X206796536Y-101090500D01*
X207003464Y-101090500D01*
X207003465Y-101090500D01*
X207206420Y-101050130D01*
X207397598Y-100970941D01*
X207569655Y-100855977D01*
X207715977Y-100709655D01*
X207830941Y-100537598D01*
X207910130Y-100346420D01*
X207950500Y-100143465D01*
X207950500Y-99936535D01*
X207950499Y-99936532D01*
X208389500Y-99936532D01*
X208389500Y-100143467D01*
X208429869Y-100346418D01*
X208509058Y-100537597D01*
X208624020Y-100709651D01*
X208624023Y-100709655D01*
X208770345Y-100855977D01*
X208942402Y-100970941D01*
X209133580Y-101050130D01*
X209336535Y-101090500D01*
X209336536Y-101090500D01*
X209543464Y-101090500D01*
X209543465Y-101090500D01*
X209746420Y-101050130D01*
X209937598Y-100970941D01*
X210109655Y-100855977D01*
X210255977Y-100709655D01*
X210370941Y-100537598D01*
X210450130Y-100346420D01*
X210490500Y-100143465D01*
X210490500Y-99936535D01*
X210450130Y-99733580D01*
X210370941Y-99542402D01*
X210255977Y-99370345D01*
X210109655Y-99224023D01*
X210024125Y-99166874D01*
X209937597Y-99109058D01*
X209746418Y-99029869D01*
X209543467Y-98989500D01*
X209543465Y-98989500D01*
X209336535Y-98989500D01*
X209336532Y-98989500D01*
X209133581Y-99029869D01*
X208942402Y-99109058D01*
X208770348Y-99224020D01*
X208624020Y-99370348D01*
X208509058Y-99542402D01*
X208429869Y-99733581D01*
X208389500Y-99936532D01*
X207950499Y-99936532D01*
X207910130Y-99733580D01*
X207830941Y-99542402D01*
X207715977Y-99370345D01*
X207569655Y-99224023D01*
X207484125Y-99166874D01*
X207397597Y-99109058D01*
X207206418Y-99029869D01*
X207003467Y-98989500D01*
X207003465Y-98989500D01*
X206796535Y-98989500D01*
X206796532Y-98989500D01*
X206593581Y-99029869D01*
X206402402Y-99109058D01*
X206230348Y-99224020D01*
X206084020Y-99370348D01*
X205969058Y-99542402D01*
X205889869Y-99733581D01*
X205849500Y-99936532D01*
X201835500Y-99936532D01*
X201835500Y-98095253D01*
X201835498Y-98095241D01*
X201831608Y-98075684D01*
X201823867Y-98036769D01*
X201779552Y-97970448D01*
X201779548Y-97970445D01*
X201713233Y-97926134D01*
X201713231Y-97926133D01*
X201713228Y-97926132D01*
X201713227Y-97926132D01*
X201654758Y-97914501D01*
X201654748Y-97914500D01*
X200565252Y-97914500D01*
X200565251Y-97914500D01*
X200565241Y-97914501D01*
X200506772Y-97926132D01*
X200506766Y-97926134D01*
X200440451Y-97970445D01*
X200439893Y-97971004D01*
X200438726Y-97971598D01*
X200432341Y-97975865D01*
X200431835Y-97975109D01*
X200385376Y-97998781D01*
X200369889Y-98000000D01*
X199650111Y-98000000D01*
X199591920Y-97981093D01*
X199580107Y-97971004D01*
X199579554Y-97970451D01*
X199579552Y-97970448D01*
X199579548Y-97970445D01*
X199513233Y-97926134D01*
X199513231Y-97926133D01*
X199513228Y-97926132D01*
X199513227Y-97926132D01*
X199454758Y-97914501D01*
X199454748Y-97914500D01*
X198365252Y-97914500D01*
X198365251Y-97914500D01*
X198365241Y-97914501D01*
X198306772Y-97926132D01*
X198306766Y-97926134D01*
X198240451Y-97970445D01*
X198239893Y-97971004D01*
X198238726Y-97971598D01*
X198232341Y-97975865D01*
X198231835Y-97975109D01*
X198185376Y-97998781D01*
X198169889Y-98000000D01*
X197986000Y-98000000D01*
X197986000Y-98000001D01*
X197986000Y-101698919D01*
X197967093Y-101757110D01*
X197917593Y-101793074D01*
X197856407Y-101793074D01*
X197806907Y-101757110D01*
X197802030Y-101748831D01*
X197799067Y-101744599D01*
X197799065Y-101744597D01*
X197799065Y-101744596D01*
X197715404Y-101660935D01*
X197715402Y-101660934D01*
X197715401Y-101660933D01*
X197608175Y-101610932D01*
X197575601Y-101606644D01*
X197559316Y-101604500D01*
X197210684Y-101604500D01*
X197194398Y-101606644D01*
X197161825Y-101610932D01*
X197161824Y-101610932D01*
X197054598Y-101660933D01*
X197054595Y-101660935D01*
X196981372Y-101734158D01*
X196926855Y-101761935D01*
X196885924Y-101759828D01*
X196843968Y-101748669D01*
X196844000Y-101736800D01*
X196799338Y-101736800D01*
X196786832Y-101733474D01*
X196771478Y-101723544D01*
X196754086Y-101717893D01*
X196742274Y-101707804D01*
X196695404Y-101660935D01*
X196695401Y-101660933D01*
X196588175Y-101610932D01*
X196555601Y-101606644D01*
X196539316Y-101604500D01*
X196190684Y-101604500D01*
X196141827Y-101610932D01*
X196057502Y-101650254D01*
X196049342Y-101654059D01*
X195988613Y-101661515D01*
X195988190Y-101661432D01*
X195956353Y-101655099D01*
X195956348Y-101655099D01*
X194443652Y-101655099D01*
X194443651Y-101655099D01*
X194443641Y-101655100D01*
X194385172Y-101666731D01*
X194385166Y-101666733D01*
X194310741Y-101716464D01*
X194309307Y-101714318D01*
X194267575Y-101735581D01*
X194252088Y-101736800D01*
X193912712Y-101736800D01*
X193854521Y-101717893D01*
X193848493Y-101712745D01*
X193845947Y-101711044D01*
X193788003Y-101672326D01*
X193779633Y-101666733D01*
X193779631Y-101666732D01*
X193779628Y-101666731D01*
X193779627Y-101666731D01*
X193721158Y-101655100D01*
X193721148Y-101655099D01*
X193721147Y-101655099D01*
X193449500Y-101655099D01*
X193391309Y-101636192D01*
X193355345Y-101586692D01*
X193350500Y-101556099D01*
X193350500Y-101304911D01*
X193369407Y-101246720D01*
X193407660Y-101215186D01*
X193433316Y-101203224D01*
X193518224Y-101118316D01*
X193568972Y-101009487D01*
X193575500Y-100959901D01*
X193575499Y-100540100D01*
X193568972Y-100490513D01*
X193568972Y-100490511D01*
X193518225Y-100381686D01*
X193518224Y-100381685D01*
X193518224Y-100381684D01*
X193449494Y-100312954D01*
X193421719Y-100258440D01*
X193420500Y-100242953D01*
X193420500Y-99872847D01*
X193421719Y-99857358D01*
X193425500Y-99833488D01*
X193425500Y-99266510D01*
X193421719Y-99242639D01*
X193420500Y-99227151D01*
X193420500Y-98829976D01*
X193439407Y-98771785D01*
X193449490Y-98759978D01*
X193529065Y-98680404D01*
X193579068Y-98573173D01*
X193585500Y-98524316D01*
X193585500Y-98075684D01*
X193579068Y-98026827D01*
X193566558Y-98000000D01*
X193529066Y-97919598D01*
X193529065Y-97919597D01*
X193529065Y-97919596D01*
X193449494Y-97840025D01*
X193445869Y-97832910D01*
X193439407Y-97828215D01*
X193432243Y-97806166D01*
X193421719Y-97785511D01*
X193420500Y-97770024D01*
X193420500Y-97679976D01*
X193439407Y-97621785D01*
X193449490Y-97609978D01*
X193529065Y-97530404D01*
X193535275Y-97517085D01*
X193577003Y-97472337D01*
X193637064Y-97460662D01*
X193692517Y-97486519D01*
X193714724Y-97517084D01*
X193720935Y-97530404D01*
X193804596Y-97614065D01*
X193804597Y-97614065D01*
X193804598Y-97614066D01*
X193911824Y-97664067D01*
X193911825Y-97664067D01*
X193911827Y-97664068D01*
X193960684Y-97670500D01*
X193960685Y-97670500D01*
X194309314Y-97670500D01*
X194309316Y-97670500D01*
X194358173Y-97664068D01*
X194465404Y-97614065D01*
X194549065Y-97530404D01*
X194549066Y-97530400D01*
X194549068Y-97530399D01*
X194554035Y-97523307D01*
X194555386Y-97524253D01*
X194590210Y-97486912D01*
X194638204Y-97474500D01*
X196203815Y-97474500D01*
X196215301Y-97478232D01*
X196227346Y-97477337D01*
X196243706Y-97487461D01*
X196262006Y-97493407D01*
X196269105Y-97503179D01*
X196279375Y-97509534D01*
X196285126Y-97525229D01*
X196297970Y-97542907D01*
X196302543Y-97566163D01*
X196302815Y-97569823D01*
X196302815Y-97657707D01*
X196311852Y-97691436D01*
X196312543Y-97700725D01*
X196312091Y-97702568D01*
X196312815Y-97708062D01*
X196312815Y-97914637D01*
X196293908Y-97972828D01*
X196283819Y-97984640D01*
X196236776Y-98031683D01*
X196236774Y-98031686D01*
X196186029Y-98140510D01*
X196186028Y-98140511D01*
X196179500Y-98190100D01*
X196179500Y-98609896D01*
X196179501Y-98609907D01*
X196186027Y-98659486D01*
X196186027Y-98659488D01*
X196236774Y-98768313D01*
X196236775Y-98768314D01*
X196236776Y-98768316D01*
X196321684Y-98853224D01*
X196430513Y-98903972D01*
X196480099Y-98910500D01*
X196839900Y-98910499D01*
X196889487Y-98903972D01*
X196889488Y-98903972D01*
X196952690Y-98874500D01*
X196998316Y-98853224D01*
X197083224Y-98768316D01*
X197133972Y-98659487D01*
X197140500Y-98609901D01*
X197140499Y-98190100D01*
X197133972Y-98140513D01*
X197133972Y-98140511D01*
X197083225Y-98031686D01*
X197083223Y-98031683D01*
X197036181Y-97984640D01*
X197008404Y-97930123D01*
X197007185Y-97914637D01*
X197007185Y-97576293D01*
X197007184Y-97576289D01*
X197000558Y-97551557D01*
X196997185Y-97525936D01*
X196997185Y-97401184D01*
X197010448Y-97351685D01*
X197046503Y-97289237D01*
X197075500Y-97181018D01*
X197075500Y-97068982D01*
X197046503Y-96960763D01*
X197046501Y-96960760D01*
X197046501Y-96960758D01*
X196990486Y-96863739D01*
X196990485Y-96863737D01*
X196911263Y-96784515D01*
X196903668Y-96780130D01*
X196814240Y-96728498D01*
X196814242Y-96728498D01*
X196801934Y-96725200D01*
X196706018Y-96699500D01*
X196593982Y-96699500D01*
X196527748Y-96717247D01*
X196485758Y-96728498D01*
X196423315Y-96764551D01*
X196373815Y-96777815D01*
X196133922Y-96777815D01*
X196133921Y-96777815D01*
X196127490Y-96778662D01*
X196127420Y-96778133D01*
X196112249Y-96780130D01*
X194600606Y-96780130D01*
X194542415Y-96761223D01*
X194530608Y-96751139D01*
X194465404Y-96685935D01*
X194465402Y-96685934D01*
X194465401Y-96685933D01*
X194358175Y-96635932D01*
X194325601Y-96631644D01*
X194315035Y-96630253D01*
X205849500Y-96630253D01*
X205849500Y-98369746D01*
X205849501Y-98369758D01*
X205861132Y-98428227D01*
X205861134Y-98428233D01*
X205869131Y-98440201D01*
X205905448Y-98494552D01*
X205971769Y-98538867D01*
X206016231Y-98547711D01*
X206030241Y-98550498D01*
X206030246Y-98550498D01*
X206030252Y-98550500D01*
X206030253Y-98550500D01*
X207769747Y-98550500D01*
X207769748Y-98550500D01*
X207828231Y-98538867D01*
X207894552Y-98494552D01*
X207938867Y-98428231D01*
X207950500Y-98369748D01*
X207950500Y-97396532D01*
X208389500Y-97396532D01*
X208389500Y-97603467D01*
X208429869Y-97806418D01*
X208509058Y-97997597D01*
X208604551Y-98140513D01*
X208624023Y-98169655D01*
X208770345Y-98315977D01*
X208942402Y-98430941D01*
X209133580Y-98510130D01*
X209336535Y-98550500D01*
X209336536Y-98550500D01*
X209543464Y-98550500D01*
X209543465Y-98550500D01*
X209746420Y-98510130D01*
X209937598Y-98430941D01*
X210109655Y-98315977D01*
X210255977Y-98169655D01*
X210370941Y-97997598D01*
X210450130Y-97806420D01*
X210490500Y-97603465D01*
X210490500Y-97396535D01*
X210450130Y-97193580D01*
X210370941Y-97002402D01*
X210255977Y-96830345D01*
X210109655Y-96684023D01*
X210109651Y-96684020D01*
X209937597Y-96569058D01*
X209746418Y-96489869D01*
X209543467Y-96449500D01*
X209543465Y-96449500D01*
X209336535Y-96449500D01*
X209336532Y-96449500D01*
X209133581Y-96489869D01*
X208942402Y-96569058D01*
X208770348Y-96684020D01*
X208624020Y-96830348D01*
X208509058Y-97002402D01*
X208429869Y-97193581D01*
X208389500Y-97396532D01*
X207950500Y-97396532D01*
X207950500Y-96630252D01*
X207950350Y-96629500D01*
X207947711Y-96616231D01*
X207938867Y-96571769D01*
X207894552Y-96505448D01*
X207894548Y-96505445D01*
X207828233Y-96461134D01*
X207828231Y-96461133D01*
X207828228Y-96461132D01*
X207828227Y-96461132D01*
X207769758Y-96449501D01*
X207769748Y-96449500D01*
X206030252Y-96449500D01*
X206030251Y-96449500D01*
X206030241Y-96449501D01*
X205971772Y-96461132D01*
X205971766Y-96461134D01*
X205905451Y-96505445D01*
X205905445Y-96505451D01*
X205861134Y-96571766D01*
X205861132Y-96571772D01*
X205849501Y-96630241D01*
X205849500Y-96630253D01*
X194315035Y-96630253D01*
X194309316Y-96629500D01*
X193960684Y-96629500D01*
X193944398Y-96631644D01*
X193911825Y-96635932D01*
X193911824Y-96635932D01*
X193804598Y-96685933D01*
X193720933Y-96769598D01*
X193714724Y-96782915D01*
X193672995Y-96827663D01*
X193612934Y-96839337D01*
X193557482Y-96813478D01*
X193535276Y-96782915D01*
X193529066Y-96769598D01*
X193529065Y-96769597D01*
X193529065Y-96769596D01*
X193445404Y-96685935D01*
X193445402Y-96685934D01*
X193445401Y-96685933D01*
X193338175Y-96635932D01*
X193305601Y-96631644D01*
X193289316Y-96629500D01*
X192940684Y-96629500D01*
X192924398Y-96631644D01*
X192891825Y-96635932D01*
X192891824Y-96635932D01*
X192784598Y-96685933D01*
X192700933Y-96769598D01*
X192650932Y-96876824D01*
X192650932Y-96876825D01*
X192644500Y-96925685D01*
X192644500Y-97374314D01*
X192650932Y-97423174D01*
X192650932Y-97423175D01*
X192700933Y-97530401D01*
X192700934Y-97530402D01*
X192700935Y-97530404D01*
X192740505Y-97569974D01*
X192744130Y-97577089D01*
X192750593Y-97581785D01*
X192757756Y-97603833D01*
X192768281Y-97624489D01*
X192769500Y-97639976D01*
X192769500Y-97810023D01*
X192750593Y-97868214D01*
X192740504Y-97880026D01*
X192700935Y-97919595D01*
X192700933Y-97919598D01*
X192650932Y-98026824D01*
X192650932Y-98026825D01*
X192649623Y-98036769D01*
X192644500Y-98075684D01*
X192644500Y-98524316D01*
X192646416Y-98538867D01*
X192650932Y-98573174D01*
X192650932Y-98573175D01*
X192700933Y-98680401D01*
X192700934Y-98680402D01*
X192700935Y-98680404D01*
X192726029Y-98705498D01*
X192753805Y-98760013D01*
X192744234Y-98820445D01*
X192700969Y-98863710D01*
X192656024Y-98874500D01*
X192516510Y-98874500D01*
X192416874Y-98890281D01*
X192416867Y-98890283D01*
X192296782Y-98951470D01*
X192201470Y-99046782D01*
X192140283Y-99166867D01*
X192140281Y-99166874D01*
X192124500Y-99266510D01*
X192124500Y-99833489D01*
X192140281Y-99933125D01*
X192140283Y-99933132D01*
X192201470Y-100053217D01*
X192201472Y-100053220D01*
X192296780Y-100148528D01*
X192296782Y-100148529D01*
X192416867Y-100209716D01*
X192416869Y-100209716D01*
X192416874Y-100209719D01*
X192492541Y-100221703D01*
X192516510Y-100225500D01*
X192516512Y-100225500D01*
X192590960Y-100225500D01*
X192649151Y-100244407D01*
X192685115Y-100293907D01*
X192685115Y-100355093D01*
X192672056Y-100381284D01*
X192671774Y-100381685D01*
X192621029Y-100490510D01*
X192621028Y-100490511D01*
X192621028Y-100490513D01*
X192614830Y-100537597D01*
X192614500Y-100540100D01*
X192614500Y-100959896D01*
X192614501Y-100959907D01*
X192621027Y-101009486D01*
X192621027Y-101009488D01*
X192671774Y-101118313D01*
X192676744Y-101125411D01*
X192675287Y-101126431D01*
X192698281Y-101171560D01*
X192699500Y-101187047D01*
X192699500Y-101556099D01*
X192680593Y-101614290D01*
X192631093Y-101650254D01*
X192600500Y-101655099D01*
X192208452Y-101655099D01*
X192208451Y-101655099D01*
X192208441Y-101655100D01*
X192149972Y-101666731D01*
X192149966Y-101666733D01*
X192083651Y-101711044D01*
X192083645Y-101711050D01*
X192039334Y-101777365D01*
X192039332Y-101777371D01*
X192027701Y-101835840D01*
X192027700Y-101835852D01*
X192027700Y-102434150D01*
X192031316Y-102452327D01*
X192024124Y-102513088D01*
X191982591Y-102558018D01*
X191922582Y-102569955D01*
X191892380Y-102561366D01*
X191859487Y-102546028D01*
X191859488Y-102546028D01*
X191842958Y-102543852D01*
X191809901Y-102539500D01*
X191809899Y-102539500D01*
X191390103Y-102539500D01*
X191390092Y-102539501D01*
X191340515Y-102546027D01*
X191266339Y-102580616D01*
X191205610Y-102588072D01*
X191152096Y-102558409D01*
X191126238Y-102502956D01*
X191125500Y-102490891D01*
X191125500Y-102385751D01*
X191119447Y-102347536D01*
X191109951Y-102287580D01*
X191049658Y-102169249D01*
X191049656Y-102169247D01*
X190993724Y-102113314D01*
X190990505Y-102106996D01*
X190984695Y-102102933D01*
X190976857Y-102080210D01*
X190965947Y-102058797D01*
X190964744Y-102045092D01*
X190963647Y-101984093D01*
X190962902Y-101942707D01*
X190972163Y-101899087D01*
X190978972Y-101884487D01*
X190985500Y-101834901D01*
X190985499Y-101475100D01*
X190978972Y-101425513D01*
X190978971Y-101425510D01*
X190961466Y-101387971D01*
X190952206Y-101347911D01*
X190951600Y-101314235D01*
X190945200Y-100958300D01*
X190945199Y-100958300D01*
X190276090Y-100966446D01*
X190267884Y-100963889D01*
X190259398Y-100965234D01*
X190239255Y-100954971D01*
X190217674Y-100948248D01*
X190204881Y-100937457D01*
X190193496Y-100926072D01*
X190165719Y-100871555D01*
X190164500Y-100856068D01*
X190164500Y-98688301D01*
X190183407Y-98630110D01*
X190193496Y-98618297D01*
X196285613Y-92526181D01*
X196340130Y-92498404D01*
X196355617Y-92497185D01*
X198677424Y-92497185D01*
X198735615Y-92516092D01*
X198771577Y-92565589D01*
X198789979Y-92622226D01*
X198801243Y-92656892D01*
X198801245Y-92656896D01*
X198895607Y-92842093D01*
X199017779Y-93010248D01*
X199164752Y-93157221D01*
X199332907Y-93279393D01*
X199518104Y-93373755D01*
X199518106Y-93373755D01*
X199518107Y-93373756D01*
X199518110Y-93373758D01*
X199715776Y-93437984D01*
X199715780Y-93437985D01*
X199921071Y-93470500D01*
X199921074Y-93470500D01*
X200128929Y-93470500D01*
X200334219Y-93437985D01*
X200334223Y-93437984D01*
X200531889Y-93373758D01*
X200531891Y-93373756D01*
X200531896Y-93373755D01*
X200717093Y-93279393D01*
X200885248Y-93157221D01*
X201032221Y-93010248D01*
X201154393Y-92842093D01*
X201248755Y-92656896D01*
X201248756Y-92656891D01*
X201248758Y-92656889D01*
X201312984Y-92459223D01*
X201312985Y-92459219D01*
X201345500Y-92253929D01*
X201345500Y-92046070D01*
X201312985Y-91840780D01*
X201312984Y-91840776D01*
X201248758Y-91643110D01*
X201248756Y-91643107D01*
X201248755Y-91643105D01*
X201248755Y-91643104D01*
X201154393Y-91457907D01*
X201032221Y-91289752D01*
X200885248Y-91142779D01*
X200717093Y-91020607D01*
X200717092Y-91020606D01*
X200717090Y-91020605D01*
X200531892Y-90926243D01*
X200531889Y-90926241D01*
X200334223Y-90862015D01*
X200334219Y-90862014D01*
X200128929Y-90829500D01*
X200128926Y-90829500D01*
X199921074Y-90829500D01*
X199921071Y-90829500D01*
X199715780Y-90862014D01*
X199715776Y-90862015D01*
X199518110Y-90926241D01*
X199518107Y-90926243D01*
X199332909Y-91020605D01*
X199164753Y-91142778D01*
X199017778Y-91289753D01*
X198895605Y-91457909D01*
X198801244Y-91643105D01*
X198785185Y-91692528D01*
X198771577Y-91734408D01*
X198735615Y-91783907D01*
X198677424Y-91802815D01*
X196125092Y-91802815D01*
X196106631Y-91807761D01*
X196088170Y-91812708D01*
X196088169Y-91812707D01*
X196036792Y-91826474D01*
X196036788Y-91826476D01*
X195957626Y-91872180D01*
X195957624Y-91872182D01*
X189604140Y-98225666D01*
X189604138Y-98225668D01*
X189604137Y-98225667D01*
X189539497Y-98290308D01*
X189524677Y-98315976D01*
X189524678Y-98315977D01*
X189493789Y-98369476D01*
X189493790Y-98369477D01*
X189470130Y-98457777D01*
X187434547Y-98457777D01*
X187453416Y-98290308D01*
X187459938Y-98232428D01*
X187460714Y-98226930D01*
X187460864Y-98226048D01*
X187578772Y-97532087D01*
X187579853Y-97526657D01*
X187588799Y-97487461D01*
X187736693Y-96839491D01*
X187738067Y-96834167D01*
X187933203Y-96156835D01*
X187934870Y-96151606D01*
X188167667Y-95486311D01*
X188169628Y-95481172D01*
X188439367Y-94829963D01*
X188441611Y-94824948D01*
X188747447Y-94189874D01*
X188749968Y-94184996D01*
X189090914Y-93568100D01*
X189093714Y-93563354D01*
X189468720Y-92966534D01*
X189471779Y-92961956D01*
X189879654Y-92387109D01*
X189882990Y-92382679D01*
X190322426Y-91831642D01*
X190325983Y-91827429D01*
X190795661Y-91301860D01*
X190799440Y-91297862D01*
X191297862Y-90799440D01*
X191301860Y-90795661D01*
X191827429Y-90325983D01*
X191831642Y-90322426D01*
X192382685Y-89882985D01*
X192387116Y-89879650D01*
X192961956Y-89471779D01*
X192966534Y-89468720D01*
X193563354Y-89093714D01*
X193568100Y-89090914D01*
X194184996Y-88749968D01*
X194189874Y-88747447D01*
X194824948Y-88441611D01*
X194829963Y-88439367D01*
X195481172Y-88169628D01*
X195486311Y-88167667D01*
X196151606Y-87934870D01*
X196156835Y-87933203D01*
X196834167Y-87738067D01*
X196839491Y-87736693D01*
X197526665Y-87579851D01*
X197532087Y-87578772D01*
X198226944Y-87460711D01*
X198232415Y-87459938D01*
X198932849Y-87381019D01*
X198938339Y-87380556D01*
X199642041Y-87341037D01*
X199647592Y-87340882D01*
X200352408Y-87340882D01*
X200357958Y-87341037D01*
G37*
%TD.AperFunction*%
%TD*%
%TA.AperFunction,Conductor*%
%TO.N,/VBiasFilt*%
G36*
X204893039Y-102427685D02*
G01*
X204938794Y-102480489D01*
X204950000Y-102532000D01*
X204950000Y-105276000D01*
X204930315Y-105343039D01*
X204877511Y-105388794D01*
X204826000Y-105400000D01*
X200324000Y-105400000D01*
X200256961Y-105380315D01*
X200211206Y-105327511D01*
X200200000Y-105276000D01*
X200200000Y-102532000D01*
X200219685Y-102464961D01*
X200272489Y-102419206D01*
X200324000Y-102408000D01*
X204826000Y-102408000D01*
X204893039Y-102427685D01*
G37*
%TD.AperFunction*%
%TD*%
M02*
