%TF.GenerationSoftware,KiCad,Pcbnew,9.0.7*%
%TF.CreationDate,2026-02-15T20:11:05-05:00*%
%TF.ProjectId,psu,7073752e-6b69-4636-9164-5f7063625858,rev?*%
%TF.SameCoordinates,Original*%
%TF.FileFunction,Copper,L1,Top*%
%TF.FilePolarity,Positive*%
%FSLAX46Y46*%
G04 Gerber Fmt 4.6, Leading zero omitted, Abs format (unit mm)*
G04 Created by KiCad (PCBNEW 9.0.7) date 2026-02-15 20:11:05*
%MOMM*%
%LPD*%
G01*
G04 APERTURE LIST*
G04 Aperture macros list*
%AMRoundRect*
0 Rectangle with rounded corners*
0 $1 Rounding radius*
0 $2 $3 $4 $5 $6 $7 $8 $9 X,Y pos of 4 corners*
0 Add a 4 corners polygon primitive as box body*
4,1,4,$2,$3,$4,$5,$6,$7,$8,$9,$2,$3,0*
0 Add four circle primitives for the rounded corners*
1,1,$1+$1,$2,$3*
1,1,$1+$1,$4,$5*
1,1,$1+$1,$6,$7*
1,1,$1+$1,$8,$9*
0 Add four rect primitives between the rounded corners*
20,1,$1+$1,$2,$3,$4,$5,0*
20,1,$1+$1,$4,$5,$6,$7,0*
20,1,$1+$1,$6,$7,$8,$9,0*
20,1,$1+$1,$8,$9,$2,$3,0*%
G04 Aperture macros list end*
%TA.AperFunction,SMDPad,CuDef*%
%ADD10RoundRect,0.218750X-0.218750X-0.256250X0.218750X-0.256250X0.218750X0.256250X-0.218750X0.256250X0*%
%TD*%
%TA.AperFunction,SMDPad,CuDef*%
%ADD11R,1.473200X0.558800*%
%TD*%
%TA.AperFunction,ComponentPad*%
%ADD12R,1.700000X1.700000*%
%TD*%
%TA.AperFunction,ComponentPad*%
%ADD13O,1.700000X1.700000*%
%TD*%
%TA.AperFunction,SMDPad,CuDef*%
%ADD14RoundRect,0.218750X0.256250X-0.218750X0.256250X0.218750X-0.256250X0.218750X-0.256250X-0.218750X0*%
%TD*%
%TA.AperFunction,SMDPad,CuDef*%
%ADD15RoundRect,0.218750X0.218750X0.256250X-0.218750X0.256250X-0.218750X-0.256250X0.218750X-0.256250X0*%
%TD*%
%TA.AperFunction,SMDPad,CuDef*%
%ADD16R,0.533400X1.460500*%
%TD*%
%TA.AperFunction,SMDPad,CuDef*%
%ADD17RoundRect,0.218750X-0.256250X0.218750X-0.256250X-0.218750X0.256250X-0.218750X0.256250X0.218750X0*%
%TD*%
%TA.AperFunction,ViaPad*%
%ADD18C,0.600000*%
%TD*%
%TA.AperFunction,ViaPad*%
%ADD19C,0.800000*%
%TD*%
%TA.AperFunction,Conductor*%
%ADD20C,0.500000*%
%TD*%
%TA.AperFunction,Conductor*%
%ADD21C,0.300000*%
%TD*%
%TA.AperFunction,Conductor*%
%ADD22C,0.200000*%
%TD*%
%TA.AperFunction,Conductor*%
%ADD23C,0.250000*%
%TD*%
G04 APERTURE END LIST*
D10*
%TO.P,C17,1*%
%TO.N,GND*%
X198745150Y-110612501D03*
%TO.P,C17,2*%
%TO.N,Net-(C17-Pad2)*%
X200320150Y-110612501D03*
%TD*%
D11*
%TO.P,U5,1,IN*%
%TO.N,+5V*%
X198400000Y-107199999D03*
%TO.P,U5,2,GND*%
%TO.N,GND*%
X198400000Y-108150000D03*
%TO.P,U5,3,EN*%
%TO.N,+5V*%
X198400000Y-109100001D03*
%TO.P,U5,4,NR*%
%TO.N,Net-(C17-Pad2)*%
X200635200Y-109100001D03*
%TO.P,U5,5,OUT*%
%TO.N,VDDA*%
X200635200Y-107199999D03*
%TD*%
D12*
%TO.P,J3,1,Pin_1*%
%TO.N,+5V*%
X207410000Y-98060000D03*
D13*
%TO.P,J3,2,Pin_2*%
%TO.N,VSSA*%
X209950000Y-98060000D03*
%TO.P,J3,3,Pin_3*%
%TO.N,VDDA*%
X207410000Y-100600000D03*
%TO.P,J3,4,Pin_4*%
%TO.N,N/C*%
X209950000Y-100600000D03*
%TO.P,J3,5,Pin_5*%
X207410000Y-103140000D03*
%TO.P,J3,6,Pin_6*%
%TO.N,GND*%
X209950000Y-103140000D03*
%TD*%
D14*
%TO.P,C2,1*%
%TO.N,GND*%
X196782650Y-108225001D03*
%TO.P,C2,2*%
%TO.N,+5V*%
X196782650Y-106650001D03*
%TD*%
D10*
%TO.P,C1,1*%
%TO.N,GND*%
X191819900Y-96687500D03*
%TO.P,C1,2*%
%TO.N,+5V*%
X193394900Y-96687500D03*
%TD*%
D14*
%TO.P,C3,1*%
%TO.N,GND*%
X202257650Y-108625001D03*
%TO.P,C3,2*%
%TO.N,VDDA*%
X202257650Y-107050001D03*
%TD*%
D15*
%TO.P,C8,1*%
%TO.N,Net-(C8-Pad1)*%
X194894900Y-105287500D03*
%TO.P,C8,2*%
%TO.N,Net-(C8-Pad2)*%
X193319900Y-105287500D03*
%TD*%
D14*
%TO.P,C15,1*%
%TO.N,GND*%
X196807400Y-102587500D03*
%TO.P,C15,2*%
%TO.N,-5V*%
X196807400Y-101012500D03*
%TD*%
D10*
%TO.P,R9,1*%
%TO.N,GND*%
X199500000Y-105105500D03*
%TO.P,R9,2*%
%TO.N,Net-(R8-Pad1)*%
X201075000Y-105105500D03*
%TD*%
D14*
%TO.P,R8,1*%
%TO.N,Net-(R8-Pad1)*%
X202710000Y-103547500D03*
%TO.P,R8,2*%
%TO.N,VSSA*%
X202710000Y-101972500D03*
%TD*%
D16*
%TO.P,U1,1,IN*%
%TO.N,+5V*%
X191702400Y-103711650D03*
%TO.P,U1,2,CAP+*%
%TO.N,Net-(C8-Pad2)*%
X192972400Y-103711650D03*
%TO.P,U1,3,GND*%
%TO.N,GND*%
X194242400Y-103711650D03*
%TO.P,U1,4,CAP-*%
%TO.N,Net-(C8-Pad1)*%
X195512400Y-103711650D03*
%TO.P,U1,5,OUT*%
%TO.N,-5V*%
X195512400Y-98263350D03*
%TO.P,U1,6,\u002ASHDN*%
%TO.N,+5V*%
X194242400Y-98263350D03*
%TO.P,U1,7,FB*%
%TO.N,Net-(R1-Pad1)*%
X192972400Y-98263350D03*
%TO.P,U1,8,AGND*%
%TO.N,GND*%
X191702400Y-98263350D03*
%TD*%
D10*
%TO.P,C5,1*%
%TO.N,GND*%
X199621400Y-100332999D03*
%TO.P,C5,2*%
%TO.N,VSSA*%
X201196400Y-100332999D03*
%TD*%
D11*
%TO.P,U3,1,GND*%
%TO.N,GND*%
X198819900Y-101617999D03*
%TO.P,U3,2,IN*%
%TO.N,-5V*%
X198819900Y-102568000D03*
%TO.P,U3,3,EN*%
X198819900Y-103518001D03*
%TO.P,U3,4,FB*%
%TO.N,Net-(R8-Pad1)*%
X201055100Y-103518001D03*
%TO.P,U3,5,OUT*%
%TO.N,VSSA*%
X201055100Y-101617999D03*
%TD*%
D10*
%TO.P,C6,1*%
%TO.N,GND*%
X199622400Y-98912999D03*
%TO.P,C6,2*%
%TO.N,VSSA*%
X201197400Y-98912999D03*
%TD*%
D17*
%TO.P,R1,1*%
%TO.N,Net-(R1-Pad1)*%
X190330000Y-101852500D03*
%TO.P,R1,2*%
%TO.N,+5V*%
X190330000Y-103427500D03*
%TD*%
%TO.P,R2,1*%
%TO.N,-5V*%
X190300000Y-98712500D03*
%TO.P,R2,2*%
%TO.N,Net-(R1-Pad1)*%
X190300000Y-100287500D03*
%TD*%
D18*
%TO.N,GND*%
X198550000Y-105120000D03*
X198809900Y-100262999D03*
X199620000Y-108130000D03*
X198082650Y-110537501D03*
X198750000Y-98920000D03*
X205100000Y-98840000D03*
X202200000Y-109500000D03*
X207180000Y-96480000D03*
X204400000Y-103600000D03*
X190900000Y-97600000D03*
X194800000Y-102300000D03*
X204700000Y-96200000D03*
X195960000Y-108270000D03*
D19*
%TO.N,+5V*%
X194600000Y-96300000D03*
D18*
X192430000Y-106830000D03*
%TD*%
D20*
%TO.N,GND*%
X198782399Y-101655500D02*
X198819900Y-101617999D01*
X198400000Y-108150000D02*
X197167600Y-108150000D01*
D21*
X196807400Y-102587500D02*
X194903000Y-102587500D01*
X196737651Y-108270000D02*
X196782650Y-108225001D01*
D22*
X199819900Y-100242999D02*
X198787500Y-100255500D01*
D21*
X194903000Y-102587500D02*
X194242400Y-103248100D01*
X191819900Y-98145850D02*
X191702400Y-98263350D01*
D23*
X198794900Y-105105500D02*
X199500000Y-105105500D01*
D21*
X198750000Y-98920000D02*
X199615399Y-98920000D01*
D22*
X198737500Y-100205500D02*
X198737500Y-101535599D01*
D21*
X199615399Y-98920000D02*
X199622400Y-98912999D01*
X194242400Y-103248100D02*
X194242400Y-103711650D01*
X195960000Y-108270000D02*
X196737651Y-108270000D01*
D23*
X190900000Y-97600000D02*
X190907400Y-97600000D01*
D21*
X202200000Y-108682651D02*
X202257650Y-108625001D01*
X201770150Y-108137501D02*
X198857650Y-108137501D01*
X202257650Y-108625001D02*
X201770150Y-108137501D01*
D22*
X199800000Y-100244500D02*
X199764000Y-100280500D01*
D23*
X190907400Y-97600000D02*
X191819900Y-96687500D01*
D21*
X191819900Y-96687500D02*
X191819900Y-98145850D01*
X202200000Y-109500000D02*
X202200000Y-108682651D01*
D22*
X199800000Y-98555500D02*
X199800000Y-100244500D01*
X198737500Y-101535599D02*
X198819900Y-101617999D01*
%TO.N,+5V*%
X198399999Y-107200000D02*
X198400000Y-107199999D01*
D21*
X196602651Y-106830000D02*
X192430000Y-106830000D01*
D23*
X194600000Y-96300000D02*
X193400000Y-96300000D01*
D21*
X196782650Y-106837350D02*
X196782650Y-106650001D01*
X195310489Y-108000963D02*
X195690963Y-107620489D01*
D22*
X198400000Y-109100001D02*
X198970150Y-109100001D01*
D23*
X194242400Y-98263350D02*
X194242400Y-98726900D01*
X194242400Y-97535000D02*
X193394900Y-96687500D01*
D21*
X190544050Y-103711650D02*
X191702400Y-103711650D01*
D23*
X193394900Y-96305100D02*
X193394900Y-96687500D01*
X193400000Y-96300000D02*
X193394900Y-96305100D01*
D21*
X190307400Y-103475000D02*
X190544050Y-103711650D01*
D22*
X198970150Y-109100001D02*
X199006001Y-109100001D01*
D21*
X195999511Y-107620489D02*
X196782650Y-106837350D01*
D20*
X197182650Y-106537501D02*
X197857648Y-107212499D01*
D21*
X198400000Y-109100001D02*
X195871453Y-109100001D01*
D22*
X198895148Y-107199999D02*
X198400000Y-107199999D01*
D21*
X196782650Y-106650001D02*
X196602651Y-106830000D01*
D23*
X194242400Y-98263350D02*
X194242400Y-97535000D01*
X191702400Y-101266900D02*
X191702400Y-103711650D01*
X194242400Y-98726900D02*
X191702400Y-101266900D01*
D21*
X195871453Y-109100001D02*
X195310489Y-108539037D01*
D22*
X198945150Y-107250001D02*
X198895148Y-107199999D01*
D21*
X195310489Y-108539037D02*
X195310489Y-108000963D01*
X195690963Y-107620489D02*
X195999511Y-107620489D01*
D22*
%TO.N,VDDA*%
X200635200Y-107199999D02*
X201092400Y-107199999D01*
X200635200Y-107199999D02*
X200905101Y-107199999D01*
D23*
X205500000Y-102510000D02*
X205595000Y-102415000D01*
D22*
X207657599Y-100572501D02*
X207567600Y-100662500D01*
D21*
X205500000Y-103700000D02*
X205500000Y-103410000D01*
D23*
X205595000Y-102415000D02*
X207410000Y-100600000D01*
X205500000Y-103410000D02*
X205500000Y-102510000D01*
D21*
X202157648Y-107199999D02*
X202220150Y-107262501D01*
X200635200Y-107199999D02*
X202157648Y-107199999D01*
X202220150Y-107262501D02*
X202508271Y-107262501D01*
X202257650Y-107050001D02*
X202257650Y-106942350D01*
D22*
X207667599Y-100572501D02*
X207657599Y-100572501D01*
D21*
X202257650Y-106942350D02*
X205500000Y-103700000D01*
%TO.N,-5V*%
X196807400Y-101012500D02*
X196807400Y-99558350D01*
X198819900Y-103518001D02*
X198018001Y-103518001D01*
D23*
X190300000Y-98712500D02*
X190300000Y-96958040D01*
D21*
X198018001Y-103518001D02*
X197700000Y-103200000D01*
X197700000Y-103200000D02*
X197700000Y-102400000D01*
D23*
X195000103Y-95575489D02*
X195512400Y-96087786D01*
X195512400Y-96087786D02*
X195512400Y-98263350D01*
D21*
X196807400Y-99558350D02*
X195512400Y-98263350D01*
X197700000Y-101905100D02*
X196807400Y-101012500D01*
X198819900Y-102568000D02*
X197868000Y-102568000D01*
D23*
X191682551Y-95575489D02*
X195000103Y-95575489D01*
X190300000Y-96958040D02*
X191682551Y-95575489D01*
D21*
X197700000Y-102400000D02*
X197700000Y-101905100D01*
X197868000Y-102568000D02*
X197700000Y-102400000D01*
D22*
%TO.N,VSSA*%
X203037500Y-101768000D02*
X201205101Y-101768000D01*
D23*
X201196400Y-100332999D02*
X201196400Y-98913999D01*
X203687001Y-98912999D02*
X206744511Y-95855489D01*
X201055100Y-101617999D02*
X201055100Y-100474299D01*
X206744511Y-95855489D02*
X208555489Y-95855489D01*
X201196400Y-98913999D02*
X201197400Y-98912999D01*
X201055100Y-100474299D02*
X201196400Y-100332999D01*
X209950000Y-97250000D02*
X209950000Y-98060000D01*
D22*
X201205101Y-101768000D02*
X201055100Y-101617999D01*
X201375000Y-98555500D02*
X201482400Y-98555500D01*
D23*
X201197400Y-98912999D02*
X203687001Y-98912999D01*
X208555489Y-95855489D02*
X209950000Y-97250000D01*
D20*
%TO.N,Net-(C8-Pad2)*%
X192972400Y-104940000D02*
X193319900Y-105287500D01*
X192972400Y-103711650D02*
X192972400Y-104940000D01*
%TO.N,Net-(C8-Pad1)*%
X195512400Y-104670000D02*
X194894900Y-105287500D01*
X195512400Y-103711650D02*
X195512400Y-104670000D01*
D21*
%TO.N,Net-(C17-Pad2)*%
X200320150Y-109415051D02*
X200635200Y-109100001D01*
X200320150Y-110612501D02*
X200320150Y-109415051D01*
D22*
%TO.N,Net-(R8-Pad1)*%
X202862499Y-103518001D02*
X203037500Y-103343000D01*
X203037500Y-103343000D02*
X203037500Y-103780500D01*
X201712500Y-105105500D02*
X201075000Y-105105500D01*
X201055100Y-103518001D02*
X202862499Y-103518001D01*
X203037500Y-103780500D02*
X201712500Y-105105500D01*
D23*
%TO.N,Net-(R1-Pad1)*%
X190300000Y-100287500D02*
X191324222Y-100287500D01*
X192972400Y-98639322D02*
X192972400Y-98263350D01*
X191324222Y-100287500D02*
X192972400Y-98639322D01*
D21*
X190307400Y-101900000D02*
X190307400Y-100575000D01*
%TD*%
%TA.AperFunction,Conductor*%
%TO.N,GND*%
G36*
X195393273Y-90297639D02*
G01*
X195427180Y-90326465D01*
X195445223Y-90367148D01*
X195447076Y-90387178D01*
X195426249Y-92844685D01*
X195424276Y-92863624D01*
X195422027Y-92874764D01*
X195421324Y-92882949D01*
X195421494Y-92882937D01*
X195452247Y-93296162D01*
X195452783Y-93300602D01*
X195521130Y-93709201D01*
X195522068Y-93713571D01*
X195627437Y-94114198D01*
X195628774Y-94118475D01*
X195770289Y-94507808D01*
X195772007Y-94511935D01*
X195948490Y-94886729D01*
X195950578Y-94890683D01*
X196160542Y-95247779D01*
X196162996Y-95251546D01*
X196404687Y-95587967D01*
X196407464Y-95591481D01*
X196678882Y-95904442D01*
X196681971Y-95907692D01*
X196980824Y-96194547D01*
X196984214Y-96197516D01*
X197308000Y-96455870D01*
X197311636Y-96458508D01*
X197657664Y-96686217D01*
X197661534Y-96688517D01*
X198026919Y-96883677D01*
X198030979Y-96885613D01*
X198412663Y-97046593D01*
X198416858Y-97048140D01*
X198811677Y-97173599D01*
X198815991Y-97174756D01*
X199220595Y-97263631D01*
X199224999Y-97264389D01*
X199636071Y-97315950D01*
X199640515Y-97316302D01*
X200054538Y-97330105D01*
X200059013Y-97330050D01*
X200472579Y-97305986D01*
X200477008Y-97305524D01*
X200886678Y-97243789D01*
X200891029Y-97242928D01*
X201293347Y-97144041D01*
X201297613Y-97142783D01*
X201689191Y-97007578D01*
X201693357Y-97005922D01*
X202070957Y-96835520D01*
X202074937Y-96833500D01*
X202435389Y-96629332D01*
X202439172Y-96626954D01*
X202779481Y-96390717D01*
X202783032Y-96388003D01*
X203100342Y-96121678D01*
X203103634Y-96118648D01*
X203395287Y-95824469D01*
X203398286Y-95821153D01*
X203661878Y-95501542D01*
X203664549Y-95497984D01*
X203897852Y-95155637D01*
X203900191Y-95151843D01*
X204101236Y-94789656D01*
X204103235Y-94785631D01*
X204270374Y-94406576D01*
X204271983Y-94402423D01*
X204403807Y-94009692D01*
X204405035Y-94005391D01*
X204500443Y-93602263D01*
X204501273Y-93597863D01*
X204559468Y-93187715D01*
X204559892Y-93183277D01*
X204580352Y-92770244D01*
X204580575Y-92770255D01*
X204579683Y-92761982D01*
X204578614Y-92757211D01*
X204576202Y-92734015D01*
X204606977Y-90409961D01*
X204617454Y-90366707D01*
X204645660Y-90332283D01*
X204686009Y-90313506D01*
X204730509Y-90314095D01*
X204748059Y-90320117D01*
X204944454Y-90408635D01*
X204949772Y-90411224D01*
X205536703Y-90718731D01*
X205541858Y-90721630D01*
X206109609Y-91063315D01*
X206114585Y-91066513D01*
X206661110Y-91441144D01*
X206665887Y-91444631D01*
X207189330Y-91850936D01*
X207193893Y-91854699D01*
X207692374Y-92291218D01*
X207696707Y-92295245D01*
X208168534Y-92760496D01*
X208172621Y-92764771D01*
X208616107Y-93257093D01*
X208619934Y-93261603D01*
X209033540Y-93779284D01*
X209037093Y-93784012D01*
X209419361Y-94325229D01*
X209422629Y-94330159D01*
X209772238Y-94893044D01*
X209775209Y-94898159D01*
X210090935Y-95480738D01*
X210093598Y-95486019D01*
X210374316Y-96086216D01*
X210376662Y-96091645D01*
X210621411Y-96707406D01*
X210623433Y-96712965D01*
X210760920Y-97129002D01*
X210765131Y-97173307D01*
X210749702Y-97215051D01*
X210717689Y-97245967D01*
X210675433Y-97259931D01*
X210631302Y-97254178D01*
X210602228Y-97237431D01*
X210543406Y-97188769D01*
X210535502Y-97183438D01*
X210362880Y-97090102D01*
X210354093Y-97086408D01*
X210224054Y-97046154D01*
X210189347Y-97027231D01*
X210172793Y-97013341D01*
X210166360Y-97007447D01*
X208798051Y-95639139D01*
X208792157Y-95632707D01*
X208772800Y-95609638D01*
X208759868Y-95598787D01*
X208733784Y-95583728D01*
X208726426Y-95579040D01*
X208701765Y-95561772D01*
X208681139Y-95552154D01*
X208659745Y-95544367D01*
X208630099Y-95539140D01*
X208621580Y-95537251D01*
X208592488Y-95529455D01*
X208575666Y-95527983D01*
X208545671Y-95530608D01*
X208536955Y-95530989D01*
X206763037Y-95530989D01*
X206754322Y-95530609D01*
X206724331Y-95527985D01*
X206707508Y-95529456D01*
X206678426Y-95537249D01*
X206669912Y-95539137D01*
X206640251Y-95544367D01*
X206618860Y-95552153D01*
X206598236Y-95561771D01*
X206573574Y-95579040D01*
X206566216Y-95583728D01*
X206540134Y-95598785D01*
X206527195Y-95609643D01*
X206507846Y-95632703D01*
X206501953Y-95639135D01*
X203581878Y-98559210D01*
X203544195Y-98582887D01*
X203511167Y-98588499D01*
X201910616Y-98588499D01*
X201867228Y-98578596D01*
X201832433Y-98550848D01*
X201819054Y-98525984D01*
X201818960Y-98526033D01*
X201816804Y-98521803D01*
X201815509Y-98519395D01*
X201815388Y-98519022D01*
X201762238Y-98414712D01*
X201753287Y-98402391D01*
X201730746Y-98379850D01*
X201721176Y-98368763D01*
X201720375Y-98367685D01*
X201696964Y-98345968D01*
X201694261Y-98343365D01*
X201670503Y-98319607D01*
X201666331Y-98316576D01*
X201657104Y-98308991D01*
X201651843Y-98304111D01*
X201636807Y-98294606D01*
X201594391Y-98277684D01*
X201586048Y-98273904D01*
X201553874Y-98257511D01*
X201539391Y-98252804D01*
X201452873Y-98239102D01*
X201445212Y-98238499D01*
X200949588Y-98238499D01*
X200941926Y-98239102D01*
X200855407Y-98252805D01*
X200840923Y-98257510D01*
X200736613Y-98310660D01*
X200724292Y-98319611D01*
X200641512Y-98402391D01*
X200632561Y-98414712D01*
X200579411Y-98519022D01*
X200574706Y-98533506D01*
X200561003Y-98620025D01*
X200560400Y-98627686D01*
X200560400Y-99198311D01*
X200561003Y-99205972D01*
X200574706Y-99292491D01*
X200579411Y-99306975D01*
X200632561Y-99411285D01*
X200641512Y-99423606D01*
X200724292Y-99506386D01*
X200736613Y-99515337D01*
X200772539Y-99533643D01*
X200806702Y-99562165D01*
X200825108Y-99602685D01*
X200824109Y-99647178D01*
X200803904Y-99686832D01*
X200772540Y-99711844D01*
X200735615Y-99730658D01*
X200723292Y-99739611D01*
X200640512Y-99822391D01*
X200631561Y-99834712D01*
X200578411Y-99939022D01*
X200573706Y-99953506D01*
X200560003Y-100040025D01*
X200559400Y-100047686D01*
X200559400Y-100618311D01*
X200560003Y-100625972D01*
X200573706Y-100712491D01*
X200578411Y-100726975D01*
X200631561Y-100831285D01*
X200640512Y-100843606D01*
X200701311Y-100904405D01*
X200724988Y-100942088D01*
X200730600Y-100975116D01*
X200730600Y-101039099D01*
X200720697Y-101082487D01*
X200692949Y-101117282D01*
X200652852Y-101136592D01*
X200630600Y-101139099D01*
X200303668Y-101139099D01*
X200294129Y-101140038D01*
X200250121Y-101148792D01*
X200232639Y-101156033D01*
X200182692Y-101189407D01*
X200169308Y-101202791D01*
X200135934Y-101252738D01*
X200128693Y-101270220D01*
X200119939Y-101314228D01*
X200119000Y-101323766D01*
X200119000Y-101912231D01*
X200119939Y-101921769D01*
X200128693Y-101965777D01*
X200135934Y-101983259D01*
X200169308Y-102033206D01*
X200182692Y-102046590D01*
X200232639Y-102079964D01*
X200250121Y-102087205D01*
X200294129Y-102095959D01*
X200303668Y-102096899D01*
X201806532Y-102096899D01*
X201816070Y-102095959D01*
X201860078Y-102087205D01*
X201886663Y-102076194D01*
X201887441Y-102078074D01*
X201912577Y-102068481D01*
X201926551Y-102067500D01*
X201935500Y-102067500D01*
X201978888Y-102077403D01*
X202013683Y-102105151D01*
X202032993Y-102145248D01*
X202035500Y-102167500D01*
X202035500Y-102220312D01*
X202036103Y-102227973D01*
X202049806Y-102314492D01*
X202054511Y-102328976D01*
X202107661Y-102433286D01*
X202116612Y-102445607D01*
X202199392Y-102528387D01*
X202211713Y-102537338D01*
X202316023Y-102590488D01*
X202330507Y-102595193D01*
X202417026Y-102608896D01*
X202424688Y-102609500D01*
X202995312Y-102609500D01*
X203002973Y-102608896D01*
X203089492Y-102595193D01*
X203103976Y-102590488D01*
X203208286Y-102537338D01*
X203220607Y-102528387D01*
X203303387Y-102445607D01*
X203312338Y-102433286D01*
X203365488Y-102328976D01*
X203370193Y-102314492D01*
X203383896Y-102227973D01*
X203384500Y-102220312D01*
X203384500Y-101724687D01*
X203383896Y-101717026D01*
X203370193Y-101630507D01*
X203365488Y-101616023D01*
X203312338Y-101511713D01*
X203303387Y-101499392D01*
X203220607Y-101416612D01*
X203208286Y-101407661D01*
X203103976Y-101354511D01*
X203089492Y-101349806D01*
X203002973Y-101336103D01*
X202995312Y-101335500D01*
X202424688Y-101335500D01*
X202417026Y-101336103D01*
X202330507Y-101349806D01*
X202316023Y-101354511D01*
X202211713Y-101407661D01*
X202199392Y-101416612D01*
X202176794Y-101439211D01*
X202139111Y-101462888D01*
X202106083Y-101468500D01*
X202091200Y-101468500D01*
X202047812Y-101458597D01*
X202013017Y-101430849D01*
X201993707Y-101390752D01*
X201991200Y-101368500D01*
X201991200Y-101323766D01*
X201990260Y-101314228D01*
X201981506Y-101270220D01*
X201974265Y-101252738D01*
X201940891Y-101202791D01*
X201927507Y-101189407D01*
X201877560Y-101156033D01*
X201860078Y-101148792D01*
X201816070Y-101140038D01*
X201806532Y-101139099D01*
X201673814Y-101139099D01*
X201630426Y-101129196D01*
X201595631Y-101101448D01*
X201576321Y-101061351D01*
X201576321Y-101016847D01*
X201595631Y-100976750D01*
X201628415Y-100949999D01*
X201657182Y-100935341D01*
X201669507Y-100926386D01*
X201752287Y-100843606D01*
X201761238Y-100831285D01*
X201814388Y-100726975D01*
X201819093Y-100712491D01*
X201832796Y-100625972D01*
X201833400Y-100618311D01*
X201833400Y-100047686D01*
X201832796Y-100040025D01*
X201819093Y-99953506D01*
X201814388Y-99939022D01*
X201761238Y-99834712D01*
X201752287Y-99822391D01*
X201669507Y-99739611D01*
X201657186Y-99730660D01*
X201621261Y-99712355D01*
X201587098Y-99683833D01*
X201568692Y-99643313D01*
X201569691Y-99598820D01*
X201589896Y-99559166D01*
X201621260Y-99534154D01*
X201658184Y-99515339D01*
X201670507Y-99506386D01*
X201753287Y-99423606D01*
X201762238Y-99411285D01*
X201815388Y-99306975D01*
X201815509Y-99306603D01*
X201815976Y-99305820D01*
X201818960Y-99299965D01*
X201819354Y-99300165D01*
X201838333Y-99268397D01*
X201875473Y-99243878D01*
X201910616Y-99237499D01*
X203668467Y-99237499D01*
X203677183Y-99237880D01*
X203707178Y-99240504D01*
X203724000Y-99239032D01*
X203753092Y-99231237D01*
X203761611Y-99229348D01*
X203791257Y-99224120D01*
X203812651Y-99216333D01*
X203833277Y-99206715D01*
X203857938Y-99189448D01*
X203865296Y-99184760D01*
X203891377Y-99169702D01*
X203904316Y-99158844D01*
X203923666Y-99135785D01*
X203929559Y-99129353D01*
X205863745Y-97195167D01*
X206360500Y-97195167D01*
X206360500Y-98924832D01*
X206361439Y-98934370D01*
X206370193Y-98978378D01*
X206377434Y-98995860D01*
X206410808Y-99045807D01*
X206424192Y-99059191D01*
X206474139Y-99092565D01*
X206491621Y-99099806D01*
X206535629Y-99108560D01*
X206545168Y-99109500D01*
X208274832Y-99109500D01*
X208284370Y-99108560D01*
X208328378Y-99099806D01*
X208345860Y-99092565D01*
X208395807Y-99059191D01*
X208409191Y-99045807D01*
X208442565Y-98995860D01*
X208449806Y-98978378D01*
X208458560Y-98934370D01*
X208459500Y-98924832D01*
X208459500Y-97195167D01*
X208458560Y-97185629D01*
X208449806Y-97141621D01*
X208442565Y-97124139D01*
X208409191Y-97074192D01*
X208395807Y-97060808D01*
X208345860Y-97027434D01*
X208328378Y-97020193D01*
X208284370Y-97011439D01*
X208274832Y-97010500D01*
X206545168Y-97010500D01*
X206535629Y-97011439D01*
X206491621Y-97020193D01*
X206474139Y-97027434D01*
X206424192Y-97060808D01*
X206410808Y-97074192D01*
X206377434Y-97124139D01*
X206370193Y-97141621D01*
X206361439Y-97185629D01*
X206360500Y-97195167D01*
X205863745Y-97195167D01*
X206849634Y-96209278D01*
X206887317Y-96185601D01*
X206920345Y-96179989D01*
X208379655Y-96179989D01*
X208423043Y-96189892D01*
X208450366Y-96209278D01*
X209319298Y-97078211D01*
X209342975Y-97115894D01*
X209347958Y-97160119D01*
X209333259Y-97202125D01*
X209311247Y-97226856D01*
X209215883Y-97303530D01*
X209209072Y-97310200D01*
X209082937Y-97460521D01*
X209077542Y-97468400D01*
X208983008Y-97640357D01*
X208979248Y-97649129D01*
X208919916Y-97836170D01*
X208917933Y-97845501D01*
X208896058Y-98040518D01*
X208895925Y-98050052D01*
X208912345Y-98245593D01*
X208914067Y-98254977D01*
X208968157Y-98443611D01*
X208971665Y-98452471D01*
X209061368Y-98627014D01*
X209066535Y-98635033D01*
X209188420Y-98788813D01*
X209195047Y-98795676D01*
X209344489Y-98922860D01*
X209352321Y-98928303D01*
X209523612Y-99024035D01*
X209532360Y-99027858D01*
X209718993Y-99088498D01*
X209728296Y-99090544D01*
X209923159Y-99113779D01*
X209932693Y-99113978D01*
X210128343Y-99098924D01*
X210137745Y-99097266D01*
X210326739Y-99044498D01*
X210335639Y-99041046D01*
X210510796Y-98952568D01*
X210518848Y-98947458D01*
X210673480Y-98826647D01*
X210680387Y-98820070D01*
X210808611Y-98671520D01*
X210814114Y-98663718D01*
X210911035Y-98493107D01*
X210916908Y-98479918D01*
X210917805Y-98480317D01*
X210937512Y-98447862D01*
X210974827Y-98423609D01*
X211018970Y-98417949D01*
X211061197Y-98432002D01*
X211093145Y-98462985D01*
X211107288Y-98497529D01*
X211136944Y-98643184D01*
X211137952Y-98649012D01*
X211231534Y-99304989D01*
X211232195Y-99310866D01*
X211286831Y-99971222D01*
X211287145Y-99977129D01*
X211302644Y-100639560D01*
X211302607Y-100645474D01*
X211278915Y-101307681D01*
X211278529Y-101313583D01*
X211215731Y-101973204D01*
X211214996Y-101979074D01*
X211116968Y-102610270D01*
X211100524Y-102651624D01*
X211067765Y-102681748D01*
X211025180Y-102694676D01*
X210981203Y-102687846D01*
X210944544Y-102662612D01*
X210928465Y-102639151D01*
X210893054Y-102567344D01*
X210888377Y-102559712D01*
X210772905Y-102405077D01*
X210766911Y-102398420D01*
X210625197Y-102267420D01*
X210618095Y-102261971D01*
X210454869Y-102158984D01*
X210446901Y-102154924D01*
X210267643Y-102083406D01*
X210259066Y-102080866D01*
X210090338Y-102047304D01*
X210077902Y-102048776D01*
X210076000Y-102056067D01*
X210076000Y-104217619D01*
X210079972Y-104229845D01*
X210080656Y-104230341D01*
X210086241Y-104230818D01*
X210203204Y-104213859D01*
X210211908Y-104211769D01*
X210394667Y-104149731D01*
X210402843Y-104146091D01*
X210565167Y-104055185D01*
X210607862Y-104042624D01*
X210651778Y-104049833D01*
X210688218Y-104075382D01*
X210709964Y-104114211D01*
X210712709Y-104158631D01*
X210708583Y-104174984D01*
X210574881Y-104563375D01*
X210572791Y-104568908D01*
X210320447Y-105181590D01*
X210318034Y-105186990D01*
X210029909Y-105783681D01*
X210027181Y-105788929D01*
X209704273Y-106367561D01*
X209701239Y-106372638D01*
X209344709Y-106931130D01*
X209341380Y-106936020D01*
X208952432Y-107472489D01*
X208948820Y-107477172D01*
X208528848Y-107989691D01*
X208524966Y-107994153D01*
X208075412Y-108480967D01*
X208071273Y-108485192D01*
X207593753Y-108944548D01*
X207589371Y-108948521D01*
X207085515Y-109378852D01*
X207080905Y-109382558D01*
X206552478Y-109782357D01*
X206547658Y-109785785D01*
X205996530Y-110153636D01*
X205991516Y-110156773D01*
X205419605Y-110491397D01*
X205414413Y-110494231D01*
X204823705Y-110794463D01*
X204818356Y-110796986D01*
X204210951Y-111061763D01*
X204205461Y-111063965D01*
X203583453Y-111292371D01*
X203577843Y-111294245D01*
X202943432Y-111485476D01*
X202937721Y-111487015D01*
X202293086Y-111640410D01*
X202287294Y-111641608D01*
X201634754Y-111756617D01*
X201628902Y-111757471D01*
X200970668Y-111833704D01*
X200964775Y-111834210D01*
X200303218Y-111871392D01*
X200297305Y-111871550D01*
X199634679Y-111869555D01*
X199628767Y-111869362D01*
X198967425Y-111828196D01*
X198961536Y-111827654D01*
X198303804Y-111747463D01*
X198297956Y-111746574D01*
X197646098Y-111627635D01*
X197640313Y-111626401D01*
X196996639Y-111469133D01*
X196990938Y-111467560D01*
X196357665Y-111272506D01*
X196352066Y-111270599D01*
X195731463Y-111038459D01*
X195725987Y-111036224D01*
X195258155Y-110828928D01*
X195120161Y-110767783D01*
X195114827Y-110765228D01*
X195077687Y-110746069D01*
X198058651Y-110746069D01*
X198058651Y-110922410D01*
X198058868Y-110927022D01*
X198061173Y-110951412D01*
X198063715Y-110963001D01*
X198105920Y-111083184D01*
X198112700Y-111095989D01*
X198187561Y-111197342D01*
X198197808Y-111207589D01*
X198299161Y-111282450D01*
X198311966Y-111289230D01*
X198432153Y-111331436D01*
X198443733Y-111333977D01*
X198468132Y-111336283D01*
X198472738Y-111336501D01*
X198604312Y-111336501D01*
X198616537Y-111332528D01*
X198619150Y-111328932D01*
X198619150Y-110753339D01*
X198616788Y-110746069D01*
X198871150Y-110746069D01*
X198871150Y-111321661D01*
X198875122Y-111333887D01*
X198878719Y-111336500D01*
X199017559Y-111336500D01*
X199022171Y-111336282D01*
X199046561Y-111333977D01*
X199058150Y-111331435D01*
X199178333Y-111289230D01*
X199191138Y-111282450D01*
X199292491Y-111207589D01*
X199302738Y-111197342D01*
X199377599Y-111095989D01*
X199384379Y-111083184D01*
X199426585Y-110962997D01*
X199429126Y-110951417D01*
X199431432Y-110927018D01*
X199431650Y-110922412D01*
X199431650Y-110753339D01*
X199427677Y-110741113D01*
X199424081Y-110738501D01*
X198885988Y-110738501D01*
X198873762Y-110742473D01*
X198871150Y-110746069D01*
X198616788Y-110746069D01*
X198615177Y-110741113D01*
X198611581Y-110738501D01*
X198073489Y-110738501D01*
X198061263Y-110742473D01*
X198058651Y-110746069D01*
X195077687Y-110746069D01*
X194525957Y-110461453D01*
X194520783Y-110458587D01*
X194398830Y-110386244D01*
X194257808Y-110302589D01*
X198058650Y-110302589D01*
X198058650Y-110471662D01*
X198062622Y-110483888D01*
X198066219Y-110486501D01*
X198604312Y-110486501D01*
X198616537Y-110482528D01*
X198619150Y-110478932D01*
X198619150Y-109903340D01*
X198616787Y-109896069D01*
X198871150Y-109896069D01*
X198871150Y-110471662D01*
X198875122Y-110483888D01*
X198878719Y-110486501D01*
X199416811Y-110486501D01*
X199429036Y-110482528D01*
X199431649Y-110478932D01*
X199431649Y-110327188D01*
X199683150Y-110327188D01*
X199683150Y-110897813D01*
X199683753Y-110905474D01*
X199697456Y-110991993D01*
X199702161Y-111006477D01*
X199755311Y-111110787D01*
X199764262Y-111123108D01*
X199847042Y-111205888D01*
X199859363Y-111214839D01*
X199963673Y-111267989D01*
X199978157Y-111272694D01*
X200064676Y-111286397D01*
X200072338Y-111287001D01*
X200567962Y-111287001D01*
X200575623Y-111286397D01*
X200662142Y-111272694D01*
X200676626Y-111267989D01*
X200780936Y-111214839D01*
X200793257Y-111205888D01*
X200876037Y-111123108D01*
X200884988Y-111110787D01*
X200938138Y-111006477D01*
X200942843Y-110991993D01*
X200956546Y-110905474D01*
X200957150Y-110897813D01*
X200957150Y-110327188D01*
X200956546Y-110319527D01*
X200942843Y-110233008D01*
X200938138Y-110218524D01*
X200884988Y-110114214D01*
X200876037Y-110101893D01*
X200793257Y-110019113D01*
X200780936Y-110010162D01*
X200724251Y-109981279D01*
X200690087Y-109952757D01*
X200671682Y-109912237D01*
X200669650Y-109892178D01*
X200669650Y-109678901D01*
X200679553Y-109635513D01*
X200707301Y-109600718D01*
X200747398Y-109581408D01*
X200769650Y-109578901D01*
X201386632Y-109578901D01*
X201396170Y-109577961D01*
X201440178Y-109569207D01*
X201457660Y-109561966D01*
X201507607Y-109528592D01*
X201520991Y-109515208D01*
X201554365Y-109465261D01*
X201561606Y-109447779D01*
X201570360Y-109403771D01*
X201571300Y-109394233D01*
X201571300Y-109305796D01*
X201581203Y-109262408D01*
X201608951Y-109227613D01*
X201649048Y-109208303D01*
X201693552Y-109208303D01*
X201730713Y-109225359D01*
X201774161Y-109257450D01*
X201786966Y-109264230D01*
X201907153Y-109306436D01*
X201918733Y-109308977D01*
X201943132Y-109311283D01*
X201947738Y-109311501D01*
X202116812Y-109311501D01*
X202129037Y-109307528D01*
X202131650Y-109303932D01*
X202131650Y-108758569D01*
X202383650Y-108758569D01*
X202383650Y-109296661D01*
X202387622Y-109308887D01*
X202391219Y-109311500D01*
X202567559Y-109311500D01*
X202572171Y-109311282D01*
X202596561Y-109308977D01*
X202608150Y-109306435D01*
X202728333Y-109264230D01*
X202741138Y-109257450D01*
X202842491Y-109182589D01*
X202852738Y-109172342D01*
X202927599Y-109070989D01*
X202934379Y-109058184D01*
X202976585Y-108937997D01*
X202979126Y-108926417D01*
X202981432Y-108902018D01*
X202981650Y-108897412D01*
X202981650Y-108765839D01*
X202977677Y-108753613D01*
X202974081Y-108751001D01*
X202398488Y-108751001D01*
X202386262Y-108754973D01*
X202383650Y-108758569D01*
X202131650Y-108758569D01*
X202131650Y-107953340D01*
X202129287Y-107946069D01*
X202383650Y-107946069D01*
X202383650Y-108484162D01*
X202387622Y-108496388D01*
X202391219Y-108499001D01*
X202966811Y-108499001D01*
X202979036Y-108495028D01*
X202981649Y-108491432D01*
X202981649Y-108352591D01*
X202981431Y-108347979D01*
X202979126Y-108323589D01*
X202976584Y-108312000D01*
X202934379Y-108191817D01*
X202927599Y-108179012D01*
X202852738Y-108077659D01*
X202842491Y-108067412D01*
X202741138Y-107992551D01*
X202728333Y-107985771D01*
X202608146Y-107943565D01*
X202596566Y-107941024D01*
X202572167Y-107938718D01*
X202567562Y-107938501D01*
X202398488Y-107938501D01*
X202386262Y-107942473D01*
X202383650Y-107946069D01*
X202129287Y-107946069D01*
X202127677Y-107941114D01*
X202124081Y-107938502D01*
X201947741Y-107938502D01*
X201943128Y-107938719D01*
X201918738Y-107941024D01*
X201907149Y-107943566D01*
X201786966Y-107985771D01*
X201774161Y-107992551D01*
X201672808Y-108067412D01*
X201662561Y-108077659D01*
X201587700Y-108179012D01*
X201580920Y-108191817D01*
X201538714Y-108312004D01*
X201536173Y-108323584D01*
X201533867Y-108347983D01*
X201533650Y-108352588D01*
X201533651Y-108527535D01*
X201523748Y-108570924D01*
X201496000Y-108605719D01*
X201455904Y-108625029D01*
X201414142Y-108625615D01*
X201396170Y-108622040D01*
X201386632Y-108621101D01*
X199883768Y-108621101D01*
X199874229Y-108622040D01*
X199830221Y-108630794D01*
X199812739Y-108638035D01*
X199762792Y-108671409D01*
X199749408Y-108684793D01*
X199716034Y-108734740D01*
X199708793Y-108752222D01*
X199700039Y-108796230D01*
X199699100Y-108805768D01*
X199699100Y-109394233D01*
X199700039Y-109403771D01*
X199708793Y-109447779D01*
X199716034Y-109465261D01*
X199749408Y-109515208D01*
X199762792Y-109528592D01*
X199812739Y-109561966D01*
X199830221Y-109569207D01*
X199874229Y-109577961D01*
X199880448Y-109578574D01*
X199922657Y-109592681D01*
X199954566Y-109623704D01*
X199969854Y-109665500D01*
X199970650Y-109678093D01*
X199970650Y-109892178D01*
X199960747Y-109935566D01*
X199932999Y-109970361D01*
X199916049Y-109981279D01*
X199859363Y-110010162D01*
X199847042Y-110019113D01*
X199764262Y-110101893D01*
X199755311Y-110114214D01*
X199702161Y-110218524D01*
X199697456Y-110233008D01*
X199683753Y-110319527D01*
X199683150Y-110327188D01*
X199431649Y-110327188D01*
X199431649Y-110302591D01*
X199431431Y-110297979D01*
X199429126Y-110273589D01*
X199426584Y-110262000D01*
X199384379Y-110141817D01*
X199377599Y-110129012D01*
X199302738Y-110027659D01*
X199292491Y-110017412D01*
X199191138Y-109942551D01*
X199178333Y-109935771D01*
X199058146Y-109893565D01*
X199046566Y-109891024D01*
X199022167Y-109888718D01*
X199017562Y-109888501D01*
X198885988Y-109888501D01*
X198873762Y-109892473D01*
X198871150Y-109896069D01*
X198616787Y-109896069D01*
X198615177Y-109891114D01*
X198611581Y-109888502D01*
X198472741Y-109888502D01*
X198468128Y-109888719D01*
X198443738Y-109891024D01*
X198432149Y-109893566D01*
X198311966Y-109935771D01*
X198299161Y-109942551D01*
X198197808Y-110017412D01*
X198187561Y-110027659D01*
X198112700Y-110129012D01*
X198105920Y-110141817D01*
X198063714Y-110262004D01*
X198061173Y-110273584D01*
X198058867Y-110297983D01*
X198058650Y-110302589D01*
X194257808Y-110302589D01*
X193950897Y-110120527D01*
X193945901Y-110117360D01*
X193396987Y-109746189D01*
X193392188Y-109742733D01*
X192866189Y-109339770D01*
X192861602Y-109336035D01*
X192360349Y-108902679D01*
X192355991Y-108898680D01*
X191881229Y-108436442D01*
X191877115Y-108432193D01*
X191430507Y-107942691D01*
X191426651Y-107938206D01*
X191009769Y-107423162D01*
X191006186Y-107418456D01*
X190631366Y-106894868D01*
X190631364Y-106894866D01*
X190620484Y-106879667D01*
X190617187Y-106874760D01*
X190589469Y-106830759D01*
X191926307Y-106830759D01*
X191943048Y-106958785D01*
X191946765Y-106972099D01*
X191998765Y-107090279D01*
X192006071Y-107102016D01*
X192089147Y-107200847D01*
X192099453Y-107210062D01*
X192206939Y-107281611D01*
X192219413Y-107287561D01*
X192342651Y-107326062D01*
X192356298Y-107328272D01*
X192485396Y-107330639D01*
X192499105Y-107328932D01*
X192623683Y-107294968D01*
X192636365Y-107289480D01*
X192746397Y-107221920D01*
X192757032Y-107213091D01*
X192757666Y-107212391D01*
X192759002Y-107211455D01*
X192762513Y-107208541D01*
X192762753Y-107208830D01*
X192794125Y-107186870D01*
X192831803Y-107179500D01*
X195394009Y-107179500D01*
X195437397Y-107189403D01*
X195472192Y-107217151D01*
X195491502Y-107257248D01*
X195491502Y-107301752D01*
X195472192Y-107341849D01*
X195467442Y-107347380D01*
X195439878Y-107377199D01*
X195437156Y-107380030D01*
X195097262Y-107719923D01*
X195080795Y-107733221D01*
X195078823Y-107734493D01*
X195067009Y-107745243D01*
X195052297Y-107763907D01*
X195048352Y-107768346D01*
X195048354Y-107768348D01*
X195040475Y-107777646D01*
X195032270Y-107789130D01*
X195029439Y-107792901D01*
X195004999Y-107823902D01*
X194999764Y-107833425D01*
X194998473Y-107835475D01*
X194998180Y-107836075D01*
X194996002Y-107840268D01*
X194995683Y-107840847D01*
X194994751Y-107843073D01*
X194989968Y-107852836D01*
X194978655Y-107890665D01*
X194977199Y-107895145D01*
X194963462Y-107934261D01*
X194961065Y-107945394D01*
X194960914Y-107948907D01*
X194960219Y-107957124D01*
X194959268Y-107964648D01*
X194960912Y-108006478D01*
X194960989Y-108010404D01*
X194960989Y-108491089D01*
X194958749Y-108512136D01*
X194958255Y-108514427D01*
X194957502Y-108530388D01*
X194960296Y-108553990D01*
X194960645Y-108559917D01*
X194960649Y-108559917D01*
X194961651Y-108572052D01*
X194963972Y-108585992D01*
X194964636Y-108590658D01*
X194969274Y-108629849D01*
X194972306Y-108640284D01*
X194972844Y-108642648D01*
X194973064Y-108643290D01*
X194974489Y-108647797D01*
X194974669Y-108648417D01*
X194975581Y-108650644D01*
X194979104Y-108660935D01*
X194997856Y-108695687D01*
X194999996Y-108699887D01*
X195017941Y-108737260D01*
X195024117Y-108746824D01*
X195026508Y-108749432D01*
X195031820Y-108755727D01*
X195036459Y-108761708D01*
X195067187Y-108790113D01*
X195070018Y-108792834D01*
X195590413Y-109313228D01*
X195603711Y-109329695D01*
X195604983Y-109331666D01*
X195615736Y-109343482D01*
X195634400Y-109358196D01*
X195638835Y-109362137D01*
X195638838Y-109362135D01*
X195648136Y-109370013D01*
X195659618Y-109378218D01*
X195663385Y-109381046D01*
X195694392Y-109405489D01*
X195703916Y-109410726D01*
X195705970Y-109412018D01*
X195706573Y-109412314D01*
X195710752Y-109414485D01*
X195711335Y-109414805D01*
X195713563Y-109415739D01*
X195723326Y-109420521D01*
X195761155Y-109431835D01*
X195765635Y-109433291D01*
X195804751Y-109447027D01*
X195815884Y-109449424D01*
X195819397Y-109449576D01*
X195827614Y-109450271D01*
X195835138Y-109451221D01*
X195876968Y-109449578D01*
X195880894Y-109449501D01*
X197416852Y-109449501D01*
X197460240Y-109459404D01*
X197495035Y-109487152D01*
X197499998Y-109493943D01*
X197514205Y-109515205D01*
X197527592Y-109528592D01*
X197577539Y-109561966D01*
X197595021Y-109569207D01*
X197639029Y-109577961D01*
X197648568Y-109578901D01*
X199151432Y-109578901D01*
X199160970Y-109577961D01*
X199204978Y-109569207D01*
X199222460Y-109561966D01*
X199272407Y-109528592D01*
X199285791Y-109515208D01*
X199319165Y-109465261D01*
X199326406Y-109447779D01*
X199335160Y-109403771D01*
X199336100Y-109394233D01*
X199336100Y-108805768D01*
X199335160Y-108796230D01*
X199326406Y-108752222D01*
X199319164Y-108734738D01*
X199312076Y-108724129D01*
X199296206Y-108682551D01*
X199299947Y-108638204D01*
X199316809Y-108609618D01*
X199316009Y-108609084D01*
X199365792Y-108534577D01*
X199373036Y-108517088D01*
X199384659Y-108458656D01*
X199385600Y-108449108D01*
X199385600Y-108290838D01*
X199381627Y-108278612D01*
X199378031Y-108276000D01*
X197563488Y-108276000D01*
X197551262Y-108279972D01*
X197539231Y-108296531D01*
X197534654Y-108307945D01*
X197501807Y-108337972D01*
X197459184Y-108350774D01*
X197452451Y-108351001D01*
X196073489Y-108351001D01*
X196061263Y-108354973D01*
X196058651Y-108358569D01*
X196058651Y-108497410D01*
X196058868Y-108502022D01*
X196061173Y-108526410D01*
X196063566Y-108537317D01*
X196063191Y-108581819D01*
X196043544Y-108621752D01*
X196008517Y-108649206D01*
X195965047Y-108658743D01*
X195921743Y-108648475D01*
X195895178Y-108629458D01*
X195689278Y-108423558D01*
X195665601Y-108385875D01*
X195659989Y-108352847D01*
X195659989Y-108187153D01*
X195669892Y-108143765D01*
X195689278Y-108116442D01*
X195806442Y-107999278D01*
X195844125Y-107975601D01*
X195877153Y-107969989D01*
X195951563Y-107969989D01*
X195972613Y-107972230D01*
X195979700Y-107973756D01*
X196020032Y-107992570D01*
X196048206Y-108027021D01*
X196058642Y-108070284D01*
X196058650Y-108071515D01*
X196058650Y-108084162D01*
X196062622Y-108096388D01*
X196066219Y-108099001D01*
X196641812Y-108099001D01*
X196654037Y-108095028D01*
X196656650Y-108091432D01*
X196656650Y-107553339D01*
X196652112Y-107539373D01*
X196648122Y-107495048D01*
X196663759Y-107453382D01*
X196676506Y-107437760D01*
X196797976Y-107316290D01*
X196835659Y-107292613D01*
X196868687Y-107287001D01*
X197067962Y-107287001D01*
X197075623Y-107286397D01*
X197162142Y-107272694D01*
X197176630Y-107267987D01*
X197178685Y-107266941D01*
X197183883Y-107265631D01*
X197184115Y-107265556D01*
X197184120Y-107265571D01*
X197221840Y-107256068D01*
X197265440Y-107264997D01*
X197294792Y-107285332D01*
X197434611Y-107425151D01*
X197458288Y-107462834D01*
X197462803Y-107489407D01*
X197463419Y-107489347D01*
X197464839Y-107503772D01*
X197469333Y-107526363D01*
X197468084Y-107570849D01*
X197447657Y-107610389D01*
X197412098Y-107637150D01*
X197368449Y-107645832D01*
X197325355Y-107634715D01*
X197311841Y-107626308D01*
X197266138Y-107592551D01*
X197253333Y-107585771D01*
X197133146Y-107543565D01*
X197121566Y-107541024D01*
X197097167Y-107538718D01*
X197092562Y-107538501D01*
X196923488Y-107538501D01*
X196911262Y-107542473D01*
X196908650Y-107546069D01*
X196908650Y-108084162D01*
X196912622Y-108096388D01*
X196916219Y-108099001D01*
X197357562Y-108099001D01*
X197369787Y-108095028D01*
X197381818Y-108078469D01*
X197386396Y-108067056D01*
X197419243Y-108037029D01*
X197461866Y-108024227D01*
X197468599Y-108024000D01*
X199370762Y-108024000D01*
X199382987Y-108020027D01*
X199385600Y-108016431D01*
X199385600Y-107850891D01*
X199384659Y-107841343D01*
X199373036Y-107782911D01*
X199365792Y-107765422D01*
X199316009Y-107690916D01*
X199317032Y-107690232D01*
X199300836Y-107664455D01*
X199295853Y-107620231D01*
X199310552Y-107578224D01*
X199312076Y-107575871D01*
X199319164Y-107565261D01*
X199326406Y-107547777D01*
X199335160Y-107503769D01*
X199336100Y-107494231D01*
X199336100Y-106905766D01*
X199699100Y-106905766D01*
X199699100Y-107494231D01*
X199700039Y-107503769D01*
X199708793Y-107547777D01*
X199716034Y-107565259D01*
X199749408Y-107615206D01*
X199762792Y-107628590D01*
X199812739Y-107661964D01*
X199830221Y-107669205D01*
X199874229Y-107677959D01*
X199883768Y-107678899D01*
X201386632Y-107678899D01*
X201396170Y-107677959D01*
X201440178Y-107669205D01*
X201457660Y-107661964D01*
X201507607Y-107628590D01*
X201520994Y-107615203D01*
X201535202Y-107593941D01*
X201567541Y-107563367D01*
X201609944Y-107549853D01*
X201618348Y-107549499D01*
X201649231Y-107549499D01*
X201692619Y-107559402D01*
X201719942Y-107578788D01*
X201747042Y-107605888D01*
X201759363Y-107614839D01*
X201863673Y-107667989D01*
X201878157Y-107672694D01*
X201964676Y-107686397D01*
X201972338Y-107687001D01*
X202542962Y-107687001D01*
X202550623Y-107686397D01*
X202637142Y-107672694D01*
X202651626Y-107667989D01*
X202755936Y-107614839D01*
X202768257Y-107605888D01*
X202851037Y-107523108D01*
X202859988Y-107510787D01*
X202913138Y-107406477D01*
X202917843Y-107391993D01*
X202931546Y-107305474D01*
X202932150Y-107297813D01*
X202932150Y-106803540D01*
X202942053Y-106760152D01*
X202961439Y-106732829D01*
X205713230Y-103981038D01*
X205729697Y-103967739D01*
X205731669Y-103966465D01*
X205743479Y-103955719D01*
X205758192Y-103937056D01*
X205762136Y-103932616D01*
X205762135Y-103932615D01*
X205770013Y-103923316D01*
X205778219Y-103911833D01*
X205781050Y-103908062D01*
X205805489Y-103877060D01*
X205810725Y-103867538D01*
X205812015Y-103865487D01*
X205812308Y-103864890D01*
X205814485Y-103860699D01*
X205814804Y-103860118D01*
X205815738Y-103857889D01*
X205820521Y-103848124D01*
X205831830Y-103810311D01*
X205833286Y-103805830D01*
X205847026Y-103766702D01*
X205849423Y-103755568D01*
X205849576Y-103752038D01*
X205850271Y-103743828D01*
X205851219Y-103736317D01*
X205849577Y-103694501D01*
X205849500Y-103690576D01*
X205849500Y-103385005D01*
X205848837Y-103376982D01*
X205836559Y-103303215D01*
X205829892Y-103283743D01*
X205824500Y-103251350D01*
X205824500Y-103130052D01*
X206355925Y-103130052D01*
X206372345Y-103325593D01*
X206374067Y-103334977D01*
X206428157Y-103523611D01*
X206431665Y-103532471D01*
X206521368Y-103707014D01*
X206526535Y-103715033D01*
X206648420Y-103868813D01*
X206655047Y-103875676D01*
X206804489Y-104002860D01*
X206812321Y-104008303D01*
X206983612Y-104104035D01*
X206992360Y-104107858D01*
X207178993Y-104168498D01*
X207188296Y-104170544D01*
X207383159Y-104193779D01*
X207392693Y-104193978D01*
X207588343Y-104178924D01*
X207597745Y-104177266D01*
X207786739Y-104124498D01*
X207795639Y-104121046D01*
X207970796Y-104032568D01*
X207978848Y-104027458D01*
X208133480Y-103906647D01*
X208140387Y-103900070D01*
X208268611Y-103751520D01*
X208274114Y-103743718D01*
X208371035Y-103573107D01*
X208374916Y-103564390D01*
X208436857Y-103378189D01*
X208438972Y-103368877D01*
X208450903Y-103274432D01*
X208857374Y-103274432D01*
X208859586Y-103308175D01*
X208860986Y-103317015D01*
X208908490Y-103504065D01*
X208911481Y-103512510D01*
X208992274Y-103687764D01*
X208996755Y-103695525D01*
X209108143Y-103853135D01*
X209113953Y-103859938D01*
X209252198Y-103994610D01*
X209259144Y-104000235D01*
X209419617Y-104107459D01*
X209427488Y-104111733D01*
X209604802Y-104187913D01*
X209613325Y-104190682D01*
X209801558Y-104233275D01*
X209809483Y-104234319D01*
X209821584Y-104230906D01*
X209823841Y-104228043D01*
X209824000Y-104227154D01*
X209824000Y-103280838D01*
X209820027Y-103268612D01*
X209816431Y-103266000D01*
X208871592Y-103266000D01*
X208859366Y-103269972D01*
X208857633Y-103272357D01*
X208857374Y-103274432D01*
X208450903Y-103274432D01*
X208452860Y-103258942D01*
X208463829Y-103172105D01*
X208464210Y-103166668D01*
X208464543Y-103142786D01*
X208464314Y-103137310D01*
X208452138Y-103013122D01*
X208450792Y-102999391D01*
X208859892Y-102999391D01*
X208862399Y-103011996D01*
X208863537Y-103013047D01*
X208867877Y-103014000D01*
X209809162Y-103014000D01*
X209821387Y-103010027D01*
X209824000Y-103006431D01*
X209824000Y-102061115D01*
X209820027Y-102048889D01*
X209819916Y-102048809D01*
X209813179Y-102048323D01*
X209668763Y-102073138D01*
X209660121Y-102075454D01*
X209479051Y-102142254D01*
X209470988Y-102146101D01*
X209305110Y-102244787D01*
X209297882Y-102250038D01*
X209152777Y-102377294D01*
X209146622Y-102383780D01*
X209027128Y-102535356D01*
X209022262Y-102542850D01*
X208932396Y-102713655D01*
X208928973Y-102721920D01*
X208871741Y-102906239D01*
X208869882Y-102914982D01*
X208859892Y-102999391D01*
X208450792Y-102999391D01*
X208444961Y-102939928D01*
X208443110Y-102930581D01*
X208386392Y-102742723D01*
X208382756Y-102733901D01*
X208290632Y-102560639D01*
X208285347Y-102552685D01*
X208161330Y-102400626D01*
X208154597Y-102393846D01*
X208003406Y-102268769D01*
X207995502Y-102263438D01*
X207822879Y-102170101D01*
X207814090Y-102166406D01*
X207626631Y-102108378D01*
X207617280Y-102106459D01*
X207422134Y-102085948D01*
X207412579Y-102085882D01*
X207217166Y-102103665D01*
X207207793Y-102105453D01*
X207019552Y-102160856D01*
X207010696Y-102164434D01*
X206836797Y-102255347D01*
X206828817Y-102260568D01*
X206675883Y-102383530D01*
X206669072Y-102390200D01*
X206542937Y-102540521D01*
X206537542Y-102548400D01*
X206443008Y-102720357D01*
X206439248Y-102729129D01*
X206379916Y-102916170D01*
X206377933Y-102925501D01*
X206356058Y-103120518D01*
X206355925Y-103130052D01*
X205824500Y-103130052D01*
X205824500Y-102685834D01*
X205834403Y-102642446D01*
X205853789Y-102615123D01*
X206880580Y-101588332D01*
X206918263Y-101564655D01*
X206962487Y-101559672D01*
X206987680Y-101566429D01*
X206987707Y-101566346D01*
X206989300Y-101566863D01*
X206991326Y-101567407D01*
X206992352Y-101567855D01*
X207178993Y-101628498D01*
X207188296Y-101630544D01*
X207383159Y-101653779D01*
X207392693Y-101653978D01*
X207588343Y-101638924D01*
X207597745Y-101637266D01*
X207786739Y-101584498D01*
X207795639Y-101581046D01*
X207970796Y-101492568D01*
X207978848Y-101487458D01*
X208133480Y-101366647D01*
X208140387Y-101360070D01*
X208268611Y-101211520D01*
X208274114Y-101203718D01*
X208371035Y-101033107D01*
X208374916Y-101024390D01*
X208436857Y-100838189D01*
X208438972Y-100828877D01*
X208463828Y-100632122D01*
X208464210Y-100626668D01*
X208464543Y-100602788D01*
X208464332Y-100597727D01*
X208464332Y-100597721D01*
X208464314Y-100597311D01*
X208463602Y-100590052D01*
X208895925Y-100590052D01*
X208912345Y-100785593D01*
X208914067Y-100794977D01*
X208968157Y-100983611D01*
X208971665Y-100992471D01*
X209061368Y-101167014D01*
X209066535Y-101175033D01*
X209188420Y-101328813D01*
X209195047Y-101335676D01*
X209344489Y-101462860D01*
X209352321Y-101468303D01*
X209523612Y-101564035D01*
X209532360Y-101567858D01*
X209718993Y-101628498D01*
X209728296Y-101630544D01*
X209923159Y-101653779D01*
X209932693Y-101653978D01*
X210128343Y-101638924D01*
X210137745Y-101637266D01*
X210326739Y-101584498D01*
X210335639Y-101581046D01*
X210510796Y-101492568D01*
X210518848Y-101487458D01*
X210673480Y-101366647D01*
X210680387Y-101360070D01*
X210808611Y-101211520D01*
X210814114Y-101203718D01*
X210911035Y-101033107D01*
X210914916Y-101024390D01*
X210976857Y-100838189D01*
X210978972Y-100828877D01*
X211003828Y-100632122D01*
X211004210Y-100626668D01*
X211004543Y-100602786D01*
X211004314Y-100597310D01*
X210984961Y-100399928D01*
X210983110Y-100390581D01*
X210926392Y-100202723D01*
X210922756Y-100193901D01*
X210830632Y-100020639D01*
X210825347Y-100012685D01*
X210701330Y-99860626D01*
X210694597Y-99853846D01*
X210543406Y-99728769D01*
X210535502Y-99723438D01*
X210362879Y-99630101D01*
X210354090Y-99626406D01*
X210166631Y-99568378D01*
X210157280Y-99566459D01*
X209962134Y-99545948D01*
X209952579Y-99545882D01*
X209757166Y-99563665D01*
X209747793Y-99565453D01*
X209559552Y-99620856D01*
X209550696Y-99624434D01*
X209376797Y-99715347D01*
X209368817Y-99720568D01*
X209215883Y-99843530D01*
X209209072Y-99850200D01*
X209082937Y-100000521D01*
X209077542Y-100008400D01*
X208983008Y-100180357D01*
X208979248Y-100189129D01*
X208919916Y-100376170D01*
X208917933Y-100385501D01*
X208896058Y-100580518D01*
X208895925Y-100590052D01*
X208463602Y-100590052D01*
X208444961Y-100399928D01*
X208443110Y-100390581D01*
X208386392Y-100202723D01*
X208382756Y-100193901D01*
X208290632Y-100020639D01*
X208285347Y-100012685D01*
X208161330Y-99860626D01*
X208154597Y-99853846D01*
X208003406Y-99728769D01*
X207995502Y-99723438D01*
X207822879Y-99630101D01*
X207814090Y-99626406D01*
X207626631Y-99568378D01*
X207617280Y-99566459D01*
X207422134Y-99545948D01*
X207412579Y-99545882D01*
X207217166Y-99563665D01*
X207207793Y-99565453D01*
X207019552Y-99620856D01*
X207010696Y-99624434D01*
X206836797Y-99715347D01*
X206828817Y-99720568D01*
X206675883Y-99843530D01*
X206669072Y-99850200D01*
X206542937Y-100000521D01*
X206537542Y-100008400D01*
X206443008Y-100180357D01*
X206439248Y-100189129D01*
X206379916Y-100376170D01*
X206377933Y-100385501D01*
X206356058Y-100580518D01*
X206355925Y-100590052D01*
X206372345Y-100785593D01*
X206374067Y-100794977D01*
X206428155Y-100983603D01*
X206431669Y-100992477D01*
X206441430Y-101011471D01*
X206452453Y-101054588D01*
X206443678Y-101098219D01*
X206423198Y-101127890D01*
X205385684Y-102165404D01*
X205385683Y-102165404D01*
X205283646Y-102267440D01*
X205277216Y-102273333D01*
X205254149Y-102292688D01*
X205243299Y-102305620D01*
X205228239Y-102331705D01*
X205223551Y-102339063D01*
X205206283Y-102363723D01*
X205196665Y-102384349D01*
X205188878Y-102405743D01*
X205183651Y-102435390D01*
X205181762Y-102443909D01*
X205173966Y-102473000D01*
X205172494Y-102489822D01*
X205175119Y-102519818D01*
X205175500Y-102528534D01*
X205175500Y-103262105D01*
X205169851Y-103295239D01*
X205152972Y-103343301D01*
X205150576Y-103354429D01*
X205150500Y-103356207D01*
X205150500Y-103513810D01*
X205140597Y-103557198D01*
X205121211Y-103584521D01*
X202322020Y-106383712D01*
X202284337Y-106407389D01*
X202251309Y-106413001D01*
X201972338Y-106413001D01*
X201964676Y-106413604D01*
X201878157Y-106427307D01*
X201863673Y-106432012D01*
X201759363Y-106485162D01*
X201747042Y-106494113D01*
X201664262Y-106576893D01*
X201655311Y-106589214D01*
X201599632Y-106698490D01*
X201571110Y-106732654D01*
X201530590Y-106751059D01*
X201486097Y-106750060D01*
X201466878Y-106741524D01*
X201466763Y-106741804D01*
X201440178Y-106730792D01*
X201396170Y-106722038D01*
X201386632Y-106721099D01*
X199883768Y-106721099D01*
X199874229Y-106722038D01*
X199830221Y-106730792D01*
X199812739Y-106738033D01*
X199762792Y-106771407D01*
X199749408Y-106784791D01*
X199716034Y-106834738D01*
X199708793Y-106852220D01*
X199700039Y-106896228D01*
X199699100Y-106905766D01*
X199336100Y-106905766D01*
X199335160Y-106896228D01*
X199326406Y-106852220D01*
X199319165Y-106834738D01*
X199285791Y-106784791D01*
X199272407Y-106771407D01*
X199222460Y-106738033D01*
X199204978Y-106730792D01*
X199160970Y-106722038D01*
X199151432Y-106721099D01*
X198043359Y-106721099D01*
X197999971Y-106711196D01*
X197972648Y-106691810D01*
X197479193Y-106198355D01*
X197473669Y-106193600D01*
X197401255Y-106140113D01*
X197388446Y-106133331D01*
X197322493Y-106110171D01*
X197296848Y-106096722D01*
X197280936Y-106085162D01*
X197176626Y-106032012D01*
X197162142Y-106027307D01*
X197075623Y-106013604D01*
X197067962Y-106013001D01*
X196497338Y-106013001D01*
X196489676Y-106013604D01*
X196403157Y-106027307D01*
X196388673Y-106032012D01*
X196284363Y-106085162D01*
X196272042Y-106094113D01*
X196189262Y-106176893D01*
X196180311Y-106189214D01*
X196127161Y-106293524D01*
X196122456Y-106308008D01*
X196108497Y-106396143D01*
X196091928Y-106437448D01*
X196059079Y-106467474D01*
X196016455Y-106480273D01*
X196009728Y-106480500D01*
X192832997Y-106480500D01*
X192789609Y-106470597D01*
X192767259Y-106455856D01*
X192755876Y-106445925D01*
X192647534Y-106375702D01*
X192634976Y-106369899D01*
X192511283Y-106332907D01*
X192497604Y-106330863D01*
X192368494Y-106330074D01*
X192354799Y-106331950D01*
X192230655Y-106367430D01*
X192218037Y-106373075D01*
X192108839Y-106441973D01*
X192098314Y-106450931D01*
X192012840Y-106547713D01*
X192005257Y-106559257D01*
X191950381Y-106676137D01*
X191946339Y-106689357D01*
X191926475Y-106816938D01*
X191926307Y-106830759D01*
X190589469Y-106830759D01*
X190264018Y-106314120D01*
X190261014Y-106309024D01*
X189941597Y-105728461D01*
X189938901Y-105723197D01*
X189654373Y-105124782D01*
X189651992Y-105119368D01*
X189403343Y-104505181D01*
X189401286Y-104499635D01*
X189189382Y-103871818D01*
X189187658Y-103866160D01*
X189013238Y-103226898D01*
X189011850Y-103221149D01*
X188875534Y-102572722D01*
X188874489Y-102566900D01*
X188776744Y-101911522D01*
X188776045Y-101905649D01*
X188717217Y-101245650D01*
X188716866Y-101239746D01*
X188697162Y-100577427D01*
X188697161Y-100571512D01*
X188716649Y-99909184D01*
X188716998Y-99903280D01*
X188775609Y-99243262D01*
X188776306Y-99237388D01*
X188873837Y-98581979D01*
X188874880Y-98576157D01*
X188898275Y-98464687D01*
X189625500Y-98464687D01*
X189625500Y-98960312D01*
X189626103Y-98967973D01*
X189639806Y-99054492D01*
X189644511Y-99068976D01*
X189697661Y-99173286D01*
X189706612Y-99185607D01*
X189789392Y-99268387D01*
X189801713Y-99277338D01*
X189906023Y-99330488D01*
X189920507Y-99335193D01*
X190007026Y-99348896D01*
X190014688Y-99349500D01*
X190585312Y-99349500D01*
X190592973Y-99348896D01*
X190679492Y-99335193D01*
X190693976Y-99330488D01*
X190798286Y-99277338D01*
X190810607Y-99268387D01*
X190893387Y-99185607D01*
X190902338Y-99173286D01*
X190955488Y-99068976D01*
X190960193Y-99054492D01*
X190973896Y-98967973D01*
X190974500Y-98960312D01*
X190974500Y-98464687D01*
X190973897Y-98457026D01*
X190965497Y-98403994D01*
X190965497Y-98403992D01*
X190964376Y-98396918D01*
X191186700Y-98396918D01*
X191186700Y-99013308D01*
X191187640Y-99022856D01*
X191199263Y-99081288D01*
X191206507Y-99098777D01*
X191250817Y-99165092D01*
X191264207Y-99178482D01*
X191330522Y-99222792D01*
X191348011Y-99230036D01*
X191406443Y-99241659D01*
X191415992Y-99242600D01*
X191561562Y-99242600D01*
X191573787Y-99238627D01*
X191576400Y-99235031D01*
X191576400Y-98404188D01*
X191572427Y-98391962D01*
X191568831Y-98389350D01*
X191201538Y-98389350D01*
X191189312Y-98393322D01*
X191186700Y-98396918D01*
X190964376Y-98396918D01*
X190960193Y-98370507D01*
X190955488Y-98356023D01*
X190902338Y-98251713D01*
X190893387Y-98239392D01*
X190810607Y-98156612D01*
X190798286Y-98147661D01*
X190693976Y-98094511D01*
X190693604Y-98094391D01*
X190692821Y-98093923D01*
X190686966Y-98090940D01*
X190687166Y-98090545D01*
X190655398Y-98071567D01*
X190630879Y-98034427D01*
X190624500Y-97999284D01*
X190624500Y-97133874D01*
X190634403Y-97090486D01*
X190653789Y-97063163D01*
X190962690Y-96754262D01*
X191000373Y-96730585D01*
X191044597Y-96725602D01*
X191086604Y-96740301D01*
X191118073Y-96771770D01*
X191132772Y-96813777D01*
X191133401Y-96824973D01*
X191133401Y-96997409D01*
X191133618Y-97002021D01*
X191135923Y-97026411D01*
X191138465Y-97038000D01*
X191180670Y-97158183D01*
X191187450Y-97170988D01*
X191245837Y-97250036D01*
X191263649Y-97290820D01*
X191262003Y-97335294D01*
X191248547Y-97365006D01*
X191206507Y-97427922D01*
X191199263Y-97445411D01*
X191187641Y-97503838D01*
X191186700Y-97513391D01*
X191186700Y-98122511D01*
X191190672Y-98134737D01*
X191194269Y-98137350D01*
X191561562Y-98137350D01*
X191573787Y-98133377D01*
X191576400Y-98129781D01*
X191576400Y-97461068D01*
X191828400Y-97461068D01*
X191828400Y-98122511D01*
X191832372Y-98134737D01*
X191835969Y-98137350D01*
X192203262Y-98137350D01*
X192215487Y-98133377D01*
X192218100Y-98129781D01*
X192218100Y-97513391D01*
X192217159Y-97503845D01*
X192209986Y-97467781D01*
X192211233Y-97423294D01*
X192231660Y-97383754D01*
X192261273Y-97359893D01*
X192265891Y-97357447D01*
X192367241Y-97282588D01*
X192377488Y-97272341D01*
X192452349Y-97170988D01*
X192459129Y-97158183D01*
X192501335Y-97037996D01*
X192503876Y-97026416D01*
X192506182Y-97002017D01*
X192506400Y-96997411D01*
X192506400Y-96828338D01*
X192502427Y-96816112D01*
X192498831Y-96813500D01*
X191960738Y-96813500D01*
X191948512Y-96817472D01*
X191945900Y-96821068D01*
X191945900Y-97353500D01*
X191935997Y-97396888D01*
X191908249Y-97431683D01*
X191868152Y-97450993D01*
X191845900Y-97453500D01*
X191843238Y-97453500D01*
X191831012Y-97457472D01*
X191828400Y-97461068D01*
X191576400Y-97461068D01*
X191576400Y-97342100D01*
X191586303Y-97298712D01*
X191614051Y-97263917D01*
X191654148Y-97244607D01*
X191676400Y-97242100D01*
X191679062Y-97242100D01*
X191691287Y-97238127D01*
X191693900Y-97234531D01*
X191693900Y-96661500D01*
X191703803Y-96618112D01*
X191731551Y-96583317D01*
X191771648Y-96564007D01*
X191793900Y-96561500D01*
X192491561Y-96561500D01*
X192503786Y-96557527D01*
X192506399Y-96553931D01*
X192506399Y-96377590D01*
X192506181Y-96372978D01*
X192503876Y-96348588D01*
X192501334Y-96336999D01*
X192459129Y-96216816D01*
X192452349Y-96204011D01*
X192377488Y-96102658D01*
X192367241Y-96092411D01*
X192351015Y-96080426D01*
X192321998Y-96046681D01*
X192310496Y-96003689D01*
X192318787Y-95959964D01*
X192345229Y-95924166D01*
X192384584Y-95903386D01*
X192410428Y-95899989D01*
X192881213Y-95899989D01*
X192924601Y-95909892D01*
X192959396Y-95937640D01*
X192978706Y-95977737D01*
X192978706Y-96022241D01*
X192959396Y-96062338D01*
X192939990Y-96080892D01*
X192921791Y-96094113D01*
X192839012Y-96176892D01*
X192830061Y-96189213D01*
X192776911Y-96293523D01*
X192772206Y-96308007D01*
X192758503Y-96394526D01*
X192757900Y-96402187D01*
X192757900Y-96972812D01*
X192758503Y-96980473D01*
X192772206Y-97066992D01*
X192776911Y-97081476D01*
X192831291Y-97188201D01*
X192842165Y-97231356D01*
X192833238Y-97274956D01*
X192806278Y-97310364D01*
X192766624Y-97330569D01*
X192742190Y-97333600D01*
X192690868Y-97333600D01*
X192681329Y-97334539D01*
X192637321Y-97343293D01*
X192619839Y-97350534D01*
X192569892Y-97383908D01*
X192556508Y-97397292D01*
X192523134Y-97447239D01*
X192515893Y-97464721D01*
X192507139Y-97508729D01*
X192506200Y-97518267D01*
X192506200Y-98605188D01*
X192496297Y-98648576D01*
X192476911Y-98675899D01*
X192388811Y-98763999D01*
X192351128Y-98787676D01*
X192306904Y-98792659D01*
X192264897Y-98777960D01*
X192233428Y-98746491D01*
X192218729Y-98704484D01*
X192218100Y-98693288D01*
X192218100Y-98404188D01*
X192214127Y-98391962D01*
X192210531Y-98389350D01*
X191843238Y-98389350D01*
X191831012Y-98393322D01*
X191828400Y-98396918D01*
X191828400Y-99227763D01*
X191833165Y-99242429D01*
X191837154Y-99286754D01*
X191821515Y-99328420D01*
X191808770Y-99344040D01*
X191219099Y-99933711D01*
X191181416Y-99957388D01*
X191148388Y-99963000D01*
X191033061Y-99963000D01*
X190989673Y-99953097D01*
X190954878Y-99925349D01*
X190943960Y-99908399D01*
X190902338Y-99826713D01*
X190893387Y-99814392D01*
X190810607Y-99731612D01*
X190798286Y-99722661D01*
X190693976Y-99669511D01*
X190679492Y-99664806D01*
X190592973Y-99651103D01*
X190585312Y-99650500D01*
X190014688Y-99650500D01*
X190007026Y-99651103D01*
X189920507Y-99664806D01*
X189906023Y-99669511D01*
X189801713Y-99722661D01*
X189789392Y-99731612D01*
X189706612Y-99814392D01*
X189697661Y-99826713D01*
X189644511Y-99931023D01*
X189639806Y-99945507D01*
X189626103Y-100032026D01*
X189625500Y-100039687D01*
X189625500Y-100535312D01*
X189626103Y-100542973D01*
X189639806Y-100629492D01*
X189644511Y-100643976D01*
X189697661Y-100748286D01*
X189706612Y-100760607D01*
X189789392Y-100843387D01*
X189801717Y-100852342D01*
X189903299Y-100904101D01*
X189937463Y-100932622D01*
X189955868Y-100973142D01*
X189957900Y-100993201D01*
X189957900Y-101162085D01*
X189947997Y-101205473D01*
X189920249Y-101240268D01*
X189903299Y-101251185D01*
X189831717Y-101287657D01*
X189819392Y-101296612D01*
X189736612Y-101379392D01*
X189727661Y-101391713D01*
X189674511Y-101496023D01*
X189669806Y-101510507D01*
X189656103Y-101597026D01*
X189655500Y-101604687D01*
X189655500Y-102100312D01*
X189656103Y-102107973D01*
X189669806Y-102194492D01*
X189674511Y-102208976D01*
X189727661Y-102313286D01*
X189736612Y-102325607D01*
X189819392Y-102408387D01*
X189831713Y-102417338D01*
X189936023Y-102470488D01*
X189950507Y-102475193D01*
X190037026Y-102488896D01*
X190044688Y-102489500D01*
X190615312Y-102489500D01*
X190622973Y-102488896D01*
X190709492Y-102475193D01*
X190723976Y-102470488D01*
X190828286Y-102417338D01*
X190840607Y-102408387D01*
X190923387Y-102325607D01*
X190932338Y-102313286D01*
X190985488Y-102208976D01*
X190990193Y-102194492D01*
X191003896Y-102107973D01*
X191004500Y-102100312D01*
X191004500Y-101604687D01*
X191003896Y-101597026D01*
X190990193Y-101510507D01*
X190985488Y-101496023D01*
X190932338Y-101391713D01*
X190923387Y-101379392D01*
X190840607Y-101296612D01*
X190828286Y-101287661D01*
X190716966Y-101230940D01*
X190717421Y-101230045D01*
X190687790Y-101212339D01*
X190663275Y-101175196D01*
X190656900Y-101140063D01*
X190656900Y-100985660D01*
X190666803Y-100942272D01*
X190694551Y-100907477D01*
X190711501Y-100896560D01*
X190798282Y-100852342D01*
X190810607Y-100843387D01*
X190893387Y-100760607D01*
X190902338Y-100748286D01*
X190943960Y-100666601D01*
X190972482Y-100632437D01*
X191013002Y-100614032D01*
X191033061Y-100612000D01*
X191305688Y-100612000D01*
X191314404Y-100612381D01*
X191344399Y-100615005D01*
X191361221Y-100613533D01*
X191390313Y-100605738D01*
X191398832Y-100603849D01*
X191428478Y-100598621D01*
X191449872Y-100590834D01*
X191470498Y-100581216D01*
X191495159Y-100563949D01*
X191502517Y-100559261D01*
X191528598Y-100544203D01*
X191541537Y-100533345D01*
X191560887Y-100510286D01*
X191566780Y-100503854D01*
X192848245Y-99222389D01*
X192885928Y-99198712D01*
X192918956Y-99193100D01*
X193075865Y-99193100D01*
X193119253Y-99203003D01*
X193154048Y-99230751D01*
X193173358Y-99270848D01*
X193173358Y-99315352D01*
X193154048Y-99355449D01*
X193146576Y-99363811D01*
X191486050Y-101024338D01*
X191479618Y-101030232D01*
X191456549Y-101049588D01*
X191445698Y-101062520D01*
X191430639Y-101088605D01*
X191425951Y-101095963D01*
X191408683Y-101120623D01*
X191399065Y-101141249D01*
X191391278Y-101162643D01*
X191386051Y-101192290D01*
X191384162Y-101200809D01*
X191376366Y-101229900D01*
X191374894Y-101246722D01*
X191377519Y-101276718D01*
X191377900Y-101285434D01*
X191377900Y-102726633D01*
X191367997Y-102770021D01*
X191340249Y-102804816D01*
X191333458Y-102809779D01*
X191299895Y-102832205D01*
X191286508Y-102845592D01*
X191253134Y-102895539D01*
X191245893Y-102913021D01*
X191237139Y-102957029D01*
X191236200Y-102966567D01*
X191236200Y-103262150D01*
X191226297Y-103305538D01*
X191198549Y-103340333D01*
X191158452Y-103359643D01*
X191136200Y-103362150D01*
X191104500Y-103362150D01*
X191061112Y-103352247D01*
X191026317Y-103324499D01*
X191007007Y-103284402D01*
X191004500Y-103262150D01*
X191004500Y-103179687D01*
X191003896Y-103172026D01*
X190990193Y-103085507D01*
X190985488Y-103071023D01*
X190932338Y-102966713D01*
X190923387Y-102954392D01*
X190840607Y-102871612D01*
X190828286Y-102862661D01*
X190723976Y-102809511D01*
X190709492Y-102804806D01*
X190622973Y-102791103D01*
X190615312Y-102790500D01*
X190044688Y-102790500D01*
X190037026Y-102791103D01*
X189950507Y-102804806D01*
X189936023Y-102809511D01*
X189831713Y-102862661D01*
X189819392Y-102871612D01*
X189736612Y-102954392D01*
X189727661Y-102966713D01*
X189674511Y-103071023D01*
X189669806Y-103085507D01*
X189656103Y-103172026D01*
X189655500Y-103179687D01*
X189655500Y-103675312D01*
X189656103Y-103682973D01*
X189669806Y-103769492D01*
X189674511Y-103783976D01*
X189727661Y-103888286D01*
X189736612Y-103900607D01*
X189819392Y-103983387D01*
X189831713Y-103992338D01*
X189936023Y-104045488D01*
X189950507Y-104050193D01*
X190037026Y-104063896D01*
X190044688Y-104064500D01*
X190615312Y-104064500D01*
X190622973Y-104063896D01*
X190632545Y-104062381D01*
X190648188Y-104061150D01*
X191136200Y-104061150D01*
X191179588Y-104071053D01*
X191214383Y-104098801D01*
X191233693Y-104138898D01*
X191236200Y-104161150D01*
X191236200Y-104456732D01*
X191237139Y-104466270D01*
X191245893Y-104510278D01*
X191253134Y-104527760D01*
X191286508Y-104577707D01*
X191299892Y-104591091D01*
X191349839Y-104624465D01*
X191367321Y-104631706D01*
X191411329Y-104640460D01*
X191420868Y-104641400D01*
X191983932Y-104641400D01*
X191993470Y-104640460D01*
X192037478Y-104631706D01*
X192054960Y-104624465D01*
X192104907Y-104591091D01*
X192118291Y-104577707D01*
X192151665Y-104527760D01*
X192158906Y-104510278D01*
X192167660Y-104466270D01*
X192168600Y-104456732D01*
X192168600Y-102966567D01*
X192506200Y-102966567D01*
X192506200Y-104456732D01*
X192507139Y-104466270D01*
X192517814Y-104519936D01*
X192517510Y-104519996D01*
X192522900Y-104547085D01*
X192522900Y-104907373D01*
X192522207Y-104919126D01*
X192518907Y-104947001D01*
X192519363Y-104961484D01*
X192528632Y-105012234D01*
X192529148Y-105015334D01*
X192536828Y-105066422D01*
X192539276Y-105074376D01*
X192539771Y-105076406D01*
X192540537Y-105078641D01*
X192541504Y-105081616D01*
X192542214Y-105083924D01*
X192543018Y-105085886D01*
X192545709Y-105093746D01*
X192569486Y-105139519D01*
X192570889Y-105142329D01*
X192593255Y-105188906D01*
X192597936Y-105195794D01*
X192599625Y-105198624D01*
X192608134Y-105211251D01*
X192610215Y-105213504D01*
X192646465Y-105249754D01*
X192649188Y-105252587D01*
X192656334Y-105260318D01*
X192678513Y-105298902D01*
X192682900Y-105328196D01*
X192682900Y-105572812D01*
X192683503Y-105580473D01*
X192697206Y-105666992D01*
X192701911Y-105681476D01*
X192755061Y-105785786D01*
X192764012Y-105798107D01*
X192846792Y-105880887D01*
X192859113Y-105889838D01*
X192963423Y-105942988D01*
X192977907Y-105947693D01*
X193064426Y-105961396D01*
X193072088Y-105962000D01*
X193567712Y-105962000D01*
X193575373Y-105961396D01*
X193661892Y-105947693D01*
X193676376Y-105942988D01*
X193780686Y-105889838D01*
X193793007Y-105880887D01*
X193875787Y-105798107D01*
X193884738Y-105785786D01*
X193937888Y-105681476D01*
X193942593Y-105666992D01*
X193956296Y-105580473D01*
X193956900Y-105572812D01*
X193956900Y-105002187D01*
X194257900Y-105002187D01*
X194257900Y-105572812D01*
X194258503Y-105580473D01*
X194272206Y-105666992D01*
X194276911Y-105681476D01*
X194330061Y-105785786D01*
X194339012Y-105798107D01*
X194421792Y-105880887D01*
X194434113Y-105889838D01*
X194538423Y-105942988D01*
X194552907Y-105947693D01*
X194639426Y-105961396D01*
X194647088Y-105962000D01*
X195142712Y-105962000D01*
X195150373Y-105961396D01*
X195236892Y-105947693D01*
X195251376Y-105942988D01*
X195355686Y-105889838D01*
X195368007Y-105880887D01*
X195450787Y-105798107D01*
X195459738Y-105785786D01*
X195512888Y-105681476D01*
X195517593Y-105666992D01*
X195531296Y-105580473D01*
X195531900Y-105572812D01*
X195531900Y-105327611D01*
X195541803Y-105284223D01*
X195561189Y-105256900D01*
X195579021Y-105239068D01*
X198813501Y-105239068D01*
X198813501Y-105415409D01*
X198813718Y-105420021D01*
X198816023Y-105444411D01*
X198818565Y-105456000D01*
X198860770Y-105576183D01*
X198867550Y-105588988D01*
X198942411Y-105690341D01*
X198952658Y-105700588D01*
X199054011Y-105775449D01*
X199066816Y-105782229D01*
X199187003Y-105824435D01*
X199198583Y-105826976D01*
X199222982Y-105829282D01*
X199227588Y-105829500D01*
X199359162Y-105829500D01*
X199371387Y-105825527D01*
X199374000Y-105821931D01*
X199374000Y-105246338D01*
X199371638Y-105239068D01*
X199626000Y-105239068D01*
X199626000Y-105814660D01*
X199629972Y-105826886D01*
X199633569Y-105829499D01*
X199772409Y-105829499D01*
X199777021Y-105829281D01*
X199801411Y-105826976D01*
X199813000Y-105824434D01*
X199933183Y-105782229D01*
X199945988Y-105775449D01*
X200047341Y-105700588D01*
X200057588Y-105690341D01*
X200132449Y-105588988D01*
X200139229Y-105576183D01*
X200181435Y-105455996D01*
X200183976Y-105444416D01*
X200186282Y-105420017D01*
X200186500Y-105415411D01*
X200186500Y-105246338D01*
X200182527Y-105234112D01*
X200178931Y-105231500D01*
X199640838Y-105231500D01*
X199628612Y-105235472D01*
X199626000Y-105239068D01*
X199371638Y-105239068D01*
X199370027Y-105234112D01*
X199366431Y-105231500D01*
X198828339Y-105231500D01*
X198816113Y-105235472D01*
X198813501Y-105239068D01*
X195579021Y-105239068D01*
X195807177Y-105010912D01*
X195815978Y-105003092D01*
X195838018Y-104985716D01*
X195847940Y-104975150D01*
X195877284Y-104932695D01*
X195879108Y-104930141D01*
X195909788Y-104888601D01*
X195913682Y-104881247D01*
X195914774Y-104879449D01*
X195915809Y-104877337D01*
X195917236Y-104874537D01*
X195918355Y-104872423D01*
X195919174Y-104870468D01*
X195922832Y-104863000D01*
X195938393Y-104813799D01*
X195939387Y-104810820D01*
X195944738Y-104795582D01*
X198813500Y-104795582D01*
X198813500Y-104964661D01*
X198817472Y-104976887D01*
X198821069Y-104979500D01*
X199359162Y-104979500D01*
X199371387Y-104975527D01*
X199374000Y-104971931D01*
X199374000Y-104396339D01*
X199371637Y-104389068D01*
X199626000Y-104389068D01*
X199626000Y-104964661D01*
X199629972Y-104976887D01*
X199633569Y-104979500D01*
X200171661Y-104979500D01*
X200183886Y-104975527D01*
X200186499Y-104971931D01*
X200186499Y-104795582D01*
X200186281Y-104790978D01*
X200183976Y-104766588D01*
X200181434Y-104754999D01*
X200139229Y-104634816D01*
X200132449Y-104622011D01*
X200057588Y-104520658D01*
X200047341Y-104510411D01*
X199945988Y-104435550D01*
X199933183Y-104428770D01*
X199812996Y-104386564D01*
X199801416Y-104384023D01*
X199777017Y-104381717D01*
X199772412Y-104381500D01*
X199640838Y-104381500D01*
X199628612Y-104385472D01*
X199626000Y-104389068D01*
X199371637Y-104389068D01*
X199370027Y-104384113D01*
X199366431Y-104381501D01*
X199227591Y-104381501D01*
X199222978Y-104381718D01*
X199198588Y-104384023D01*
X199186999Y-104386565D01*
X199066816Y-104428770D01*
X199054011Y-104435550D01*
X198952658Y-104510411D01*
X198942411Y-104520658D01*
X198867550Y-104622011D01*
X198860770Y-104634816D01*
X198818564Y-104755003D01*
X198816023Y-104766583D01*
X198813717Y-104790982D01*
X198813500Y-104795582D01*
X195944738Y-104795582D01*
X195956496Y-104762097D01*
X195958055Y-104753928D01*
X195958865Y-104750718D01*
X195961779Y-104735766D01*
X195961900Y-104732701D01*
X195961900Y-104681459D01*
X195961977Y-104677533D01*
X195963945Y-104627434D01*
X195962504Y-104614376D01*
X195961900Y-104603403D01*
X195961900Y-104547085D01*
X195967289Y-104519996D01*
X195966986Y-104519936D01*
X195977660Y-104466270D01*
X195978600Y-104456732D01*
X195978600Y-103122128D01*
X195988503Y-103078740D01*
X196016251Y-103043945D01*
X196056348Y-103024635D01*
X196100852Y-103024635D01*
X196140949Y-103043945D01*
X196159037Y-103062715D01*
X196212311Y-103134841D01*
X196222558Y-103145088D01*
X196323911Y-103219949D01*
X196336716Y-103226729D01*
X196456903Y-103268935D01*
X196468483Y-103271476D01*
X196492882Y-103273782D01*
X196497488Y-103274000D01*
X196666562Y-103274000D01*
X196678787Y-103270027D01*
X196681400Y-103266431D01*
X196681400Y-102728338D01*
X196677427Y-102716112D01*
X196673831Y-102713500D01*
X196098239Y-102713500D01*
X196086013Y-102717472D01*
X196083401Y-102721068D01*
X196083401Y-102759280D01*
X196073498Y-102802668D01*
X196045750Y-102837463D01*
X196005653Y-102856773D01*
X195961149Y-102856773D01*
X195921052Y-102837463D01*
X195915954Y-102832908D01*
X195864960Y-102798834D01*
X195847478Y-102791593D01*
X195803470Y-102782839D01*
X195793932Y-102781900D01*
X195230868Y-102781900D01*
X195221329Y-102782839D01*
X195177321Y-102791593D01*
X195159839Y-102798834D01*
X195109892Y-102832208D01*
X195096508Y-102845592D01*
X195063134Y-102895539D01*
X195055893Y-102913021D01*
X195047139Y-102957029D01*
X195046200Y-102966567D01*
X195046200Y-104459089D01*
X195036297Y-104502477D01*
X195016911Y-104529800D01*
X194963000Y-104583711D01*
X194925317Y-104607388D01*
X194892289Y-104613000D01*
X194850795Y-104613000D01*
X194807407Y-104603097D01*
X194772612Y-104575349D01*
X194753302Y-104535252D01*
X194752717Y-104493490D01*
X194757159Y-104471154D01*
X194758100Y-104461608D01*
X194758100Y-103852488D01*
X194754127Y-103840262D01*
X194750531Y-103837650D01*
X194383238Y-103837650D01*
X194371012Y-103841622D01*
X194368400Y-103845218D01*
X194368400Y-104687439D01*
X194370973Y-104716031D01*
X194355334Y-104757697D01*
X194342589Y-104773316D01*
X194339012Y-104776892D01*
X194330061Y-104789213D01*
X194276911Y-104893523D01*
X194272206Y-104908007D01*
X194258503Y-104994526D01*
X194257900Y-105002187D01*
X193956900Y-105002187D01*
X193956296Y-104994526D01*
X193942593Y-104908007D01*
X193937887Y-104893521D01*
X193908731Y-104836300D01*
X193897856Y-104793145D01*
X193906783Y-104749545D01*
X193933743Y-104714136D01*
X193973396Y-104693931D01*
X193997831Y-104690900D01*
X194101562Y-104690900D01*
X194113787Y-104686927D01*
X194116400Y-104683331D01*
X194116400Y-103852488D01*
X194112427Y-103840262D01*
X194108831Y-103837650D01*
X193741538Y-103837650D01*
X193729312Y-103841622D01*
X193726700Y-103845218D01*
X193726700Y-104461608D01*
X193727639Y-104471146D01*
X193733859Y-104502415D01*
X193732610Y-104546902D01*
X193712184Y-104586441D01*
X193676625Y-104613202D01*
X193632976Y-104621885D01*
X193620136Y-104620693D01*
X193575370Y-104613602D01*
X193567712Y-104613000D01*
X193530325Y-104613000D01*
X193486937Y-104603097D01*
X193452142Y-104575349D01*
X193432832Y-104535252D01*
X193432247Y-104493490D01*
X193437659Y-104466278D01*
X193438600Y-104456732D01*
X193438600Y-102966557D01*
X193438121Y-102961691D01*
X193726700Y-102961691D01*
X193726700Y-103570811D01*
X193730672Y-103583037D01*
X193734269Y-103585650D01*
X194101562Y-103585650D01*
X194113787Y-103581677D01*
X194116400Y-103578081D01*
X194116400Y-102747238D01*
X194114038Y-102739968D01*
X194368400Y-102739968D01*
X194368400Y-103570811D01*
X194372372Y-103583037D01*
X194375969Y-103585650D01*
X194743262Y-103585650D01*
X194755487Y-103581677D01*
X194758100Y-103578081D01*
X194758100Y-102961691D01*
X194757159Y-102952138D01*
X194745536Y-102893711D01*
X194738292Y-102876222D01*
X194693982Y-102809907D01*
X194680592Y-102796517D01*
X194614277Y-102752207D01*
X194596788Y-102744963D01*
X194538356Y-102733340D01*
X194528808Y-102732400D01*
X194383238Y-102732400D01*
X194371012Y-102736372D01*
X194368400Y-102739968D01*
X194114038Y-102739968D01*
X194112427Y-102735012D01*
X194108831Y-102732400D01*
X193955992Y-102732400D01*
X193946443Y-102733340D01*
X193888011Y-102744963D01*
X193870522Y-102752207D01*
X193804207Y-102796517D01*
X193790817Y-102809907D01*
X193746507Y-102876222D01*
X193739263Y-102893711D01*
X193727641Y-102952138D01*
X193726700Y-102961691D01*
X193438121Y-102961691D01*
X193437662Y-102957037D01*
X193428906Y-102913021D01*
X193421665Y-102895539D01*
X193388291Y-102845592D01*
X193374907Y-102832208D01*
X193324960Y-102798834D01*
X193307478Y-102791593D01*
X193263470Y-102782839D01*
X193253932Y-102781900D01*
X192690868Y-102781900D01*
X192681329Y-102782839D01*
X192637321Y-102791593D01*
X192619839Y-102798834D01*
X192569892Y-102832208D01*
X192556508Y-102845592D01*
X192523134Y-102895539D01*
X192515893Y-102913021D01*
X192507139Y-102957029D01*
X192506200Y-102966567D01*
X192168600Y-102966567D01*
X192167660Y-102957029D01*
X192158906Y-102913021D01*
X192151665Y-102895539D01*
X192118291Y-102845592D01*
X192104904Y-102832205D01*
X192071342Y-102809779D01*
X192040768Y-102777439D01*
X192027254Y-102735037D01*
X192026900Y-102726633D01*
X192026900Y-102315088D01*
X196083400Y-102315088D01*
X196083400Y-102446661D01*
X196087372Y-102458887D01*
X196090969Y-102461500D01*
X196666562Y-102461500D01*
X196678787Y-102457527D01*
X196681400Y-102453931D01*
X196681400Y-101915839D01*
X196677427Y-101903613D01*
X196673831Y-101901001D01*
X196497491Y-101901001D01*
X196492878Y-101901218D01*
X196468488Y-101903523D01*
X196456899Y-101906065D01*
X196336716Y-101948270D01*
X196323911Y-101955050D01*
X196222558Y-102029911D01*
X196212311Y-102040158D01*
X196137450Y-102141511D01*
X196130670Y-102154316D01*
X196088464Y-102274503D01*
X196085923Y-102286083D01*
X196083617Y-102310482D01*
X196083400Y-102315088D01*
X192026900Y-102315088D01*
X192026900Y-101442734D01*
X192036803Y-101399346D01*
X192056189Y-101372023D01*
X194205824Y-99222389D01*
X194243507Y-99198712D01*
X194276535Y-99193100D01*
X194523932Y-99193100D01*
X194533470Y-99192160D01*
X194577478Y-99183406D01*
X194594960Y-99176165D01*
X194644907Y-99142791D01*
X194658291Y-99129407D01*
X194691665Y-99079460D01*
X194698906Y-99061978D01*
X194707660Y-99017970D01*
X194708600Y-99008432D01*
X194708600Y-97518267D01*
X194707660Y-97508729D01*
X194698906Y-97464721D01*
X194691665Y-97447239D01*
X194658291Y-97397292D01*
X194644907Y-97383908D01*
X194594960Y-97350534D01*
X194577478Y-97343293D01*
X194528653Y-97333581D01*
X194528875Y-97332460D01*
X194493562Y-97320657D01*
X194481295Y-97311852D01*
X194465187Y-97298336D01*
X194458754Y-97292442D01*
X194061189Y-96894877D01*
X194037512Y-96857194D01*
X194031900Y-96824166D01*
X194031900Y-96822515D01*
X194041803Y-96779127D01*
X194069551Y-96744332D01*
X194109648Y-96725022D01*
X194154152Y-96725022D01*
X194192776Y-96743180D01*
X194292566Y-96819751D01*
X194303598Y-96826120D01*
X194437561Y-96881610D01*
X194449873Y-96884909D01*
X194593629Y-96903835D01*
X194606371Y-96903835D01*
X194750126Y-96884909D01*
X194762438Y-96881610D01*
X194896401Y-96826120D01*
X194907433Y-96819751D01*
X195027024Y-96727987D01*
X195067475Y-96709430D01*
X195111971Y-96710262D01*
X195151700Y-96730318D01*
X195178793Y-96765626D01*
X195187900Y-96807322D01*
X195187900Y-97278333D01*
X195177997Y-97321721D01*
X195150249Y-97356516D01*
X195143458Y-97361479D01*
X195109895Y-97383905D01*
X195096508Y-97397292D01*
X195063134Y-97447239D01*
X195055893Y-97464721D01*
X195047139Y-97508729D01*
X195046200Y-97518267D01*
X195046200Y-99008432D01*
X195047139Y-99017970D01*
X195055893Y-99061978D01*
X195063134Y-99079460D01*
X195096508Y-99129407D01*
X195109892Y-99142791D01*
X195159839Y-99176165D01*
X195177321Y-99183406D01*
X195221329Y-99192160D01*
X195230868Y-99193100D01*
X195793932Y-99193100D01*
X195803470Y-99192160D01*
X195847481Y-99183406D01*
X195849892Y-99182408D01*
X195893767Y-99174954D01*
X195936532Y-99187276D01*
X195958868Y-99204086D01*
X196428611Y-99673829D01*
X196452288Y-99711512D01*
X196457900Y-99744540D01*
X196457900Y-100310570D01*
X196447997Y-100353958D01*
X196420249Y-100388753D01*
X196403299Y-100399671D01*
X196309113Y-100447661D01*
X196296792Y-100456612D01*
X196214012Y-100539392D01*
X196205061Y-100551713D01*
X196151911Y-100656023D01*
X196147206Y-100670507D01*
X196133503Y-100757026D01*
X196132900Y-100764687D01*
X196132900Y-101260312D01*
X196133503Y-101267973D01*
X196147206Y-101354492D01*
X196151911Y-101368976D01*
X196205061Y-101473286D01*
X196214012Y-101485607D01*
X196296792Y-101568387D01*
X196309113Y-101577338D01*
X196413423Y-101630488D01*
X196427907Y-101635193D01*
X196514426Y-101648896D01*
X196522088Y-101649500D01*
X196908710Y-101649500D01*
X196952098Y-101659403D01*
X196979421Y-101678789D01*
X197030921Y-101730289D01*
X197054598Y-101767972D01*
X197059581Y-101812196D01*
X197044882Y-101854203D01*
X197013413Y-101885672D01*
X196971406Y-101900371D01*
X196960210Y-101901000D01*
X196948238Y-101901000D01*
X196936012Y-101904972D01*
X196933400Y-101908568D01*
X196933400Y-103259160D01*
X196937372Y-103271386D01*
X196940969Y-103273999D01*
X197117309Y-103273999D01*
X197121921Y-103273781D01*
X197146311Y-103271476D01*
X197157897Y-103268934D01*
X197234717Y-103241958D01*
X197278936Y-103236925D01*
X197320959Y-103251577D01*
X197352464Y-103283011D01*
X197362412Y-103303778D01*
X197362530Y-103304121D01*
X197364000Y-103308760D01*
X197364180Y-103309380D01*
X197365092Y-103311607D01*
X197368615Y-103321898D01*
X197387367Y-103356650D01*
X197389507Y-103360850D01*
X197407452Y-103398223D01*
X197413628Y-103407787D01*
X197416019Y-103410395D01*
X197421331Y-103416690D01*
X197425970Y-103422671D01*
X197456697Y-103451075D01*
X197459528Y-103453796D01*
X197736963Y-103731231D01*
X197750262Y-103747698D01*
X197751535Y-103749670D01*
X197762281Y-103761480D01*
X197780945Y-103776193D01*
X197785384Y-103780137D01*
X197785386Y-103780136D01*
X197794684Y-103788014D01*
X197806168Y-103796220D01*
X197809939Y-103799051D01*
X197840940Y-103823490D01*
X197850463Y-103828726D01*
X197860451Y-103835011D01*
X197862272Y-103836313D01*
X197861390Y-103837545D01*
X197886021Y-103857464D01*
X197899801Y-103881008D01*
X197900734Y-103883261D01*
X197934108Y-103933208D01*
X197947492Y-103946592D01*
X197997439Y-103979966D01*
X198014921Y-103987207D01*
X198058929Y-103995961D01*
X198068468Y-103996901D01*
X199571332Y-103996901D01*
X199580870Y-103995961D01*
X199624878Y-103987207D01*
X199642360Y-103979966D01*
X199692307Y-103946592D01*
X199705691Y-103933208D01*
X199739065Y-103883261D01*
X199746306Y-103865779D01*
X199755060Y-103821771D01*
X199756000Y-103812233D01*
X199756000Y-103223768D01*
X200119000Y-103223768D01*
X200119000Y-103812233D01*
X200119939Y-103821771D01*
X200128693Y-103865779D01*
X200135934Y-103883261D01*
X200169308Y-103933208D01*
X200182692Y-103946592D01*
X200232639Y-103979966D01*
X200250121Y-103987207D01*
X200294129Y-103995961D01*
X200303668Y-103996901D01*
X201806532Y-103996901D01*
X201816070Y-103995961D01*
X201860078Y-103987207D01*
X201877560Y-103979966D01*
X201927507Y-103946592D01*
X201928702Y-103945398D01*
X201966385Y-103921721D01*
X202010609Y-103916738D01*
X202052616Y-103931437D01*
X202084085Y-103962906D01*
X202088513Y-103970709D01*
X202107659Y-104008284D01*
X202116612Y-104020607D01*
X202174513Y-104078508D01*
X202198190Y-104116191D01*
X202203173Y-104160415D01*
X202188474Y-104202422D01*
X202174513Y-104219930D01*
X201784654Y-104609789D01*
X201746971Y-104633466D01*
X201702747Y-104638449D01*
X201660740Y-104623750D01*
X201633042Y-104597858D01*
X201630887Y-104594892D01*
X201548107Y-104512112D01*
X201535786Y-104503161D01*
X201431476Y-104450011D01*
X201416992Y-104445306D01*
X201330473Y-104431603D01*
X201322812Y-104431000D01*
X200827188Y-104431000D01*
X200819526Y-104431603D01*
X200733007Y-104445306D01*
X200718523Y-104450011D01*
X200614213Y-104503161D01*
X200601892Y-104512112D01*
X200519112Y-104594892D01*
X200510161Y-104607213D01*
X200457011Y-104711523D01*
X200452306Y-104726007D01*
X200438603Y-104812526D01*
X200438000Y-104820187D01*
X200438000Y-105390812D01*
X200438603Y-105398473D01*
X200452306Y-105484992D01*
X200457011Y-105499476D01*
X200510161Y-105603786D01*
X200519112Y-105616107D01*
X200601892Y-105698887D01*
X200614213Y-105707838D01*
X200718523Y-105760988D01*
X200733007Y-105765693D01*
X200819526Y-105779396D01*
X200827188Y-105780000D01*
X201322812Y-105780000D01*
X201330473Y-105779396D01*
X201416992Y-105765693D01*
X201431476Y-105760988D01*
X201535786Y-105707838D01*
X201548107Y-105698887D01*
X201630887Y-105616107D01*
X201639838Y-105603786D01*
X201692988Y-105499476D01*
X201697695Y-105484988D01*
X201697846Y-105484037D01*
X201698679Y-105481959D01*
X201700126Y-105477507D01*
X201700426Y-105477604D01*
X201714415Y-105442732D01*
X201747266Y-105412707D01*
X201774633Y-105402129D01*
X201787794Y-105399163D01*
X201789888Y-105398264D01*
X201811058Y-105391832D01*
X201813294Y-105391415D01*
X201829889Y-105385012D01*
X201844703Y-105375881D01*
X201857701Y-105369129D01*
X201875679Y-105361404D01*
X201886685Y-105354706D01*
X201888460Y-105353096D01*
X201891106Y-105350451D01*
X201909344Y-105336035D01*
X201909463Y-105335961D01*
X201922639Y-105324014D01*
X201934713Y-105308136D01*
X201943603Y-105297954D01*
X203045662Y-104195895D01*
X203083345Y-104172218D01*
X203085472Y-104171500D01*
X203103977Y-104165487D01*
X203208286Y-104112338D01*
X203220607Y-104103387D01*
X203303387Y-104020607D01*
X203312338Y-104008286D01*
X203365488Y-103903976D01*
X203370193Y-103889492D01*
X203383896Y-103802973D01*
X203384500Y-103795312D01*
X203384500Y-103299687D01*
X203383896Y-103292026D01*
X203370193Y-103205507D01*
X203365488Y-103191023D01*
X203312338Y-103086713D01*
X203303387Y-103074392D01*
X203220607Y-102991612D01*
X203208286Y-102982661D01*
X203103976Y-102929511D01*
X203089492Y-102924806D01*
X203002973Y-102911103D01*
X202995312Y-102910500D01*
X202424688Y-102910500D01*
X202417026Y-102911103D01*
X202330507Y-102924806D01*
X202316023Y-102929511D01*
X202211713Y-102982661D01*
X202199392Y-102991612D01*
X202116612Y-103074392D01*
X202103034Y-103093082D01*
X202102342Y-103092579D01*
X202079803Y-103119581D01*
X202039284Y-103137988D01*
X201994791Y-103136993D01*
X201955136Y-103116791D01*
X201948359Y-103109254D01*
X201947856Y-103109758D01*
X201927507Y-103089409D01*
X201877560Y-103056035D01*
X201860078Y-103048794D01*
X201816070Y-103040040D01*
X201806532Y-103039101D01*
X200303668Y-103039101D01*
X200294129Y-103040040D01*
X200250121Y-103048794D01*
X200232639Y-103056035D01*
X200182692Y-103089409D01*
X200169308Y-103102793D01*
X200135934Y-103152740D01*
X200128693Y-103170222D01*
X200119939Y-103214230D01*
X200119000Y-103223768D01*
X199756000Y-103223768D01*
X199755060Y-103214230D01*
X199746306Y-103170222D01*
X199739065Y-103152740D01*
X199702862Y-103098559D01*
X199686991Y-103056981D01*
X199690731Y-103012634D01*
X199702862Y-102987444D01*
X199739064Y-102933263D01*
X199746306Y-102915778D01*
X199755060Y-102871770D01*
X199756000Y-102862232D01*
X199756000Y-102273767D01*
X199755060Y-102264229D01*
X199746306Y-102220221D01*
X199739064Y-102202737D01*
X199731976Y-102192128D01*
X199716106Y-102150550D01*
X199719847Y-102106203D01*
X199736709Y-102077617D01*
X199735909Y-102077083D01*
X199785692Y-102002576D01*
X199792936Y-101985087D01*
X199804559Y-101926655D01*
X199805500Y-101917107D01*
X199805500Y-101758837D01*
X199801527Y-101746611D01*
X199797931Y-101743999D01*
X198793900Y-101743999D01*
X198750512Y-101734096D01*
X198715717Y-101706348D01*
X198696407Y-101666251D01*
X198693900Y-101643999D01*
X198693900Y-101104437D01*
X198689927Y-101092211D01*
X198686331Y-101089599D01*
X198063592Y-101089599D01*
X198054043Y-101090539D01*
X197995611Y-101102162D01*
X197978122Y-101109406D01*
X197911807Y-101153716D01*
X197898417Y-101167106D01*
X197854107Y-101233421D01*
X197846863Y-101250910D01*
X197835238Y-101309350D01*
X197834738Y-101314433D01*
X197820630Y-101356642D01*
X197789604Y-101388549D01*
X197747808Y-101403835D01*
X197703518Y-101399472D01*
X197665507Y-101376324D01*
X197664509Y-101375341D01*
X197511189Y-101222021D01*
X197487512Y-101184338D01*
X197481900Y-101151310D01*
X197481900Y-100764687D01*
X197481296Y-100757026D01*
X197467593Y-100670507D01*
X197462888Y-100656023D01*
X197409738Y-100551713D01*
X197400787Y-100539392D01*
X197327962Y-100466567D01*
X198934901Y-100466567D01*
X198934901Y-100642908D01*
X198935118Y-100647520D01*
X198937423Y-100671910D01*
X198939965Y-100683499D01*
X198982170Y-100803682D01*
X198988950Y-100816487D01*
X199063811Y-100917840D01*
X199064859Y-100918888D01*
X199066418Y-100921369D01*
X199068254Y-100923855D01*
X199068066Y-100923993D01*
X199088536Y-100956571D01*
X199093519Y-101000795D01*
X199078820Y-101042802D01*
X199047351Y-101074271D01*
X199005344Y-101088970D01*
X198994148Y-101089599D01*
X198960738Y-101089599D01*
X198948512Y-101093571D01*
X198945900Y-101097167D01*
X198945900Y-101477160D01*
X198949872Y-101489386D01*
X198953469Y-101491999D01*
X199790662Y-101491999D01*
X199802887Y-101488026D01*
X199805500Y-101484430D01*
X199805500Y-101318890D01*
X199804559Y-101309337D01*
X199792936Y-101250910D01*
X199785692Y-101233421D01*
X199771750Y-101212555D01*
X199755879Y-101170977D01*
X199759619Y-101126630D01*
X199782231Y-101088298D01*
X199819235Y-101063573D01*
X199854897Y-101056998D01*
X199893809Y-101056998D01*
X199898421Y-101056780D01*
X199922811Y-101054475D01*
X199934400Y-101051933D01*
X200054583Y-101009728D01*
X200067388Y-101002948D01*
X200168741Y-100928087D01*
X200178988Y-100917840D01*
X200253849Y-100816487D01*
X200260629Y-100803682D01*
X200302835Y-100683495D01*
X200305376Y-100671915D01*
X200307682Y-100647516D01*
X200307900Y-100642910D01*
X200307900Y-100473837D01*
X200303927Y-100461611D01*
X200300331Y-100458999D01*
X198949739Y-100458999D01*
X198937513Y-100462971D01*
X198934901Y-100466567D01*
X197327962Y-100466567D01*
X197318007Y-100456612D01*
X197305686Y-100447661D01*
X197211501Y-100399671D01*
X197177338Y-100371149D01*
X197158932Y-100330629D01*
X197156900Y-100310570D01*
X197156900Y-100023087D01*
X198934900Y-100023087D01*
X198934900Y-100192160D01*
X198938872Y-100204386D01*
X198942469Y-100206999D01*
X199480562Y-100206999D01*
X199492787Y-100203026D01*
X199495400Y-100199430D01*
X199495400Y-99684392D01*
X199747400Y-99684392D01*
X199747400Y-100192160D01*
X199751372Y-100204386D01*
X199754969Y-100206999D01*
X200293061Y-100206999D01*
X200305286Y-100203026D01*
X200307899Y-100199430D01*
X200307899Y-100023089D01*
X200307681Y-100018477D01*
X200305376Y-99994087D01*
X200302834Y-99982498D01*
X200260629Y-99862315D01*
X200253849Y-99849510D01*
X200178988Y-99748157D01*
X200168741Y-99737910D01*
X200122567Y-99703805D01*
X200093551Y-99670061D01*
X200082049Y-99627069D01*
X200090339Y-99583344D01*
X200116780Y-99547546D01*
X200122568Y-99542930D01*
X200169742Y-99508086D01*
X200179988Y-99497840D01*
X200254849Y-99396487D01*
X200261629Y-99383682D01*
X200303835Y-99263495D01*
X200306376Y-99251915D01*
X200308682Y-99227516D01*
X200308900Y-99222910D01*
X200308900Y-99053837D01*
X200304927Y-99041611D01*
X200301331Y-99038999D01*
X199763238Y-99038999D01*
X199751012Y-99042971D01*
X199748400Y-99046567D01*
X199748400Y-99671685D01*
X199747400Y-99684392D01*
X199495400Y-99684392D01*
X199495400Y-99574313D01*
X199496400Y-99561605D01*
X199496400Y-99053837D01*
X199492427Y-99041611D01*
X199488831Y-99038999D01*
X198950739Y-99038999D01*
X198938513Y-99042971D01*
X198935901Y-99046567D01*
X198935901Y-99222908D01*
X198936118Y-99227520D01*
X198938423Y-99251910D01*
X198940965Y-99263499D01*
X198983170Y-99383682D01*
X198989950Y-99396487D01*
X199064811Y-99497840D01*
X199075058Y-99508087D01*
X199121233Y-99542193D01*
X199150249Y-99575937D01*
X199161751Y-99618929D01*
X199153461Y-99662654D01*
X199127020Y-99698452D01*
X199121232Y-99703068D01*
X199074057Y-99737911D01*
X199063811Y-99748157D01*
X198988950Y-99849510D01*
X198982170Y-99862315D01*
X198939964Y-99982502D01*
X198937423Y-99994082D01*
X198935117Y-100018481D01*
X198934900Y-100023087D01*
X197156900Y-100023087D01*
X197156900Y-99606303D01*
X197159140Y-99585255D01*
X197159634Y-99582958D01*
X197160387Y-99566998D01*
X197157593Y-99543389D01*
X197157244Y-99537474D01*
X197157240Y-99537475D01*
X197156236Y-99525333D01*
X197153922Y-99511432D01*
X197153258Y-99506765D01*
X197148615Y-99467539D01*
X197145582Y-99457098D01*
X197145045Y-99454739D01*
X197144830Y-99454111D01*
X197143412Y-99449629D01*
X197143220Y-99448970D01*
X197142300Y-99446723D01*
X197138781Y-99436445D01*
X197120038Y-99401708D01*
X197117898Y-99397509D01*
X197099946Y-99360124D01*
X197093771Y-99350561D01*
X197091382Y-99347956D01*
X197086069Y-99341660D01*
X197081429Y-99335678D01*
X197050703Y-99307275D01*
X197047872Y-99304554D01*
X196346405Y-98603087D01*
X198935900Y-98603087D01*
X198935900Y-98772160D01*
X198939872Y-98784386D01*
X198943469Y-98786999D01*
X199481562Y-98786999D01*
X199493787Y-98783026D01*
X199496400Y-98779430D01*
X199496400Y-98203838D01*
X199494037Y-98196567D01*
X199748400Y-98196567D01*
X199748400Y-98772160D01*
X199752372Y-98784386D01*
X199755969Y-98786999D01*
X200294061Y-98786999D01*
X200306286Y-98783026D01*
X200308899Y-98779430D01*
X200308899Y-98603089D01*
X200308681Y-98598477D01*
X200306376Y-98574087D01*
X200303834Y-98562498D01*
X200261629Y-98442315D01*
X200254849Y-98429510D01*
X200179988Y-98328157D01*
X200169741Y-98317910D01*
X200068388Y-98243049D01*
X200055583Y-98236269D01*
X199935396Y-98194063D01*
X199923816Y-98191522D01*
X199899417Y-98189216D01*
X199894812Y-98188999D01*
X199763238Y-98188999D01*
X199751012Y-98192971D01*
X199748400Y-98196567D01*
X199494037Y-98196567D01*
X199492427Y-98191612D01*
X199488831Y-98189000D01*
X199349991Y-98189000D01*
X199345378Y-98189217D01*
X199320988Y-98191522D01*
X199309399Y-98194064D01*
X199189216Y-98236269D01*
X199176411Y-98243049D01*
X199075058Y-98317910D01*
X199064811Y-98328157D01*
X198989950Y-98429510D01*
X198983170Y-98442315D01*
X198940964Y-98562502D01*
X198938423Y-98574082D01*
X198936117Y-98598481D01*
X198935900Y-98603087D01*
X196346405Y-98603087D01*
X196007889Y-98264571D01*
X195984212Y-98226888D01*
X195978600Y-98193860D01*
X195978600Y-97518267D01*
X195977660Y-97508729D01*
X195968906Y-97464721D01*
X195961665Y-97447239D01*
X195928291Y-97397292D01*
X195914904Y-97383905D01*
X195881342Y-97361479D01*
X195850768Y-97329139D01*
X195837254Y-97286737D01*
X195836900Y-97278333D01*
X195836900Y-96106309D01*
X195837281Y-96097593D01*
X195839904Y-96067608D01*
X195838432Y-96050783D01*
X195830640Y-96021701D01*
X195828752Y-96013187D01*
X195823521Y-95983526D01*
X195815734Y-95962130D01*
X195806120Y-95941513D01*
X195788842Y-95916838D01*
X195784154Y-95909479D01*
X195769101Y-95883407D01*
X195758248Y-95870472D01*
X195735192Y-95851126D01*
X195728760Y-95845233D01*
X195242665Y-95359139D01*
X195236771Y-95352707D01*
X195217414Y-95329638D01*
X195204482Y-95318787D01*
X195178398Y-95303728D01*
X195171040Y-95299040D01*
X195146379Y-95281772D01*
X195125753Y-95272154D01*
X195104359Y-95264367D01*
X195074713Y-95259140D01*
X195066194Y-95257251D01*
X195037102Y-95249455D01*
X195020280Y-95247983D01*
X194990285Y-95250608D01*
X194981569Y-95250989D01*
X191701074Y-95250989D01*
X191692358Y-95250608D01*
X191662376Y-95247984D01*
X191645548Y-95249456D01*
X191616466Y-95257249D01*
X191607952Y-95259137D01*
X191578291Y-95264367D01*
X191556895Y-95272154D01*
X191536278Y-95281768D01*
X191511603Y-95299047D01*
X191504244Y-95303735D01*
X191478172Y-95318787D01*
X191465237Y-95329640D01*
X191445891Y-95352697D01*
X191439998Y-95359129D01*
X190083650Y-96715478D01*
X190077218Y-96721372D01*
X190054149Y-96740728D01*
X190043298Y-96753660D01*
X190028239Y-96779745D01*
X190023551Y-96787103D01*
X190006283Y-96811763D01*
X189996665Y-96832389D01*
X189988878Y-96853783D01*
X189983651Y-96883430D01*
X189981762Y-96891949D01*
X189973966Y-96921040D01*
X189972494Y-96937862D01*
X189975119Y-96967858D01*
X189975500Y-96976574D01*
X189975500Y-97999284D01*
X189965597Y-98042672D01*
X189937849Y-98077467D01*
X189912985Y-98090845D01*
X189913034Y-98090940D01*
X189908804Y-98093095D01*
X189906396Y-98094391D01*
X189906023Y-98094511D01*
X189801713Y-98147661D01*
X189789392Y-98156612D01*
X189706612Y-98239392D01*
X189697661Y-98251713D01*
X189644511Y-98356023D01*
X189639806Y-98370507D01*
X189626103Y-98457026D01*
X189625500Y-98464687D01*
X188898275Y-98464687D01*
X188903412Y-98440213D01*
X189010986Y-97927673D01*
X189012372Y-97921923D01*
X189186580Y-97282621D01*
X189188303Y-97276963D01*
X189400002Y-96649076D01*
X189402057Y-96643530D01*
X189650511Y-96029249D01*
X189652890Y-96023833D01*
X189937218Y-95425331D01*
X189939913Y-95420066D01*
X190259131Y-94839418D01*
X190262132Y-94834322D01*
X190615131Y-94273542D01*
X190618428Y-94268632D01*
X191003951Y-93729720D01*
X191007534Y-93725013D01*
X191424249Y-93209832D01*
X191428103Y-93205345D01*
X191874542Y-92715706D01*
X191878654Y-92711455D01*
X192353257Y-92249069D01*
X192357614Y-92245069D01*
X192858744Y-91811534D01*
X192863329Y-91807798D01*
X193389184Y-91404670D01*
X193393983Y-91401212D01*
X193942789Y-91029855D01*
X193947783Y-91026687D01*
X194517546Y-90688447D01*
X194522720Y-90685579D01*
X195111504Y-90381605D01*
X195116837Y-90379049D01*
X195306539Y-90294918D01*
X195350217Y-90286380D01*
X195393273Y-90297639D01*
G37*
%TD.AperFunction*%
%TD*%
M02*
