%TF.GenerationSoftware,KiCad,Pcbnew,9.0.7*%
%TF.CreationDate,2026-02-15T20:11:05-05:00*%
%TF.ProjectId,psu,7073752e-6b69-4636-9164-5f7063625858,rev?*%
%TF.SameCoordinates,Original*%
%TF.FileFunction,Legend,Bot*%
%TF.FilePolarity,Positive*%
%FSLAX46Y46*%
G04 Gerber Fmt 4.6, Leading zero omitted, Abs format (unit mm)*
G04 Created by KiCad (PCBNEW 9.0.7) date 2026-02-15 20:11:05*
%MOMM*%
%LPD*%
G01*
G04 APERTURE LIST*
%ADD10C,0.150000*%
G04 APERTURE END LIST*
D10*
X207916666Y-104899366D02*
X207816666Y-104932700D01*
X207816666Y-104932700D02*
X207783332Y-104966033D01*
X207783332Y-104966033D02*
X207749999Y-105032700D01*
X207749999Y-105032700D02*
X207749999Y-105132700D01*
X207749999Y-105132700D02*
X207783332Y-105199366D01*
X207783332Y-105199366D02*
X207816666Y-105232700D01*
X207816666Y-105232700D02*
X207883332Y-105266033D01*
X207883332Y-105266033D02*
X208149999Y-105266033D01*
X208149999Y-105266033D02*
X208149999Y-104566033D01*
X208149999Y-104566033D02*
X207916666Y-104566033D01*
X207916666Y-104566033D02*
X207849999Y-104599366D01*
X207849999Y-104599366D02*
X207816666Y-104632700D01*
X207816666Y-104632700D02*
X207783332Y-104699366D01*
X207783332Y-104699366D02*
X207783332Y-104766033D01*
X207783332Y-104766033D02*
X207816666Y-104832700D01*
X207816666Y-104832700D02*
X207849999Y-104866033D01*
X207849999Y-104866033D02*
X207916666Y-104899366D01*
X207916666Y-104899366D02*
X208149999Y-104899366D01*
X207449999Y-105266033D02*
X207449999Y-104799366D01*
X207449999Y-104566033D02*
X207483332Y-104599366D01*
X207483332Y-104599366D02*
X207449999Y-104632700D01*
X207449999Y-104632700D02*
X207416666Y-104599366D01*
X207416666Y-104599366D02*
X207449999Y-104566033D01*
X207449999Y-104566033D02*
X207449999Y-104632700D01*
X206816666Y-105266033D02*
X206816666Y-104899366D01*
X206816666Y-104899366D02*
X206849999Y-104832700D01*
X206849999Y-104832700D02*
X206916666Y-104799366D01*
X206916666Y-104799366D02*
X207049999Y-104799366D01*
X207049999Y-104799366D02*
X207116666Y-104832700D01*
X206816666Y-105232700D02*
X206883333Y-105266033D01*
X206883333Y-105266033D02*
X207049999Y-105266033D01*
X207049999Y-105266033D02*
X207116666Y-105232700D01*
X207116666Y-105232700D02*
X207149999Y-105166033D01*
X207149999Y-105166033D02*
X207149999Y-105099366D01*
X207149999Y-105099366D02*
X207116666Y-105032700D01*
X207116666Y-105032700D02*
X207049999Y-104999366D01*
X207049999Y-104999366D02*
X206883333Y-104999366D01*
X206883333Y-104999366D02*
X206816666Y-104966033D01*
X206516666Y-105232700D02*
X206450000Y-105266033D01*
X206450000Y-105266033D02*
X206316666Y-105266033D01*
X206316666Y-105266033D02*
X206250000Y-105232700D01*
X206250000Y-105232700D02*
X206216666Y-105166033D01*
X206216666Y-105166033D02*
X206216666Y-105132700D01*
X206216666Y-105132700D02*
X206250000Y-105066033D01*
X206250000Y-105066033D02*
X206316666Y-105032700D01*
X206316666Y-105032700D02*
X206416666Y-105032700D01*
X206416666Y-105032700D02*
X206483333Y-104999366D01*
X206483333Y-104999366D02*
X206516666Y-104932700D01*
X206516666Y-104932700D02*
X206516666Y-104899366D01*
X206516666Y-104899366D02*
X206483333Y-104832700D01*
X206483333Y-104832700D02*
X206416666Y-104799366D01*
X206416666Y-104799366D02*
X206316666Y-104799366D01*
X206316666Y-104799366D02*
X206250000Y-104832700D01*
X205641666Y-97604819D02*
X205641666Y-98414342D01*
X205641666Y-98414342D02*
X205594047Y-98509580D01*
X205594047Y-98509580D02*
X205546428Y-98557200D01*
X205546428Y-98557200D02*
X205451190Y-98604819D01*
X205451190Y-98604819D02*
X205260714Y-98604819D01*
X205260714Y-98604819D02*
X205165476Y-98557200D01*
X205165476Y-98557200D02*
X205117857Y-98509580D01*
X205117857Y-98509580D02*
X205070238Y-98414342D01*
X205070238Y-98414342D02*
X205070238Y-97604819D01*
X204641666Y-98557200D02*
X204498809Y-98604819D01*
X204498809Y-98604819D02*
X204260714Y-98604819D01*
X204260714Y-98604819D02*
X204165476Y-98557200D01*
X204165476Y-98557200D02*
X204117857Y-98509580D01*
X204117857Y-98509580D02*
X204070238Y-98414342D01*
X204070238Y-98414342D02*
X204070238Y-98319104D01*
X204070238Y-98319104D02*
X204117857Y-98223866D01*
X204117857Y-98223866D02*
X204165476Y-98176247D01*
X204165476Y-98176247D02*
X204260714Y-98128628D01*
X204260714Y-98128628D02*
X204451190Y-98081009D01*
X204451190Y-98081009D02*
X204546428Y-98033390D01*
X204546428Y-98033390D02*
X204594047Y-97985771D01*
X204594047Y-97985771D02*
X204641666Y-97890533D01*
X204641666Y-97890533D02*
X204641666Y-97795295D01*
X204641666Y-97795295D02*
X204594047Y-97700057D01*
X204594047Y-97700057D02*
X204546428Y-97652438D01*
X204546428Y-97652438D02*
X204451190Y-97604819D01*
X204451190Y-97604819D02*
X204213095Y-97604819D01*
X204213095Y-97604819D02*
X204070238Y-97652438D01*
X203308333Y-98081009D02*
X203165476Y-98128628D01*
X203165476Y-98128628D02*
X203117857Y-98176247D01*
X203117857Y-98176247D02*
X203070238Y-98271485D01*
X203070238Y-98271485D02*
X203070238Y-98414342D01*
X203070238Y-98414342D02*
X203117857Y-98509580D01*
X203117857Y-98509580D02*
X203165476Y-98557200D01*
X203165476Y-98557200D02*
X203260714Y-98604819D01*
X203260714Y-98604819D02*
X203641666Y-98604819D01*
X203641666Y-98604819D02*
X203641666Y-97604819D01*
X203641666Y-97604819D02*
X203308333Y-97604819D01*
X203308333Y-97604819D02*
X203213095Y-97652438D01*
X203213095Y-97652438D02*
X203165476Y-97700057D01*
X203165476Y-97700057D02*
X203117857Y-97795295D01*
X203117857Y-97795295D02*
X203117857Y-97890533D01*
X203117857Y-97890533D02*
X203165476Y-97985771D01*
X203165476Y-97985771D02*
X203213095Y-98033390D01*
X203213095Y-98033390D02*
X203308333Y-98081009D01*
X203308333Y-98081009D02*
X203641666Y-98081009D01*
X202165476Y-97604819D02*
X202641666Y-97604819D01*
X202641666Y-97604819D02*
X202689285Y-98081009D01*
X202689285Y-98081009D02*
X202641666Y-98033390D01*
X202641666Y-98033390D02*
X202546428Y-97985771D01*
X202546428Y-97985771D02*
X202308333Y-97985771D01*
X202308333Y-97985771D02*
X202213095Y-98033390D01*
X202213095Y-98033390D02*
X202165476Y-98081009D01*
X202165476Y-98081009D02*
X202117857Y-98176247D01*
X202117857Y-98176247D02*
X202117857Y-98414342D01*
X202117857Y-98414342D02*
X202165476Y-98509580D01*
X202165476Y-98509580D02*
X202213095Y-98557200D01*
X202213095Y-98557200D02*
X202308333Y-98604819D01*
X202308333Y-98604819D02*
X202546428Y-98604819D01*
X202546428Y-98604819D02*
X202641666Y-98557200D01*
X202641666Y-98557200D02*
X202689285Y-98509580D01*
X201832142Y-97604819D02*
X201498809Y-98604819D01*
X201498809Y-98604819D02*
X201165476Y-97604819D01*
X210208332Y-104624366D02*
X210274999Y-104591033D01*
X210274999Y-104591033D02*
X210374999Y-104591033D01*
X210374999Y-104591033D02*
X210474999Y-104624366D01*
X210474999Y-104624366D02*
X210541666Y-104691033D01*
X210541666Y-104691033D02*
X210574999Y-104757700D01*
X210574999Y-104757700D02*
X210608332Y-104891033D01*
X210608332Y-104891033D02*
X210608332Y-104991033D01*
X210608332Y-104991033D02*
X210574999Y-105124366D01*
X210574999Y-105124366D02*
X210541666Y-105191033D01*
X210541666Y-105191033D02*
X210474999Y-105257700D01*
X210474999Y-105257700D02*
X210374999Y-105291033D01*
X210374999Y-105291033D02*
X210308332Y-105291033D01*
X210308332Y-105291033D02*
X210208332Y-105257700D01*
X210208332Y-105257700D02*
X210174999Y-105224366D01*
X210174999Y-105224366D02*
X210174999Y-104991033D01*
X210174999Y-104991033D02*
X210308332Y-104991033D01*
X209874999Y-105291033D02*
X209874999Y-104591033D01*
X209874999Y-104591033D02*
X209474999Y-105291033D01*
X209474999Y-105291033D02*
X209474999Y-104591033D01*
X209141666Y-105291033D02*
X209141666Y-104591033D01*
X209141666Y-104591033D02*
X208974999Y-104591033D01*
X208974999Y-104591033D02*
X208874999Y-104624366D01*
X208874999Y-104624366D02*
X208808333Y-104691033D01*
X208808333Y-104691033D02*
X208774999Y-104757700D01*
X208774999Y-104757700D02*
X208741666Y-104891033D01*
X208741666Y-104891033D02*
X208741666Y-104991033D01*
X208741666Y-104991033D02*
X208774999Y-105124366D01*
X208774999Y-105124366D02*
X208808333Y-105191033D01*
X208808333Y-105191033D02*
X208874999Y-105257700D01*
X208874999Y-105257700D02*
X208974999Y-105291033D01*
X208974999Y-105291033D02*
X209141666Y-105291033D01*
X205824999Y-100748866D02*
X205063095Y-100748866D01*
X205444047Y-101129819D02*
X205444047Y-100367914D01*
X204682142Y-100129819D02*
X204063095Y-100129819D01*
X204063095Y-100129819D02*
X204396428Y-100510771D01*
X204396428Y-100510771D02*
X204253571Y-100510771D01*
X204253571Y-100510771D02*
X204158333Y-100558390D01*
X204158333Y-100558390D02*
X204110714Y-100606009D01*
X204110714Y-100606009D02*
X204063095Y-100701247D01*
X204063095Y-100701247D02*
X204063095Y-100939342D01*
X204063095Y-100939342D02*
X204110714Y-101034580D01*
X204110714Y-101034580D02*
X204158333Y-101082200D01*
X204158333Y-101082200D02*
X204253571Y-101129819D01*
X204253571Y-101129819D02*
X204539285Y-101129819D01*
X204539285Y-101129819D02*
X204634523Y-101082200D01*
X204634523Y-101082200D02*
X204682142Y-101034580D01*
X203634523Y-101034580D02*
X203586904Y-101082200D01*
X203586904Y-101082200D02*
X203634523Y-101129819D01*
X203634523Y-101129819D02*
X203682142Y-101082200D01*
X203682142Y-101082200D02*
X203634523Y-101034580D01*
X203634523Y-101034580D02*
X203634523Y-101129819D01*
X203253571Y-100129819D02*
X202634524Y-100129819D01*
X202634524Y-100129819D02*
X202967857Y-100510771D01*
X202967857Y-100510771D02*
X202825000Y-100510771D01*
X202825000Y-100510771D02*
X202729762Y-100558390D01*
X202729762Y-100558390D02*
X202682143Y-100606009D01*
X202682143Y-100606009D02*
X202634524Y-100701247D01*
X202634524Y-100701247D02*
X202634524Y-100939342D01*
X202634524Y-100939342D02*
X202682143Y-101034580D01*
X202682143Y-101034580D02*
X202729762Y-101082200D01*
X202729762Y-101082200D02*
X202825000Y-101129819D01*
X202825000Y-101129819D02*
X203110714Y-101129819D01*
X203110714Y-101129819D02*
X203205952Y-101082200D01*
X203205952Y-101082200D02*
X203253571Y-101034580D01*
X202348809Y-100129819D02*
X202015476Y-101129819D01*
X202015476Y-101129819D02*
X201682143Y-100129819D01*
X210425714Y-96131200D02*
X209968572Y-96131200D01*
X209425715Y-95959771D02*
X209425715Y-96359771D01*
X209568572Y-95731200D02*
X209711429Y-96159771D01*
X209711429Y-96159771D02*
X209340000Y-96159771D01*
X209111428Y-96302628D02*
X209082857Y-96331200D01*
X209082857Y-96331200D02*
X209111428Y-96359771D01*
X209111428Y-96359771D02*
X209140000Y-96331200D01*
X209140000Y-96331200D02*
X209111428Y-96302628D01*
X209111428Y-96302628D02*
X209111428Y-96359771D01*
X208568572Y-95759771D02*
X208682857Y-95759771D01*
X208682857Y-95759771D02*
X208740000Y-95788342D01*
X208740000Y-95788342D02*
X208768572Y-95816914D01*
X208768572Y-95816914D02*
X208825714Y-95902628D01*
X208825714Y-95902628D02*
X208854286Y-96016914D01*
X208854286Y-96016914D02*
X208854286Y-96245485D01*
X208854286Y-96245485D02*
X208825714Y-96302628D01*
X208825714Y-96302628D02*
X208797143Y-96331200D01*
X208797143Y-96331200D02*
X208740000Y-96359771D01*
X208740000Y-96359771D02*
X208625714Y-96359771D01*
X208625714Y-96359771D02*
X208568572Y-96331200D01*
X208568572Y-96331200D02*
X208540000Y-96302628D01*
X208540000Y-96302628D02*
X208511429Y-96245485D01*
X208511429Y-96245485D02*
X208511429Y-96102628D01*
X208511429Y-96102628D02*
X208540000Y-96045485D01*
X208540000Y-96045485D02*
X208568572Y-96016914D01*
X208568572Y-96016914D02*
X208625714Y-95988342D01*
X208625714Y-95988342D02*
X208740000Y-95988342D01*
X208740000Y-95988342D02*
X208797143Y-96016914D01*
X208797143Y-96016914D02*
X208825714Y-96045485D01*
X208825714Y-96045485D02*
X208854286Y-96102628D01*
X208311428Y-95759771D02*
X207911428Y-95759771D01*
X207911428Y-95759771D02*
X208168571Y-96359771D01*
X207768571Y-95759771D02*
X207568571Y-96359771D01*
X207568571Y-96359771D02*
X207368571Y-95759771D01*
M02*
