%TF.GenerationSoftware,KiCad,Pcbnew,9.0.7*%
%TF.CreationDate,2026-02-15T20:11:05-05:00*%
%TF.ProjectId,psu,7073752e-6b69-4636-9164-5f7063625858,rev?*%
%TF.SameCoordinates,Original*%
%TF.FileFunction,Legend,Top*%
%TF.FilePolarity,Positive*%
%FSLAX46Y46*%
G04 Gerber Fmt 4.6, Leading zero omitted, Abs format (unit mm)*
G04 Created by KiCad (PCBNEW 9.0.7) date 2026-02-15 20:11:05*
%MOMM*%
%LPD*%
G01*
G04 APERTURE LIST*
%ADD10C,0.120000*%
%ADD11C,0.100000*%
%ADD12C,0.150000*%
%ADD13C,0.200000*%
%ADD14C,0.152400*%
G04 APERTURE END LIST*
D10*
X204768097Y-90194283D02*
G75*
G02*
X195500000Y-90075000I-4768097J-10355717D01*
G01*
D11*
X204799999Y-93579388D02*
X204942856Y-93979388D01*
X204942856Y-93979388D02*
X205085713Y-93579388D01*
X205628570Y-93979388D02*
X205285713Y-93979388D01*
X205457142Y-93979388D02*
X205457142Y-93379388D01*
X205457142Y-93379388D02*
X205399999Y-93465102D01*
X205399999Y-93465102D02*
X205342856Y-93522245D01*
X205342856Y-93522245D02*
X205285713Y-93550817D01*
X205857142Y-93436531D02*
X205885714Y-93407959D01*
X205885714Y-93407959D02*
X205942857Y-93379388D01*
X205942857Y-93379388D02*
X206085714Y-93379388D01*
X206085714Y-93379388D02*
X206142857Y-93407959D01*
X206142857Y-93407959D02*
X206171428Y-93436531D01*
X206171428Y-93436531D02*
X206199999Y-93493674D01*
X206199999Y-93493674D02*
X206199999Y-93550817D01*
X206199999Y-93550817D02*
X206171428Y-93636531D01*
X206171428Y-93636531D02*
X205828571Y-93979388D01*
X205828571Y-93979388D02*
X206199999Y-93979388D01*
X206400000Y-93379388D02*
X206771428Y-93379388D01*
X206771428Y-93379388D02*
X206571428Y-93607959D01*
X206571428Y-93607959D02*
X206657143Y-93607959D01*
X206657143Y-93607959D02*
X206714286Y-93636531D01*
X206714286Y-93636531D02*
X206742857Y-93665102D01*
X206742857Y-93665102D02*
X206771428Y-93722245D01*
X206771428Y-93722245D02*
X206771428Y-93865102D01*
X206771428Y-93865102D02*
X206742857Y-93922245D01*
X206742857Y-93922245D02*
X206714286Y-93950817D01*
X206714286Y-93950817D02*
X206657143Y-93979388D01*
X206657143Y-93979388D02*
X206485714Y-93979388D01*
X206485714Y-93979388D02*
X206428571Y-93950817D01*
X206428571Y-93950817D02*
X206400000Y-93922245D01*
X205328571Y-94773925D02*
X205614286Y-94773925D01*
X205271428Y-94945354D02*
X205471428Y-94345354D01*
X205471428Y-94345354D02*
X205671428Y-94945354D01*
X205957143Y-94945354D02*
X205900000Y-94916783D01*
X205900000Y-94916783D02*
X205871429Y-94859640D01*
X205871429Y-94859640D02*
X205871429Y-94345354D01*
X206100000Y-94545354D02*
X206328572Y-94545354D01*
X206185715Y-94345354D02*
X206185715Y-94859640D01*
X206185715Y-94859640D02*
X206214286Y-94916783D01*
X206214286Y-94916783D02*
X206271429Y-94945354D01*
X206271429Y-94945354D02*
X206328572Y-94945354D01*
D12*
X197900000Y-105754819D02*
X197900000Y-105992914D01*
X197661905Y-105897676D02*
X197900000Y-105992914D01*
X197900000Y-105992914D02*
X198138095Y-105897676D01*
X197757143Y-106183390D02*
X197900000Y-105992914D01*
X197900000Y-105992914D02*
X198042857Y-106183390D01*
X198200000Y-100154819D02*
X198200000Y-100392914D01*
X197961905Y-100297676D02*
X198200000Y-100392914D01*
X198200000Y-100392914D02*
X198438095Y-100297676D01*
X198057143Y-100583390D02*
X198200000Y-100392914D01*
X198200000Y-100392914D02*
X198342857Y-100583390D01*
D13*
X192154762Y-93424628D02*
X192297619Y-93472247D01*
X192297619Y-93472247D02*
X192535714Y-93472247D01*
X192535714Y-93472247D02*
X192630952Y-93424628D01*
X192630952Y-93424628D02*
X192678571Y-93377008D01*
X192678571Y-93377008D02*
X192726190Y-93281770D01*
X192726190Y-93281770D02*
X192726190Y-93186532D01*
X192726190Y-93186532D02*
X192678571Y-93091294D01*
X192678571Y-93091294D02*
X192630952Y-93043675D01*
X192630952Y-93043675D02*
X192535714Y-92996056D01*
X192535714Y-92996056D02*
X192345238Y-92948437D01*
X192345238Y-92948437D02*
X192250000Y-92900818D01*
X192250000Y-92900818D02*
X192202381Y-92853199D01*
X192202381Y-92853199D02*
X192154762Y-92757961D01*
X192154762Y-92757961D02*
X192154762Y-92662723D01*
X192154762Y-92662723D02*
X192202381Y-92567485D01*
X192202381Y-92567485D02*
X192250000Y-92519866D01*
X192250000Y-92519866D02*
X192345238Y-92472247D01*
X192345238Y-92472247D02*
X192583333Y-92472247D01*
X192583333Y-92472247D02*
X192726190Y-92519866D01*
X193154762Y-93472247D02*
X193154762Y-92805580D01*
X193154762Y-92472247D02*
X193107143Y-92519866D01*
X193107143Y-92519866D02*
X193154762Y-92567485D01*
X193154762Y-92567485D02*
X193202381Y-92519866D01*
X193202381Y-92519866D02*
X193154762Y-92472247D01*
X193154762Y-92472247D02*
X193154762Y-92567485D01*
X193630952Y-93472247D02*
X193630952Y-92472247D01*
X193630952Y-92472247D02*
X194011904Y-92472247D01*
X194011904Y-92472247D02*
X194107142Y-92519866D01*
X194107142Y-92519866D02*
X194154761Y-92567485D01*
X194154761Y-92567485D02*
X194202380Y-92662723D01*
X194202380Y-92662723D02*
X194202380Y-92805580D01*
X194202380Y-92805580D02*
X194154761Y-92900818D01*
X194154761Y-92900818D02*
X194107142Y-92948437D01*
X194107142Y-92948437D02*
X194011904Y-92996056D01*
X194011904Y-92996056D02*
X193630952Y-92996056D01*
X194630952Y-93472247D02*
X194630952Y-92472247D01*
X194630952Y-92472247D02*
X194964285Y-93186532D01*
X194964285Y-93186532D02*
X195297618Y-92472247D01*
X195297618Y-92472247D02*
X195297618Y-93472247D01*
X192488095Y-95082191D02*
X192488095Y-94082191D01*
X192488095Y-94082191D02*
X192869047Y-94082191D01*
X192869047Y-94082191D02*
X192964285Y-94129810D01*
X192964285Y-94129810D02*
X193011904Y-94177429D01*
X193011904Y-94177429D02*
X193059523Y-94272667D01*
X193059523Y-94272667D02*
X193059523Y-94415524D01*
X193059523Y-94415524D02*
X193011904Y-94510762D01*
X193011904Y-94510762D02*
X192964285Y-94558381D01*
X192964285Y-94558381D02*
X192869047Y-94606000D01*
X192869047Y-94606000D02*
X192488095Y-94606000D01*
X193440476Y-95034572D02*
X193583333Y-95082191D01*
X193583333Y-95082191D02*
X193821428Y-95082191D01*
X193821428Y-95082191D02*
X193916666Y-95034572D01*
X193916666Y-95034572D02*
X193964285Y-94986952D01*
X193964285Y-94986952D02*
X194011904Y-94891714D01*
X194011904Y-94891714D02*
X194011904Y-94796476D01*
X194011904Y-94796476D02*
X193964285Y-94701238D01*
X193964285Y-94701238D02*
X193916666Y-94653619D01*
X193916666Y-94653619D02*
X193821428Y-94606000D01*
X193821428Y-94606000D02*
X193630952Y-94558381D01*
X193630952Y-94558381D02*
X193535714Y-94510762D01*
X193535714Y-94510762D02*
X193488095Y-94463143D01*
X193488095Y-94463143D02*
X193440476Y-94367905D01*
X193440476Y-94367905D02*
X193440476Y-94272667D01*
X193440476Y-94272667D02*
X193488095Y-94177429D01*
X193488095Y-94177429D02*
X193535714Y-94129810D01*
X193535714Y-94129810D02*
X193630952Y-94082191D01*
X193630952Y-94082191D02*
X193869047Y-94082191D01*
X193869047Y-94082191D02*
X194011904Y-94129810D01*
X194440476Y-94082191D02*
X194440476Y-94891714D01*
X194440476Y-94891714D02*
X194488095Y-94986952D01*
X194488095Y-94986952D02*
X194535714Y-95034572D01*
X194535714Y-95034572D02*
X194630952Y-95082191D01*
X194630952Y-95082191D02*
X194821428Y-95082191D01*
X194821428Y-95082191D02*
X194916666Y-95034572D01*
X194916666Y-95034572D02*
X194964285Y-94986952D01*
X194964285Y-94986952D02*
X195011904Y-94891714D01*
X195011904Y-94891714D02*
X195011904Y-94082191D01*
D12*
X193062219Y-101749404D02*
X193871742Y-101749404D01*
X193871742Y-101749404D02*
X193966980Y-101701785D01*
X193966980Y-101701785D02*
X194014600Y-101654166D01*
X194014600Y-101654166D02*
X194062219Y-101558928D01*
X194062219Y-101558928D02*
X194062219Y-101368452D01*
X194062219Y-101368452D02*
X194014600Y-101273214D01*
X194014600Y-101273214D02*
X193966980Y-101225595D01*
X193966980Y-101225595D02*
X193871742Y-101177976D01*
X193871742Y-101177976D02*
X193062219Y-101177976D01*
X194062219Y-100177976D02*
X194062219Y-100749404D01*
X194062219Y-100463690D02*
X193062219Y-100463690D01*
X193062219Y-100463690D02*
X193205076Y-100558928D01*
X193205076Y-100558928D02*
X193300314Y-100654166D01*
X193300314Y-100654166D02*
X193347933Y-100749404D01*
D11*
X191693332Y-99998633D02*
X191693332Y-99298633D01*
X191693332Y-99298633D02*
X191926666Y-99798633D01*
X191926666Y-99798633D02*
X192159999Y-99298633D01*
X192159999Y-99298633D02*
X192159999Y-99998633D01*
X192459999Y-99798633D02*
X192793332Y-99798633D01*
X192393332Y-99998633D02*
X192626666Y-99298633D01*
X192626666Y-99298633D02*
X192859999Y-99998633D01*
X193026666Y-99298633D02*
X193493332Y-99998633D01*
X193493332Y-99298633D02*
X193026666Y-99998633D01*
X193859999Y-99598633D02*
X193793333Y-99565300D01*
X193793333Y-99565300D02*
X193759999Y-99531966D01*
X193759999Y-99531966D02*
X193726666Y-99465300D01*
X193726666Y-99465300D02*
X193726666Y-99431966D01*
X193726666Y-99431966D02*
X193759999Y-99365300D01*
X193759999Y-99365300D02*
X193793333Y-99331966D01*
X193793333Y-99331966D02*
X193859999Y-99298633D01*
X193859999Y-99298633D02*
X193993333Y-99298633D01*
X193993333Y-99298633D02*
X194059999Y-99331966D01*
X194059999Y-99331966D02*
X194093333Y-99365300D01*
X194093333Y-99365300D02*
X194126666Y-99431966D01*
X194126666Y-99431966D02*
X194126666Y-99465300D01*
X194126666Y-99465300D02*
X194093333Y-99531966D01*
X194093333Y-99531966D02*
X194059999Y-99565300D01*
X194059999Y-99565300D02*
X193993333Y-99598633D01*
X193993333Y-99598633D02*
X193859999Y-99598633D01*
X193859999Y-99598633D02*
X193793333Y-99631966D01*
X193793333Y-99631966D02*
X193759999Y-99665300D01*
X193759999Y-99665300D02*
X193726666Y-99731966D01*
X193726666Y-99731966D02*
X193726666Y-99865300D01*
X193726666Y-99865300D02*
X193759999Y-99931966D01*
X193759999Y-99931966D02*
X193793333Y-99965300D01*
X193793333Y-99965300D02*
X193859999Y-99998633D01*
X193859999Y-99998633D02*
X193993333Y-99998633D01*
X193993333Y-99998633D02*
X194059999Y-99965300D01*
X194059999Y-99965300D02*
X194093333Y-99931966D01*
X194093333Y-99931966D02*
X194126666Y-99865300D01*
X194126666Y-99865300D02*
X194126666Y-99731966D01*
X194126666Y-99731966D02*
X194093333Y-99665300D01*
X194093333Y-99665300D02*
X194059999Y-99631966D01*
X194059999Y-99631966D02*
X193993333Y-99598633D01*
X194526666Y-99598633D02*
X194460000Y-99565300D01*
X194460000Y-99565300D02*
X194426666Y-99531966D01*
X194426666Y-99531966D02*
X194393333Y-99465300D01*
X194393333Y-99465300D02*
X194393333Y-99431966D01*
X194393333Y-99431966D02*
X194426666Y-99365300D01*
X194426666Y-99365300D02*
X194460000Y-99331966D01*
X194460000Y-99331966D02*
X194526666Y-99298633D01*
X194526666Y-99298633D02*
X194660000Y-99298633D01*
X194660000Y-99298633D02*
X194726666Y-99331966D01*
X194726666Y-99331966D02*
X194760000Y-99365300D01*
X194760000Y-99365300D02*
X194793333Y-99431966D01*
X194793333Y-99431966D02*
X194793333Y-99465300D01*
X194793333Y-99465300D02*
X194760000Y-99531966D01*
X194760000Y-99531966D02*
X194726666Y-99565300D01*
X194726666Y-99565300D02*
X194660000Y-99598633D01*
X194660000Y-99598633D02*
X194526666Y-99598633D01*
X194526666Y-99598633D02*
X194460000Y-99631966D01*
X194460000Y-99631966D02*
X194426666Y-99665300D01*
X194426666Y-99665300D02*
X194393333Y-99731966D01*
X194393333Y-99731966D02*
X194393333Y-99865300D01*
X194393333Y-99865300D02*
X194426666Y-99931966D01*
X194426666Y-99931966D02*
X194460000Y-99965300D01*
X194460000Y-99965300D02*
X194526666Y-99998633D01*
X194526666Y-99998633D02*
X194660000Y-99998633D01*
X194660000Y-99998633D02*
X194726666Y-99965300D01*
X194726666Y-99965300D02*
X194760000Y-99931966D01*
X194760000Y-99931966D02*
X194793333Y-99865300D01*
X194793333Y-99865300D02*
X194793333Y-99731966D01*
X194793333Y-99731966D02*
X194760000Y-99665300D01*
X194760000Y-99665300D02*
X194726666Y-99631966D01*
X194726666Y-99631966D02*
X194660000Y-99598633D01*
X195126667Y-99998633D02*
X195260000Y-99998633D01*
X195260000Y-99998633D02*
X195326667Y-99965300D01*
X195326667Y-99965300D02*
X195360000Y-99931966D01*
X195360000Y-99931966D02*
X195426667Y-99831966D01*
X195426667Y-99831966D02*
X195460000Y-99698633D01*
X195460000Y-99698633D02*
X195460000Y-99431966D01*
X195460000Y-99431966D02*
X195426667Y-99365300D01*
X195426667Y-99365300D02*
X195393333Y-99331966D01*
X195393333Y-99331966D02*
X195326667Y-99298633D01*
X195326667Y-99298633D02*
X195193333Y-99298633D01*
X195193333Y-99298633D02*
X195126667Y-99331966D01*
X195126667Y-99331966D02*
X195093333Y-99365300D01*
X195093333Y-99365300D02*
X195060000Y-99431966D01*
X195060000Y-99431966D02*
X195060000Y-99598633D01*
X195060000Y-99598633D02*
X195093333Y-99665300D01*
X195093333Y-99665300D02*
X195126667Y-99698633D01*
X195126667Y-99698633D02*
X195193333Y-99731966D01*
X195193333Y-99731966D02*
X195326667Y-99731966D01*
X195326667Y-99731966D02*
X195393333Y-99698633D01*
X195393333Y-99698633D02*
X195426667Y-99665300D01*
X195426667Y-99665300D02*
X195460000Y-99598633D01*
X195660000Y-99298633D02*
X196060000Y-99298633D01*
X195860000Y-99998633D02*
X195860000Y-99298633D01*
X196293333Y-99631966D02*
X196526667Y-99631966D01*
X196626667Y-99998633D02*
X196293333Y-99998633D01*
X196293333Y-99998633D02*
X196293333Y-99298633D01*
X196293333Y-99298633D02*
X196626667Y-99298633D01*
X196893333Y-99965300D02*
X196993333Y-99998633D01*
X196993333Y-99998633D02*
X197160000Y-99998633D01*
X197160000Y-99998633D02*
X197226666Y-99965300D01*
X197226666Y-99965300D02*
X197260000Y-99931966D01*
X197260000Y-99931966D02*
X197293333Y-99865300D01*
X197293333Y-99865300D02*
X197293333Y-99798633D01*
X197293333Y-99798633D02*
X197260000Y-99731966D01*
X197260000Y-99731966D02*
X197226666Y-99698633D01*
X197226666Y-99698633D02*
X197160000Y-99665300D01*
X197160000Y-99665300D02*
X197026666Y-99631966D01*
X197026666Y-99631966D02*
X196960000Y-99598633D01*
X196960000Y-99598633D02*
X196926666Y-99565300D01*
X196926666Y-99565300D02*
X196893333Y-99498633D01*
X196893333Y-99498633D02*
X196893333Y-99431966D01*
X196893333Y-99431966D02*
X196926666Y-99365300D01*
X196926666Y-99365300D02*
X196960000Y-99331966D01*
X196960000Y-99331966D02*
X197026666Y-99298633D01*
X197026666Y-99298633D02*
X197193333Y-99298633D01*
X197193333Y-99298633D02*
X197293333Y-99331966D01*
X197560000Y-99798633D02*
X197893333Y-99798633D01*
X197493333Y-99998633D02*
X197726667Y-99298633D01*
X197726667Y-99298633D02*
X197960000Y-99998633D01*
X198193333Y-99731966D02*
X198726667Y-99731966D01*
X198460000Y-99998633D02*
X198460000Y-99465300D01*
D12*
X190654819Y-104499999D02*
X190892914Y-104499999D01*
X190797676Y-104738094D02*
X190892914Y-104499999D01*
X190892914Y-104499999D02*
X190797676Y-104261904D01*
X191083390Y-104642856D02*
X190892914Y-104499999D01*
X190892914Y-104499999D02*
X191083390Y-104357142D01*
D11*
X200219900Y-98078227D02*
X200191328Y-98106799D01*
X200191328Y-98106799D02*
X200105614Y-98135370D01*
X200105614Y-98135370D02*
X200048471Y-98135370D01*
X200048471Y-98135370D02*
X199962757Y-98106799D01*
X199962757Y-98106799D02*
X199905614Y-98049656D01*
X199905614Y-98049656D02*
X199877043Y-97992513D01*
X199877043Y-97992513D02*
X199848471Y-97878227D01*
X199848471Y-97878227D02*
X199848471Y-97792513D01*
X199848471Y-97792513D02*
X199877043Y-97678227D01*
X199877043Y-97678227D02*
X199905614Y-97621084D01*
X199905614Y-97621084D02*
X199962757Y-97563941D01*
X199962757Y-97563941D02*
X200048471Y-97535370D01*
X200048471Y-97535370D02*
X200105614Y-97535370D01*
X200105614Y-97535370D02*
X200191328Y-97563941D01*
X200191328Y-97563941D02*
X200219900Y-97592513D01*
X200734186Y-97535370D02*
X200619900Y-97535370D01*
X200619900Y-97535370D02*
X200562757Y-97563941D01*
X200562757Y-97563941D02*
X200534186Y-97592513D01*
X200534186Y-97592513D02*
X200477043Y-97678227D01*
X200477043Y-97678227D02*
X200448471Y-97792513D01*
X200448471Y-97792513D02*
X200448471Y-98021084D01*
X200448471Y-98021084D02*
X200477043Y-98078227D01*
X200477043Y-98078227D02*
X200505614Y-98106799D01*
X200505614Y-98106799D02*
X200562757Y-98135370D01*
X200562757Y-98135370D02*
X200677043Y-98135370D01*
X200677043Y-98135370D02*
X200734186Y-98106799D01*
X200734186Y-98106799D02*
X200762757Y-98078227D01*
X200762757Y-98078227D02*
X200791328Y-98021084D01*
X200791328Y-98021084D02*
X200791328Y-97878227D01*
X200791328Y-97878227D02*
X200762757Y-97821084D01*
X200762757Y-97821084D02*
X200734186Y-97792513D01*
X200734186Y-97792513D02*
X200677043Y-97763941D01*
X200677043Y-97763941D02*
X200562757Y-97763941D01*
X200562757Y-97763941D02*
X200505614Y-97792513D01*
X200505614Y-97792513D02*
X200477043Y-97821084D01*
X200477043Y-97821084D02*
X200448471Y-97878227D01*
X190592371Y-104859999D02*
X190306657Y-105059999D01*
X190592371Y-105202856D02*
X189992371Y-105202856D01*
X189992371Y-105202856D02*
X189992371Y-104974285D01*
X189992371Y-104974285D02*
X190020942Y-104917142D01*
X190020942Y-104917142D02*
X190049514Y-104888571D01*
X190049514Y-104888571D02*
X190106657Y-104859999D01*
X190106657Y-104859999D02*
X190192371Y-104859999D01*
X190192371Y-104859999D02*
X190249514Y-104888571D01*
X190249514Y-104888571D02*
X190278085Y-104917142D01*
X190278085Y-104917142D02*
X190306657Y-104974285D01*
X190306657Y-104974285D02*
X190306657Y-105202856D01*
X190592371Y-104288571D02*
X190592371Y-104631428D01*
X190592371Y-104459999D02*
X189992371Y-104459999D01*
X189992371Y-104459999D02*
X190078085Y-104517142D01*
X190078085Y-104517142D02*
X190135228Y-104574285D01*
X190135228Y-104574285D02*
X190163800Y-104631428D01*
X190562371Y-97509999D02*
X190276657Y-97709999D01*
X190562371Y-97852856D02*
X189962371Y-97852856D01*
X189962371Y-97852856D02*
X189962371Y-97624285D01*
X189962371Y-97624285D02*
X189990942Y-97567142D01*
X189990942Y-97567142D02*
X190019514Y-97538571D01*
X190019514Y-97538571D02*
X190076657Y-97509999D01*
X190076657Y-97509999D02*
X190162371Y-97509999D01*
X190162371Y-97509999D02*
X190219514Y-97538571D01*
X190219514Y-97538571D02*
X190248085Y-97567142D01*
X190248085Y-97567142D02*
X190276657Y-97624285D01*
X190276657Y-97624285D02*
X190276657Y-97852856D01*
X190019514Y-97281428D02*
X189990942Y-97252856D01*
X189990942Y-97252856D02*
X189962371Y-97195714D01*
X189962371Y-97195714D02*
X189962371Y-97052856D01*
X189962371Y-97052856D02*
X189990942Y-96995714D01*
X189990942Y-96995714D02*
X190019514Y-96967142D01*
X190019514Y-96967142D02*
X190076657Y-96938571D01*
X190076657Y-96938571D02*
X190133800Y-96938571D01*
X190133800Y-96938571D02*
X190219514Y-96967142D01*
X190219514Y-96967142D02*
X190562371Y-97309999D01*
X190562371Y-97309999D02*
X190562371Y-96938571D01*
D10*
%TO.C,C17*%
X199369871Y-111122501D02*
X199695429Y-111122501D01*
X199369871Y-110102501D02*
X199695429Y-110102501D01*
D14*
%TO.C,U5*%
X199067600Y-106550000D02*
X197717600Y-106550000D01*
X200520900Y-108487861D02*
X200520900Y-107812139D01*
D10*
%TO.C,J3*%
X208680000Y-99330000D02*
X208680000Y-96730000D01*
X208680000Y-96730000D02*
X211280000Y-96730000D01*
X206080000Y-99330000D02*
X206080000Y-104470000D01*
X206080000Y-98060000D02*
X206080000Y-96730000D01*
X206080000Y-96730000D02*
X207410000Y-96730000D01*
X206080000Y-104470000D02*
X211280000Y-104470000D01*
X206080000Y-99330000D02*
X208680000Y-99330000D01*
X211280000Y-96730000D02*
X211280000Y-104470000D01*
%TO.C,C2*%
X197292650Y-107600280D02*
X197292650Y-107274722D01*
X196272650Y-107600280D02*
X196272650Y-107274722D01*
%TO.C,C1*%
X192444621Y-97197500D02*
X192770179Y-97197500D01*
X192444621Y-96177500D02*
X192770179Y-96177500D01*
%TO.C,C3*%
X202767650Y-108000280D02*
X202767650Y-107674722D01*
X201747650Y-108000280D02*
X201747650Y-107674722D01*
%TO.C,C8*%
X194270179Y-105797500D02*
X193944621Y-105797500D01*
X194270179Y-104777500D02*
X193944621Y-104777500D01*
%TO.C,C15*%
X197317400Y-101962779D02*
X197317400Y-101637221D01*
X196297400Y-101962779D02*
X196297400Y-101637221D01*
%TO.C,R9*%
X200124721Y-104595500D02*
X200450279Y-104595500D01*
X200124721Y-105615500D02*
X200450279Y-105615500D01*
%TO.C,R8*%
X203220000Y-102922779D02*
X203220000Y-102597221D01*
X202200000Y-102922779D02*
X202200000Y-102597221D01*
%TO.C,U1*%
X196236300Y-103108400D02*
X196236300Y-98866600D01*
X190978500Y-98866600D02*
X190978500Y-103108400D01*
%TO.C,C5*%
X200246121Y-100842999D02*
X200571679Y-100842999D01*
X200246121Y-99822999D02*
X200571679Y-99822999D01*
D14*
%TO.C,U3*%
X200940800Y-102905861D02*
X200940800Y-102230139D01*
X199527500Y-100918000D02*
X198127500Y-100918000D01*
D10*
%TO.C,C6*%
X200247121Y-98402999D02*
X200572679Y-98402999D01*
X200247121Y-99422999D02*
X200572679Y-99422999D01*
%TO.C,R1*%
X189820000Y-102477221D02*
X189820000Y-102802779D01*
X190840000Y-102477221D02*
X190840000Y-102802779D01*
%TO.C,R2*%
X190810000Y-99337221D02*
X190810000Y-99662779D01*
X189790000Y-99337221D02*
X189790000Y-99662779D01*
%TD*%
M02*
