%TF.GenerationSoftware,KiCad,Pcbnew,9.0.7*%
%TF.CreationDate,2026-02-15T20:11:00-05:00*%
%TF.ProjectId,bias_generator_LT8362,62696173-5f67-4656-9e65-7261746f725f,rev?*%
%TF.SameCoordinates,Original*%
%TF.FileFunction,Soldermask,Bot*%
%TF.FilePolarity,Negative*%
%FSLAX46Y46*%
G04 Gerber Fmt 4.6, Leading zero omitted, Abs format (unit mm)*
G04 Created by KiCad (PCBNEW 9.0.7) date 2026-02-15 20:11:00*
%MOMM*%
%LPD*%
G01*
G04 APERTURE LIST*
G04 Aperture macros list*
%AMRoundRect*
0 Rectangle with rounded corners*
0 $1 Rounding radius*
0 $2 $3 $4 $5 $6 $7 $8 $9 X,Y pos of 4 corners*
0 Add a 4 corners polygon primitive as box body*
4,1,4,$2,$3,$4,$5,$6,$7,$8,$9,$2,$3,0*
0 Add four circle primitives for the rounded corners*
1,1,$1+$1,$2,$3*
1,1,$1+$1,$4,$5*
1,1,$1+$1,$6,$7*
1,1,$1+$1,$8,$9*
0 Add four rect primitives between the rounded corners*
20,1,$1+$1,$2,$3,$4,$5,0*
20,1,$1+$1,$4,$5,$6,$7,0*
20,1,$1+$1,$6,$7,$8,$9,0*
20,1,$1+$1,$8,$9,$2,$3,0*%
G04 Aperture macros list end*
%ADD10C,0.704800*%
%ADD11R,1.700000X1.700000*%
%ADD12O,1.700000X1.700000*%
%ADD13RoundRect,0.090000X-0.210000X-0.210000X0.210000X-0.210000X0.210000X0.210000X-0.210000X0.210000X0*%
%ADD14RoundRect,0.150000X-0.850000X-0.350000X0.850000X-0.350000X0.850000X0.350000X-0.850000X0.350000X0*%
%ADD15RoundRect,0.250000X0.176777X-0.707107X0.707107X-0.176777X-0.176777X0.707107X-0.707107X0.176777X0*%
%ADD16C,1.000000*%
%ADD17R,2.510000X1.000000*%
G04 APERTURE END LIST*
D10*
%TO.C,J1*%
X187629800Y-90881200D03*
X181279800Y-90881200D03*
%TD*%
D11*
%TO.C,J3*%
X207391000Y-98260000D03*
D12*
X209931000Y-98260000D03*
X207391000Y-100800000D03*
X209931000Y-100800000D03*
X207391000Y-103340000D03*
X209931000Y-103340000D03*
%TD*%
D13*
%TO.C,J4*%
X196800000Y-97150000D03*
X197750000Y-97150000D03*
X198700000Y-97150000D03*
X199600000Y-97150000D03*
X200500000Y-97150000D03*
X201400000Y-97150000D03*
X202350000Y-97150000D03*
X203300000Y-97150000D03*
X203300000Y-98550000D03*
X202350000Y-98550000D03*
X201400000Y-98550000D03*
X200500000Y-98550000D03*
X199600000Y-98550000D03*
X198700000Y-98550000D03*
X197750000Y-98550000D03*
X196800000Y-98550000D03*
D14*
X198025000Y-99800988D03*
X198050000Y-95925000D03*
X202050000Y-95925000D03*
X202050988Y-99800988D03*
%TD*%
D15*
%TO.C,C8*%
X177110051Y-112489949D03*
X179089949Y-110510051D03*
%TD*%
D16*
%TO.C,TP1*%
X184400000Y-110250000D03*
%TD*%
%TO.C,TP_BoostEnable1*%
X178925000Y-114920000D03*
%TD*%
%TO.C,TP_MCP_Out1*%
X185500000Y-117500000D03*
%TD*%
%TO.C,HV8*%
X180400000Y-99000000D03*
%TD*%
%TO.C,HV2*%
X198374000Y-115189000D03*
%TD*%
%TO.C,HV6*%
X181525000Y-113425000D03*
%TD*%
%TO.C,TP_GND1*%
X189500000Y-111000000D03*
%TD*%
%TO.C,TP_1.22V1*%
X191430000Y-104260000D03*
%TD*%
%TO.C,HV3*%
X205200000Y-118000000D03*
%TD*%
%TO.C,HV9*%
X192880000Y-108770000D03*
%TD*%
%TO.C,HV4*%
X188440000Y-108710000D03*
%TD*%
D17*
%TO.C,J2*%
X184904000Y-96012000D03*
X188214000Y-98552000D03*
X184904000Y-101092000D03*
X188214000Y-103632000D03*
%TD*%
D16*
%TO.C,HV5*%
X209800000Y-109200000D03*
%TD*%
%TO.C,HV7*%
X187650000Y-90900000D03*
%TD*%
M02*
