%TF.GenerationSoftware,KiCad,Pcbnew,9.0.7*%
%TF.CreationDate,2026-02-15T20:11:06-05:00*%
%TF.ProjectId,psu,7073752e-6b69-4636-9164-5f7063625858,rev?*%
%TF.SameCoordinates,Original*%
%TF.FileFunction,Soldermask,Top*%
%TF.FilePolarity,Negative*%
%FSLAX46Y46*%
G04 Gerber Fmt 4.6, Leading zero omitted, Abs format (unit mm)*
G04 Created by KiCad (PCBNEW 9.0.7) date 2026-02-15 20:11:06*
%MOMM*%
%LPD*%
G01*
G04 APERTURE LIST*
G04 Aperture macros list*
%AMRoundRect*
0 Rectangle with rounded corners*
0 $1 Rounding radius*
0 $2 $3 $4 $5 $6 $7 $8 $9 X,Y pos of 4 corners*
0 Add a 4 corners polygon primitive as box body*
4,1,4,$2,$3,$4,$5,$6,$7,$8,$9,$2,$3,0*
0 Add four circle primitives for the rounded corners*
1,1,$1+$1,$2,$3*
1,1,$1+$1,$4,$5*
1,1,$1+$1,$6,$7*
1,1,$1+$1,$8,$9*
0 Add four rect primitives between the rounded corners*
20,1,$1+$1,$2,$3,$4,$5,0*
20,1,$1+$1,$4,$5,$6,$7,0*
20,1,$1+$1,$6,$7,$8,$9,0*
20,1,$1+$1,$8,$9,$2,$3,0*%
G04 Aperture macros list end*
%ADD10RoundRect,0.218750X-0.218750X-0.256250X0.218750X-0.256250X0.218750X0.256250X-0.218750X0.256250X0*%
%ADD11R,1.473200X0.558800*%
%ADD12R,1.700000X1.700000*%
%ADD13O,1.700000X1.700000*%
%ADD14RoundRect,0.218750X0.256250X-0.218750X0.256250X0.218750X-0.256250X0.218750X-0.256250X-0.218750X0*%
%ADD15RoundRect,0.218750X0.218750X0.256250X-0.218750X0.256250X-0.218750X-0.256250X0.218750X-0.256250X0*%
%ADD16R,0.533400X1.460500*%
%ADD17RoundRect,0.218750X-0.256250X0.218750X-0.256250X-0.218750X0.256250X-0.218750X0.256250X0.218750X0*%
G04 APERTURE END LIST*
D10*
%TO.C,C17*%
X198745150Y-110612501D03*
X200320150Y-110612501D03*
%TD*%
D11*
%TO.C,U5*%
X198400000Y-107199999D03*
X198400000Y-108150000D03*
X198400000Y-109100001D03*
X200635200Y-109100001D03*
X200635200Y-107199999D03*
%TD*%
D12*
%TO.C,J3*%
X207410000Y-98060000D03*
D13*
X209950000Y-98060000D03*
X207410000Y-100600000D03*
X209950000Y-100600000D03*
X207410000Y-103140000D03*
X209950000Y-103140000D03*
%TD*%
D14*
%TO.C,C2*%
X196782650Y-108225001D03*
X196782650Y-106650001D03*
%TD*%
D10*
%TO.C,C1*%
X191819900Y-96687500D03*
X193394900Y-96687500D03*
%TD*%
D14*
%TO.C,C3*%
X202257650Y-108625001D03*
X202257650Y-107050001D03*
%TD*%
D15*
%TO.C,C8*%
X194894900Y-105287500D03*
X193319900Y-105287500D03*
%TD*%
D14*
%TO.C,C15*%
X196807400Y-102587500D03*
X196807400Y-101012500D03*
%TD*%
D10*
%TO.C,R9*%
X199500000Y-105105500D03*
X201075000Y-105105500D03*
%TD*%
D14*
%TO.C,R8*%
X202710000Y-103547500D03*
X202710000Y-101972500D03*
%TD*%
D16*
%TO.C,U1*%
X191702400Y-103711650D03*
X192972400Y-103711650D03*
X194242400Y-103711650D03*
X195512400Y-103711650D03*
X195512400Y-98263350D03*
X194242400Y-98263350D03*
X192972400Y-98263350D03*
X191702400Y-98263350D03*
%TD*%
D10*
%TO.C,C5*%
X199621400Y-100332999D03*
X201196400Y-100332999D03*
%TD*%
D11*
%TO.C,U3*%
X198819900Y-101617999D03*
X198819900Y-102568000D03*
X198819900Y-103518001D03*
X201055100Y-103518001D03*
X201055100Y-101617999D03*
%TD*%
D10*
%TO.C,C6*%
X199622400Y-98912999D03*
X201197400Y-98912999D03*
%TD*%
D17*
%TO.C,R1*%
X190330000Y-101852500D03*
X190330000Y-103427500D03*
%TD*%
%TO.C,R2*%
X190300000Y-98712500D03*
X190300000Y-100287500D03*
%TD*%
M02*
