%TF.GenerationSoftware,KiCad,Pcbnew,9.0.7*%
%TF.CreationDate,2026-02-15T20:11:06-05:00*%
%TF.ProjectId,psu,7073752e-6b69-4636-9164-5f7063625858,rev?*%
%TF.SameCoordinates,Original*%
%TF.FileFunction,Copper,L2,Bot*%
%TF.FilePolarity,Positive*%
%FSLAX46Y46*%
G04 Gerber Fmt 4.6, Leading zero omitted, Abs format (unit mm)*
G04 Created by KiCad (PCBNEW 9.0.7) date 2026-02-15 20:11:06*
%MOMM*%
%LPD*%
G01*
G04 APERTURE LIST*
%TA.AperFunction,ComponentPad*%
%ADD10R,1.700000X1.700000*%
%TD*%
%TA.AperFunction,ComponentPad*%
%ADD11O,1.700000X1.700000*%
%TD*%
%TA.AperFunction,ViaPad*%
%ADD12C,0.600000*%
%TD*%
%TA.AperFunction,ViaPad*%
%ADD13C,0.800000*%
%TD*%
%TA.AperFunction,Conductor*%
%ADD14C,0.300000*%
%TD*%
G04 APERTURE END LIST*
D10*
%TO.P,J3,1,Pin_1*%
%TO.N,+5V*%
X207410000Y-98060000D03*
D11*
%TO.P,J3,2,Pin_2*%
%TO.N,VSSA*%
X209950000Y-98060000D03*
%TO.P,J3,3,Pin_3*%
%TO.N,VDDA*%
X207410000Y-100600000D03*
%TO.P,J3,4,Pin_4*%
%TO.N,N/C*%
X209950000Y-100600000D03*
%TO.P,J3,5,Pin_5*%
X207410000Y-103140000D03*
%TO.P,J3,6,Pin_6*%
%TO.N,GND*%
X209950000Y-103140000D03*
%TD*%
D12*
%TO.N,GND*%
X198550000Y-105120000D03*
X198809900Y-100262999D03*
X199620000Y-108130000D03*
X198082650Y-110537501D03*
X198750000Y-98920000D03*
X205100000Y-98840000D03*
X202200000Y-109500000D03*
X207180000Y-96480000D03*
X204400000Y-103600000D03*
X190900000Y-97600000D03*
X194800000Y-102300000D03*
X204700000Y-96200000D03*
X195960000Y-108270000D03*
D13*
%TO.N,+5V*%
X194600000Y-96300000D03*
D12*
X192430000Y-106830000D03*
%TD*%
D14*
%TO.N,+5V*%
X207050000Y-97700000D02*
X207410000Y-98060000D01*
X189600000Y-104100000D02*
X192317501Y-106817501D01*
X196000000Y-97700000D02*
X202700000Y-97700000D01*
X204200000Y-96800000D02*
X205460000Y-98060000D01*
X205460000Y-98060000D02*
X207410000Y-98060000D01*
X189600000Y-97700000D02*
X189600000Y-104100000D01*
X191000000Y-96300000D02*
X189600000Y-97700000D01*
X203600000Y-96800000D02*
X204200000Y-96800000D01*
X194600000Y-96300000D02*
X196000000Y-97700000D01*
X202700000Y-97700000D02*
X203600000Y-96800000D01*
X194600000Y-96300000D02*
X191000000Y-96300000D01*
%TD*%
%TA.AperFunction,Conductor*%
%TO.N,GND*%
G36*
X204730509Y-90314095D02*
G01*
X204748059Y-90320117D01*
X204944454Y-90408635D01*
X204949772Y-90411224D01*
X205536703Y-90718731D01*
X205541858Y-90721630D01*
X206109609Y-91063315D01*
X206114585Y-91066513D01*
X206661110Y-91441144D01*
X206665887Y-91444631D01*
X207189330Y-91850936D01*
X207193893Y-91854699D01*
X207692374Y-92291218D01*
X207696707Y-92295245D01*
X208168534Y-92760496D01*
X208172621Y-92764771D01*
X208616107Y-93257093D01*
X208619934Y-93261603D01*
X209033540Y-93779284D01*
X209037093Y-93784012D01*
X209419361Y-94325229D01*
X209422629Y-94330159D01*
X209772238Y-94893044D01*
X209775209Y-94898159D01*
X210090935Y-95480738D01*
X210093598Y-95486019D01*
X210374316Y-96086216D01*
X210376662Y-96091645D01*
X210621411Y-96707406D01*
X210623433Y-96712965D01*
X210760920Y-97129002D01*
X210765131Y-97173307D01*
X210749702Y-97215051D01*
X210717689Y-97245967D01*
X210675433Y-97259931D01*
X210631302Y-97254178D01*
X210602228Y-97237431D01*
X210543406Y-97188769D01*
X210535502Y-97183438D01*
X210362879Y-97090101D01*
X210354090Y-97086406D01*
X210166631Y-97028378D01*
X210157280Y-97026459D01*
X209962134Y-97005948D01*
X209952579Y-97005882D01*
X209757166Y-97023665D01*
X209747793Y-97025453D01*
X209559552Y-97080856D01*
X209550696Y-97084434D01*
X209376797Y-97175347D01*
X209368817Y-97180568D01*
X209215883Y-97303530D01*
X209209072Y-97310200D01*
X209082937Y-97460521D01*
X209077542Y-97468400D01*
X208983008Y-97640357D01*
X208979248Y-97649129D01*
X208919916Y-97836170D01*
X208917933Y-97845501D01*
X208896058Y-98040518D01*
X208895925Y-98050052D01*
X208912345Y-98245593D01*
X208914067Y-98254977D01*
X208968157Y-98443611D01*
X208971665Y-98452471D01*
X209061368Y-98627014D01*
X209066535Y-98635033D01*
X209188420Y-98788813D01*
X209195047Y-98795676D01*
X209344489Y-98922860D01*
X209352321Y-98928303D01*
X209523612Y-99024035D01*
X209532360Y-99027858D01*
X209718993Y-99088498D01*
X209728296Y-99090544D01*
X209923159Y-99113779D01*
X209932693Y-99113978D01*
X210128343Y-99098924D01*
X210137745Y-99097266D01*
X210326739Y-99044498D01*
X210335639Y-99041046D01*
X210510796Y-98952568D01*
X210518848Y-98947458D01*
X210673480Y-98826647D01*
X210680387Y-98820070D01*
X210808611Y-98671520D01*
X210814114Y-98663718D01*
X210911035Y-98493107D01*
X210916908Y-98479918D01*
X210917805Y-98480317D01*
X210937512Y-98447862D01*
X210974827Y-98423609D01*
X211018970Y-98417949D01*
X211061197Y-98432002D01*
X211093145Y-98462985D01*
X211107288Y-98497529D01*
X211136944Y-98643184D01*
X211137952Y-98649012D01*
X211231534Y-99304989D01*
X211232195Y-99310866D01*
X211286831Y-99971222D01*
X211287145Y-99977129D01*
X211302644Y-100639560D01*
X211302607Y-100645474D01*
X211278915Y-101307681D01*
X211278529Y-101313583D01*
X211215731Y-101973204D01*
X211214996Y-101979074D01*
X211116968Y-102610270D01*
X211100524Y-102651624D01*
X211067765Y-102681748D01*
X211025180Y-102694676D01*
X210981203Y-102687846D01*
X210944544Y-102662612D01*
X210928465Y-102639151D01*
X210893054Y-102567344D01*
X210888377Y-102559712D01*
X210772905Y-102405077D01*
X210766911Y-102398420D01*
X210625197Y-102267420D01*
X210618095Y-102261971D01*
X210454869Y-102158984D01*
X210446901Y-102154924D01*
X210267643Y-102083406D01*
X210259066Y-102080866D01*
X210090338Y-102047304D01*
X210077902Y-102048776D01*
X210076000Y-102056067D01*
X210076000Y-104217619D01*
X210079972Y-104229845D01*
X210080656Y-104230341D01*
X210086241Y-104230818D01*
X210203204Y-104213859D01*
X210211908Y-104211769D01*
X210394667Y-104149731D01*
X210402843Y-104146091D01*
X210565167Y-104055185D01*
X210607862Y-104042624D01*
X210651778Y-104049833D01*
X210688218Y-104075382D01*
X210709964Y-104114211D01*
X210712709Y-104158631D01*
X210708583Y-104174984D01*
X210574881Y-104563375D01*
X210572791Y-104568908D01*
X210320447Y-105181590D01*
X210318034Y-105186990D01*
X210029909Y-105783681D01*
X210027181Y-105788929D01*
X209704273Y-106367561D01*
X209701239Y-106372638D01*
X209344709Y-106931130D01*
X209341380Y-106936020D01*
X208952432Y-107472489D01*
X208948820Y-107477172D01*
X208528848Y-107989691D01*
X208524966Y-107994153D01*
X208075412Y-108480967D01*
X208071273Y-108485192D01*
X207593753Y-108944548D01*
X207589371Y-108948521D01*
X207085515Y-109378852D01*
X207080905Y-109382558D01*
X206552478Y-109782357D01*
X206547658Y-109785785D01*
X205996530Y-110153636D01*
X205991516Y-110156773D01*
X205419605Y-110491397D01*
X205414413Y-110494231D01*
X204823705Y-110794463D01*
X204818356Y-110796986D01*
X204210951Y-111061763D01*
X204205461Y-111063965D01*
X203583453Y-111292371D01*
X203577843Y-111294245D01*
X202943432Y-111485476D01*
X202937721Y-111487015D01*
X202293086Y-111640410D01*
X202287294Y-111641608D01*
X201634754Y-111756617D01*
X201628902Y-111757471D01*
X200970668Y-111833704D01*
X200964775Y-111834210D01*
X200303218Y-111871392D01*
X200297305Y-111871550D01*
X199634679Y-111869555D01*
X199628767Y-111869362D01*
X198967425Y-111828196D01*
X198961536Y-111827654D01*
X198303804Y-111747463D01*
X198297956Y-111746574D01*
X197646098Y-111627635D01*
X197640313Y-111626401D01*
X196996639Y-111469133D01*
X196990938Y-111467560D01*
X196357665Y-111272506D01*
X196352066Y-111270599D01*
X195731463Y-111038459D01*
X195725987Y-111036224D01*
X195120161Y-110767783D01*
X195114827Y-110765228D01*
X194525957Y-110461453D01*
X194520783Y-110458587D01*
X193950897Y-110120527D01*
X193945901Y-110117360D01*
X193396987Y-109746189D01*
X193392188Y-109742733D01*
X192866189Y-109339770D01*
X192861602Y-109336035D01*
X192360349Y-108902679D01*
X192355991Y-108898680D01*
X191881229Y-108436442D01*
X191877115Y-108432193D01*
X191430507Y-107942691D01*
X191426651Y-107938206D01*
X191009769Y-107423162D01*
X191006186Y-107418456D01*
X190620486Y-106879669D01*
X190617187Y-106874760D01*
X190264018Y-106314120D01*
X190261014Y-106309024D01*
X189941597Y-105728461D01*
X189938901Y-105723197D01*
X189654373Y-105124782D01*
X189651992Y-105119368D01*
X189514949Y-104780857D01*
X189507847Y-104736923D01*
X189520510Y-104694258D01*
X189550430Y-104661313D01*
X189591682Y-104644613D01*
X189636095Y-104647465D01*
X189674872Y-104669304D01*
X189678352Y-104672620D01*
X191916182Y-106910450D01*
X191939859Y-106948133D01*
X191941788Y-106954271D01*
X191946765Y-106972099D01*
X191998765Y-107090279D01*
X192006071Y-107102016D01*
X192089147Y-107200847D01*
X192099453Y-107210062D01*
X192206939Y-107281611D01*
X192219413Y-107287561D01*
X192342651Y-107326062D01*
X192356298Y-107328272D01*
X192485396Y-107330639D01*
X192499105Y-107328932D01*
X192623683Y-107294968D01*
X192636365Y-107289480D01*
X192746397Y-107221920D01*
X192757030Y-107213092D01*
X192843678Y-107117364D01*
X192851404Y-107105909D01*
X192907705Y-106989705D01*
X192911905Y-106976542D01*
X192933868Y-106845998D01*
X192934543Y-106838482D01*
X192934599Y-106833852D01*
X192934108Y-106826311D01*
X192915343Y-106695278D01*
X192911462Y-106682007D01*
X192858022Y-106564471D01*
X192850576Y-106552827D01*
X192766292Y-106455011D01*
X192755880Y-106445928D01*
X192647534Y-106375702D01*
X192634976Y-106369899D01*
X192511283Y-106332907D01*
X192497604Y-106330863D01*
X192365135Y-106330054D01*
X192321808Y-106319886D01*
X192295035Y-106300767D01*
X189978789Y-103984521D01*
X189955112Y-103946838D01*
X189949500Y-103913810D01*
X189949500Y-103130052D01*
X206355925Y-103130052D01*
X206372345Y-103325593D01*
X206374067Y-103334977D01*
X206428157Y-103523611D01*
X206431665Y-103532471D01*
X206521368Y-103707014D01*
X206526535Y-103715033D01*
X206648420Y-103868813D01*
X206655047Y-103875676D01*
X206804489Y-104002860D01*
X206812321Y-104008303D01*
X206983612Y-104104035D01*
X206992360Y-104107858D01*
X207178993Y-104168498D01*
X207188296Y-104170544D01*
X207383159Y-104193779D01*
X207392693Y-104193978D01*
X207588343Y-104178924D01*
X207597745Y-104177266D01*
X207786739Y-104124498D01*
X207795639Y-104121046D01*
X207970796Y-104032568D01*
X207978848Y-104027458D01*
X208133480Y-103906647D01*
X208140387Y-103900070D01*
X208268611Y-103751520D01*
X208274114Y-103743718D01*
X208371035Y-103573107D01*
X208374916Y-103564390D01*
X208436857Y-103378189D01*
X208438972Y-103368877D01*
X208450903Y-103274432D01*
X208857374Y-103274432D01*
X208859586Y-103308175D01*
X208860986Y-103317015D01*
X208908490Y-103504065D01*
X208911481Y-103512510D01*
X208992274Y-103687764D01*
X208996755Y-103695525D01*
X209108143Y-103853135D01*
X209113953Y-103859938D01*
X209252198Y-103994610D01*
X209259144Y-104000235D01*
X209419617Y-104107459D01*
X209427488Y-104111733D01*
X209604802Y-104187913D01*
X209613325Y-104190682D01*
X209801558Y-104233275D01*
X209809483Y-104234319D01*
X209821584Y-104230906D01*
X209823841Y-104228043D01*
X209824000Y-104227154D01*
X209824000Y-103280838D01*
X209820027Y-103268612D01*
X209816431Y-103266000D01*
X208871592Y-103266000D01*
X208859366Y-103269972D01*
X208857633Y-103272357D01*
X208857374Y-103274432D01*
X208450903Y-103274432D01*
X208452860Y-103258942D01*
X208463829Y-103172105D01*
X208464210Y-103166668D01*
X208464543Y-103142786D01*
X208464314Y-103137310D01*
X208452138Y-103013122D01*
X208450792Y-102999391D01*
X208859892Y-102999391D01*
X208862399Y-103011996D01*
X208863537Y-103013047D01*
X208867877Y-103014000D01*
X209809162Y-103014000D01*
X209821387Y-103010027D01*
X209824000Y-103006431D01*
X209824000Y-102061115D01*
X209820027Y-102048889D01*
X209819916Y-102048809D01*
X209813179Y-102048323D01*
X209668763Y-102073138D01*
X209660121Y-102075454D01*
X209479051Y-102142254D01*
X209470988Y-102146101D01*
X209305110Y-102244787D01*
X209297882Y-102250038D01*
X209152777Y-102377294D01*
X209146622Y-102383780D01*
X209027128Y-102535356D01*
X209022262Y-102542850D01*
X208932396Y-102713655D01*
X208928973Y-102721920D01*
X208871741Y-102906239D01*
X208869882Y-102914982D01*
X208859892Y-102999391D01*
X208450792Y-102999391D01*
X208444961Y-102939928D01*
X208443110Y-102930581D01*
X208386392Y-102742723D01*
X208382756Y-102733901D01*
X208290632Y-102560639D01*
X208285347Y-102552685D01*
X208161330Y-102400626D01*
X208154597Y-102393846D01*
X208003406Y-102268769D01*
X207995502Y-102263438D01*
X207822879Y-102170101D01*
X207814090Y-102166406D01*
X207626631Y-102108378D01*
X207617280Y-102106459D01*
X207422134Y-102085948D01*
X207412579Y-102085882D01*
X207217166Y-102103665D01*
X207207793Y-102105453D01*
X207019552Y-102160856D01*
X207010696Y-102164434D01*
X206836797Y-102255347D01*
X206828817Y-102260568D01*
X206675883Y-102383530D01*
X206669072Y-102390200D01*
X206542937Y-102540521D01*
X206537542Y-102548400D01*
X206443008Y-102720357D01*
X206439248Y-102729129D01*
X206379916Y-102916170D01*
X206377933Y-102925501D01*
X206356058Y-103120518D01*
X206355925Y-103130052D01*
X189949500Y-103130052D01*
X189949500Y-100590052D01*
X206355925Y-100590052D01*
X206372345Y-100785593D01*
X206374067Y-100794977D01*
X206428157Y-100983611D01*
X206431665Y-100992471D01*
X206521368Y-101167014D01*
X206526535Y-101175033D01*
X206648420Y-101328813D01*
X206655047Y-101335676D01*
X206804489Y-101462860D01*
X206812321Y-101468303D01*
X206983612Y-101564035D01*
X206992360Y-101567858D01*
X207178993Y-101628498D01*
X207188296Y-101630544D01*
X207383159Y-101653779D01*
X207392693Y-101653978D01*
X207588343Y-101638924D01*
X207597745Y-101637266D01*
X207786739Y-101584498D01*
X207795639Y-101581046D01*
X207970796Y-101492568D01*
X207978848Y-101487458D01*
X208133480Y-101366647D01*
X208140387Y-101360070D01*
X208268611Y-101211520D01*
X208274114Y-101203718D01*
X208371035Y-101033107D01*
X208374916Y-101024390D01*
X208436857Y-100838189D01*
X208438972Y-100828877D01*
X208463828Y-100632122D01*
X208464210Y-100626668D01*
X208464543Y-100602788D01*
X208464332Y-100597727D01*
X208464332Y-100597721D01*
X208464314Y-100597311D01*
X208463602Y-100590052D01*
X208895925Y-100590052D01*
X208912345Y-100785593D01*
X208914067Y-100794977D01*
X208968157Y-100983611D01*
X208971665Y-100992471D01*
X209061368Y-101167014D01*
X209066535Y-101175033D01*
X209188420Y-101328813D01*
X209195047Y-101335676D01*
X209344489Y-101462860D01*
X209352321Y-101468303D01*
X209523612Y-101564035D01*
X209532360Y-101567858D01*
X209718993Y-101628498D01*
X209728296Y-101630544D01*
X209923159Y-101653779D01*
X209932693Y-101653978D01*
X210128343Y-101638924D01*
X210137745Y-101637266D01*
X210326739Y-101584498D01*
X210335639Y-101581046D01*
X210510796Y-101492568D01*
X210518848Y-101487458D01*
X210673480Y-101366647D01*
X210680387Y-101360070D01*
X210808611Y-101211520D01*
X210814114Y-101203718D01*
X210911035Y-101033107D01*
X210914916Y-101024390D01*
X210976857Y-100838189D01*
X210978972Y-100828877D01*
X211003828Y-100632122D01*
X211004210Y-100626668D01*
X211004543Y-100602786D01*
X211004314Y-100597310D01*
X210984961Y-100399928D01*
X210983110Y-100390581D01*
X210926392Y-100202723D01*
X210922756Y-100193901D01*
X210830632Y-100020639D01*
X210825347Y-100012685D01*
X210701330Y-99860626D01*
X210694597Y-99853846D01*
X210543406Y-99728769D01*
X210535502Y-99723438D01*
X210362879Y-99630101D01*
X210354090Y-99626406D01*
X210166631Y-99568378D01*
X210157280Y-99566459D01*
X209962134Y-99545948D01*
X209952579Y-99545882D01*
X209757166Y-99563665D01*
X209747793Y-99565453D01*
X209559552Y-99620856D01*
X209550696Y-99624434D01*
X209376797Y-99715347D01*
X209368817Y-99720568D01*
X209215883Y-99843530D01*
X209209072Y-99850200D01*
X209082937Y-100000521D01*
X209077542Y-100008400D01*
X208983008Y-100180357D01*
X208979248Y-100189129D01*
X208919916Y-100376170D01*
X208917933Y-100385501D01*
X208896058Y-100580518D01*
X208895925Y-100590052D01*
X208463602Y-100590052D01*
X208444961Y-100399928D01*
X208443110Y-100390581D01*
X208386392Y-100202723D01*
X208382756Y-100193901D01*
X208290632Y-100020639D01*
X208285347Y-100012685D01*
X208161330Y-99860626D01*
X208154597Y-99853846D01*
X208003406Y-99728769D01*
X207995502Y-99723438D01*
X207822879Y-99630101D01*
X207814090Y-99626406D01*
X207626631Y-99568378D01*
X207617280Y-99566459D01*
X207422134Y-99545948D01*
X207412579Y-99545882D01*
X207217166Y-99563665D01*
X207207793Y-99565453D01*
X207019552Y-99620856D01*
X207010696Y-99624434D01*
X206836797Y-99715347D01*
X206828817Y-99720568D01*
X206675883Y-99843530D01*
X206669072Y-99850200D01*
X206542937Y-100000521D01*
X206537542Y-100008400D01*
X206443008Y-100180357D01*
X206439248Y-100189129D01*
X206379916Y-100376170D01*
X206377933Y-100385501D01*
X206356058Y-100580518D01*
X206355925Y-100590052D01*
X189949500Y-100590052D01*
X189949500Y-97886190D01*
X189959403Y-97842802D01*
X189978789Y-97815479D01*
X191115479Y-96678789D01*
X191153162Y-96655112D01*
X191186190Y-96649500D01*
X194063213Y-96649500D01*
X194106601Y-96659403D01*
X194141396Y-96687151D01*
X194142549Y-96688624D01*
X194168521Y-96722472D01*
X194177531Y-96731482D01*
X194292566Y-96819751D01*
X194303598Y-96826120D01*
X194437561Y-96881610D01*
X194449873Y-96884909D01*
X194593629Y-96903835D01*
X194606365Y-96903835D01*
X194648669Y-96898266D01*
X194692979Y-96902422D01*
X194731098Y-96925391D01*
X194732432Y-96926700D01*
X195718962Y-97913230D01*
X195732261Y-97929697D01*
X195733534Y-97931669D01*
X195744280Y-97943479D01*
X195762944Y-97958192D01*
X195767383Y-97962136D01*
X195767385Y-97962135D01*
X195776683Y-97970013D01*
X195788167Y-97978219D01*
X195791938Y-97981050D01*
X195822939Y-98005489D01*
X195832462Y-98010725D01*
X195834512Y-98012015D01*
X195835112Y-98012309D01*
X195839305Y-98014487D01*
X195839884Y-98014805D01*
X195842110Y-98015738D01*
X195851873Y-98020520D01*
X195889702Y-98031834D01*
X195894182Y-98033290D01*
X195933298Y-98047026D01*
X195944431Y-98049423D01*
X195947944Y-98049575D01*
X195956161Y-98050270D01*
X195963685Y-98051220D01*
X196005515Y-98049577D01*
X196009441Y-98049500D01*
X202652052Y-98049500D01*
X202673099Y-98051740D01*
X202675390Y-98052233D01*
X202691351Y-98052986D01*
X202714953Y-98050193D01*
X202720880Y-98049843D01*
X202720880Y-98049840D01*
X202733015Y-98048837D01*
X202746955Y-98046517D01*
X202751621Y-98045853D01*
X202790812Y-98041214D01*
X202801247Y-98038183D01*
X202803611Y-98037644D01*
X202804253Y-98037425D01*
X202808760Y-98036000D01*
X202809380Y-98035819D01*
X202811607Y-98034908D01*
X202821898Y-98031384D01*
X202856650Y-98012633D01*
X202860850Y-98010493D01*
X202898223Y-97992547D01*
X202907787Y-97986371D01*
X202910395Y-97983981D01*
X202916690Y-97978669D01*
X202922671Y-97974029D01*
X202951075Y-97943303D01*
X202953796Y-97940472D01*
X203715479Y-97178789D01*
X203753162Y-97155112D01*
X203786190Y-97149500D01*
X204013810Y-97149500D01*
X204057198Y-97159403D01*
X204084521Y-97178789D01*
X205178962Y-98273230D01*
X205192261Y-98289697D01*
X205193534Y-98291669D01*
X205204280Y-98303479D01*
X205222944Y-98318192D01*
X205227383Y-98322136D01*
X205227385Y-98322135D01*
X205236683Y-98330013D01*
X205248167Y-98338219D01*
X205251938Y-98341050D01*
X205282939Y-98365489D01*
X205292462Y-98370725D01*
X205294512Y-98372015D01*
X205295112Y-98372309D01*
X205299305Y-98374487D01*
X205299884Y-98374805D01*
X205302110Y-98375738D01*
X205311873Y-98380520D01*
X205349702Y-98391834D01*
X205354182Y-98393290D01*
X205393298Y-98407026D01*
X205404431Y-98409423D01*
X205407944Y-98409575D01*
X205416161Y-98410270D01*
X205423685Y-98411220D01*
X205465515Y-98409577D01*
X205469441Y-98409500D01*
X206260500Y-98409500D01*
X206303888Y-98419403D01*
X206338683Y-98447151D01*
X206357993Y-98487248D01*
X206360500Y-98509500D01*
X206360500Y-98924832D01*
X206361439Y-98934370D01*
X206370193Y-98978378D01*
X206377434Y-98995860D01*
X206410808Y-99045807D01*
X206424192Y-99059191D01*
X206474139Y-99092565D01*
X206491621Y-99099806D01*
X206535629Y-99108560D01*
X206545168Y-99109500D01*
X208274832Y-99109500D01*
X208284370Y-99108560D01*
X208328378Y-99099806D01*
X208345860Y-99092565D01*
X208395807Y-99059191D01*
X208409191Y-99045807D01*
X208442565Y-98995860D01*
X208449806Y-98978378D01*
X208458560Y-98934370D01*
X208459500Y-98924832D01*
X208459500Y-97195167D01*
X208458560Y-97185629D01*
X208449806Y-97141621D01*
X208442565Y-97124139D01*
X208409191Y-97074192D01*
X208395807Y-97060808D01*
X208345860Y-97027434D01*
X208328378Y-97020193D01*
X208284370Y-97011439D01*
X208274832Y-97010500D01*
X206545168Y-97010500D01*
X206535629Y-97011439D01*
X206491621Y-97020193D01*
X206474139Y-97027434D01*
X206424192Y-97060808D01*
X206410808Y-97074192D01*
X206377434Y-97124139D01*
X206370193Y-97141621D01*
X206361439Y-97185629D01*
X206360500Y-97195167D01*
X206360500Y-97610500D01*
X206350597Y-97653888D01*
X206322849Y-97688683D01*
X206282752Y-97707993D01*
X206260500Y-97710500D01*
X205646190Y-97710500D01*
X205602802Y-97700597D01*
X205575479Y-97681211D01*
X204481038Y-96586770D01*
X204467739Y-96570303D01*
X204466465Y-96568330D01*
X204455719Y-96556520D01*
X204437056Y-96541808D01*
X204432616Y-96537863D01*
X204432615Y-96537865D01*
X204423316Y-96529986D01*
X204411833Y-96521781D01*
X204408062Y-96518950D01*
X204377060Y-96494510D01*
X204367538Y-96489275D01*
X204365487Y-96487984D01*
X204364888Y-96487691D01*
X204360695Y-96485513D01*
X204360115Y-96485194D01*
X204357890Y-96484262D01*
X204348126Y-96479479D01*
X204310298Y-96468166D01*
X204305818Y-96466710D01*
X204266701Y-96452973D01*
X204255568Y-96450576D01*
X204252056Y-96450425D01*
X204243839Y-96449730D01*
X204236314Y-96448779D01*
X204194485Y-96450423D01*
X204190559Y-96450500D01*
X203647948Y-96450500D01*
X203626901Y-96448260D01*
X203624609Y-96447766D01*
X203608648Y-96447013D01*
X203585047Y-96449807D01*
X203579119Y-96450156D01*
X203579120Y-96450160D01*
X203566984Y-96451162D01*
X203553045Y-96453483D01*
X203548379Y-96454147D01*
X203509187Y-96458785D01*
X203498752Y-96461817D01*
X203496380Y-96462357D01*
X203495729Y-96462580D01*
X203491246Y-96463998D01*
X203490618Y-96464180D01*
X203488391Y-96465093D01*
X203478097Y-96468617D01*
X203443336Y-96487374D01*
X203439136Y-96489514D01*
X203401775Y-96507454D01*
X203392212Y-96513627D01*
X203389605Y-96516019D01*
X203383310Y-96521331D01*
X203377328Y-96525970D01*
X203348925Y-96556697D01*
X203346204Y-96559528D01*
X202584521Y-97321211D01*
X202546838Y-97344888D01*
X202513810Y-97350500D01*
X201279184Y-97350500D01*
X201235796Y-97340597D01*
X201201001Y-97312849D01*
X201181691Y-97272752D01*
X201181691Y-97228248D01*
X201201001Y-97188151D01*
X201235796Y-97160403D01*
X201255315Y-97153390D01*
X201293347Y-97144041D01*
X201297613Y-97142783D01*
X201689191Y-97007578D01*
X201693357Y-97005922D01*
X202070957Y-96835520D01*
X202074937Y-96833500D01*
X202435389Y-96629332D01*
X202439172Y-96626954D01*
X202779481Y-96390717D01*
X202783032Y-96388003D01*
X203100342Y-96121678D01*
X203103634Y-96118648D01*
X203395287Y-95824469D01*
X203398286Y-95821153D01*
X203661878Y-95501542D01*
X203664549Y-95497984D01*
X203897852Y-95155637D01*
X203900191Y-95151843D01*
X204101236Y-94789656D01*
X204103235Y-94785631D01*
X204270374Y-94406576D01*
X204271983Y-94402423D01*
X204403807Y-94009692D01*
X204405035Y-94005391D01*
X204500443Y-93602263D01*
X204501273Y-93597863D01*
X204559468Y-93187715D01*
X204559892Y-93183277D01*
X204580352Y-92770244D01*
X204580575Y-92770255D01*
X204579683Y-92761982D01*
X204578614Y-92757211D01*
X204576202Y-92734015D01*
X204606977Y-90409961D01*
X204617454Y-90366707D01*
X204645660Y-90332283D01*
X204686009Y-90313506D01*
X204730509Y-90314095D01*
G37*
%TD.AperFunction*%
%TD*%
M02*
